<?xml version="1.0" encoding="UTF-8" standalone="no"?>
<!DOCTYPE svg PUBLIC "-//W3C//DTD SVG 1.1//EN" "http://www.w3.org/Graphics/SVG/1.1/DTD/svg11.dtd">
<svg width="100%" height="100%" viewBox="0 0 800 616" version="1.1" xmlns="http://www.w3.org/2000/svg" xmlns:xlink="http://www.w3.org/1999/xlink" xml:space="preserve" xmlns:serif="http://www.serif.com/" style="fill-rule:evenodd;clip-rule:evenodd;stroke-linejoin:round;stroke-miterlimit:2;fill: black;fill-opacity: 0.1;">
    <g transform="matrix(1,0,0,0.999937,0,-0.00903032)">
        <g transform="matrix(0.95196,0,0,1.07636,0,0)">
            <ellipse cx="8.404" cy="7.432" rx="4.404" ry="3.432"/>
        </g>
        <g transform="matrix(0.95196,0,0,1.07636,512.821,0.337838)">
            <ellipse cx="8.404" cy="7.432" rx="4.404" ry="3.432"/>
        </g>
        <g transform="matrix(0.95196,0,0,1.07636,256.41,-0.337838)">
            <ellipse cx="8.404" cy="7.432" rx="4.404" ry="3.432"/>
        </g>
        <g transform="matrix(0.95196,0,0,1.07636,769.231,3.55271e-15)">
            <ellipse cx="8.404" cy="7.432" rx="4.404" ry="3.432"/>
        </g>
        <g transform="matrix(0.95196,0,0,1.07636,128.205,0)">
            <ellipse cx="8.404" cy="7.432" rx="4.404" ry="3.432"/>
        </g>
        <g transform="matrix(0.95196,0,0,1.07636,641.026,0.337838)">
            <ellipse cx="8.404" cy="7.432" rx="4.404" ry="3.432"/>
        </g>
        <g transform="matrix(0.95196,0,0,1.07636,384.615,-0.337838)">
            <ellipse cx="8.404" cy="7.432" rx="4.404" ry="3.432"/>
        </g>
        <g transform="matrix(0.95196,0,0,1.07636,64.1026,0)">
            <ellipse cx="8.404" cy="7.432" rx="4.404" ry="3.432"/>
        </g>
        <g transform="matrix(0.95196,0,0,1.07636,576.923,0.337838)">
            <ellipse cx="8.404" cy="7.432" rx="4.404" ry="3.432"/>
        </g>
        <g transform="matrix(0.95196,0,0,1.07636,320.513,-0.337838)">
            <ellipse cx="8.404" cy="7.432" rx="4.404" ry="3.432"/>
        </g>
        <g transform="matrix(0.95196,0,0,1.07636,192.308,0)">
            <ellipse cx="8.404" cy="7.432" rx="4.404" ry="3.432"/>
        </g>
        <g transform="matrix(0.95196,0,0,1.07636,705.128,0.337838)">
            <ellipse cx="8.404" cy="7.432" rx="4.404" ry="3.432"/>
        </g>
        <g transform="matrix(0.95196,0,0,1.07636,448.718,-0.337838)">
            <ellipse cx="8.404" cy="7.432" rx="4.404" ry="3.432"/>
        </g>
        <g transform="matrix(0.95196,0,0,1.07636,32.0513,0)">
            <ellipse cx="8.404" cy="7.432" rx="4.404" ry="3.432"/>
        </g>
        <g transform="matrix(0.95196,0,0,1.07636,544.872,0.337838)">
            <ellipse cx="8.404" cy="7.432" rx="4.404" ry="3.432"/>
        </g>
        <g transform="matrix(0.95196,0,0,1.07636,288.462,-0.337838)">
            <ellipse cx="8.404" cy="7.432" rx="4.404" ry="3.432"/>
        </g>
        <g transform="matrix(0.95196,0,0,1.07636,160.256,0)">
            <ellipse cx="8.404" cy="7.432" rx="4.404" ry="3.432"/>
        </g>
        <g transform="matrix(0.95196,0,0,1.07636,673.077,0.337838)">
            <ellipse cx="8.404" cy="7.432" rx="4.404" ry="3.432"/>
        </g>
        <g transform="matrix(0.95196,0,0,1.07636,416.667,-0.337838)">
            <ellipse cx="8.404" cy="7.432" rx="4.404" ry="3.432"/>
        </g>
        <g transform="matrix(0.95196,0,0,1.07636,96.1539,0)">
            <ellipse cx="8.404" cy="7.432" rx="4.404" ry="3.432"/>
        </g>
        <g transform="matrix(0.95196,0,0,1.07636,608.975,0.337838)">
            <ellipse cx="8.404" cy="7.432" rx="4.404" ry="3.432"/>
        </g>
        <g transform="matrix(0.95196,0,0,1.07636,352.564,-0.337838)">
            <ellipse cx="8.404" cy="7.432" rx="4.404" ry="3.432"/>
        </g>
        <g transform="matrix(0.95196,0,0,1.07636,224.359,0)">
            <ellipse cx="8.404" cy="7.432" rx="4.404" ry="3.432"/>
        </g>
        <g transform="matrix(0.95196,0,0,1.07636,737.18,0.337838)">
            <ellipse cx="8.404" cy="7.432" rx="4.404" ry="3.432"/>
        </g>
        <g transform="matrix(0.95196,0,0,1.07636,480.769,-0.337838)">
            <ellipse cx="8.404" cy="7.432" rx="4.404" ry="3.432"/>
        </g>
    </g>
    <g transform="matrix(1,0,0,0.999937,0,259.38)">
        <g transform="matrix(0.95196,0,0,1.07636,0,0)">
            <ellipse cx="8.404" cy="7.432" rx="4.404" ry="3.432"/>
        </g>
        <g transform="matrix(0.95196,0,0,1.07636,512.821,0.337838)">
            <ellipse cx="8.404" cy="7.432" rx="4.404" ry="3.432"/>
        </g>
        <g transform="matrix(0.95196,0,0,1.07636,256.41,-0.337838)">
            <ellipse cx="8.404" cy="7.432" rx="4.404" ry="3.432"/>
        </g>
        <g transform="matrix(0.95196,0,0,1.07636,769.231,3.55271e-15)">
            <ellipse cx="8.404" cy="7.432" rx="4.404" ry="3.432"/>
        </g>
        <g transform="matrix(0.95196,0,0,1.07636,128.205,0)">
            <ellipse cx="8.404" cy="7.432" rx="4.404" ry="3.432"/>
        </g>
        <g transform="matrix(0.95196,0,0,1.07636,641.026,0.337838)">
            <ellipse cx="8.404" cy="7.432" rx="4.404" ry="3.432"/>
        </g>
        <g transform="matrix(0.95196,0,0,1.07636,384.615,-0.337838)">
            <ellipse cx="8.404" cy="7.432" rx="4.404" ry="3.432"/>
        </g>
        <g transform="matrix(0.95196,0,0,1.07636,64.1026,0)">
            <ellipse cx="8.404" cy="7.432" rx="4.404" ry="3.432"/>
        </g>
        <g transform="matrix(0.95196,0,0,1.07636,576.923,0.337838)">
            <ellipse cx="8.404" cy="7.432" rx="4.404" ry="3.432"/>
        </g>
        <g transform="matrix(0.95196,0,0,1.07636,320.513,-0.337838)">
            <ellipse cx="8.404" cy="7.432" rx="4.404" ry="3.432"/>
        </g>
        <g transform="matrix(0.95196,0,0,1.07636,192.308,0)">
            <ellipse cx="8.404" cy="7.432" rx="4.404" ry="3.432"/>
        </g>
        <g transform="matrix(0.95196,0,0,1.07636,705.128,0.337838)">
            <ellipse cx="8.404" cy="7.432" rx="4.404" ry="3.432"/>
        </g>
        <g transform="matrix(0.95196,0,0,1.07636,448.718,-0.337838)">
            <ellipse cx="8.404" cy="7.432" rx="4.404" ry="3.432"/>
        </g>
        <g transform="matrix(0.95196,0,0,1.07636,32.0513,0)">
            <ellipse cx="8.404" cy="7.432" rx="4.404" ry="3.432"/>
        </g>
        <g transform="matrix(0.95196,0,0,1.07636,544.872,0.337838)">
            <ellipse cx="8.404" cy="7.432" rx="4.404" ry="3.432"/>
        </g>
        <g transform="matrix(0.95196,0,0,1.07636,288.462,-0.337838)">
            <ellipse cx="8.404" cy="7.432" rx="4.404" ry="3.432"/>
        </g>
        <g transform="matrix(0.95196,0,0,1.07636,160.256,0)">
            <ellipse cx="8.404" cy="7.432" rx="4.404" ry="3.432"/>
        </g>
        <g transform="matrix(0.95196,0,0,1.07636,673.077,0.337838)">
            <ellipse cx="8.404" cy="7.432" rx="4.404" ry="3.432"/>
        </g>
        <g transform="matrix(0.95196,0,0,1.07636,416.667,-0.337838)">
            <ellipse cx="8.404" cy="7.432" rx="4.404" ry="3.432"/>
        </g>
        <g transform="matrix(0.95196,0,0,1.07636,96.1539,0)">
            <ellipse cx="8.404" cy="7.432" rx="4.404" ry="3.432"/>
        </g>
        <g transform="matrix(0.95196,0,0,1.07636,608.975,0.337838)">
            <ellipse cx="8.404" cy="7.432" rx="4.404" ry="3.432"/>
        </g>
        <g transform="matrix(0.95196,0,0,1.07636,352.564,-0.337838)">
            <ellipse cx="8.404" cy="7.432" rx="4.404" ry="3.432"/>
        </g>
        <g transform="matrix(0.95196,0,0,1.07636,224.359,0)">
            <ellipse cx="8.404" cy="7.432" rx="4.404" ry="3.432"/>
        </g>
        <g transform="matrix(0.95196,0,0,1.07636,737.18,0.337838)">
            <ellipse cx="8.404" cy="7.432" rx="4.404" ry="3.432"/>
        </g>
        <g transform="matrix(0.95196,0,0,1.07636,480.769,-0.337838)">
            <ellipse cx="8.404" cy="7.432" rx="4.404" ry="3.432"/>
        </g>
    </g>
    <g transform="matrix(1,0,0,0.999937,0,129.685)">
        <g transform="matrix(0.95196,0,0,1.07636,0,0)">
            <ellipse cx="8.404" cy="7.432" rx="4.404" ry="3.432"/>
        </g>
        <g transform="matrix(0.95196,0,0,1.07636,512.821,0.337838)">
            <ellipse cx="8.404" cy="7.432" rx="4.404" ry="3.432"/>
        </g>
        <g transform="matrix(0.95196,0,0,1.07636,256.41,-0.337838)">
            <ellipse cx="8.404" cy="7.432" rx="4.404" ry="3.432"/>
        </g>
        <g transform="matrix(0.95196,0,0,1.07636,769.231,3.55271e-15)">
            <ellipse cx="8.404" cy="7.432" rx="4.404" ry="3.432"/>
        </g>
        <g transform="matrix(0.95196,0,0,1.07636,128.205,0)">
            <ellipse cx="8.404" cy="7.432" rx="4.404" ry="3.432"/>
        </g>
        <g transform="matrix(0.95196,0,0,1.07636,641.026,0.337838)">
            <ellipse cx="8.404" cy="7.432" rx="4.404" ry="3.432"/>
        </g>
        <g transform="matrix(0.95196,0,0,1.07636,384.615,-0.337838)">
            <ellipse cx="8.404" cy="7.432" rx="4.404" ry="3.432"/>
        </g>
        <g transform="matrix(0.95196,0,0,1.07636,64.1026,0)">
            <ellipse cx="8.404" cy="7.432" rx="4.404" ry="3.432"/>
        </g>
        <g transform="matrix(0.95196,0,0,1.07636,576.923,0.337838)">
            <ellipse cx="8.404" cy="7.432" rx="4.404" ry="3.432"/>
        </g>
        <g transform="matrix(0.95196,0,0,1.07636,320.513,-0.337838)">
            <ellipse cx="8.404" cy="7.432" rx="4.404" ry="3.432"/>
        </g>
        <g transform="matrix(0.95196,0,0,1.07636,192.308,0)">
            <ellipse cx="8.404" cy="7.432" rx="4.404" ry="3.432"/>
        </g>
        <g transform="matrix(0.95196,0,0,1.07636,705.128,0.337838)">
            <ellipse cx="8.404" cy="7.432" rx="4.404" ry="3.432"/>
        </g>
        <g transform="matrix(0.95196,0,0,1.07636,448.718,-0.337838)">
            <ellipse cx="8.404" cy="7.432" rx="4.404" ry="3.432"/>
        </g>
        <g transform="matrix(0.95196,0,0,1.07636,32.0513,0)">
            <ellipse cx="8.404" cy="7.432" rx="4.404" ry="3.432"/>
        </g>
        <g transform="matrix(0.95196,0,0,1.07636,544.872,0.337838)">
            <ellipse cx="8.404" cy="7.432" rx="4.404" ry="3.432"/>
        </g>
        <g transform="matrix(0.95196,0,0,1.07636,288.462,-0.337838)">
            <ellipse cx="8.404" cy="7.432" rx="4.404" ry="3.432"/>
        </g>
        <g transform="matrix(0.95196,0,0,1.07636,160.256,0)">
            <ellipse cx="8.404" cy="7.432" rx="4.404" ry="3.432"/>
        </g>
        <g transform="matrix(0.95196,0,0,1.07636,673.077,0.337838)">
            <ellipse cx="8.404" cy="7.432" rx="4.404" ry="3.432"/>
        </g>
        <g transform="matrix(0.95196,0,0,1.07636,416.667,-0.337838)">
            <ellipse cx="8.404" cy="7.432" rx="4.404" ry="3.432"/>
        </g>
        <g transform="matrix(0.95196,0,0,1.07636,96.1539,0)">
            <ellipse cx="8.404" cy="7.432" rx="4.404" ry="3.432"/>
        </g>
        <g transform="matrix(0.95196,0,0,1.07636,608.975,0.337838)">
            <ellipse cx="8.404" cy="7.432" rx="4.404" ry="3.432"/>
        </g>
        <g transform="matrix(0.95196,0,0,1.07636,352.564,-0.337838)">
            <ellipse cx="8.404" cy="7.432" rx="4.404" ry="3.432"/>
        </g>
        <g transform="matrix(0.95196,0,0,1.07636,224.359,0)">
            <ellipse cx="8.404" cy="7.432" rx="4.404" ry="3.432"/>
        </g>
        <g transform="matrix(0.95196,0,0,1.07636,737.18,0.337838)">
            <ellipse cx="8.404" cy="7.432" rx="4.404" ry="3.432"/>
        </g>
        <g transform="matrix(0.95196,0,0,1.07636,480.769,-0.337838)">
            <ellipse cx="8.404" cy="7.432" rx="4.404" ry="3.432"/>
        </g>
    </g>
    <g transform="matrix(1,0,0,0.999937,0,389.075)">
        <g transform="matrix(0.95196,0,0,1.07636,0,0)">
            <ellipse cx="8.404" cy="7.432" rx="4.404" ry="3.432"/>
        </g>
        <g transform="matrix(0.95196,0,0,1.07636,512.821,0.337838)">
            <ellipse cx="8.404" cy="7.432" rx="4.404" ry="3.432"/>
        </g>
        <g transform="matrix(0.95196,0,0,1.07636,256.41,-0.337838)">
            <ellipse cx="8.404" cy="7.432" rx="4.404" ry="3.432"/>
        </g>
        <g transform="matrix(0.95196,0,0,1.07636,769.231,3.55271e-15)">
            <ellipse cx="8.404" cy="7.432" rx="4.404" ry="3.432"/>
        </g>
        <g transform="matrix(0.95196,0,0,1.07636,128.205,0)">
            <ellipse cx="8.404" cy="7.432" rx="4.404" ry="3.432"/>
        </g>
        <g transform="matrix(0.95196,0,0,1.07636,641.026,0.337838)">
            <ellipse cx="8.404" cy="7.432" rx="4.404" ry="3.432"/>
        </g>
        <g transform="matrix(0.95196,0,0,1.07636,384.615,-0.337838)">
            <ellipse cx="8.404" cy="7.432" rx="4.404" ry="3.432"/>
        </g>
        <g transform="matrix(0.95196,0,0,1.07636,64.1026,0)">
            <ellipse cx="8.404" cy="7.432" rx="4.404" ry="3.432"/>
        </g>
        <g transform="matrix(0.95196,0,0,1.07636,576.923,0.337838)">
            <ellipse cx="8.404" cy="7.432" rx="4.404" ry="3.432"/>
        </g>
        <g transform="matrix(0.95196,0,0,1.07636,320.513,-0.337838)">
            <ellipse cx="8.404" cy="7.432" rx="4.404" ry="3.432"/>
        </g>
        <g transform="matrix(0.95196,0,0,1.07636,192.308,0)">
            <ellipse cx="8.404" cy="7.432" rx="4.404" ry="3.432"/>
        </g>
        <g transform="matrix(0.95196,0,0,1.07636,705.128,0.337838)">
            <ellipse cx="8.404" cy="7.432" rx="4.404" ry="3.432"/>
        </g>
        <g transform="matrix(0.95196,0,0,1.07636,448.718,-0.337838)">
            <ellipse cx="8.404" cy="7.432" rx="4.404" ry="3.432"/>
        </g>
        <g transform="matrix(0.95196,0,0,1.07636,32.0513,0)">
            <ellipse cx="8.404" cy="7.432" rx="4.404" ry="3.432"/>
        </g>
        <g transform="matrix(0.95196,0,0,1.07636,544.872,0.337838)">
            <ellipse cx="8.404" cy="7.432" rx="4.404" ry="3.432"/>
        </g>
        <g transform="matrix(0.95196,0,0,1.07636,288.462,-0.337838)">
            <ellipse cx="8.404" cy="7.432" rx="4.404" ry="3.432"/>
        </g>
        <g transform="matrix(0.95196,0,0,1.07636,160.256,0)">
            <ellipse cx="8.404" cy="7.432" rx="4.404" ry="3.432"/>
        </g>
        <g transform="matrix(0.95196,0,0,1.07636,673.077,0.337838)">
            <ellipse cx="8.404" cy="7.432" rx="4.404" ry="3.432"/>
        </g>
        <g transform="matrix(0.95196,0,0,1.07636,416.667,-0.337838)">
            <ellipse cx="8.404" cy="7.432" rx="4.404" ry="3.432"/>
        </g>
        <g transform="matrix(0.95196,0,0,1.07636,96.1539,0)">
            <ellipse cx="8.404" cy="7.432" rx="4.404" ry="3.432"/>
        </g>
        <g transform="matrix(0.95196,0,0,1.07636,608.975,0.337838)">
            <ellipse cx="8.404" cy="7.432" rx="4.404" ry="3.432"/>
        </g>
        <g transform="matrix(0.95196,0,0,1.07636,352.564,-0.337838)">
            <ellipse cx="8.404" cy="7.432" rx="4.404" ry="3.432"/>
        </g>
        <g transform="matrix(0.95196,0,0,1.07636,224.359,0)">
            <ellipse cx="8.404" cy="7.432" rx="4.404" ry="3.432"/>
        </g>
        <g transform="matrix(0.95196,0,0,1.07636,737.18,0.337838)">
            <ellipse cx="8.404" cy="7.432" rx="4.404" ry="3.432"/>
        </g>
        <g transform="matrix(0.95196,0,0,1.07636,480.769,-0.337838)">
            <ellipse cx="8.404" cy="7.432" rx="4.404" ry="3.432"/>
        </g>
    </g>
    <g transform="matrix(1,0,0,0.999937,0,64.8382)">
        <g transform="matrix(0.95196,0,0,1.07636,0,0)">
            <ellipse cx="8.404" cy="7.432" rx="4.404" ry="3.432"/>
        </g>
        <g transform="matrix(0.95196,0,0,1.07636,512.821,0.337838)">
            <ellipse cx="8.404" cy="7.432" rx="4.404" ry="3.432"/>
        </g>
        <g transform="matrix(0.95196,0,0,1.07636,256.41,-0.337838)">
            <ellipse cx="8.404" cy="7.432" rx="4.404" ry="3.432"/>
        </g>
        <g transform="matrix(0.95196,0,0,1.07636,769.231,3.55271e-15)">
            <ellipse cx="8.404" cy="7.432" rx="4.404" ry="3.432"/>
        </g>
        <g transform="matrix(0.95196,0,0,1.07636,128.205,0)">
            <ellipse cx="8.404" cy="7.432" rx="4.404" ry="3.432"/>
        </g>
        <g transform="matrix(0.95196,0,0,1.07636,641.026,0.337838)">
            <ellipse cx="8.404" cy="7.432" rx="4.404" ry="3.432"/>
        </g>
        <g transform="matrix(0.95196,0,0,1.07636,384.615,-0.337838)">
            <ellipse cx="8.404" cy="7.432" rx="4.404" ry="3.432"/>
        </g>
        <g transform="matrix(0.95196,0,0,1.07636,64.1026,0)">
            <ellipse cx="8.404" cy="7.432" rx="4.404" ry="3.432"/>
        </g>
        <g transform="matrix(0.95196,0,0,1.07636,576.923,0.337838)">
            <ellipse cx="8.404" cy="7.432" rx="4.404" ry="3.432"/>
        </g>
        <g transform="matrix(0.95196,0,0,1.07636,320.513,-0.337838)">
            <ellipse cx="8.404" cy="7.432" rx="4.404" ry="3.432"/>
        </g>
        <g transform="matrix(0.95196,0,0,1.07636,192.308,0)">
            <ellipse cx="8.404" cy="7.432" rx="4.404" ry="3.432"/>
        </g>
        <g transform="matrix(0.95196,0,0,1.07636,705.128,0.337838)">
            <ellipse cx="8.404" cy="7.432" rx="4.404" ry="3.432"/>
        </g>
        <g transform="matrix(0.95196,0,0,1.07636,448.718,-0.337838)">
            <ellipse cx="8.404" cy="7.432" rx="4.404" ry="3.432"/>
        </g>
        <g transform="matrix(0.95196,0,0,1.07636,32.0513,0)">
            <ellipse cx="8.404" cy="7.432" rx="4.404" ry="3.432"/>
        </g>
        <g transform="matrix(0.95196,0,0,1.07636,544.872,0.337838)">
            <ellipse cx="8.404" cy="7.432" rx="4.404" ry="3.432"/>
        </g>
        <g transform="matrix(0.95196,0,0,1.07636,288.462,-0.337838)">
            <ellipse cx="8.404" cy="7.432" rx="4.404" ry="3.432"/>
        </g>
        <g transform="matrix(0.95196,0,0,1.07636,160.256,0)">
            <ellipse cx="8.404" cy="7.432" rx="4.404" ry="3.432"/>
        </g>
        <g transform="matrix(0.95196,0,0,1.07636,673.077,0.337838)">
            <ellipse cx="8.404" cy="7.432" rx="4.404" ry="3.432"/>
        </g>
        <g transform="matrix(0.95196,0,0,1.07636,416.667,-0.337838)">
            <ellipse cx="8.404" cy="7.432" rx="4.404" ry="3.432"/>
        </g>
        <g transform="matrix(0.95196,0,0,1.07636,96.1539,0)">
            <ellipse cx="8.404" cy="7.432" rx="4.404" ry="3.432"/>
        </g>
        <g transform="matrix(0.95196,0,0,1.07636,608.975,0.337838)">
            <ellipse cx="8.404" cy="7.432" rx="4.404" ry="3.432"/>
        </g>
        <g transform="matrix(0.95196,0,0,1.07636,352.564,-0.337838)">
            <ellipse cx="8.404" cy="7.432" rx="4.404" ry="3.432"/>
        </g>
        <g transform="matrix(0.95196,0,0,1.07636,224.359,0)">
            <ellipse cx="8.404" cy="7.432" rx="4.404" ry="3.432"/>
        </g>
        <g transform="matrix(0.95196,0,0,1.07636,737.18,0.337838)">
            <ellipse cx="8.404" cy="7.432" rx="4.404" ry="3.432"/>
        </g>
        <g transform="matrix(0.95196,0,0,1.07636,480.769,-0.337838)">
            <ellipse cx="8.404" cy="7.432" rx="4.404" ry="3.432"/>
        </g>
    </g>
    <g transform="matrix(1,0,0,0.999937,0,324.227)">
        <g transform="matrix(0.95196,0,0,1.07636,0,0)">
            <ellipse cx="8.404" cy="7.432" rx="4.404" ry="3.432"/>
        </g>
        <g transform="matrix(0.95196,0,0,1.07636,512.821,0.337838)">
            <ellipse cx="8.404" cy="7.432" rx="4.404" ry="3.432"/>
        </g>
        <g transform="matrix(0.95196,0,0,1.07636,256.41,-0.337838)">
            <ellipse cx="8.404" cy="7.432" rx="4.404" ry="3.432"/>
        </g>
        <g transform="matrix(0.95196,0,0,1.07636,769.231,3.55271e-15)">
            <ellipse cx="8.404" cy="7.432" rx="4.404" ry="3.432"/>
        </g>
        <g transform="matrix(0.95196,0,0,1.07636,128.205,0)">
            <ellipse cx="8.404" cy="7.432" rx="4.404" ry="3.432"/>
        </g>
        <g transform="matrix(0.95196,0,0,1.07636,641.026,0.337838)">
            <ellipse cx="8.404" cy="7.432" rx="4.404" ry="3.432"/>
        </g>
        <g transform="matrix(0.95196,0,0,1.07636,384.615,-0.337838)">
            <ellipse cx="8.404" cy="7.432" rx="4.404" ry="3.432"/>
        </g>
        <g transform="matrix(0.95196,0,0,1.07636,64.1026,0)">
            <ellipse cx="8.404" cy="7.432" rx="4.404" ry="3.432"/>
        </g>
        <g transform="matrix(0.95196,0,0,1.07636,576.923,0.337838)">
            <ellipse cx="8.404" cy="7.432" rx="4.404" ry="3.432"/>
        </g>
        <g transform="matrix(0.95196,0,0,1.07636,320.513,-0.337838)">
            <ellipse cx="8.404" cy="7.432" rx="4.404" ry="3.432"/>
        </g>
        <g transform="matrix(0.95196,0,0,1.07636,192.308,0)">
            <ellipse cx="8.404" cy="7.432" rx="4.404" ry="3.432"/>
        </g>
        <g transform="matrix(0.95196,0,0,1.07636,705.128,0.337838)">
            <ellipse cx="8.404" cy="7.432" rx="4.404" ry="3.432"/>
        </g>
        <g transform="matrix(0.95196,0,0,1.07636,448.718,-0.337838)">
            <ellipse cx="8.404" cy="7.432" rx="4.404" ry="3.432"/>
        </g>
        <g transform="matrix(0.95196,0,0,1.07636,32.0513,0)">
            <ellipse cx="8.404" cy="7.432" rx="4.404" ry="3.432"/>
        </g>
        <g transform="matrix(0.95196,0,0,1.07636,544.872,0.337838)">
            <ellipse cx="8.404" cy="7.432" rx="4.404" ry="3.432"/>
        </g>
        <g transform="matrix(0.95196,0,0,1.07636,288.462,-0.337838)">
            <ellipse cx="8.404" cy="7.432" rx="4.404" ry="3.432"/>
        </g>
        <g transform="matrix(0.95196,0,0,1.07636,160.256,0)">
            <ellipse cx="8.404" cy="7.432" rx="4.404" ry="3.432"/>
        </g>
        <g transform="matrix(0.95196,0,0,1.07636,673.077,0.337838)">
            <ellipse cx="8.404" cy="7.432" rx="4.404" ry="3.432"/>
        </g>
        <g transform="matrix(0.95196,0,0,1.07636,416.667,-0.337838)">
            <ellipse cx="8.404" cy="7.432" rx="4.404" ry="3.432"/>
        </g>
        <g transform="matrix(0.95196,0,0,1.07636,96.1539,0)">
            <ellipse cx="8.404" cy="7.432" rx="4.404" ry="3.432"/>
        </g>
        <g transform="matrix(0.95196,0,0,1.07636,608.975,0.337838)">
            <ellipse cx="8.404" cy="7.432" rx="4.404" ry="3.432"/>
        </g>
        <g transform="matrix(0.95196,0,0,1.07636,352.564,-0.337838)">
            <ellipse cx="8.404" cy="7.432" rx="4.404" ry="3.432"/>
        </g>
        <g transform="matrix(0.95196,0,0,1.07636,224.359,0)">
            <ellipse cx="8.404" cy="7.432" rx="4.404" ry="3.432"/>
        </g>
        <g transform="matrix(0.95196,0,0,1.07636,737.18,0.337838)">
            <ellipse cx="8.404" cy="7.432" rx="4.404" ry="3.432"/>
        </g>
        <g transform="matrix(0.95196,0,0,1.07636,480.769,-0.337838)">
            <ellipse cx="8.404" cy="7.432" rx="4.404" ry="3.432"/>
        </g>
    </g>
    <g transform="matrix(1,0,0,0.999937,0,194.533)">
        <g transform="matrix(0.95196,0,0,1.07636,0,0)">
            <ellipse cx="8.404" cy="7.432" rx="4.404" ry="3.432"/>
        </g>
        <g transform="matrix(0.95196,0,0,1.07636,512.821,0.337838)">
            <ellipse cx="8.404" cy="7.432" rx="4.404" ry="3.432"/>
        </g>
        <g transform="matrix(0.95196,0,0,1.07636,256.41,-0.337838)">
            <ellipse cx="8.404" cy="7.432" rx="4.404" ry="3.432"/>
        </g>
        <g transform="matrix(0.95196,0,0,1.07636,769.231,3.55271e-15)">
            <ellipse cx="8.404" cy="7.432" rx="4.404" ry="3.432"/>
        </g>
        <g transform="matrix(0.95196,0,0,1.07636,128.205,0)">
            <ellipse cx="8.404" cy="7.432" rx="4.404" ry="3.432"/>
        </g>
        <g transform="matrix(0.95196,0,0,1.07636,641.026,0.337838)">
            <ellipse cx="8.404" cy="7.432" rx="4.404" ry="3.432"/>
        </g>
        <g transform="matrix(0.95196,0,0,1.07636,384.615,-0.337838)">
            <ellipse cx="8.404" cy="7.432" rx="4.404" ry="3.432"/>
        </g>
        <g transform="matrix(0.95196,0,0,1.07636,64.1026,0)">
            <ellipse cx="8.404" cy="7.432" rx="4.404" ry="3.432"/>
        </g>
        <g transform="matrix(0.95196,0,0,1.07636,576.923,0.337838)">
            <ellipse cx="8.404" cy="7.432" rx="4.404" ry="3.432"/>
        </g>
        <g transform="matrix(0.95196,0,0,1.07636,320.513,-0.337838)">
            <ellipse cx="8.404" cy="7.432" rx="4.404" ry="3.432"/>
        </g>
        <g transform="matrix(0.95196,0,0,1.07636,192.308,0)">
            <ellipse cx="8.404" cy="7.432" rx="4.404" ry="3.432"/>
        </g>
        <g transform="matrix(0.95196,0,0,1.07636,705.128,0.337838)">
            <ellipse cx="8.404" cy="7.432" rx="4.404" ry="3.432"/>
        </g>
        <g transform="matrix(0.95196,0,0,1.07636,448.718,-0.337838)">
            <ellipse cx="8.404" cy="7.432" rx="4.404" ry="3.432"/>
        </g>
        <g transform="matrix(0.95196,0,0,1.07636,32.0513,0)">
            <ellipse cx="8.404" cy="7.432" rx="4.404" ry="3.432"/>
        </g>
        <g transform="matrix(0.95196,0,0,1.07636,544.872,0.337838)">
            <ellipse cx="8.404" cy="7.432" rx="4.404" ry="3.432"/>
        </g>
        <g transform="matrix(0.95196,0,0,1.07636,288.462,-0.337838)">
            <ellipse cx="8.404" cy="7.432" rx="4.404" ry="3.432"/>
        </g>
        <g transform="matrix(0.95196,0,0,1.07636,160.256,0)">
            <ellipse cx="8.404" cy="7.432" rx="4.404" ry="3.432"/>
        </g>
        <g transform="matrix(0.95196,0,0,1.07636,673.077,0.337838)">
            <ellipse cx="8.404" cy="7.432" rx="4.404" ry="3.432"/>
        </g>
        <g transform="matrix(0.95196,0,0,1.07636,416.667,-0.337838)">
            <ellipse cx="8.404" cy="7.432" rx="4.404" ry="3.432"/>
        </g>
        <g transform="matrix(0.95196,0,0,1.07636,96.1539,0)">
            <ellipse cx="8.404" cy="7.432" rx="4.404" ry="3.432"/>
        </g>
        <g transform="matrix(0.95196,0,0,1.07636,608.975,0.337838)">
            <ellipse cx="8.404" cy="7.432" rx="4.404" ry="3.432"/>
        </g>
        <g transform="matrix(0.95196,0,0,1.07636,352.564,-0.337838)">
            <ellipse cx="8.404" cy="7.432" rx="4.404" ry="3.432"/>
        </g>
        <g transform="matrix(0.95196,0,0,1.07636,224.359,0)">
            <ellipse cx="8.404" cy="7.432" rx="4.404" ry="3.432"/>
        </g>
        <g transform="matrix(0.95196,0,0,1.07636,737.18,0.337838)">
            <ellipse cx="8.404" cy="7.432" rx="4.404" ry="3.432"/>
        </g>
        <g transform="matrix(0.95196,0,0,1.07636,480.769,-0.337838)">
            <ellipse cx="8.404" cy="7.432" rx="4.404" ry="3.432"/>
        </g>
    </g>
    <g transform="matrix(1,0,0,0.999937,0,453.922)">
        <g transform="matrix(0.95196,0,0,1.07636,0,0)">
            <ellipse cx="8.404" cy="7.432" rx="4.404" ry="3.432"/>
        </g>
        <g transform="matrix(0.95196,0,0,1.07636,512.821,0.337838)">
            <ellipse cx="8.404" cy="7.432" rx="4.404" ry="3.432"/>
        </g>
        <g transform="matrix(0.95196,0,0,1.07636,256.41,-0.337838)">
            <ellipse cx="8.404" cy="7.432" rx="4.404" ry="3.432"/>
        </g>
        <g transform="matrix(0.95196,0,0,1.07636,769.231,3.55271e-15)">
            <ellipse cx="8.404" cy="7.432" rx="4.404" ry="3.432"/>
        </g>
        <g transform="matrix(0.95196,0,0,1.07636,128.205,0)">
            <ellipse cx="8.404" cy="7.432" rx="4.404" ry="3.432"/>
        </g>
        <g transform="matrix(0.95196,0,0,1.07636,641.026,0.337838)">
            <ellipse cx="8.404" cy="7.432" rx="4.404" ry="3.432"/>
        </g>
        <g transform="matrix(0.95196,0,0,1.07636,384.615,-0.337838)">
            <ellipse cx="8.404" cy="7.432" rx="4.404" ry="3.432"/>
        </g>
        <g transform="matrix(0.95196,0,0,1.07636,64.1026,0)">
            <ellipse cx="8.404" cy="7.432" rx="4.404" ry="3.432"/>
        </g>
        <g transform="matrix(0.95196,0,0,1.07636,576.923,0.337838)">
            <ellipse cx="8.404" cy="7.432" rx="4.404" ry="3.432"/>
        </g>
        <g transform="matrix(0.95196,0,0,1.07636,320.513,-0.337838)">
            <ellipse cx="8.404" cy="7.432" rx="4.404" ry="3.432"/>
        </g>
        <g transform="matrix(0.95196,0,0,1.07636,192.308,0)">
            <ellipse cx="8.404" cy="7.432" rx="4.404" ry="3.432"/>
        </g>
        <g transform="matrix(0.95196,0,0,1.07636,705.128,0.337838)">
            <ellipse cx="8.404" cy="7.432" rx="4.404" ry="3.432"/>
        </g>
        <g transform="matrix(0.95196,0,0,1.07636,448.718,-0.337838)">
            <ellipse cx="8.404" cy="7.432" rx="4.404" ry="3.432"/>
        </g>
        <g transform="matrix(0.95196,0,0,1.07636,32.0513,0)">
            <ellipse cx="8.404" cy="7.432" rx="4.404" ry="3.432"/>
        </g>
        <g transform="matrix(0.95196,0,0,1.07636,544.872,0.337838)">
            <ellipse cx="8.404" cy="7.432" rx="4.404" ry="3.432"/>
        </g>
        <g transform="matrix(0.95196,0,0,1.07636,288.462,-0.337838)">
            <ellipse cx="8.404" cy="7.432" rx="4.404" ry="3.432"/>
        </g>
        <g transform="matrix(0.95196,0,0,1.07636,160.256,0)">
            <ellipse cx="8.404" cy="7.432" rx="4.404" ry="3.432"/>
        </g>
        <g transform="matrix(0.95196,0,0,1.07636,673.077,0.337838)">
            <ellipse cx="8.404" cy="7.432" rx="4.404" ry="3.432"/>
        </g>
        <g transform="matrix(0.95196,0,0,1.07636,416.667,-0.337838)">
            <ellipse cx="8.404" cy="7.432" rx="4.404" ry="3.432"/>
        </g>
        <g transform="matrix(0.95196,0,0,1.07636,96.1539,0)">
            <ellipse cx="8.404" cy="7.432" rx="4.404" ry="3.432"/>
        </g>
        <g transform="matrix(0.95196,0,0,1.07636,608.975,0.337838)">
            <ellipse cx="8.404" cy="7.432" rx="4.404" ry="3.432"/>
        </g>
        <g transform="matrix(0.95196,0,0,1.07636,352.564,-0.337838)">
            <ellipse cx="8.404" cy="7.432" rx="4.404" ry="3.432"/>
        </g>
        <g transform="matrix(0.95196,0,0,1.07636,224.359,0)">
            <ellipse cx="8.404" cy="7.432" rx="4.404" ry="3.432"/>
        </g>
        <g transform="matrix(0.95196,0,0,1.07636,737.18,0.337838)">
            <ellipse cx="8.404" cy="7.432" rx="4.404" ry="3.432"/>
        </g>
        <g transform="matrix(0.95196,0,0,1.07636,480.769,-0.337838)">
            <ellipse cx="8.404" cy="7.432" rx="4.404" ry="3.432"/>
        </g>
    </g>
    <g transform="matrix(1,0,0,0.999937,0,551.193)">
        <g transform="matrix(0.95196,0,0,1.07636,0,0)">
            <ellipse cx="8.404" cy="7.432" rx="4.404" ry="3.432"/>
        </g>
        <g transform="matrix(0.95196,0,0,1.07636,512.821,0.337838)">
            <ellipse cx="8.404" cy="7.432" rx="4.404" ry="3.432"/>
        </g>
        <g transform="matrix(0.95196,0,0,1.07636,256.41,-0.337838)">
            <ellipse cx="8.404" cy="7.432" rx="4.404" ry="3.432"/>
        </g>
        <g transform="matrix(0.95196,0,0,1.07636,769.231,3.55271e-15)">
            <ellipse cx="8.404" cy="7.432" rx="4.404" ry="3.432"/>
        </g>
        <g transform="matrix(0.95196,0,0,1.07636,128.205,0)">
            <ellipse cx="8.404" cy="7.432" rx="4.404" ry="3.432"/>
        </g>
        <g transform="matrix(0.95196,0,0,1.07636,641.026,0.337838)">
            <ellipse cx="8.404" cy="7.432" rx="4.404" ry="3.432"/>
        </g>
        <g transform="matrix(0.95196,0,0,1.07636,384.615,-0.337838)">
            <ellipse cx="8.404" cy="7.432" rx="4.404" ry="3.432"/>
        </g>
        <g transform="matrix(0.95196,0,0,1.07636,64.1026,0)">
            <ellipse cx="8.404" cy="7.432" rx="4.404" ry="3.432"/>
        </g>
        <g transform="matrix(0.95196,0,0,1.07636,576.923,0.337838)">
            <ellipse cx="8.404" cy="7.432" rx="4.404" ry="3.432"/>
        </g>
        <g transform="matrix(0.95196,0,0,1.07636,320.513,-0.337838)">
            <ellipse cx="8.404" cy="7.432" rx="4.404" ry="3.432"/>
        </g>
        <g transform="matrix(0.95196,0,0,1.07636,192.308,0)">
            <ellipse cx="8.404" cy="7.432" rx="4.404" ry="3.432"/>
        </g>
        <g transform="matrix(0.95196,0,0,1.07636,705.128,0.337838)">
            <ellipse cx="8.404" cy="7.432" rx="4.404" ry="3.432"/>
        </g>
        <g transform="matrix(0.95196,0,0,1.07636,448.718,-0.337838)">
            <ellipse cx="8.404" cy="7.432" rx="4.404" ry="3.432"/>
        </g>
        <g transform="matrix(0.95196,0,0,1.07636,32.0513,0)">
            <ellipse cx="8.404" cy="7.432" rx="4.404" ry="3.432"/>
        </g>
        <g transform="matrix(0.95196,0,0,1.07636,544.872,0.337838)">
            <ellipse cx="8.404" cy="7.432" rx="4.404" ry="3.432"/>
        </g>
        <g transform="matrix(0.95196,0,0,1.07636,288.462,-0.337838)">
            <ellipse cx="8.404" cy="7.432" rx="4.404" ry="3.432"/>
        </g>
        <g transform="matrix(0.95196,0,0,1.07636,160.256,0)">
            <ellipse cx="8.404" cy="7.432" rx="4.404" ry="3.432"/>
        </g>
        <g transform="matrix(0.95196,0,0,1.07636,673.077,0.337838)">
            <ellipse cx="8.404" cy="7.432" rx="4.404" ry="3.432"/>
        </g>
        <g transform="matrix(0.95196,0,0,1.07636,416.667,-0.337838)">
            <ellipse cx="8.404" cy="7.432" rx="4.404" ry="3.432"/>
        </g>
        <g transform="matrix(0.95196,0,0,1.07636,96.1539,0)">
            <ellipse cx="8.404" cy="7.432" rx="4.404" ry="3.432"/>
        </g>
        <g transform="matrix(0.95196,0,0,1.07636,608.975,0.337838)">
            <ellipse cx="8.404" cy="7.432" rx="4.404" ry="3.432"/>
        </g>
        <g transform="matrix(0.95196,0,0,1.07636,352.564,-0.337838)">
            <ellipse cx="8.404" cy="7.432" rx="4.404" ry="3.432"/>
        </g>
        <g transform="matrix(0.95196,0,0,1.07636,224.359,0)">
            <ellipse cx="8.404" cy="7.432" rx="4.404" ry="3.432"/>
        </g>
        <g transform="matrix(0.95196,0,0,1.07636,737.18,0.337838)">
            <ellipse cx="8.404" cy="7.432" rx="4.404" ry="3.432"/>
        </g>
        <g transform="matrix(0.95196,0,0,1.07636,480.769,-0.337838)">
            <ellipse cx="8.404" cy="7.432" rx="4.404" ry="3.432"/>
        </g>
    </g>
    <g transform="matrix(1,0,0,0.999937,0,583.616)">
        <g transform="matrix(0.95196,0,0,1.07636,0,0)">
            <ellipse cx="8.404" cy="7.432" rx="4.404" ry="3.432"/>
        </g>
        <g transform="matrix(0.95196,0,0,1.07636,512.821,0.337838)">
            <ellipse cx="8.404" cy="7.432" rx="4.404" ry="3.432"/>
        </g>
        <g transform="matrix(0.95196,0,0,1.07636,256.41,-0.337838)">
            <ellipse cx="8.404" cy="7.432" rx="4.404" ry="3.432"/>
        </g>
        <g transform="matrix(0.95196,0,0,1.07636,769.231,3.55271e-15)">
            <ellipse cx="8.404" cy="7.432" rx="4.404" ry="3.432"/>
        </g>
        <g transform="matrix(0.95196,0,0,1.07636,128.205,0)">
            <ellipse cx="8.404" cy="7.432" rx="4.404" ry="3.432"/>
        </g>
        <g transform="matrix(0.95196,0,0,1.07636,641.026,0.337838)">
            <ellipse cx="8.404" cy="7.432" rx="4.404" ry="3.432"/>
        </g>
        <g transform="matrix(0.95196,0,0,1.07636,384.615,-0.337838)">
            <ellipse cx="8.404" cy="7.432" rx="4.404" ry="3.432"/>
        </g>
        <g transform="matrix(0.95196,0,0,1.07636,64.1026,0)">
            <ellipse cx="8.404" cy="7.432" rx="4.404" ry="3.432"/>
        </g>
        <g transform="matrix(0.95196,0,0,1.07636,576.923,0.337838)">
            <ellipse cx="8.404" cy="7.432" rx="4.404" ry="3.432"/>
        </g>
        <g transform="matrix(0.95196,0,0,1.07636,320.513,-0.337838)">
            <ellipse cx="8.404" cy="7.432" rx="4.404" ry="3.432"/>
        </g>
        <g transform="matrix(0.95196,0,0,1.07636,192.308,0)">
            <ellipse cx="8.404" cy="7.432" rx="4.404" ry="3.432"/>
        </g>
        <g transform="matrix(0.95196,0,0,1.07636,705.128,0.337838)">
            <ellipse cx="8.404" cy="7.432" rx="4.404" ry="3.432"/>
        </g>
        <g transform="matrix(0.95196,0,0,1.07636,448.718,-0.337838)">
            <ellipse cx="8.404" cy="7.432" rx="4.404" ry="3.432"/>
        </g>
        <g transform="matrix(0.95196,0,0,1.07636,32.0513,0)">
            <ellipse cx="8.404" cy="7.432" rx="4.404" ry="3.432"/>
        </g>
        <g transform="matrix(0.95196,0,0,1.07636,544.872,0.337838)">
            <ellipse cx="8.404" cy="7.432" rx="4.404" ry="3.432"/>
        </g>
        <g transform="matrix(0.95196,0,0,1.07636,288.462,-0.337838)">
            <ellipse cx="8.404" cy="7.432" rx="4.404" ry="3.432"/>
        </g>
        <g transform="matrix(0.95196,0,0,1.07636,160.256,0)">
            <ellipse cx="8.404" cy="7.432" rx="4.404" ry="3.432"/>
        </g>
        <g transform="matrix(0.95196,0,0,1.07636,673.077,0.337838)">
            <ellipse cx="8.404" cy="7.432" rx="4.404" ry="3.432"/>
        </g>
        <g transform="matrix(0.95196,0,0,1.07636,416.667,-0.337838)">
            <ellipse cx="8.404" cy="7.432" rx="4.404" ry="3.432"/>
        </g>
        <g transform="matrix(0.95196,0,0,1.07636,96.1539,0)">
            <ellipse cx="8.404" cy="7.432" rx="4.404" ry="3.432"/>
        </g>
        <g transform="matrix(0.95196,0,0,1.07636,608.975,0.337838)">
            <ellipse cx="8.404" cy="7.432" rx="4.404" ry="3.432"/>
        </g>
        <g transform="matrix(0.95196,0,0,1.07636,352.564,-0.337838)">
            <ellipse cx="8.404" cy="7.432" rx="4.404" ry="3.432"/>
        </g>
        <g transform="matrix(0.95196,0,0,1.07636,224.359,0)">
            <ellipse cx="8.404" cy="7.432" rx="4.404" ry="3.432"/>
        </g>
        <g transform="matrix(0.95196,0,0,1.07636,737.18,0.337838)">
            <ellipse cx="8.404" cy="7.432" rx="4.404" ry="3.432"/>
        </g>
        <g transform="matrix(0.95196,0,0,1.07636,480.769,-0.337838)">
            <ellipse cx="8.404" cy="7.432" rx="4.404" ry="3.432"/>
        </g>
    </g>
    <g transform="matrix(1,0,0,0.999937,0,32.4146)">
        <g transform="matrix(0.95196,0,0,1.07636,0,0)">
            <ellipse cx="8.404" cy="7.432" rx="4.404" ry="3.432"/>
        </g>
        <g transform="matrix(0.95196,0,0,1.07636,512.821,0.337838)">
            <ellipse cx="8.404" cy="7.432" rx="4.404" ry="3.432"/>
        </g>
        <g transform="matrix(0.95196,0,0,1.07636,256.41,-0.337838)">
            <ellipse cx="8.404" cy="7.432" rx="4.404" ry="3.432"/>
        </g>
        <g transform="matrix(0.95196,0,0,1.07636,769.231,3.55271e-15)">
            <ellipse cx="8.404" cy="7.432" rx="4.404" ry="3.432"/>
        </g>
        <g transform="matrix(0.95196,0,0,1.07636,128.205,0)">
            <ellipse cx="8.404" cy="7.432" rx="4.404" ry="3.432"/>
        </g>
        <g transform="matrix(0.95196,0,0,1.07636,641.026,0.337838)">
            <ellipse cx="8.404" cy="7.432" rx="4.404" ry="3.432"/>
        </g>
        <g transform="matrix(0.95196,0,0,1.07636,384.615,-0.337838)">
            <ellipse cx="8.404" cy="7.432" rx="4.404" ry="3.432"/>
        </g>
        <g transform="matrix(0.95196,0,0,1.07636,64.1026,0)">
            <ellipse cx="8.404" cy="7.432" rx="4.404" ry="3.432"/>
        </g>
        <g transform="matrix(0.95196,0,0,1.07636,576.923,0.337838)">
            <ellipse cx="8.404" cy="7.432" rx="4.404" ry="3.432"/>
        </g>
        <g transform="matrix(0.95196,0,0,1.07636,320.513,-0.337838)">
            <ellipse cx="8.404" cy="7.432" rx="4.404" ry="3.432"/>
        </g>
        <g transform="matrix(0.95196,0,0,1.07636,192.308,0)">
            <ellipse cx="8.404" cy="7.432" rx="4.404" ry="3.432"/>
        </g>
        <g transform="matrix(0.95196,0,0,1.07636,705.128,0.337838)">
            <ellipse cx="8.404" cy="7.432" rx="4.404" ry="3.432"/>
        </g>
        <g transform="matrix(0.95196,0,0,1.07636,448.718,-0.337838)">
            <ellipse cx="8.404" cy="7.432" rx="4.404" ry="3.432"/>
        </g>
        <g transform="matrix(0.95196,0,0,1.07636,32.0513,0)">
            <ellipse cx="8.404" cy="7.432" rx="4.404" ry="3.432"/>
        </g>
        <g transform="matrix(0.95196,0,0,1.07636,544.872,0.337838)">
            <ellipse cx="8.404" cy="7.432" rx="4.404" ry="3.432"/>
        </g>
        <g transform="matrix(0.95196,0,0,1.07636,288.462,-0.337838)">
            <ellipse cx="8.404" cy="7.432" rx="4.404" ry="3.432"/>
        </g>
        <g transform="matrix(0.95196,0,0,1.07636,160.256,0)">
            <ellipse cx="8.404" cy="7.432" rx="4.404" ry="3.432"/>
        </g>
        <g transform="matrix(0.95196,0,0,1.07636,673.077,0.337838)">
            <ellipse cx="8.404" cy="7.432" rx="4.404" ry="3.432"/>
        </g>
        <g transform="matrix(0.95196,0,0,1.07636,416.667,-0.337838)">
            <ellipse cx="8.404" cy="7.432" rx="4.404" ry="3.432"/>
        </g>
        <g transform="matrix(0.95196,0,0,1.07636,96.1539,0)">
            <ellipse cx="8.404" cy="7.432" rx="4.404" ry="3.432"/>
        </g>
        <g transform="matrix(0.95196,0,0,1.07636,608.975,0.337838)">
            <ellipse cx="8.404" cy="7.432" rx="4.404" ry="3.432"/>
        </g>
        <g transform="matrix(0.95196,0,0,1.07636,352.564,-0.337838)">
            <ellipse cx="8.404" cy="7.432" rx="4.404" ry="3.432"/>
        </g>
        <g transform="matrix(0.95196,0,0,1.07636,224.359,0)">
            <ellipse cx="8.404" cy="7.432" rx="4.404" ry="3.432"/>
        </g>
        <g transform="matrix(0.95196,0,0,1.07636,737.18,0.337838)">
            <ellipse cx="8.404" cy="7.432" rx="4.404" ry="3.432"/>
        </g>
        <g transform="matrix(0.95196,0,0,1.07636,480.769,-0.337838)">
            <ellipse cx="8.404" cy="7.432" rx="4.404" ry="3.432"/>
        </g>
    </g>
    <g transform="matrix(1,0,0,0.999937,0,291.804)">
        <g transform="matrix(0.95196,0,0,1.07636,0,0)">
            <ellipse cx="8.404" cy="7.432" rx="4.404" ry="3.432"/>
        </g>
        <g transform="matrix(0.95196,0,0,1.07636,512.821,0.337838)">
            <ellipse cx="8.404" cy="7.432" rx="4.404" ry="3.432"/>
        </g>
        <g transform="matrix(0.95196,0,0,1.07636,256.41,-0.337838)">
            <ellipse cx="8.404" cy="7.432" rx="4.404" ry="3.432"/>
        </g>
        <g transform="matrix(0.95196,0,0,1.07636,769.231,3.55271e-15)">
            <ellipse cx="8.404" cy="7.432" rx="4.404" ry="3.432"/>
        </g>
        <g transform="matrix(0.95196,0,0,1.07636,128.205,0)">
            <ellipse cx="8.404" cy="7.432" rx="4.404" ry="3.432"/>
        </g>
        <g transform="matrix(0.95196,0,0,1.07636,641.026,0.337838)">
            <ellipse cx="8.404" cy="7.432" rx="4.404" ry="3.432"/>
        </g>
        <g transform="matrix(0.95196,0,0,1.07636,384.615,-0.337838)">
            <ellipse cx="8.404" cy="7.432" rx="4.404" ry="3.432"/>
        </g>
        <g transform="matrix(0.95196,0,0,1.07636,64.1026,0)">
            <ellipse cx="8.404" cy="7.432" rx="4.404" ry="3.432"/>
        </g>
        <g transform="matrix(0.95196,0,0,1.07636,576.923,0.337838)">
            <ellipse cx="8.404" cy="7.432" rx="4.404" ry="3.432"/>
        </g>
        <g transform="matrix(0.95196,0,0,1.07636,320.513,-0.337838)">
            <ellipse cx="8.404" cy="7.432" rx="4.404" ry="3.432"/>
        </g>
        <g transform="matrix(0.95196,0,0,1.07636,192.308,0)">
            <ellipse cx="8.404" cy="7.432" rx="4.404" ry="3.432"/>
        </g>
        <g transform="matrix(0.95196,0,0,1.07636,705.128,0.337838)">
            <ellipse cx="8.404" cy="7.432" rx="4.404" ry="3.432"/>
        </g>
        <g transform="matrix(0.95196,0,0,1.07636,448.718,-0.337838)">
            <ellipse cx="8.404" cy="7.432" rx="4.404" ry="3.432"/>
        </g>
        <g transform="matrix(0.95196,0,0,1.07636,32.0513,0)">
            <ellipse cx="8.404" cy="7.432" rx="4.404" ry="3.432"/>
        </g>
        <g transform="matrix(0.95196,0,0,1.07636,544.872,0.337838)">
            <ellipse cx="8.404" cy="7.432" rx="4.404" ry="3.432"/>
        </g>
        <g transform="matrix(0.95196,0,0,1.07636,288.462,-0.337838)">
            <ellipse cx="8.404" cy="7.432" rx="4.404" ry="3.432"/>
        </g>
        <g transform="matrix(0.95196,0,0,1.07636,160.256,0)">
            <ellipse cx="8.404" cy="7.432" rx="4.404" ry="3.432"/>
        </g>
        <g transform="matrix(0.95196,0,0,1.07636,673.077,0.337838)">
            <ellipse cx="8.404" cy="7.432" rx="4.404" ry="3.432"/>
        </g>
        <g transform="matrix(0.95196,0,0,1.07636,416.667,-0.337838)">
            <ellipse cx="8.404" cy="7.432" rx="4.404" ry="3.432"/>
        </g>
        <g transform="matrix(0.95196,0,0,1.07636,96.1539,0)">
            <ellipse cx="8.404" cy="7.432" rx="4.404" ry="3.432"/>
        </g>
        <g transform="matrix(0.95196,0,0,1.07636,608.975,0.337838)">
            <ellipse cx="8.404" cy="7.432" rx="4.404" ry="3.432"/>
        </g>
        <g transform="matrix(0.95196,0,0,1.07636,352.564,-0.337838)">
            <ellipse cx="8.404" cy="7.432" rx="4.404" ry="3.432"/>
        </g>
        <g transform="matrix(0.95196,0,0,1.07636,224.359,0)">
            <ellipse cx="8.404" cy="7.432" rx="4.404" ry="3.432"/>
        </g>
        <g transform="matrix(0.95196,0,0,1.07636,737.18,0.337838)">
            <ellipse cx="8.404" cy="7.432" rx="4.404" ry="3.432"/>
        </g>
        <g transform="matrix(0.95196,0,0,1.07636,480.769,-0.337838)">
            <ellipse cx="8.404" cy="7.432" rx="4.404" ry="3.432"/>
        </g>
    </g>
    <g transform="matrix(1,0,0,0.999937,0,162.109)">
        <g transform="matrix(0.95196,0,0,1.07636,0,0)">
            <ellipse cx="8.404" cy="7.432" rx="4.404" ry="3.432"/>
        </g>
        <g transform="matrix(0.95196,0,0,1.07636,512.821,0.337838)">
            <ellipse cx="8.404" cy="7.432" rx="4.404" ry="3.432"/>
        </g>
        <g transform="matrix(0.95196,0,0,1.07636,256.41,-0.337838)">
            <ellipse cx="8.404" cy="7.432" rx="4.404" ry="3.432"/>
        </g>
        <g transform="matrix(0.95196,0,0,1.07636,769.231,3.55271e-15)">
            <ellipse cx="8.404" cy="7.432" rx="4.404" ry="3.432"/>
        </g>
        <g transform="matrix(0.95196,0,0,1.07636,128.205,0)">
            <ellipse cx="8.404" cy="7.432" rx="4.404" ry="3.432"/>
        </g>
        <g transform="matrix(0.95196,0,0,1.07636,641.026,0.337838)">
            <ellipse cx="8.404" cy="7.432" rx="4.404" ry="3.432"/>
        </g>
        <g transform="matrix(0.95196,0,0,1.07636,384.615,-0.337838)">
            <ellipse cx="8.404" cy="7.432" rx="4.404" ry="3.432"/>
        </g>
        <g transform="matrix(0.95196,0,0,1.07636,64.1026,0)">
            <ellipse cx="8.404" cy="7.432" rx="4.404" ry="3.432"/>
        </g>
        <g transform="matrix(0.95196,0,0,1.07636,576.923,0.337838)">
            <ellipse cx="8.404" cy="7.432" rx="4.404" ry="3.432"/>
        </g>
        <g transform="matrix(0.95196,0,0,1.07636,320.513,-0.337838)">
            <ellipse cx="8.404" cy="7.432" rx="4.404" ry="3.432"/>
        </g>
        <g transform="matrix(0.95196,0,0,1.07636,192.308,0)">
            <ellipse cx="8.404" cy="7.432" rx="4.404" ry="3.432"/>
        </g>
        <g transform="matrix(0.95196,0,0,1.07636,705.128,0.337838)">
            <ellipse cx="8.404" cy="7.432" rx="4.404" ry="3.432"/>
        </g>
        <g transform="matrix(0.95196,0,0,1.07636,448.718,-0.337838)">
            <ellipse cx="8.404" cy="7.432" rx="4.404" ry="3.432"/>
        </g>
        <g transform="matrix(0.95196,0,0,1.07636,32.0513,0)">
            <ellipse cx="8.404" cy="7.432" rx="4.404" ry="3.432"/>
        </g>
        <g transform="matrix(0.95196,0,0,1.07636,544.872,0.337838)">
            <ellipse cx="8.404" cy="7.432" rx="4.404" ry="3.432"/>
        </g>
        <g transform="matrix(0.95196,0,0,1.07636,288.462,-0.337838)">
            <ellipse cx="8.404" cy="7.432" rx="4.404" ry="3.432"/>
        </g>
        <g transform="matrix(0.95196,0,0,1.07636,160.256,0)">
            <ellipse cx="8.404" cy="7.432" rx="4.404" ry="3.432"/>
        </g>
        <g transform="matrix(0.95196,0,0,1.07636,673.077,0.337838)">
            <ellipse cx="8.404" cy="7.432" rx="4.404" ry="3.432"/>
        </g>
        <g transform="matrix(0.95196,0,0,1.07636,416.667,-0.337838)">
            <ellipse cx="8.404" cy="7.432" rx="4.404" ry="3.432"/>
        </g>
        <g transform="matrix(0.95196,0,0,1.07636,96.1539,0)">
            <ellipse cx="8.404" cy="7.432" rx="4.404" ry="3.432"/>
        </g>
        <g transform="matrix(0.95196,0,0,1.07636,608.975,0.337838)">
            <ellipse cx="8.404" cy="7.432" rx="4.404" ry="3.432"/>
        </g>
        <g transform="matrix(0.95196,0,0,1.07636,352.564,-0.337838)">
            <ellipse cx="8.404" cy="7.432" rx="4.404" ry="3.432"/>
        </g>
        <g transform="matrix(0.95196,0,0,1.07636,224.359,0)">
            <ellipse cx="8.404" cy="7.432" rx="4.404" ry="3.432"/>
        </g>
        <g transform="matrix(0.95196,0,0,1.07636,737.18,0.337838)">
            <ellipse cx="8.404" cy="7.432" rx="4.404" ry="3.432"/>
        </g>
        <g transform="matrix(0.95196,0,0,1.07636,480.769,-0.337838)">
            <ellipse cx="8.404" cy="7.432" rx="4.404" ry="3.432"/>
        </g>
    </g>
    <g transform="matrix(1,0,0,0.999937,0,421.498)">
        <g transform="matrix(0.95196,0,0,1.07636,0,0)">
            <ellipse cx="8.404" cy="7.432" rx="4.404" ry="3.432"/>
        </g>
        <g transform="matrix(0.95196,0,0,1.07636,512.821,0.337838)">
            <ellipse cx="8.404" cy="7.432" rx="4.404" ry="3.432"/>
        </g>
        <g transform="matrix(0.95196,0,0,1.07636,256.41,-0.337838)">
            <ellipse cx="8.404" cy="7.432" rx="4.404" ry="3.432"/>
        </g>
        <g transform="matrix(0.95196,0,0,1.07636,769.231,3.55271e-15)">
            <ellipse cx="8.404" cy="7.432" rx="4.404" ry="3.432"/>
        </g>
        <g transform="matrix(0.95196,0,0,1.07636,128.205,0)">
            <ellipse cx="8.404" cy="7.432" rx="4.404" ry="3.432"/>
        </g>
        <g transform="matrix(0.95196,0,0,1.07636,641.026,0.337838)">
            <ellipse cx="8.404" cy="7.432" rx="4.404" ry="3.432"/>
        </g>
        <g transform="matrix(0.95196,0,0,1.07636,384.615,-0.337838)">
            <ellipse cx="8.404" cy="7.432" rx="4.404" ry="3.432"/>
        </g>
        <g transform="matrix(0.95196,0,0,1.07636,64.1026,0)">
            <ellipse cx="8.404" cy="7.432" rx="4.404" ry="3.432"/>
        </g>
        <g transform="matrix(0.95196,0,0,1.07636,576.923,0.337838)">
            <ellipse cx="8.404" cy="7.432" rx="4.404" ry="3.432"/>
        </g>
        <g transform="matrix(0.95196,0,0,1.07636,320.513,-0.337838)">
            <ellipse cx="8.404" cy="7.432" rx="4.404" ry="3.432"/>
        </g>
        <g transform="matrix(0.95196,0,0,1.07636,192.308,0)">
            <ellipse cx="8.404" cy="7.432" rx="4.404" ry="3.432"/>
        </g>
        <g transform="matrix(0.95196,0,0,1.07636,705.128,0.337838)">
            <ellipse cx="8.404" cy="7.432" rx="4.404" ry="3.432"/>
        </g>
        <g transform="matrix(0.95196,0,0,1.07636,448.718,-0.337838)">
            <ellipse cx="8.404" cy="7.432" rx="4.404" ry="3.432"/>
        </g>
        <g transform="matrix(0.95196,0,0,1.07636,32.0513,0)">
            <ellipse cx="8.404" cy="7.432" rx="4.404" ry="3.432"/>
        </g>
        <g transform="matrix(0.95196,0,0,1.07636,544.872,0.337838)">
            <ellipse cx="8.404" cy="7.432" rx="4.404" ry="3.432"/>
        </g>
        <g transform="matrix(0.95196,0,0,1.07636,288.462,-0.337838)">
            <ellipse cx="8.404" cy="7.432" rx="4.404" ry="3.432"/>
        </g>
        <g transform="matrix(0.95196,0,0,1.07636,160.256,0)">
            <ellipse cx="8.404" cy="7.432" rx="4.404" ry="3.432"/>
        </g>
        <g transform="matrix(0.95196,0,0,1.07636,673.077,0.337838)">
            <ellipse cx="8.404" cy="7.432" rx="4.404" ry="3.432"/>
        </g>
        <g transform="matrix(0.95196,0,0,1.07636,416.667,-0.337838)">
            <ellipse cx="8.404" cy="7.432" rx="4.404" ry="3.432"/>
        </g>
        <g transform="matrix(0.95196,0,0,1.07636,96.1539,0)">
            <ellipse cx="8.404" cy="7.432" rx="4.404" ry="3.432"/>
        </g>
        <g transform="matrix(0.95196,0,0,1.07636,608.975,0.337838)">
            <ellipse cx="8.404" cy="7.432" rx="4.404" ry="3.432"/>
        </g>
        <g transform="matrix(0.95196,0,0,1.07636,352.564,-0.337838)">
            <ellipse cx="8.404" cy="7.432" rx="4.404" ry="3.432"/>
        </g>
        <g transform="matrix(0.95196,0,0,1.07636,224.359,0)">
            <ellipse cx="8.404" cy="7.432" rx="4.404" ry="3.432"/>
        </g>
        <g transform="matrix(0.95196,0,0,1.07636,737.18,0.337838)">
            <ellipse cx="8.404" cy="7.432" rx="4.404" ry="3.432"/>
        </g>
        <g transform="matrix(0.95196,0,0,1.07636,480.769,-0.337838)">
            <ellipse cx="8.404" cy="7.432" rx="4.404" ry="3.432"/>
        </g>
    </g>
    <g transform="matrix(1,0,0,0.999937,0,518.769)">
        <g transform="matrix(0.95196,0,0,1.07636,0,0)">
            <ellipse cx="8.404" cy="7.432" rx="4.404" ry="3.432"/>
        </g>
        <g transform="matrix(0.95196,0,0,1.07636,512.821,0.337838)">
            <ellipse cx="8.404" cy="7.432" rx="4.404" ry="3.432"/>
        </g>
        <g transform="matrix(0.95196,0,0,1.07636,256.41,-0.337838)">
            <ellipse cx="8.404" cy="7.432" rx="4.404" ry="3.432"/>
        </g>
        <g transform="matrix(0.95196,0,0,1.07636,769.231,3.55271e-15)">
            <ellipse cx="8.404" cy="7.432" rx="4.404" ry="3.432"/>
        </g>
        <g transform="matrix(0.95196,0,0,1.07636,128.205,0)">
            <ellipse cx="8.404" cy="7.432" rx="4.404" ry="3.432"/>
        </g>
        <g transform="matrix(0.95196,0,0,1.07636,641.026,0.337838)">
            <ellipse cx="8.404" cy="7.432" rx="4.404" ry="3.432"/>
        </g>
        <g transform="matrix(0.95196,0,0,1.07636,384.615,-0.337838)">
            <ellipse cx="8.404" cy="7.432" rx="4.404" ry="3.432"/>
        </g>
        <g transform="matrix(0.95196,0,0,1.07636,64.1026,0)">
            <ellipse cx="8.404" cy="7.432" rx="4.404" ry="3.432"/>
        </g>
        <g transform="matrix(0.95196,0,0,1.07636,576.923,0.337838)">
            <ellipse cx="8.404" cy="7.432" rx="4.404" ry="3.432"/>
        </g>
        <g transform="matrix(0.95196,0,0,1.07636,320.513,-0.337838)">
            <ellipse cx="8.404" cy="7.432" rx="4.404" ry="3.432"/>
        </g>
        <g transform="matrix(0.95196,0,0,1.07636,192.308,0)">
            <ellipse cx="8.404" cy="7.432" rx="4.404" ry="3.432"/>
        </g>
        <g transform="matrix(0.95196,0,0,1.07636,705.128,0.337838)">
            <ellipse cx="8.404" cy="7.432" rx="4.404" ry="3.432"/>
        </g>
        <g transform="matrix(0.95196,0,0,1.07636,448.718,-0.337838)">
            <ellipse cx="8.404" cy="7.432" rx="4.404" ry="3.432"/>
        </g>
        <g transform="matrix(0.95196,0,0,1.07636,32.0513,0)">
            <ellipse cx="8.404" cy="7.432" rx="4.404" ry="3.432"/>
        </g>
        <g transform="matrix(0.95196,0,0,1.07636,544.872,0.337838)">
            <ellipse cx="8.404" cy="7.432" rx="4.404" ry="3.432"/>
        </g>
        <g transform="matrix(0.95196,0,0,1.07636,288.462,-0.337838)">
            <ellipse cx="8.404" cy="7.432" rx="4.404" ry="3.432"/>
        </g>
        <g transform="matrix(0.95196,0,0,1.07636,160.256,0)">
            <ellipse cx="8.404" cy="7.432" rx="4.404" ry="3.432"/>
        </g>
        <g transform="matrix(0.95196,0,0,1.07636,673.077,0.337838)">
            <ellipse cx="8.404" cy="7.432" rx="4.404" ry="3.432"/>
        </g>
        <g transform="matrix(0.95196,0,0,1.07636,416.667,-0.337838)">
            <ellipse cx="8.404" cy="7.432" rx="4.404" ry="3.432"/>
        </g>
        <g transform="matrix(0.95196,0,0,1.07636,96.1539,0)">
            <ellipse cx="8.404" cy="7.432" rx="4.404" ry="3.432"/>
        </g>
        <g transform="matrix(0.95196,0,0,1.07636,608.975,0.337838)">
            <ellipse cx="8.404" cy="7.432" rx="4.404" ry="3.432"/>
        </g>
        <g transform="matrix(0.95196,0,0,1.07636,352.564,-0.337838)">
            <ellipse cx="8.404" cy="7.432" rx="4.404" ry="3.432"/>
        </g>
        <g transform="matrix(0.95196,0,0,1.07636,224.359,0)">
            <ellipse cx="8.404" cy="7.432" rx="4.404" ry="3.432"/>
        </g>
        <g transform="matrix(0.95196,0,0,1.07636,737.18,0.337838)">
            <ellipse cx="8.404" cy="7.432" rx="4.404" ry="3.432"/>
        </g>
        <g transform="matrix(0.95196,0,0,1.07636,480.769,-0.337838)">
            <ellipse cx="8.404" cy="7.432" rx="4.404" ry="3.432"/>
        </g>
    </g>
    <g transform="matrix(1,0,0,0.999937,0,97.2619)">
        <g transform="matrix(0.95196,0,0,1.07636,0,0)">
            <ellipse cx="8.404" cy="7.432" rx="4.404" ry="3.432"/>
        </g>
        <g transform="matrix(0.95196,0,0,1.07636,512.821,0.337838)">
            <ellipse cx="8.404" cy="7.432" rx="4.404" ry="3.432"/>
        </g>
        <g transform="matrix(0.95196,0,0,1.07636,256.41,-0.337838)">
            <ellipse cx="8.404" cy="7.432" rx="4.404" ry="3.432"/>
        </g>
        <g transform="matrix(0.95196,0,0,1.07636,769.231,3.55271e-15)">
            <ellipse cx="8.404" cy="7.432" rx="4.404" ry="3.432"/>
        </g>
        <g transform="matrix(0.95196,0,0,1.07636,128.205,0)">
            <ellipse cx="8.404" cy="7.432" rx="4.404" ry="3.432"/>
        </g>
        <g transform="matrix(0.95196,0,0,1.07636,641.026,0.337838)">
            <ellipse cx="8.404" cy="7.432" rx="4.404" ry="3.432"/>
        </g>
        <g transform="matrix(0.95196,0,0,1.07636,384.615,-0.337838)">
            <ellipse cx="8.404" cy="7.432" rx="4.404" ry="3.432"/>
        </g>
        <g transform="matrix(0.95196,0,0,1.07636,64.1026,0)">
            <ellipse cx="8.404" cy="7.432" rx="4.404" ry="3.432"/>
        </g>
        <g transform="matrix(0.95196,0,0,1.07636,576.923,0.337838)">
            <ellipse cx="8.404" cy="7.432" rx="4.404" ry="3.432"/>
        </g>
        <g transform="matrix(0.95196,0,0,1.07636,320.513,-0.337838)">
            <ellipse cx="8.404" cy="7.432" rx="4.404" ry="3.432"/>
        </g>
        <g transform="matrix(0.95196,0,0,1.07636,192.308,0)">
            <ellipse cx="8.404" cy="7.432" rx="4.404" ry="3.432"/>
        </g>
        <g transform="matrix(0.95196,0,0,1.07636,705.128,0.337838)">
            <ellipse cx="8.404" cy="7.432" rx="4.404" ry="3.432"/>
        </g>
        <g transform="matrix(0.95196,0,0,1.07636,448.718,-0.337838)">
            <ellipse cx="8.404" cy="7.432" rx="4.404" ry="3.432"/>
        </g>
        <g transform="matrix(0.95196,0,0,1.07636,32.0513,0)">
            <ellipse cx="8.404" cy="7.432" rx="4.404" ry="3.432"/>
        </g>
        <g transform="matrix(0.95196,0,0,1.07636,544.872,0.337838)">
            <ellipse cx="8.404" cy="7.432" rx="4.404" ry="3.432"/>
        </g>
        <g transform="matrix(0.95196,0,0,1.07636,288.462,-0.337838)">
            <ellipse cx="8.404" cy="7.432" rx="4.404" ry="3.432"/>
        </g>
        <g transform="matrix(0.95196,0,0,1.07636,160.256,0)">
            <ellipse cx="8.404" cy="7.432" rx="4.404" ry="3.432"/>
        </g>
        <g transform="matrix(0.95196,0,0,1.07636,673.077,0.337838)">
            <ellipse cx="8.404" cy="7.432" rx="4.404" ry="3.432"/>
        </g>
        <g transform="matrix(0.95196,0,0,1.07636,416.667,-0.337838)">
            <ellipse cx="8.404" cy="7.432" rx="4.404" ry="3.432"/>
        </g>
        <g transform="matrix(0.95196,0,0,1.07636,96.1539,0)">
            <ellipse cx="8.404" cy="7.432" rx="4.404" ry="3.432"/>
        </g>
        <g transform="matrix(0.95196,0,0,1.07636,608.975,0.337838)">
            <ellipse cx="8.404" cy="7.432" rx="4.404" ry="3.432"/>
        </g>
        <g transform="matrix(0.95196,0,0,1.07636,352.564,-0.337838)">
            <ellipse cx="8.404" cy="7.432" rx="4.404" ry="3.432"/>
        </g>
        <g transform="matrix(0.95196,0,0,1.07636,224.359,0)">
            <ellipse cx="8.404" cy="7.432" rx="4.404" ry="3.432"/>
        </g>
        <g transform="matrix(0.95196,0,0,1.07636,737.18,0.337838)">
            <ellipse cx="8.404" cy="7.432" rx="4.404" ry="3.432"/>
        </g>
        <g transform="matrix(0.95196,0,0,1.07636,480.769,-0.337838)">
            <ellipse cx="8.404" cy="7.432" rx="4.404" ry="3.432"/>
        </g>
    </g>
    <g transform="matrix(1,0,0,0.999937,0,356.651)">
        <g transform="matrix(0.95196,0,0,1.07636,0,0)">
            <ellipse cx="8.404" cy="7.432" rx="4.404" ry="3.432"/>
        </g>
        <g transform="matrix(0.95196,0,0,1.07636,512.821,0.337838)">
            <ellipse cx="8.404" cy="7.432" rx="4.404" ry="3.432"/>
        </g>
        <g transform="matrix(0.95196,0,0,1.07636,256.41,-0.337838)">
            <ellipse cx="8.404" cy="7.432" rx="4.404" ry="3.432"/>
        </g>
        <g transform="matrix(0.95196,0,0,1.07636,769.231,3.55271e-15)">
            <ellipse cx="8.404" cy="7.432" rx="4.404" ry="3.432"/>
        </g>
        <g transform="matrix(0.95196,0,0,1.07636,128.205,0)">
            <ellipse cx="8.404" cy="7.432" rx="4.404" ry="3.432"/>
        </g>
        <g transform="matrix(0.95196,0,0,1.07636,641.026,0.337838)">
            <ellipse cx="8.404" cy="7.432" rx="4.404" ry="3.432"/>
        </g>
        <g transform="matrix(0.95196,0,0,1.07636,384.615,-0.337838)">
            <ellipse cx="8.404" cy="7.432" rx="4.404" ry="3.432"/>
        </g>
        <g transform="matrix(0.95196,0,0,1.07636,64.1026,0)">
            <ellipse cx="8.404" cy="7.432" rx="4.404" ry="3.432"/>
        </g>
        <g transform="matrix(0.95196,0,0,1.07636,576.923,0.337838)">
            <ellipse cx="8.404" cy="7.432" rx="4.404" ry="3.432"/>
        </g>
        <g transform="matrix(0.95196,0,0,1.07636,320.513,-0.337838)">
            <ellipse cx="8.404" cy="7.432" rx="4.404" ry="3.432"/>
        </g>
        <g transform="matrix(0.95196,0,0,1.07636,192.308,0)">
            <ellipse cx="8.404" cy="7.432" rx="4.404" ry="3.432"/>
        </g>
        <g transform="matrix(0.95196,0,0,1.07636,705.128,0.337838)">
            <ellipse cx="8.404" cy="7.432" rx="4.404" ry="3.432"/>
        </g>
        <g transform="matrix(0.95196,0,0,1.07636,448.718,-0.337838)">
            <ellipse cx="8.404" cy="7.432" rx="4.404" ry="3.432"/>
        </g>
        <g transform="matrix(0.95196,0,0,1.07636,32.0513,0)">
            <ellipse cx="8.404" cy="7.432" rx="4.404" ry="3.432"/>
        </g>
        <g transform="matrix(0.95196,0,0,1.07636,544.872,0.337838)">
            <ellipse cx="8.404" cy="7.432" rx="4.404" ry="3.432"/>
        </g>
        <g transform="matrix(0.95196,0,0,1.07636,288.462,-0.337838)">
            <ellipse cx="8.404" cy="7.432" rx="4.404" ry="3.432"/>
        </g>
        <g transform="matrix(0.95196,0,0,1.07636,160.256,0)">
            <ellipse cx="8.404" cy="7.432" rx="4.404" ry="3.432"/>
        </g>
        <g transform="matrix(0.95196,0,0,1.07636,673.077,0.337838)">
            <ellipse cx="8.404" cy="7.432" rx="4.404" ry="3.432"/>
        </g>
        <g transform="matrix(0.95196,0,0,1.07636,416.667,-0.337838)">
            <ellipse cx="8.404" cy="7.432" rx="4.404" ry="3.432"/>
        </g>
        <g transform="matrix(0.95196,0,0,1.07636,96.1539,0)">
            <ellipse cx="8.404" cy="7.432" rx="4.404" ry="3.432"/>
        </g>
        <g transform="matrix(0.95196,0,0,1.07636,608.975,0.337838)">
            <ellipse cx="8.404" cy="7.432" rx="4.404" ry="3.432"/>
        </g>
        <g transform="matrix(0.95196,0,0,1.07636,352.564,-0.337838)">
            <ellipse cx="8.404" cy="7.432" rx="4.404" ry="3.432"/>
        </g>
        <g transform="matrix(0.95196,0,0,1.07636,224.359,0)">
            <ellipse cx="8.404" cy="7.432" rx="4.404" ry="3.432"/>
        </g>
        <g transform="matrix(0.95196,0,0,1.07636,737.18,0.337838)">
            <ellipse cx="8.404" cy="7.432" rx="4.404" ry="3.432"/>
        </g>
        <g transform="matrix(0.95196,0,0,1.07636,480.769,-0.337838)">
            <ellipse cx="8.404" cy="7.432" rx="4.404" ry="3.432"/>
        </g>
    </g>
    <g transform="matrix(1,0,0,0.999937,0,226.956)">
        <g transform="matrix(0.95196,0,0,1.07636,0,0)">
            <ellipse cx="8.404" cy="7.432" rx="4.404" ry="3.432"/>
        </g>
        <g transform="matrix(0.95196,0,0,1.07636,512.821,0.337838)">
            <ellipse cx="8.404" cy="7.432" rx="4.404" ry="3.432"/>
        </g>
        <g transform="matrix(0.95196,0,0,1.07636,256.41,-0.337838)">
            <ellipse cx="8.404" cy="7.432" rx="4.404" ry="3.432"/>
        </g>
        <g transform="matrix(0.95196,0,0,1.07636,769.231,3.55271e-15)">
            <ellipse cx="8.404" cy="7.432" rx="4.404" ry="3.432"/>
        </g>
        <g transform="matrix(0.95196,0,0,1.07636,128.205,0)">
            <ellipse cx="8.404" cy="7.432" rx="4.404" ry="3.432"/>
        </g>
        <g transform="matrix(0.95196,0,0,1.07636,641.026,0.337838)">
            <ellipse cx="8.404" cy="7.432" rx="4.404" ry="3.432"/>
        </g>
        <g transform="matrix(0.95196,0,0,1.07636,384.615,-0.337838)">
            <ellipse cx="8.404" cy="7.432" rx="4.404" ry="3.432"/>
        </g>
        <g transform="matrix(0.95196,0,0,1.07636,64.1026,0)">
            <ellipse cx="8.404" cy="7.432" rx="4.404" ry="3.432"/>
        </g>
        <g transform="matrix(0.95196,0,0,1.07636,576.923,0.337838)">
            <ellipse cx="8.404" cy="7.432" rx="4.404" ry="3.432"/>
        </g>
        <g transform="matrix(0.95196,0,0,1.07636,320.513,-0.337838)">
            <ellipse cx="8.404" cy="7.432" rx="4.404" ry="3.432"/>
        </g>
        <g transform="matrix(0.95196,0,0,1.07636,192.308,0)">
            <ellipse cx="8.404" cy="7.432" rx="4.404" ry="3.432"/>
        </g>
        <g transform="matrix(0.95196,0,0,1.07636,705.128,0.337838)">
            <ellipse cx="8.404" cy="7.432" rx="4.404" ry="3.432"/>
        </g>
        <g transform="matrix(0.95196,0,0,1.07636,448.718,-0.337838)">
            <ellipse cx="8.404" cy="7.432" rx="4.404" ry="3.432"/>
        </g>
        <g transform="matrix(0.95196,0,0,1.07636,32.0513,0)">
            <ellipse cx="8.404" cy="7.432" rx="4.404" ry="3.432"/>
        </g>
        <g transform="matrix(0.95196,0,0,1.07636,544.872,0.337838)">
            <ellipse cx="8.404" cy="7.432" rx="4.404" ry="3.432"/>
        </g>
        <g transform="matrix(0.95196,0,0,1.07636,288.462,-0.337838)">
            <ellipse cx="8.404" cy="7.432" rx="4.404" ry="3.432"/>
        </g>
        <g transform="matrix(0.95196,0,0,1.07636,160.256,0)">
            <ellipse cx="8.404" cy="7.432" rx="4.404" ry="3.432"/>
        </g>
        <g transform="matrix(0.95196,0,0,1.07636,673.077,0.337838)">
            <ellipse cx="8.404" cy="7.432" rx="4.404" ry="3.432"/>
        </g>
        <g transform="matrix(0.95196,0,0,1.07636,416.667,-0.337838)">
            <ellipse cx="8.404" cy="7.432" rx="4.404" ry="3.432"/>
        </g>
        <g transform="matrix(0.95196,0,0,1.07636,96.1539,0)">
            <ellipse cx="8.404" cy="7.432" rx="4.404" ry="3.432"/>
        </g>
        <g transform="matrix(0.95196,0,0,1.07636,608.975,0.337838)">
            <ellipse cx="8.404" cy="7.432" rx="4.404" ry="3.432"/>
        </g>
        <g transform="matrix(0.95196,0,0,1.07636,352.564,-0.337838)">
            <ellipse cx="8.404" cy="7.432" rx="4.404" ry="3.432"/>
        </g>
        <g transform="matrix(0.95196,0,0,1.07636,224.359,0)">
            <ellipse cx="8.404" cy="7.432" rx="4.404" ry="3.432"/>
        </g>
        <g transform="matrix(0.95196,0,0,1.07636,737.18,0.337838)">
            <ellipse cx="8.404" cy="7.432" rx="4.404" ry="3.432"/>
        </g>
        <g transform="matrix(0.95196,0,0,1.07636,480.769,-0.337838)">
            <ellipse cx="8.404" cy="7.432" rx="4.404" ry="3.432"/>
        </g>
    </g>
    <g transform="matrix(1,0,0,0.999937,0,486.345)">
        <g transform="matrix(0.95196,0,0,1.07636,0,0)">
            <ellipse cx="8.404" cy="7.432" rx="4.404" ry="3.432"/>
        </g>
        <g transform="matrix(0.95196,0,0,1.07636,512.821,0.337838)">
            <ellipse cx="8.404" cy="7.432" rx="4.404" ry="3.432"/>
        </g>
        <g transform="matrix(0.95196,0,0,1.07636,256.41,-0.337838)">
            <ellipse cx="8.404" cy="7.432" rx="4.404" ry="3.432"/>
        </g>
        <g transform="matrix(0.95196,0,0,1.07636,769.231,3.55271e-15)">
            <ellipse cx="8.404" cy="7.432" rx="4.404" ry="3.432"/>
        </g>
        <g transform="matrix(0.95196,0,0,1.07636,128.205,0)">
            <ellipse cx="8.404" cy="7.432" rx="4.404" ry="3.432"/>
        </g>
        <g transform="matrix(0.95196,0,0,1.07636,641.026,0.337838)">
            <ellipse cx="8.404" cy="7.432" rx="4.404" ry="3.432"/>
        </g>
        <g transform="matrix(0.95196,0,0,1.07636,384.615,-0.337838)">
            <ellipse cx="8.404" cy="7.432" rx="4.404" ry="3.432"/>
        </g>
        <g transform="matrix(0.95196,0,0,1.07636,64.1026,0)">
            <ellipse cx="8.404" cy="7.432" rx="4.404" ry="3.432"/>
        </g>
        <g transform="matrix(0.95196,0,0,1.07636,576.923,0.337838)">
            <ellipse cx="8.404" cy="7.432" rx="4.404" ry="3.432"/>
        </g>
        <g transform="matrix(0.95196,0,0,1.07636,320.513,-0.337838)">
            <ellipse cx="8.404" cy="7.432" rx="4.404" ry="3.432"/>
        </g>
        <g transform="matrix(0.95196,0,0,1.07636,192.308,0)">
            <ellipse cx="8.404" cy="7.432" rx="4.404" ry="3.432"/>
        </g>
        <g transform="matrix(0.95196,0,0,1.07636,705.128,0.337838)">
            <ellipse cx="8.404" cy="7.432" rx="4.404" ry="3.432"/>
        </g>
        <g transform="matrix(0.95196,0,0,1.07636,448.718,-0.337838)">
            <ellipse cx="8.404" cy="7.432" rx="4.404" ry="3.432"/>
        </g>
        <g transform="matrix(0.95196,0,0,1.07636,32.0513,0)">
            <ellipse cx="8.404" cy="7.432" rx="4.404" ry="3.432"/>
        </g>
        <g transform="matrix(0.95196,0,0,1.07636,544.872,0.337838)">
            <ellipse cx="8.404" cy="7.432" rx="4.404" ry="3.432"/>
        </g>
        <g transform="matrix(0.95196,0,0,1.07636,288.462,-0.337838)">
            <ellipse cx="8.404" cy="7.432" rx="4.404" ry="3.432"/>
        </g>
        <g transform="matrix(0.95196,0,0,1.07636,160.256,0)">
            <ellipse cx="8.404" cy="7.432" rx="4.404" ry="3.432"/>
        </g>
        <g transform="matrix(0.95196,0,0,1.07636,673.077,0.337838)">
            <ellipse cx="8.404" cy="7.432" rx="4.404" ry="3.432"/>
        </g>
        <g transform="matrix(0.95196,0,0,1.07636,416.667,-0.337838)">
            <ellipse cx="8.404" cy="7.432" rx="4.404" ry="3.432"/>
        </g>
        <g transform="matrix(0.95196,0,0,1.07636,96.1539,0)">
            <ellipse cx="8.404" cy="7.432" rx="4.404" ry="3.432"/>
        </g>
        <g transform="matrix(0.95196,0,0,1.07636,608.975,0.337838)">
            <ellipse cx="8.404" cy="7.432" rx="4.404" ry="3.432"/>
        </g>
        <g transform="matrix(0.95196,0,0,1.07636,352.564,-0.337838)">
            <ellipse cx="8.404" cy="7.432" rx="4.404" ry="3.432"/>
        </g>
        <g transform="matrix(0.95196,0,0,1.07636,224.359,0)">
            <ellipse cx="8.404" cy="7.432" rx="4.404" ry="3.432"/>
        </g>
        <g transform="matrix(0.95196,0,0,1.07636,737.18,0.337838)">
            <ellipse cx="8.404" cy="7.432" rx="4.404" ry="3.432"/>
        </g>
        <g transform="matrix(0.95196,0,0,1.07636,480.769,-0.337838)">
            <ellipse cx="8.404" cy="7.432" rx="4.404" ry="3.432"/>
        </g>
    </g>
</svg>
