<svg width="100" height="100" viewBox="0 0 100 100" fill="none" xmlns="http://www.w3.org/2000/svg">
<path d="M90.8615 21.8295C75.0734 -5.55389 47.4186 -4.88208 21.1713 11.2063C-5.07594 27.2948 -6.27209 58.8278 14.0032 80.9196C34.2785 103.011 57.0131 105.997 79.244 89.4714C101.475 72.9456 106.65 49.213 90.8615 21.8295Z" fill="#0F2D5A"/>
<path fill-rule="evenodd" clip-rule="evenodd" d="M25.7092 36.1766C24.5891 38.6522 22.432 40.6086 19.238 40.7653V31.8892H16.5684V47.6851H19.238V43.1655C19.9506 43.143 20.607 43.0629 21.2129 42.9345L24.5543 47.6851H27.8224L23.6163 42.0614C25.7136 40.9257 26.9603 39.0935 27.8671 37.4033L25.7092 36.1766ZM34.7957 36.2218C31.7578 36.2218 30.1238 37.9819 29.2492 39.3584L31.3205 40.5544C31.9419 39.2456 32.9545 38.2527 34.6806 38.2527C36.4067 38.2527 37.3042 39.2456 37.3042 40.4641V40.8477L32.7474 41.3216C30.538 41.5247 28.9731 42.653 28.9731 44.571C28.9731 46.6696 30.6761 48.001 33.2307 48.001C35.6242 48.001 36.5448 46.8953 37.0281 46.0152H37.3503V47.6851H39.8358V40.6446C39.8358 37.9593 37.8106 36.2218 34.7957 36.2218ZM33.8061 45.925C32.4022 45.925 31.5967 45.3383 31.5967 44.4808C31.5967 43.691 32.2411 43.1945 33.4378 43.0591L37.3042 42.653V42.8561C37.3042 44.6839 35.9694 45.925 33.8061 45.925ZM43.7943 31.4604C42.7356 31.4604 41.9301 32.1825 41.9301 33.2431C41.9301 34.2811 42.7356 35.0032 43.7943 35.0032C44.8529 35.0032 45.6584 34.2811 45.6584 33.2431C45.6584 32.1825 44.8529 31.4604 43.7943 31.4604ZM45.0601 47.6851V36.5603H42.5515V47.6851H45.0601ZM53 36.2218C49.9621 36.2218 48.3281 37.9819 47.4535 39.3584L49.5248 40.5544C50.1462 39.2456 51.1589 38.2527 52.8849 38.2527C54.611 38.2527 55.5086 39.2456 55.5086 40.4641V40.8477L50.9517 41.3216C48.7424 41.5247 47.1774 42.653 47.1774 44.571C47.1774 46.6696 48.8804 48.001 51.435 48.001C53.8285 48.001 54.7491 46.8953 55.2324 46.0152H55.5546V47.6851H58.0401V40.6446C58.0401 37.9593 56.0149 36.2218 53 36.2218ZM52.0104 45.925C50.6065 45.925 49.801 45.3383 49.801 44.4808C49.801 43.691 50.4454 43.1945 51.6422 43.0591L55.5086 42.653V42.8561C55.5086 44.6839 54.1737 45.925 52.0104 45.925ZM16.5684 66.7894V50.8528H17.7342V57.8649H18.0139C18.6435 56.7038 19.8326 55.5427 22.2108 55.5427C24.589 55.5427 26.7341 56.977 26.7341 60.0505V66.7894H25.5683V60.1416C25.5683 57.6373 24.146 56.59 21.9776 56.59C19.5761 56.59 17.7342 58.1381 17.7342 61.2799V66.7894H16.5684ZM35.1276 67.1082C31.6069 67.1082 29.322 64.5355 29.322 61.1889C29.322 57.9332 31.7235 55.4517 34.9644 55.4517C38.0887 55.4517 40.3504 57.4324 40.3504 60.8018V61.5304H30.5344C30.6976 64.3534 32.4929 66.0609 35.1276 66.0609C37.3193 66.0609 38.4152 64.9453 39.068 63.5111L40.1872 63.9436C39.4177 65.4917 38.1354 67.1082 35.1276 67.1082ZM34.9644 56.4989C32.5862 56.4989 30.8142 58.0243 30.5344 60.5286H39.138C39.0447 57.8877 37.366 56.4989 34.9644 56.4989ZM42.7158 58.935L43.7651 59.3903C44.6044 57.7283 45.9334 56.4989 48.2417 56.4989C50.5966 56.4989 51.9023 57.7966 51.9023 59.7318V60.392L46.9593 60.8246C44.7676 61.0067 42.6226 61.9174 42.6226 63.9664C42.6226 65.9698 44.6044 67.1082 46.9127 67.1082C49.5241 67.1082 50.9463 65.9243 51.6225 64.7632H51.9489V66.7894H53.0681V59.8229C53.0681 57.2047 51.366 55.4517 48.2883 55.4517C45.3738 55.4517 43.5552 57.2047 42.7158 58.935ZM43.7884 64.0119C43.7884 62.5776 45.164 61.9629 47.1925 61.7808L51.9023 61.371V61.6442C51.9023 64.5128 49.8038 66.1064 46.9593 66.1064C45.2573 66.1064 43.7884 65.4462 43.7884 64.0119ZM56.7538 50.8528H57.9196V66.7894H56.7538V50.8528ZM60.1548 55.7704V56.7721H64.0252V65.2868C64.0252 66.243 64.5848 66.7894 65.5174 66.7894H68.5951V65.7877H65.8439C65.4242 65.7877 65.191 65.56 65.191 65.1047V56.7721H69.248V55.7704H65.191V51.5358H64.0252V55.7704H60.1548ZM72.1003 66.7894V50.8528H73.2661V57.8649H73.5459C74.1754 56.7038 75.3645 55.5427 77.7428 55.5427C80.121 55.5427 82.266 56.977 82.266 60.0505V66.7894H81.1002V60.1416C81.1002 57.6373 79.678 56.59 77.5096 56.59C75.1081 56.59 73.2661 58.1381 73.2661 61.2799V66.7894H72.1003Z" fill="white"/>
</svg>
