<svg width="1376" height="576" viewBox="0 0 1376 576" fill="none" xmlns="http://www.w3.org/2000/svg">
<mask id="mask0_44_11196" style="mask-type:alpha" maskUnits="userSpaceOnUse" x="0" y="0" width="1376" height="576">
<rect opacity="0.1" width="1376" height="576" rx="12" fill="#FFF9EB"/>
</mask>
<g mask="url(#mask0_44_11196)">
<path d="M1957.61 443.916C2179.29 737.745 2357.48 890.062 2529.37 841.608M1932.23 426.196C2037.6 582.662 2125.92 699.934 2207.94 781.018C2289.85 861.714 2365.47 906.223 2442.83 908.224M1906.74 407.777C2007.82 573.146 2085.66 695.257 2156.92 785.554C2227.96 875.232 2292.41 933.096 2361.5 955.652M1881.13 388.681C1979.05 562.556 2047.51 688.57 2108.89 785.548C2169.94 881.748 2223.91 948.912 2285 987.113M1855.41 368.931C1951.23 550.986 2011.32 680.125 2063.65 781.718C2115.53 882.43 2159.64 955.594 2212.98 1005.33M1829.58 348.55C1924.28 538.516 1976.96 670.137 2021 774.671C2064.47 878.258 2099.3 954.759 2145.12 1012.61M1803.64 327.56C1898.15 525.22 1944.3 658.792 1980.75 764.92C2016.51 870.062 2042.58 947.76 2081.1 1010.87M1777.58 305.986C1872.77 511.157 1913.21 646.25 1942.73 752.897C1971.45 858.534 1989.23 935.725 2020.65 1001.76M1751.4 283.85C1848.07 496.382 1883.58 632.645 1906.77 738.962C1929.04 844.254 1938.99 919.599 1963.49 986.642M1725.11 261.175C1824 480.94 1855.29 618.096 1872.71 723.418C1889.1 827.707 1891.62 900.163 1909.38 966.653M1698.7 237.986C1800.49 464.866 1828.22 602.695 1840.39 706.515C1851.43 809.293 1846.9 878.062 1858.07 942.751M1672.18 214.306C1777.47 448.194 1802.26 586.523 1809.66 688.459C1815.83 789.342 1804.6 853.832 1809.36 915.732M1645.54 190.16C1754.89 430.943 1777.3 569.644 1780.38 669.418C1782.13 768.127 1764.53 827.909 1763.02 886.253M1618.79 165.571C1732.67 413.133 1753.24 552.109 1752.41 649.529C1750.15 745.867 1726.5 800.651 1718.86 854.86M1591.91 140.565C1710.76 394.773 1729.96 533.956 1725.61 628.899C1719.74 722.742 1690.31 772.344 1676.69 822M1564.92 115.165C1689.09 375.872 1707.36 515.217 1699.85 607.614C1690.72 698.892 1655.79 743.222 1636.33 788.039M1537.81 89.3979C1667.59 356.43 1685.35 495.91 1674.99 585.739C1662.94 674.428 1622.78 713.465 1597.6 753.273M1510.58 63.2872C1646.21 336.447 1663.81 476.047 1650.92 563.32C1636.25 649.433 1591.09 683.217 1560.35 717.943M1483.24 36.8593C1555.09 177.602 1593.93 281.192 1614.07 361.393C1634.01 441.4 1635.26 498.017 1627.44 540.308C1611.28 625.13 1559.77 651.386 1524.42 682.238M1455.77 10.1392C1530.74 153.729 1571.17 258.729 1591.93 339.35C1612.49 419.773 1613.37 475.817 1604.54 516.881C1586.36 599.276 1530.23 620.417 1489.65 646.311M1428.18 -16.8481C1506.28 129.425 1548.39 235.771 1569.87 316.788C1591.14 397.604 1591.78 453.092 1582.05 492.97C1562.09 573.007 1501.55 589.216 1455.88 610.277M1400.48 -44.0738C1481.7 104.696 1525.54 212.315 1547.81 293.701C1569.87 374.885 1570.36 429.837 1559.85 468.574C1538.31 546.337 1473.59 557.824 1422.99 574.227M1372.65 -71.5142C1456.95 79.5449 1502.54 188.354 1525.67 270.077C1548.58 351.6 1549.01 406.036 1537.81 443.682C1514.89 519.265 1446.19 526.26 1390.83 538.226M1344.7 -99.1431C1432 53.9738 1479.36 163.879 1503.38 245.902C1527.17 327.728 1527.63 381.671 1515.81 418.277C1491.68 491.78 1419.23 494.533 1359.25 502.321M1316.64 -126.932C1406.83 27.9883 1455.92 138.883 1480.86 221.161C1505.56 303.246 1506.09 356.716 1493.74 392.338C1468.55 463.866 1392.54 462.642 1328.13 466.546M1288.45 -154.856C1471.75 155.723 1496.67 296.375 1471.55 365.913C1444.32 434.378 1367.06 431.729 1297.33 430.92M1260.13 -182.886C1448.57 130.278 1474.92 271.026 1448.97 338.809C1420.9 405.587 1340.53 399.4 1266.72 395.458M1231.7 -210.995C1424.88 104.136 1452.66 244.938 1425.96 311.076C1397.15 376.291 1313.86 366.843 1236.17 360.165M1238.87 328.423C1307.25 408.386 1373.3 487.591 1444.62 567.616C1515.99 647.255 1592.63 727.714 1683.28 801.265C1728.59 838.826 1777.53 873.092 1831.33 903.157C1885.15 933.009 1943.84 958.662 2009.05 974.092C2074.26 989.308 2145.99 994.303 2226.27 977.935C2306.57 961.353 2395.41 923.409 2495.23 847.832M1271.01 331.216C1336.47 408.997 1398.93 484.847 1466.09 560.67C1533.3 636.15 1605.22 711.605 1690.55 780.819C1775.95 849.976 1874.76 912.869 1998.23 945.715C2121.95 975.578 2270.32 975.394 2460.53 849.64M1302.03 332.24C1427.97 480.716 1538.22 629.068 1698.47 758.626C1778.74 822.893 1871.63 883.509 1988.18 915.904C2104.94 946.171 2245.37 948.218 2425.52 846.286M1331.01 330.247C1452.34 474.824 1555.91 613.975 1706.42 735.132C1781.8 795.24 1868.99 851.662 1978.58 883.779C2088.35 914.095 2220.51 920.105 2390.13 837.891M1357.01 324.022C1474.48 464.89 1572.42 595.704 1713.83 709.093C1784.64 765.353 1866.37 817.843 1969.04 849.519C2071.87 879.699 2195.64 889.064 2354.32 824.574M1379.06 312.38C1493.49 449.841 1586.96 573.338 1720.08 679.813C1786.72 732.646 1863.3 781.607 1959.19 812.838C2055.22 842.847 2170.56 855.127 2318 806.45M1396.14 294.16C1508.42 428.62 1598.73 545.972 1724.49 646.59C1787.44 696.527 1859.26 742.485 1948.62 773.412C2038.09 803.362 2145.09 818.279 2281.12 783.625M1407.19 268.203C1518.26 400.161 1606.82 512.691 1726.36 608.709C1786.17 656.378 1853.73 699.98 1936.89 730.884C2020.15 761.023 2119 778.463 2243.61 756.206M1411.04 233.326C1521.92 363.368 1610.3 472.555 1724.9 565.423C1782.24 611.552 1846.12 653.558 1923.55 684.855C2001.04 715.571 2092.07 735.577 2205.41 724.296M1406.46 188.285C1518.19 317.065 1608.09 424.558 1719.27 515.931C1774.88 561.354 1835.8 602.635 1908.07 634.883C1980.4 666.7 2064.07 689.481 2166.44 687.996M1392.07 131.753C1505.77 259.968 1599.06 367.604 1708.53 459.36C1763.28 505.02 1822.08 546.571 1889.93 580.469C1957.81 614.062 2034.75 640.002 2126.66 647.406M1366.36 62.2902C1483.07 191.566 1582.01 299.559 1691.65 394.811C1801.47 488.281 1921.98 569.011 2085.99 602.627M1327.62 -21.6404C1448.72 108.015 1555.24 221.207 1667.51 320.989C1779.87 419.685 1897.98 504.971 2044.36 553.76M1202.54 -240.102C1469.9 23.484 1721.38 281.856 1957.66 443.741M1273.94 -121.624C1400.66 8.94007 1517.3 129.621 1634.8 236.766C1752.34 343.43 1870.75 436.557 2001.72 500.909M2529.88 841.464C2615.81 816.69 2700.17 741.309 2787.56 602.495C2874.96 463.334 2965.38 260.74 3063.44 -26.5061M2443.29 908.234C2520.61 909.573 2599.7 868.14 2687.17 761.807C2774.61 654.215 2870.42 481.723 2980.65 191.868M2361.91 955.781C2430.94 977.647 2504.63 963.624 2591.56 887.644C2678.43 809.474 2778.55 669.345 2899.06 388.43M2285.36 987.334C2315.9 1006.78 2348.17 1017.33 2383.57 1018.06C2418.97 1018.59 2457.51 1009.3 2500.41 984.637C2543.32 959.777 2590.59 919.537 2643.31 853.742C2696.02 787.756 2754.18 696.214 2818.69 564.312M2213.29 1005.62C2266.56 1053.86 2329.14 1081.06 2413.43 1057.17C2455.54 1044.62 2503.01 1018.45 2557.02 967.688C2611.02 916.555 2671.56 840.825 2739.53 720.627M2145.38 1012.94C2191.14 1069.3 2248.05 1110.08 2330.33 1108.75C2371.42 1107.42 2418.77 1094.68 2473.65 1058.88C2528.51 1022.63 2590.89 963.325 2661.58 858.457M2081.32 1011.24C2119.78 1072.95 2170.96 1123.77 2250.84 1142.5C2290.72 1151.17 2337.67 1150.93 2393.03 1129.96C2448.36 1108.47 2512.09 1066.24 2584.84 978.862M2020.83 1002.15C2052.19 1066.92 2097.58 1124.79 2174.71 1161.14C2213.2 1178.62 2259.51 1189.87 2315.01 1183.32C2370.46 1176.18 2435.1 1151.24 2509.3 1082.88M1963.63 987.036C1988.08 1052.99 2027.64 1115.38 2101.71 1167.03C2138.66 1192.16 2184.11 1213.85 2239.43 1221.1C2294.7 1227.72 2359.84 1219.9 2434.98 1171.51M1909.48 967.045C1927.2 1032.65 1960.88 1097.44 2031.62 1162.19C2066.89 1193.91 2111.28 1224.95 2166.16 1245.23C2220.97 1264.85 2286.28 1273.7 2361.87 1245.75M1858.14 943.134C1869.3 1007.17 1897.07 1072.58 1964.24 1148.39C1997.71 1185.68 2040.86 1225.01 2095.06 1257.44C2149.17 1289.18 2214.33 1314.02 2289.96 1306.55M1809.38 916.099C1814.14 977.581 1835.98 1042.18 1899.37 1127.14C1936.16 1176.08 1978.68 1220.43 2026 1259.27C2079.21 1302.19 2143.95 1342.15 2219.25 1354.86M1763.01 886.601C1761.51 944.768 1777.4 1007.39 1836.84 1099.78C1866.4 1145.48 1906.66 1198.31 1958.89 1252.11C2011 1305.21 2075.09 1359.28 2149.76 1391.57M1718.81 855.184C1711.21 909.453 1721.15 969.173 1776.47 1067.41C1803.96 1116.11 1842.59 1174.25 1893.59 1237.2C1944.46 1299.48 2007.7 1366.56 2081.47 1417.59M1676.61 822.298C1663.04 872.239 1667.03 928.352 1718.11 1031.04C1743.47 1082.02 1780.37 1144.58 1830 1215.66C1879.5 1286.09 1941.72 1365.04 2014.38 1433.77M1636.21 788.309C1616.82 833.623 1614.88 885.609 1661.61 991.481C1684.78 1044.13 1719.88 1110.3 1768.04 1188.5C1816.04 1266.08 1877.12 1355.7 1948.49 1440.94M1597.46 753.514C1572.39 794.011 1564.53 841.509 1606.84 949.475C1627.78 1003.24 1661 1072.26 1707.61 1156.61C1754.03 1240.37 1813.85 1339.47 1883.81 1439.94M1560.18 718.154C1529.57 753.737 1515.82 796.526 1553.65 905.637C1572.33 960.036 1603.63 1031.23 1648.61 1120.8C1693.4 1209.82 1751.86 1317.21 1820.34 1431.54M1524.21 682.421C1488.2 713.073 1468.62 751.054 1501.93 860.503C1518.33 915.128 1547.67 987.899 1590.98 1081.8C1634.07 1175.2 1691.14 1289.73 1758.06 1416.5M1489.4 646.465C1448.15 672.238 1422.79 705.416 1451.56 814.534C1465.68 869.039 1493.03 942.854 1534.63 1040.26C1576.01 1137.23 1631.63 1257.8 1696.99 1395.58M1455.61 610.403C1409.25 631.407 1378.2 659.879 1402.43 768.124C1414.27 822.231 1439.62 896.631 1479.51 996.795C1519.14 1096.57 1573.31 1222.11 1637.12 1369.49M1422.69 574.325C1371.38 590.72 1334.71 614.661 1354.44 721.613C1364.01 775.101 1387.37 849.696 1425.53 951.924C1463.44 1053.81 1516.15 1183.34 1578.45 1338.93M1390.5 538.298C1334.41 550.287 1292.22 569.942 1307.49 675.295C1314.82 728.002 1336.19 802.468 1372.66 906.138C1408.85 1009.52 1460.13 1142.12 1520.98 1304.55M1358.9 502.368C1298.19 510.197 1250.62 525.871 1261.49 629.427C1266.62 681.242 1286.02 755.322 1320.82 859.882C1355.32 964.212 1405.21 1099.02 1464.71 1267.01M1327.75 466.571C1262.6 470.518 1209.78 482.571 1216.35 584.232C1219.32 635.095 1236.8 708.595 1269.97 813.562C1302.83 918.355 1351.39 1054.61 1409.64 1226.94M1296.92 430.925C1227.52 431.303 1169.62 440.141 1172 539.905C1172.87 589.803 1188.47 662.585 1220.06 767.55C1251.35 872.391 1298.63 1009.41 1355.78 1184.92M1266.29 395.444C1192.83 392.596 1130.02 398.671 1128.35 496.623C1127.19 545.587 1140.97 617.569 1171.06 722.189C1200.84 826.733 1246.93 963.915 1303.11 1141.53M1235.72 360.134C1158.41 354.433 1090.91 358.238 1085.34 454.543C1082.23 502.645 1094.26 573.8 1122.93 677.798C1151.28 781.766 1196.27 918.576 1251.64 1097.32M1201.7 1053.89C1317.66 1157.57 1443.44 1263.87 1579.04 1339.99C1714.64 1415.71 1860.06 1461.23 2015.31 1434.1C2170.57 1406.56 2335.66 1306.36 2510.6 1081.39C2685.54 856.012 2870.33 505.858 3065 -30.8458M1158.99 915.25C1273.69 1017.98 1397.04 1128.54 1529.76 1217.34C1662.51 1305.64 1804.62 1372.19 1957.56 1375.52C2110.54 1377.91 2274.35 1317.08 2451.3 1129.17C2628.29 939.896 2818.42 623.548 3024.89 83.4082M1123.06 798.82C1236.17 899.89 1357.01 1012.68 1486.91 1110.21C1616.86 1207.23 1755.89 1288.99 1906.61 1316.34C2057.4 1342.33 2219.88 1313.89 2398.22 1159.19C2576.63 1002.28 2770.9 719.113 2986.96 184.691M1093.19 698.34C1204.35 797.396 1322.43 911.079 1449.38 1014.59C1576.4 1117.63 1712.29 1210.49 1860.65 1257.21C2009.1 1302.23 2170.01 1301.07 2349.12 1176.75C2528.34 1049.48 2725.75 799.055 2949.71 277.626M1069.95 612.713C1178.8 709.687 1293.86 823.294 1417.65 930.586C1541.52 1037.48 1674.13 1138.06 1819.89 1199.89C1892.79 1230.68 1969.04 1250.14 2049.42 1250.99C2129.8 1251.6 2214.32 1233.6 2303.95 1184.34C2393.59 1134.85 2488.34 1054.11 2589.42 924.137C2690.51 793.94 2797.91 614.511 2913.06 362.53M1053.64 540.784C1159.83 637.896 1271.63 748.146 1392.01 857.479C1512.48 965.994 1641.54 1073.59 1784.38 1146.51C1855.81 1183.54 1930.77 1209.81 2010.13 1219.33C2089.5 1228.56 2173.28 1221.04 2262.6 1183.94C2351.94 1146.55 2446.83 1079.59 2548.7 963.394C2650.57 846.908 2759.42 681.183 2876.95 439.702M1044.3 481.386C1147.57 577.093 1255.8 685.54 1372.5 795.544C1489.29 904.735 1614.56 1015.48 1754.11 1097.04C1823.92 1137.38 1897.36 1169.91 1975.45 1186.85C2053.55 1203.6 2136.29 1204.77 2224.96 1178C2313.64 1150.91 2408.25 1095.88 2510.37 993.036C2612.51 889.753 2722.16 738.651 2841.31 509.424M1041.78 433.378C1141.88 527.787 1246.29 634.116 1359.04 743.662C1471.89 852.414 1593.08 964.383 1728.97 1051.77C1796.95 1095.04 1868.67 1131.69 1945.23 1154.33C2021.8 1176.77 2103.22 1185.2 2190.87 1167.49C2278.53 1149.45 2372.43 1105.25 2474.3 1014.8C2576.19 923.877 2686.05 786.696 2806.08 571.959M1045.76 395.644C1142.49 488.823 1242.86 592.793 1351.41 700.984C1460.06 808.414 1576.89 920.065 1708.74 1011.03C1774.71 1056.11 1844.49 1095.59 1919.28 1122.54C1994.08 1149.29 2073.88 1163.51 2160.16 1153.48C2246.45 1143.11 2339.23 1108.49 2440.35 1029.66C2541.5 950.353 2650.99 826.846 2771.2 627.558M1055.77 367.085C1148.99 459.038 1245.13 560.449 1349.26 666.557C1453.49 771.943 1565.7 882.027 1693.17 974.662C1756.94 1020.61 1824.6 1061.81 1897.37 1091.86C1970.15 1121.71 2048.05 1140.41 2132.63 1136.78C2217.22 1132.82 2308.49 1106.53 2408.39 1038.5C2508.32 969.975 2616.89 859.703 2736.6 676.451M1071.25 346.602C1160.83 437.274 1252.62 535.944 1352.16 639.37C1451.79 742.12 1559.17 849.625 1681.93 942.347C1743.36 988.365 1808.69 1030.37 1879.23 1062.46C1949.77 1094.36 2025.52 1116.36 2108.07 1117.98C2190.65 1119.26 2280.03 1100.15 2378.27 1042.03C2476.53 983.428 2583.64 885.813 2702.21 718.858M1091.52 333.077C1177.42 422.36 1264.78 518.117 1359.61 618.37C1454.52 717.995 1556.88 822.115 1674.66 913.748C1792.63 1003.35 1925.86 1084.73 2086.27 1097.48C2166.53 1102.96 2253.69 1089.95 2349.84 1040.86C2446.01 991.303 2551.16 905.665 2667.97 754.98M1115.84 325.361C1198.06 413.109 1280.98 505.794 1371.03 602.478C1461.14 698.584 1558.38 798.69 1670.97 888.044C1783.74 975.521 1911.7 1056.35 2066.97 1075.56C2144.66 1084.32 2229.27 1076.42 2322.93 1035.49C2416.62 994.11 2519.34 919.693 2633.82 785.011M1143.43 322.269C1222.02 408.315 1300.55 497.786 1385.81 590.596C1471.13 682.876 1563.19 778.497 1670.43 864.747C1777.84 949.283 1900.27 1028.33 2049.92 1052.37C2124.81 1063.61 2206.59 1059.94 2297.4 1026.32C2388.23 992.275 2488.09 928.283 2599.69 809.13M1205.33 325.022C1276.99 407.181 1347.07 489.917 1422.97 574.358C1498.92 658.366 1580.68 744.08 1676.97 822.17C1725.1 862.097 1776.99 898.344 1833.89 929.791C1890.82 960.997 1952.76 987.403 2021.4 1002.1C2090.06 1016.56 2165.42 1019.32 2249.57 997.675C2333.74 975.792 2426.7 929.516 2530.97 840.36M1173.47 322.568C1248.53 406.751 1322.76 492.898 1403.29 581.615C1483.89 669.852 1570.78 760.658 1672.57 843.187C1774.53 924.168 1891.23 1000.47 2034.86 1027.96C2106.73 1040.99 2185.43 1040.77 2273.06 1013.66C2360.72 986.157 2457.31 931.771 2565.51 827.502M1203.14 -239.16C1400.62 77.2749 1429.77 218.069 1402.39 282.667C1372.91 346.443 1286.89 334.024 1205.56 325.038M1174.46 -267.345C1375.71 49.6859 1406.17 190.391 1378.16 253.554C1348.07 316.012 1259.51 300.928 1174.76 290.089M1145.66 -295.526C1350.11 21.3517 1381.74 161.862 1353.13 223.692C1322.47 284.949 1231.57 267.526 1143.65 255.315M1116.73 -323.673C1323.75 -7.73918 1356.4 132.446 1327.2 193.042C1295.99 253.214 1202.93 233.796 1112.11 220.722M1087.68 -351.759C1296.56 -37.5922 1330.03 102.107 1300.23 161.567C1268.48 220.763 1173.46 199.719 1080.03 186.32M1058.5 -379.754C1268.49 -68.2115 1302.53 70.8122 1272.13 129.232C1239.81 187.561 1143.04 165.286 1047.28 152.129M1029.2 -407.63C1239.47 -99.5945 1273.82 38.5307 1242.75 96.0084C1209.84 153.575 1111.52 130.495 1013.75 118.181M999.777 -435.356C1209.44 -131.731 1243.77 5.23946 1212 61.8734C1178.45 118.782 1078.78 95.3548 979.347 84.5179M970.225 -462.903C1178.34 -164.606 1212.31 -29.0785 1179.75 26.8166C1145.49 83.1721 1044.71 59.8961 943.955 51.2041M940.548 -490.241C1146.1 -198.195 1179.31 -64.4334 1145.89 -9.16435C1110.85 46.7456 1009.18 24.1632 907.479 18.3226M910.745 -517.341C1112.67 -232.467 1144.7 -100.821 1110.32 -46.0535C1074.4 9.5262 972.073 -11.7718 869.825 -14.018M880.816 -544.169C1077.97 -267.379 1108.35 -138.225 1072.9 -83.8174C1036.01 -28.4398 933.282 -47.8101 830.907 -45.6791M850.758 -570.696C1041.96 -302.879 1070.19 -176.609 1033.55 -122.396C995.561 -67.0773 892.705 -83.8151 790.645 -76.4843M820.574 -596.892C1004.55 -338.903 1030.1 -215.92 992.146 -161.703C952.945 -106.272 850.241 -119.608 748.969 -106.219M790.261 -622.724C965.707 -375.376 988.001 -256.074 948.596 -201.616C908.05 -145.869 805.806 -154.963 705.815 -134.616M759.821 -648.16C925.352 -412.206 943.792 -296.962 902.801 -241.972C860.776 -185.656 759.32 -189.592 661.132 -161.356M729.252 -673.168C883.422 -449.292 897.38 -338.436 854.667 -282.557C811.025 -225.359 710.714 -223.14 614.88 -186.057M698.554 -697.717C839.86 -486.516 848.675 -380.304 804.104 -323.1C758.71 -264.631 659.929 -255.17 567.032 -208.261M667.727 -721.773C794.599 -523.743 797.59 -422.327 751.03 -363.26C703.751 -303.032 606.92 -285.154 517.573 -227.43M636.77 -745.302C747.581 -560.824 744.042 -464.206 695.369 -402.616C646.081 -340.023 551.659 -312.457 466.507 -242.934M605.684 -768.272C698.735 -597.593 687.943 -505.578 637.049 -440.659C585.639 -374.943 494.128 -336.324 413.85 -254.042M574.468 -790.649C648.004 -633.867 629.218 -545.998 576.009 -476.771C522.38 -406.996 434.328 -355.861 359.641 -259.907M543.12 -812.399C595.324 -669.445 567.792 -584.936 512.196 -510.213C456.271 -435.226 372.281 -370.023 303.938 -259.56M511.642 -833.488C540.628 -704.11 503.592 -621.758 445.566 -540.112C387.291 -458.499 308.027 -377.59 246.82 -251.894M480.032 -853.881C483.856 -737.624 436.553 -655.713 376.083 -565.43C315.438 -475.476 241.627 -377.149 188.389 -235.659M448.291 -873.542C424.942 -769.74 366.612 -685.922 303.724 -584.964C240.725 -484.593 173.168 -367.082 128.774 -209.448M416.418 -892.436C363.823 -800.183 293.714 -711.351 228.478 -597.307C163.182 -484.03 102.761 -345.54 68.1314 -171.688M352.273 -927.782C234.708 -854.902 138.848 -742.894 69.3429 -593.682C-0.16265 -445.135 -43.3139 -259.385 -55.4631 -54.3932M384.412 -910.529C300.433 -828.671 217.807 -730.804 150.347 -600.835C82.8623 -471.682 30.5441 -310.427 6.64684 -120.641M-48.7335 -137.47C108.582 -293.076 257.584 -316.145 391.114 -296.938C524.973 -275.451 643.362 -211.688 747.04 -141.066C955.247 3.88836 1103.1 172.109 1239.31 328.936M-38.9245 -215.9C128.479 -353.935 284.184 -360.808 422.283 -329.116C560.69 -295.021 681.492 -222.362 786.213 -145.896C996.422 10.3389 1140.99 179.161 1271.43 331.714M-25.9542 -291.788C150.284 -410.763 311.64 -401.932 453.526 -358.474C595.696 -312.542 718.396 -231.983 823.88 -150.415C1035.52 15.6054 1177.17 184.422 1302.43 332.725M-9.89004 -364.834C173.64 -463.669 339.405 -440.012 484.161 -385.776C629.174 -329.054 753.176 -241.753 859.094 -155.912C1071.51 18.2612 1210.65 186.536 1331.4 330.718M9.20285 -434.774C198.185 -512.85 366.923 -475.623 513.495 -411.852C660.293 -345.646 784.925 -252.897 890.902 -163.677C1103.35 16.8987 1240.4 184.174 1357.39 324.48M31.2602 -501.378C223.553 -558.585 393.632 -509.394 540.829 -437.567C688.219 -363.417 812.727 -266.631 918.338 -174.986C1129.96 10.1464 1265.39 176.048 1379.43 312.826M56.214 -564.445C249.375 -601.223 418.969 -541.997 565.458 -463.801C712.108 -383.458 835.651 -284.143 940.417 -191.079C1150.26 -3.32728 1284.55 160.898 1396.51 294.596M83.9999 -623.81C275.28 -641.172 442.362 -574.126 586.664 -491.439C731.095 -406.832 852.746 -306.584 956.126 -213.156C1163.12 -24.8245 1296.72 137.473 1407.54 268.63M114.552 -679.334C300.892 -678.894 463.229 -606.482 603.714 -521.343C744.297 -434.557 863.028 -335.045 964.413 -242.366C1167.35 -55.6214 1300.71 104.51 1411.4 233.745M147.805 -730.911C325.84 -714.889 480.985 -639.757 615.857 -554.342C750.798 -467.589 865.469 -370.553 964.171 -279.805C1161.69 -96.9803 1295.22 60.7012 1406.82 188.701M183.692 -778.462C349.746 -749.692 495.027 -674.622 622.315 -591.22C749.65 -506.803 858.991 -414.055 954.229 -326.507C1144.77 -150.149 1278.84 4.67777 1392.44 132.166M222.148 -821.935C372.234 -783.865 504.744 -711.718 622.283 -632.699C739.849 -552.985 842.445 -466.399 933.32 -383.425C1115.11 -216.339 1249.98 -65.0022 1366.73 62.704M263.107 -861.307C392.932 -817.986 509.507 -751.639 614.919 -679.416C720.344 -606.791 814.605 -528.287 900.085 -451.383C1071.07 -296.658 1206.9 -149.815 1328.01 -21.226M352.623 -928C652.401 -770.593 935.632 -502.308 1202.97 -239.68M306.505 -896.581C516.462 -807.078 695.249 -669.036 853.024 -531.037C1010.83 -391.394 1147.63 -251.794 1274.34 -121.206M1205.09 324.993C1124.15 316.839 1052.17 318.905 1042.89 413.805C1037.92 461.156 1048.29 531.505 1075.63 634.667C1102.64 737.844 1146.63 873.834 1201.37 1052.82M1174.27 290.032C1089.93 279.858 1013.74 280.753 1000.96 374.559C994.238 421.306 1003.03 490.914 1029.14 593.088C1054.93 695.318 1098.03 830.114 1152.3 1008.53M1143.14 255.25C1055.65 243.514 975.533 243.845 959.476 336.932C951.119 383.253 958.446 452.228 983.443 553.319C1008.11 654.503 1050.44 787.803 1104.43 964.929M1111.59 220.651C1021.21 207.844 937.463 208.248 918.39 301.051C908.529 347.156 914.509 415.645 938.511 515.61C962.181 615.703 1003.87 747.272 1057.76 922.472M1079.48 186.246C986.49 172.891 899.459 174.044 877.653 267.048C866.43 313.173 871.195 381.356 894.331 480.202C917.137 579.205 958.315 708.87 1012.29 881.59M1046.72 152.056C951.409 138.708 861.458 141.322 837.227 235.059C824.798 281.466 828.49 349.553 850.898 447.328C872.979 545.288 913.777 672.935 968.025 842.691M1013.18 118.111C915.866 105.36 823.392 110.181 797.07 205.223C783.605 252.194 786.378 320.421 808.204 417.215C829.708 514.214 870.264 639.779 924.956 806.158M978.767 84.4559C929.398 79.3369 880.839 77.5581 841.334 90.2918C801.79 102.822 771.301 129.864 757.155 177.691C742.834 225.527 744.854 294.151 766.247 390.083C787.327 486.238 827.781 609.7 883.087 772.351M943.367 51.154C893.332 47.0635 844.039 46.5978 803.793 60.8496C763.508 74.8718 732.268 103.61 717.457 152.624C702.475 201.639 703.918 270.933 725.038 366.15C745.852 461.604 786.343 582.981 842.418 741.606M906.885 18.288C856.366 15.5761 806.558 16.8164 765.79 32.9667C724.986 48.8626 693.223 79.6677 677.954 130.195C662.518 180.715 663.573 250.962 684.581 345.632C705.294 440.547 745.96 559.887 802.949 714.236M869.228 -14.0324C818.423 -14.9966 768.327 -11.6389 727.275 6.80475C686.188 24.97 654.144 58.22 638.635 110.594C622.968 162.952 623.832 234.438 644.893 328.742C665.672 423.295 706.647 540.665 764.68 690.53M830.309 -45.6689C779.425 -44.4954 729.287 -38.5886 688.201 -17.4461C647.082 3.39518 615.013 39.4722 599.496 94.0281C583.828 148.556 584.71 221.569 605.994 315.693C627.008 410.065 668.425 525.548 727.611 670.753M790.049 -76.4443C739.306 -72.7259 689.386 -63.8204 648.531 -39.5647C607.644 -15.6299 575.822 23.6552 560.541 80.7232C545.117 137.751 546.232 212.566 567.91 306.694C589.332 401.067 631.316 514.752 691.744 655.147M748.377 -106.143C698.008 -99.4514 648.579 -87.0821 608.235 -59.294C567.86 -31.8422 536.569 11.0276 521.779 70.9262C506.855 130.772 508.43 207.651 530.671 301.958C552.673 396.502 595.341 508.474 657.078 643.929M705.23 -134.501C655.481 -124.389 606.832 -108.078 567.292 -76.3364C527.724 -44.9455 497.266 1.87527 483.233 64.9049C469.075 127.869 471.34 207.048 494.315 301.693C517.066 396.56 560.527 506.892 623.612 637.293M660.557 -161.196C611.688 -147.201 564.123 -126.461 525.698 -90.3521C487.246 -54.6024 457.931 -3.48358 444.931 62.9533C431.815 129.311 435.01 210.992 458.885 306.104C482.555 401.422 526.905 510.171 591.349 635.41M614.319 -185.845C566.604 -167.486 520.445 -141.83 483.457 -100.95C446.443 -60.4353 418.6 -4.69697 407.048 65.2556C382.151 206.543 427.527 399.65 560.288 638.426M566.489 -207.991C520.217 -184.781 475.801 -153.722 440.588 -107.689C405.35 -62.0214 379.316 -1.37979 369.359 72.4307C347.824 221.219 395.216 418.26 530.429 646.464M517.05 -227.097C472.529 -198.541 430.208 -161.607 397.121 -110.069C364.01 -58.8915 340.134 6.89007 332.071 84.698C314.498 241.25 364.291 442.166 501.773 659.623M466.008 -242.533C423.56 -208.136 383.703 -164.88 353.107 -107.528C322.488 -50.5268 301.129 20.57 295.262 102.446C282.257 266.893 334.83 471.439 474.321 677.978M413.38 -253.566C373.347 -212.846 336.34 -162.857 308.61 -99.4394C280.86 -36.3585 262.388 40.1519 259.023 126.083C251.198 298.396 306.915 506.123 448.072 701.581M359.204 -259.351C317.985 -206.934 285.721 -148.059 263.719 -85.1089C239.226 -15.7652 224.016 66.1637 223.461 156.039C221.424 336 280.635 546.228 423.028 730.458M303.537 -258.918C269.431 -204.195 239.351 -139.755 218.537 -63.7709C197.704 11.9239 186.137 99.162 188.699 192.755C193.058 379.926 256.084 591.729 399.189 764.613M246.46 -251.163C215.907 -188.849 189.937 -116.863 173.192 -34.5882C156.431 47.4271 148.895 139.732 154.876 236.686C166.23 430.37 233.359 642.554 376.556 804.027M188.076 -234.835C134.99 -96.8712 102.537 88.262 122.136 288.354C141.241 486.502 212.399 699.609 355.129 848.655M128.513 -208.527C84.2156 -53.8302 63.1325 143.605 90.6841 348.047C117.876 550.708 193.703 760.376 334.909 898.429M67.9281 -170.672C33.3697 0.912893 24.6409 209.245 60.703 416.282C96.532 621.761 177.152 825.944 315.896 953.256M-55.5341 -53.1898C-67.5623 151.131 -48.5791 374.638 6.05061 579.891C60.6803 784.189 150.957 970.233 281.497 1077.58M6.50673 -119.529C-17.3137 68.7456 -12.6899 285.992 32.4109 493.45C77.3979 699.629 162.861 896.019 298.092 1013.02M281.886 1077.9C319.253 921.576 366.479 804.164 423.543 730.911C480.608 657.26 547.509 627.768 624.236 638.126C700.963 648.086 787.515 697.896 883.884 773.709C980.253 849.123 1086.44 950.54 1202.44 1054.56M230.086 1029.26C263.687 862.357 310.935 735.506 369.342 653.145C427.783 570.427 497.383 532.2 576.487 534.271C655.625 535.984 744.267 577.995 841.59 647.492C938.949 716.629 1044.99 813.253 1159.72 915.914M184.438 974.606C216.7 799.12 265.278 664.731 325.566 576.466C385.928 487.743 458 445.145 538.949 442.739C701.429 436.279 897.955 594.029 1123.78 799.474M142.937 913.306C176.051 728.635 227.18 589.875 289.979 498.681C352.892 407.082 427.474 363.048 510.069 358.48C676.03 348.881 872.142 497.313 1093.9 698.984M105.515 846.274C141.498 652.979 196.38 512.11 262.361 420.42C328.494 328.42 405.725 285.597 489.857 281.168C659.033 272.962 853.618 415.56 1070.65 613.347M72.1075 774.377C154.731 371.204 308.002 213.994 478.213 210.718C564.057 208.519 655.526 243.49 751.516 302.2C847.594 361.106 948.193 443.748 1054.32 541.406M42.6498 698.435C89.7701 490.915 155.457 352.174 229.764 265.788C304.297 179.389 387.448 145.343 474.694 146.883C562.099 148.55 653.597 185.805 748.468 244.985C843.431 304.437 941.766 385.813 1044.96 481.999M17.0766 619.225C72.7729 406.138 144.75 272.031 223.947 191.21C303.321 110.645 389.913 83.367 478.896 89.811C568.055 96.5103 659.605 136.932 752.935 197.628C846.441 258.578 941.729 339.803 1042.42 433.983M-4.67799 537.48C60.338 322.01 139.829 193.439 224.541 119.49C309.444 45.9246 399.568 26.9812 490.242 39.6106C581.107 52.6239 672.521 97.2104 764.385 159.532C856.44 222.236 948.944 302.676 1046.38 396.241M-22.6797 453.888C51.8228 237.279 140.191 116.862 231.033 51.4563C322.188 -13.3127 415.817 -23.0697 508.056 -3.68205C600.497 16.2201 691.548 65.2651 782.193 129.91C872.93 194.946 963.262 275.581 1056.37 367.674M-36.9927 369.093C48.6497 153.747 145.711 43.2306 242.779 -12.355C340.179 -67.051 437.585 -66.8167 531.597 -40.1336C625.82 -12.8071 716.648 40.9636 805.736 108.099C894.912 175.628 982.347 256.523 1071.83 347.181M-47.6837 283.701C49.7258 72.0484 155.764 -26.8685 259.223 -71.519C363.028 -115.018 464.253 -104.251 560.056 -69.9729C656.075 -34.9262 746.669 23.6248 834.177 93.3018C921.769 163.36 1006.27 244.546 1092.07 333.647M-54.8181 198.273C54.7418 -7.17212 169.858 -92.984 279.745 -125.794C389.989 -157.191 495.003 -135.587 592.579 -93.6096C690.373 -50.745 780.725 12.4832 866.657 84.6259C952.668 157.123 1034.26 238.535 1116.37 325.923M-58.4603 113.333C63.3819 -83.3821 187.491 -154.823 303.715 -175.12C420.297 -193.754 528.99 -161.244 628.281 -111.641C727.79 -61.0458 817.893 6.62887 902.273 81.0624C986.727 155.81 1065.46 237.316 1143.94 322.819M-55.4978 -53.7992C90.3424 -225.688 231.486 -265.657 359.598 -259.856C488.056 -251.949 603.482 -198.272 705.873 -134.241C808.468 -69.0462 898.026 6.4851 979.435 84.7147C1060.91 163.155 1134.23 244.292 1205.79 325.547M-58.6774 29.3633C75.3189 -156.157 208.149 -212.249 330.478 -219.618C453.163 -225.089 565.347 -181.838 666.255 -124.852C767.375 -66.7791 857.216 5.01347 940.086 81.4882C1023.03 158.229 1098.99 239.651 1173.95 323.107" stroke="#FFF9EB" stroke-miterlimit="10"/>
</g>
</svg>
