<svg width="1440" height="675" viewBox="0 0 1440 675" fill="none" xmlns="http://www.w3.org/2000/svg">
<mask id="mask0_44_11200" style="mask-type:alpha" maskUnits="userSpaceOnUse" x="0" y="0" width="1440" height="675">
<rect opacity="0.1" width="1440" height="675" fill="#526476"/>
</mask>
<g mask="url(#mask0_44_11200)">
<path d="M-878.914 199.379C-838.121 244.498 -780.723 304.344 -711.113 360.361C-641.497 416.147 -559.669 468.102 -469.87 492.136C-380.665 517.734 -285.617 511.923 -192.085 473.936C-98.5376 436.675 -6.50781 367.24 77.0341 282.331C162.596 195.995 239.38 97.0403 308.133 -0.456368C376.877 -98.2066 437.59 -194.498 490.767 -281.344C597.628 -456.81 676.744 -595.372 742.938 -697.036C809.638 -801.312 865.227 -876.112 920.171 -943.666C974.393 -1011.04 1029.06 -1071.67 1075.82 -1142.48C1098.84 -1178.06 1119.47 -1215.36 1134.1 -1255.18C1148.86 -1294.72 1157.23 -1336.31 1158.8 -1373.56C1160.6 -1411.29 1155.27 -1443.05 1153.84 -1465.49C1152.77 -1487.93 1158.78 -1501.46 1194.66 -1508.26M-861.685 199.436C-782.065 286.327 -632.125 438.503 -450.379 478.555C-360.046 499.625 -263.951 487.556 -169.673 443.078C-75.379 399.321 17.0973 323.154 100.56 232.704C186.07 140.657 262.333 37.3206 330.221 -63.1868C398.097 -163.961 457.598 -261.905 509.331 -349.313C613.3 -525.939 688.736 -661.742 751.125 -760.313C813.956 -861.389 865.429 -932.412 915.862 -996.354C965.621 -1060.01 1015.22 -1117.17 1057.28 -1182.91C1077.99 -1215.88 1096.43 -1250.16 1109.52 -1286.04C1122.74 -1321.7 1130.26 -1358.46 1132.11 -1390.95C1134.14 -1423.85 1130.28 -1451.21 1130.51 -1470.68C1130.87 -1490.19 1138.86 -1501.86 1171.03 -1508.43M-845.035 198.763C-767.153 284.012 -615.048 433.75 -431.042 464.038C-339.552 480.444 -242.398 461.979 -147.365 410.929C-52.3195 360.597 40.607 277.684 123.981 181.759C209.437 84.0677 285.167 -23.503 352.177 -126.821C419.175 -230.418 477.454 -329.764 527.738 -417.469C628.805 -594.719 700.583 -727.226 759.244 -822.276C818.283 -919.702 865.776 -986.602 911.92 -1046.53C957.432 -1106.08 1002.28 -1159.22 1040.06 -1219.54C1058.67 -1249.73 1075.15 -1280.89 1086.91 -1313.01C1098.78 -1344.95 1105.63 -1377.36 1107.78 -1405.74C1110.08 -1434.48 1107.57 -1458.18 1109.17 -1475.13C1110.68 -1492.16 1120.17 -1502.19 1148.5 -1508.31M-828.987 197.413C-751.157 281.79 -598.719 427.98 -412.192 448.765C-320.025 459.786 -220.721 435.564 -124.862 377.342C-28.8065 319.858 63.8578 230.319 147.286 129.57C232.686 26.3122 307.879 -85.3308 374.006 -191.248C440.121 -297.46 497.171 -397.948 546.007 -485.677C644.177 -663.009 712.325 -791.668 767.345 -882.806C822.683 -976.177 866.335 -1038.67 908.408 -1094.28C949.891 -1149.44 990.313 -1198.22 1024.19 -1252.93C1040.89 -1280.3 1055.63 -1308.35 1066.23 -1336.93C1076.2 -1363.24 1082.74 -1390.71 1085.69 -1418.69C1088.28 -1443.81 1086.97 -1464.43 1089.66 -1479.18C1092.09 -1494.04 1102.63 -1502.6 1127.05 -1508.14M-813.563 195.44C-736.525 279.795 -581.014 423.105 -392.582 432.836C-299.411 438.584 -199.302 407.601 -102.942 342.752C-6.37798 278.621 86.4963 182.648 169.913 76.6424C255.139 -31.8934 329.874 -147.442 395.265 -255.865C460.645 -364.59 516.681 -466.189 564.226 -553.849C659.838 -731.101 724.576 -855.547 775.829 -942.145C827.779 -1031.27 867.417 -1088.73 905.419 -1139.7C942.852 -1190.15 978.932 -1234.36 1009.35 -1283.55C1024.34 -1308.13 1037.63 -1333.18 1047.39 -1358.47C1056.47 -1381.6 1062.81 -1405.72 1066.28 -1430.33C1069.33 -1452.27 1069.28 -1470.24 1072.77 -1483.08C1074.68 -1489.49 1077.86 -1494.6 1083.54 -1498.62C1089.11 -1502.65 1097.28 -1505.68 1106.69 -1508.12M-798.778 192.891C-723.228 275.587 -564.488 416.866 -373.584 415.606C-279.026 416.016 -178.214 378.477 -81.293 307.197C15.8232 236.59 109.107 134.231 193.116 21.9685C277.719 -90.8538 351.978 -210.193 416.671 -321.109C481.351 -432.338 536.464 -535.143 582.467 -622.13C675.235 -798.506 735.814 -915.952 784.079 -999.542C832.525 -1083.95 868.583 -1136.52 902.951 -1182.86C936.778 -1228.61 969.039 -1268.16 996.254 -1311.9C1009.67 -1333.74 1021.58 -1355.9 1030.44 -1378.15C1038.62 -1398.43 1044.62 -1419.53 1048.34 -1441.08C1051.62 -1460.21 1052.47 -1475.83 1056.58 -1486.94C1058.63 -1492.46 1062.45 -1497.14 1067.43 -1500.28C1072.65 -1503.71 1079.97 -1506.28 1087.43 -1508.44M-784.642 189.803C-709.658 271.612 -548.388 409.588 -355.103 397.536C-259.365 392.76 -157.386 348.442 -59.68 270.425C38.2311 193.068 131.937 84.1311 215.928 -33.2715C300.526 -151.313 374.289 -274.209 438.142 -387.067C501.979 -500.256 555.906 -603.405 600.516 -689.602C690.486 -864.392 747.604 -976.517 792.47 -1055.16C837.506 -1134.55 870.14 -1182.14 901.084 -1223.82C931.513 -1264.86 960.237 -1299.79 984.544 -1338.29C996.539 -1357.5 1007.19 -1376.93 1015.27 -1396.37C1022.67 -1414.06 1028.37 -1432.42 1032.27 -1451.2C1035.74 -1467.83 1037.35 -1481.36 1041.86 -1490.89C1044.17 -1495.66 1047.88 -1499.61 1052.48 -1502.24C1057.26 -1505.14 1063.68 -1507.29 1069.27 -1509.23M-771.167 186.21C-696.517 267.143 -532.723 401.665 -336.973 378.663C-240.026 368.626 -136.838 317.464 -38.3115 232.686C60.4367 148.558 154.595 33.0682 238.604 -89.3681C323.224 -212.511 396.517 -338.766 459.553 -453.316C522.574 -568.215 575.338 -671.409 618.569 -756.517C705.781 -929.126 759.488 -1035.44 801.061 -1108.91C842.783 -1183.01 872.142 -1225.6 899.863 -1262.66C927.095 -1299.05 952.541 -1329.46 974.206 -1362.98C984.902 -1379.69 994.431 -1396.57 1001.81 -1413.42C1008.52 -1428.76 1013.93 -1444.64 1017.96 -1460.89C1021.57 -1475.26 1023.77 -1486.9 1028.49 -1495.01C1030.94 -1499.06 1034.45 -1502.36 1038.63 -1504.57C1042.91 -1507 1048.38 -1508.8 1052.24 -1510.61M-758.368 182.133C-683.872 262.179 -517.525 393.106 -319.232 359.042C-221.044 343.69 -116.603 285.622 -17.2093 194.063C82.4219 103.146 177.079 -18.8638 261.146 -146.211C345.831 -274.352 418.69 -403.757 480.939 -519.733C543.174 -636.078 594.797 -738.994 636.678 -822.721C721.187 -992.543 771.522 -1092.56 809.871 -1160.51C848.698 -1230.66 874.511 -1266.38 899.307 -1299.22C923.595 -1330.99 945.889 -1358.13 965.235 -1386.08C974.688 -1400.58 983.192 -1415.08 989.947 -1429.54C996.081 -1442.7 1001.23 -1456.3 1005.34 -1470.22C1009.02 -1482.52 1011.6 -1492.53 1016.35 -1499.35C1018.81 -1502.73 1022.05 -1505.47 1025.8 -1507.33C1029.54 -1509.36 1034.07 -1510.88 1036.35 -1512.66M-746.264 177.596C-671.74 256.715 -502.849 383.947 -301.937 338.741C-202.471 318.038 -96.7257 253.015 3.58951 154.676C104.152 56.9628 199.364 -71.5225 283.547 -203.673C368.352 -336.698 440.822 -469.037 502.325 -586.167C563.813 -703.69 614.333 -806.003 654.894 -888.05C736.764 -1054.48 783.788 -1147.8 819.047 -1210.28C854.722 -1274.58 877.551 -1305.58 899.479 -1333.98C920.917 -1361.32 940.441 -1384.26 957.546 -1407.91C965.722 -1419.71 973.106 -1432.03 979.651 -1444.8C985.223 -1456 990.078 -1467.54 994.186 -1479.36C997.877 -1489.81 1000.78 -1498.24 1005.42 -1503.9C1007.8 -1506.67 1010.72 -1508.91 1014.01 -1510.51C1017.19 -1512.22 1020.76 -1513.56 1021.64 -1515.46M-734.875 172.607C-660.185 250.741 -488.758 374.221 -285.135 317.842C-184.358 291.776 -77.2459 219.764 24.0514 114.645C125.616 10.1404 221.447 -124.788 305.81 -261.624C390.801 -399.414 462.94 -534.461 523.748 -652.466C584.539 -770.887 633.999 -872.267 673.278 -952.344C752.581 -1114.77 796.348 -1201.01 828.604 -1257.92C861.206 -1316.26 881.168 -1342.62 900.385 -1366.74C919.127 -1389.83 936.085 -1408.83 951.121 -1428.49C964.712 -1446.94 975.909 -1467.04 984.446 -1488.3C988.077 -1497.06 991.173 -1504.05 995.582 -1508.69C997.812 -1510.9 1000.38 -1512.74 1003.19 -1514.14C1005.8 -1515.61 1008.47 -1516.87 1008.12 -1519.02M-724.236 167.178C-649.264 244.255 -475.329 363.98 -268.895 296.437C-166.764 265.02 -58.2146 186.001 44.1408 74.0986C146.778 -37.1969 243.311 -178.52 327.934 -319.914C413.186 -462.348 485.066 -599.872 545.242 -718.468C605.401 -837.506 653.855 -937.617 691.892 -1015.43C768.719 -1173.25 809.277 -1252.08 838.602 -1303.36C868.198 -1355.66 885.389 -1377.51 902.035 -1397.55C918.218 -1416.57 932.787 -1431.89 945.902 -1447.88C958.961 -1464.25 969.211 -1482.59 976.004 -1497.06C979.511 -1504.28 982.683 -1509.95 986.767 -1513.71C988.793 -1515.43 990.991 -1516.95 993.325 -1518.23C995.373 -1519.55 997.183 -1520.82 995.827 -1523.37M-714.388 161.314C-639.054 237.251 -462.639 353.278 -253.286 274.638C-149.757 237.907 -39.689 151.875 63.809 33.2058C167.609 -84.8688 264.932 -232.548 349.911 -378.382C435.52 -525.343 507.226 -665.105 566.843 -783.999C626.444 -903.362 673.955 -1001.86 710.803 -1077.12C785.258 -1229.75 822.644 -1300.89 849.1 -1346.52C875.735 -1392.74 890.239 -1410.25 904.432 -1426.4C918.172 -1441.57 930.511 -1453.51 941.827 -1466.12C953.105 -1479.1 962.254 -1493.94 968.757 -1505.62C972.084 -1511.46 975.226 -1515.95 978.91 -1518.95C980.741 -1520.45 982.788 -1521.56 984.383 -1522.77C985.901 -1524.03 986.93 -1525.41 984.785 -1528.49M-705.387 155.016C-667.085 193.318 -603.987 238.575 -523.181 265.347C-442.502 292.022 -344.191 297.247 -238.378 252.568C-133.398 210.586 -21.7149 117.539 83.0282 -7.88863C188.092 -132.738 286.321 -286.746 371.772 -436.911C457.849 -588.282 529.489 -730.056 588.642 -848.964C647.779 -968.371 694.428 -1064.91 730.144 -1137.36C802.35 -1284.22 836.6 -1347.45 860.215 -1387.44C883.742 -1427.31 895.704 -1440.79 907.583 -1453.35C919.025 -1464.98 929.293 -1473.87 938.824 -1483.3C948.432 -1493 956.42 -1504.88 962.582 -1514.02C965.116 -1518 968.343 -1521.48 972.109 -1524.31C973.738 -1525.49 975.47 -1526.4 976.547 -1527.64C977.563 -1528.93 977.846 -1530.55 975.018 -1534.35M-697.301 148.29C-658.558 186.299 -594.648 230.445 -512.81 254.748C-431.099 278.973 -331.539 280.309 -224.311 230.37C-118.007 183.265 -4.63078 83.3241 101.468 -48.7705C207.911 -180.295 307.182 -340.515 393.179 -494.698C480.544 -651.815 552.22 -795.172 610.836 -913.415C669.436 -1032.17 714.976 -1125.81 749.716 -1195.33C819.744 -1335.83 851.429 -1392.47 871.879 -1425.83C892.495 -1459.74 901.847 -1469.26 911.443 -1478.38C920.601 -1486.6 928.893 -1492.67 936.823 -1499.34C944.824 -1506.27 951.792 -1515.29 957.436 -1522.18C959.869 -1525.2 962.754 -1527.81 965.988 -1529.94C967.37 -1530.89 968.759 -1531.69 969.386 -1533.02C969.972 -1534.42 969.677 -1536.34 966.545 -1540.88M-690.221 141.14C-651.183 178.484 -586.601 221.498 -503.704 243.542C-420.939 265.524 -319.949 263.354 -211.093 208.213C-103.23 156.088 11.9786 49.2025 119.565 -89.6131C227.516 -227.868 327.961 -394.373 414.7 -552.651C502.801 -713.97 574.657 -858.797 633.02 -976.417C691.366 -1094.58 736.219 -1185.54 769.962 -1251.71C838.012 -1385.32 866.615 -1433.72 884.208 -1461.71C901.899 -1489.8 908.638 -1495.62 916.003 -1501.53C922.928 -1506.59 929.342 -1510.1 935.747 -1514.28C942.153 -1518.85 948.182 -1525.19 953.225 -1530.08C955.507 -1532.22 957.992 -1534.13 960.644 -1535.78C961.761 -1536.58 962.808 -1537.35 963.051 -1538.86C963.272 -1540.43 962.535 -1542.73 959.383 -1548.01M-684.258 133.567C-644.916 170.23 -579.676 212.168 -495.714 232.091C-411.895 251.951 -309.439 246.48 -198.879 186.275C-88.9021 128.336 27.6133 15.8368 136.956 -129.83C246.506 -274.683 348.74 -448.755 436.041 -610.028C525.042 -775.442 597.234 -921.475 655.477 -1038.15C713.706 -1155.41 757.986 -1243.32 790.809 -1305.89C857.049 -1432.05 882.567 -1472.21 897.256 -1495.03C911.971 -1517.5 916.065 -1519.87 921.231 -1522.84C925.948 -1524.99 930.565 -1526.22 935.493 -1528.19C940.439 -1530.55 945.446 -1534.61 949.825 -1537.77C951.997 -1539.42 954.299 -1540.39 956.112 -1541.74C956.639 -1542.09 957.063 -1542.58 957.337 -1543.15C957.611 -1543.72 957.727 -1544.35 957.671 -1544.98C957.604 -1546.8 956.54 -1549.55 953.543 -1555.65M-679.553 125.586C-639.895 161.566 -574.029 202.51 -488.991 220.474C-404.107 238.373 -300.141 229.834 -187.79 164.755C-76.0442 102.043 42.4985 -17.115 153.652 -169.494C265.018 -321.038 368.831 -501.551 457.18 -666.606C547.266 -836.015 619.971 -982.992 678.251 -1098.4C736.516 -1214.43 780.353 -1298.9 812.344 -1357.62C844.62 -1417.44 866.414 -1454.03 881.551 -1479.16C896.698 -1504.05 905.19 -1517.49 911.075 -1525.72C922.733 -1542.83 924.114 -1542.07 927.089 -1542.34C929.999 -1541.59 932.984 -1541.16 935.988 -1541.06C939.523 -1541.48 943.519 -1543.53 947.186 -1545.22C948.992 -1546.15 950.956 -1546.56 952.319 -1547.82C952.974 -1548.49 953.456 -1549.37 953.17 -1551.42C952.901 -1553.52 951.645 -1556.79 949.026 -1563.69M-676.274 117.205C-636.306 152.518 -569.831 192.571 -483.7 208.781C-397.738 224.926 -292.219 213.609 -177.978 143.881C-64.3609 76.6219 56.3588 -49.0737 169.549 -208.231C282.953 -366.523 388.637 -553.687 478.37 -722.71C569.118 -894.609 642.574 -1042.51 701.231 -1156.64C759.871 -1271.47 803.711 -1352.53 834.814 -1406.97C866.354 -1462.61 886.871 -1494.64 900.571 -1516.02C914.283 -1537.13 921.179 -1547.58 925.718 -1553.71C934.201 -1565.81 932.763 -1562.25 933.533 -1560.08C933.624 -1558.71 933.991 -1557.37 934.611 -1556.14C935.232 -1554.91 936.094 -1553.82 937.146 -1552.93C939.314 -1551.64 942.309 -1551.94 945.24 -1552.4C946.673 -1552.74 948.28 -1552.71 949.242 -1554.01C949.701 -1554.69 949.961 -1555.72 949.545 -1558.1C949.162 -1560.55 947.855 -1564.36 945.829 -1572M-1136.75 182.569C-1091.94 246.006 -974.751 436.655 -839.87 603.58C-771.59 688.208 -697.5 767.903 -620.672 830.417C-543.835 893.246 -464.261 938.894 -384.801 962.677C-225.222 1012.38 -67.8459 973.207 81.697 902.633C231.917 832.907 374.454 735.036 520.388 679.736C594.746 650.711 669.29 633.878 747.65 640.612C826.006 647.857 908.179 678.673 997.671 756.73C1086.58 834.095 1184.01 960.645 1290.19 1162.7C1396.36 1363.13 1511.28 1639.08 1635.04 1977.68C1757.85 2302.76 1891.51 2696.44 2019.83 2966.72C2083.57 3101.57 2146 3203.49 2202.77 3260.03C2259.54 3317.46 2310.65 3329.51 2351.96 3304.97C2392.7 3276.75 2421.05 3210.1 2431.57 3081.8C2442.02 2951.06 2434.63 2758.67 2402.35 2422.74C2386.85 2258.91 2365.51 2062.12 2339.99 1844.77C2314.48 1627.74 2284.8 1390.16 2252.81 1152.11C2221.52 917.11 2187.95 683.319 2158.36 484.817C2128.79 285.663 2103.2 121.798 2088.04 11.5733M-1146.12 155.812C-1088.95 239.799 -967.963 432.045 -829.378 599.314C-759.406 683.729 -683.884 761.993 -605.893 822.053C-527.891 882.445 -447.419 924.635 -367.325 944.568C-206.482 986.453 -49.0639 938.599 99.4003 861.855C248.541 785.653 388.953 683.855 531.888 622.357C604.638 590.106 677.433 569.338 753.729 569.797C830.021 570.704 909.813 592.838 996.444 656.733C1082.47 719.857 1176.53 826.691 1278.51 999.309C1380.49 1170.66 1490.39 1407.8 1608.1 1702.26C1724.8 1984.57 1850.96 2329.1 1970.48 2575.64C2029.84 2698.37 2087.58 2795.08 2139.45 2850.95C2191.33 2907.26 2237.34 2922.72 2273.36 2893.23C2309.02 2861.12 2332.14 2777.75 2338.35 2620.01C2344.52 2461.47 2333.76 2228.55 2300.65 1878.87C2268.9 1538.71 2216.31 1094.43 2157.87 677.31C2129.32 471.461 2099.34 274.501 2073.83 111.819C2048.32 -51.3816 2027.29 -180.307 2016.74 -262.047M-1151.46 136.551C-1083.38 237.074 -959.385 429.55 -817.436 596.172C-745.955 679.884 -669.12 756.329 -590.05 813.592C-510.97 871.208 -429.656 909.641 -348.98 925.478C-186.992 959.045 -29.6126 902.311 117.662 819.349C265.611 736.643 403.811 630.951 543.909 563.124C614.297 528.722 685.319 504.099 759.662 498.43C834 493.13 911.66 506.787 995.245 557.451C1078.38 607.104 1168.63 695.799 1266.12 840.879C1363.61 985.01 1468.35 1185.52 1580.52 1436.92C1691.08 1677.49 1809.74 1972.92 1920.56 2186.52C2030.66 2399.91 2133.02 2521.05 2195.13 2437C2256.74 2352.56 2269.18 2029.65 2203.09 1350.19C2171.33 1019.14 2121.35 617.122 2068.62 263.759C2042.86 88.8233 2016.4 -73.2191 1994.76 -203.819C1973.12 -334.798 1956.3 -434.336 1949.9 -493.022M-1153 123.917C-1073.14 241.083 -948.695 429.158 -804.323 593.696C-731.951 675.778 -654 750.162 -573.844 804.472C-493.676 859.167 -411.304 893.786 -329.843 905.28C-166.27 930.139 -8.60782 863.371 136.522 774.98C282.571 686.269 416.948 579.132 555.756 502.854C624.481 465.535 693.621 437.401 765.745 426.164C837.864 415.245 912.965 421.222 993.54 459.483C1073.63 496.697 1160.38 568.143 1253.58 687.602C1346.78 806.294 1446.41 972.999 1552.39 1182.99C1656.82 1383.62 1768.04 1631.06 1870.34 1806.82C1971.99 1981.39 2064.88 2078.28 2117.85 1967.64C2144.35 1912.71 2158.54 1796.63 2158.1 1612.28C2157.63 1428.49 2142.53 1176.45 2110.02 862.46C2078.86 555.341 2031.97 204.486 1984.93 -88.082C1961.95 -233.3 1938.89 -364.096 1920.88 -467.137C1902.87 -570.432 1889.91 -645.973 1887.21 -686.533M-1151.02 116.948C-1107.28 180.635 -1053.8 257.784 -992.856 340.652C-931.912 423.269 -863.508 511.606 -789.935 591.89C-716.321 672.526 -637.235 744.406 -556.144 795.293C-475.041 846.591 -391.934 876.896 -310.015 883.858C-145.516 899.526 11.8873 823.608 155.663 728.978C300.348 633.754 432.345 522.781 567.68 441.223C634.684 401.147 701.887 369.711 771.73 353.282C841.572 337.128 914.054 335.982 991.561 362.766C1068.55 388.518 1151.75 443.992 1240.61 539.814C1329.48 634.997 1424.01 770.529 1523.82 941.662C1622.17 1104.81 1726.04 1306.42 1820.09 1442.87C1913.54 1577.82 1997.35 1643.37 2042.01 1508.33C2064.51 1442.23 2075.04 1316.56 2072.17 1133.05C2069.3 950.207 2053.03 709.516 2021.64 428.958C1991.59 153.935 1948.1 -144.008 1906.62 -381.863C1866.12 -619.432 1827.25 -795.107 1828.34 -847.618M-1145.83 114.661C-1099.05 181.144 -1043.65 259.141 -981.237 341.921C-918.821 424.423 -849.386 511.709 -774.548 590.341C-699.801 669.219 -619.652 738.294 -537.68 785.486C-455.695 833.114 -371.888 858.856 -289.561 861.113C-124.223 867.207 32.8239 782.052 175.135 681.224C318.354 579.538 447.87 464.832 579.614 378.307C644.845 335.638 710.054 301.124 777.568 279.903C845.079 258.911 914.893 251.214 989.282 267.472C1063.13 282.735 1142.72 323.555 1227.23 397.791C1311.75 471.482 1401.2 578.591 1494.92 713.853C1587.27 842.385 1683.93 1001.22 1770.04 1099.51C1855.61 1196.43 1930.82 1228.89 1968.01 1075.17C1986.91 1000.53 1994.3 870.917 1989.55 695.084C1984.8 519.867 1967.91 298.434 1938.05 54.4157C1909.48 -185.263 1869.58 -432.87 1833.46 -623.393C1798.2 -813.7 1766.25 -948.41 1773 -980.927M-1137.78 116.093C-1088.67 183.997 -1031.81 262.11 -968.21 344.298C-904.615 426.184 -834.292 512.146 -758.286 588.833C-682.508 665.674 -601.347 731.671 -518.537 774.916C-435.714 818.623 -351.24 839.583 -268.554 836.957C-102.468 833.149 54.1302 738.695 194.877 631.723C336.521 523.65 463.461 405.331 591.505 314.194C718.301 225.238 844.205 161.585 986.689 173.775C1057.37 179.545 1133.32 207.059 1213.49 261.797C1293.67 316.06 1378.06 397.547 1465.8 500.313C1552.25 597.507 1641.89 717.266 1720.43 780.404C1798.49 842.497 1865.61 843.733 1896.19 678.396C1911.88 598.516 1916.64 470.064 1910.49 306.674C1904.34 143.759 1887.29 -54.0918 1859.25 -261.807C1832.45 -466.215 1796.22 -668.505 1765.18 -819.315C1734.92 -969.888 1709.32 -1072.39 1720.91 -1090.64M-1127.21 120.349C-1076.46 188.529 -1018.52 266.192 -953.99 347.394C-889.464 428.282 -818.352 512.71 -741.274 587.169C-664.529 661.74 -582.403 724.4 -498.792 763.465C-415.168 803.015 -330.06 818.97 -247.056 811.318C-80.2913 797.292 75.7419 693.517 214.823 580.499C354.789 466.14 479.053 344.367 603.294 248.987C726.353 155.373 847.637 86.6039 983.769 81.8435C1051.26 79.1085 1123.56 94.6835 1199.41 132.032C1275.26 168.959 1354.67 227.661 1436.56 301.468C1517.26 370.785 1600.09 455.66 1671.45 487.794C1742.39 519.309 1801.99 493.454 1826.79 323.55C1839.68 241.687 1842.26 118.545 1835.14 -29.5281C1828.01 -177.292 1811.18 -349.986 1785.18 -523.774C1760.35 -695.067 1727.79 -858.087 1701.55 -976.356C1675.98 -1094.34 1656.15 -1171.95 1671.81 -1180.43M-1114.49 126.619C-1062.68 194.188 -1004.01 270.966 -938.768 350.881C-873.525 430.472 -801.705 513.197 -723.621 585.191C-645.963 657.276 -562.907 716.357 -478.528 751.021C-394.135 786.194 -308.421 796.948 -225.136 784.138C-57.7791 759.629 97.6015 646.536 234.914 527.588C373.1 407.071 494.588 282.024 614.938 182.805C734.173 84.9764 850.767 11.6398 980.522 -8.12441C1044.82 -18.3711 1113.47 -13.3665 1185.04 8.68191C1256.62 30.3546 1331.12 69.0709 1407.32 117.589C1482.42 162.599 1558.71 217.044 1623.31 222.992C1687.56 228.71 1740.23 181.049 1760.03 12.7089C1780.93 -148.325 1763.39 -449.374 1715.74 -737.193C1693.01 -878.744 1664.07 -1008.71 1642.29 -1100.86C1621.1 -1192.67 1606.45 -1251.29 1625.44 -1253.5M-1099.94 134.196C-1047.63 200.479 -988.523 276.065 -922.732 354.472C-856.941 432.548 -784.462 513.448 -705.427 582.76C-626.9 652.171 -542.935 707.447 -457.808 737.5C-372.668 768.085 -286.366 773.45 -202.844 755.362C-34.9544 720.129 119.661 597.746 255.098 473.029C391.403 346.5 510.017 218.411 626.394 115.781C741.728 14.205 853.568 -63.1151 976.952 -95.9575C1038.07 -112.748 1103.07 -116.962 1170.42 -108.167C1237.79 -99.7053 1307.49 -78.2341 1378.18 -51.3664C1447.88 -28.6477 1517.86 1.8055 1576.2 -13.5321C1634.33 -28.1269 1680.19 -95.2138 1696.06 -254.77C1712.81 -410.33 1693.93 -674.219 1650.77 -908.532C1630.22 -1024.2 1604.8 -1127.02 1587.14 -1198.54C1569.98 -1269.71 1559.95 -1314.06 1581.6 -1312.58M-1083.91 142.487C-1031.55 207.013 -972.245 281.21 -906.038 357.954C-839.832 434.37 -766.723 513.333 -686.78 579.765C-607.405 646.328 -522.548 697.579 -436.694 722.823C-350.825 748.624 -263.96 748.42 -180.236 724.96C-11.8923 678.781 141.859 547.212 275.324 416.878C409.646 284.529 525.29 153.642 637.627 48.0515C748.995 -56.7852 856.035 -137.452 973.072 -181.501C1031.02 -203.867 1092.41 -215.977 1155.63 -218.454C1218.85 -221.226 1283.88 -214.367 1349.27 -205.616C1413.7 -200.364 1477.8 -191.144 1530.26 -222.94C1582.59 -253.78 1622.61 -331.704 1634.99 -481.281C1648.24 -627.874 1628.76 -855.064 1590.14 -1044.25C1571.78 -1138 1549.73 -1218.94 1535.82 -1274.42C1522.35 -1329.53 1516.41 -1363.27 1540.06 -1360M-1066.69 150.996C-1014.67 213.476 -955.361 286.169 -888.839 361.149C-822.319 435.803 -748.589 512.743 -667.764 576.11C-587.552 639.666 -501.81 686.681 -415.242 706.929C-328.659 727.758 -241.25 721.82 -157.364 692.899C11.373 635.598 164.152 494.929 295.545 359.195C427.784 221.252 540.368 87.8335 648.608 -20.2232C755.951 -127.805 858.166 -211.177 968.902 -264.586C1023.71 -291.599 1081.54 -310.326 1140.7 -322.191C1199.87 -334.313 1260.37 -339.571 1320.69 -345.579C1380.08 -354.49 1438.61 -362.35 1485.65 -406.184C1532.62 -448.935 1567.41 -532.891 1576.9 -670.34C1587.25 -805.683 1567.75 -998.51 1533.64 -1150.44C1517.47 -1226.01 1498.62 -1289.59 1488.11 -1332.75C1477.97 -1375.56 1475.58 -1401.5 1500.66 -1397.75M-1048.58 159.335C-997.22 219.622 -938.04 290.763 -871.269 363.92C-804.501 436.749 -730.14 511.596 -648.446 571.724C-567.398 632.121 -480.777 674.684 -393.509 689.759C-306.225 705.434 -218.294 693.618 -134.277 659.166C34.7929 590.589 186.493 440.957 315.723 300.057C445.781 156.76 555.223 21.1282 659.315 -88.8916C762.592 -198.667 859.959 -284.088 964.467 -345.09C1067.92 -408.031 1181.65 -437.927 1292.54 -471.886C1347.14 -491.934 1400.42 -513.05 1442.49 -565.019C1484.53 -615.881 1514.66 -701.854 1521.84 -826.126C1529.82 -949.013 1510.82 -1110.84 1481.12 -1232.55C1454.72 -1353.76 1413.4 -1432.08 1463.21 -1427.49M-1029.83 167.209C-979.374 225.266 -920.422 294.868 -853.44 366.169C-786.46 437.145 -711.45 509.822 -628.895 566.545C-547.005 623.632 -459.504 661.548 -371.542 671.278C-283.565 681.63 -195.128 663.795 -111.013 623.75C58.3204 543.78 208.855 385.337 335.819 239.545C463.608 91.1722 569.822 -46.3114 669.735 -157.782C768.91 -269.206 861.429 -356.002 959.804 -422.906C1057.15 -491.432 1163.24 -533.357 1264.94 -585.297C1315 -613.746 1363.37 -644.677 1400.9 -701.485C1438.44 -757.221 1464.47 -842.117 1469.82 -953.017C1475.93 -1063.08 1457.81 -1197.81 1432.35 -1295.38C1409.72 -1392.63 1376.63 -1453.59 1427.57 -1450.63M-1010.67 174.399C-961.294 230.283 -902.63 298.392 -835.454 367.822C-768.278 436.934 -692.589 507.366 -609.165 560.526C-526.415 614.159 -438.028 647.221 -349.381 651.445C-260.719 656.309 -171.796 632.338 -87.6124 586.656C81.9334 495.181 231.183 328.145 355.804 177.746C481.237 24.595 584.141 -114.354 679.858 -226.729C774.904 -339.23 862.6 -426.718 954.951 -497.939C1046.31 -570.461 1144.98 -621.707 1238 -686.669C1283.77 -721.12 1327.56 -758.864 1360.98 -817.828C1394.45 -875.801 1416.89 -957.343 1420.84 -1055.32C1425.51 -1152.86 1408.59 -1264.46 1387.17 -1342.97C1368.12 -1421.29 1342.45 -1469.32 1393.61 -1468.36M-991.312 180.764C-943.133 234.59 -884.776 301.284 -817.393 368.839C-750.01 436.081 -673.601 504.186 -589.308 553.629C-505.679 603.66 -416.397 631.675 -327.066 630.239C-237.72 629.459 -148.326 599.226 -64.1037 547.877C105.596 444.821 253.486 269.367 375.685 114.642C498.681 -43.0024 598.219 -183.09 689.714 -295.931C780.537 -407.518 863.575 -495.992 949.925 -570.335C1035.34 -645.863 1126.77 -703.719 1211.8 -777.01C1253.61 -815.201 1293.27 -856.98 1323.04 -915.911C1352.89 -973.958 1372.22 -1050.76 1374.94 -1137.02C1378.39 -1223.04 1362.59 -1315.59 1344.86 -1379.09C1329.09 -1442.51 1310.23 -1480.71 1361.2 -1481.67M-971.921 186.214C-925.009 238.14 -866.957 303.499 -799.345 369.181C-731.731 434.558 -654.557 500.259 -569.371 545.822C-484.842 592.105 -394.656 614.885 -304.646 607.649C-214.621 601.079 -124.772 564.492 -40.5454 507.465C129.248 392.816 275.676 209.223 395.359 50.5944C515.834 -111.111 611.936 -251.783 699.224 -364.409C785.997 -476.187 864.219 -563.841 944.836 -639.623C1024.54 -716.283 1109.08 -778.733 1186.46 -857.246C1224.51 -897.676 1260.24 -941.715 1286.7 -999.157C1313.24 -1055.83 1329.91 -1126.84 1331.95 -1202.02C1334.97 -1277.42 1320.2 -1353.75 1306.18 -1405.64C1294.31 -1457.15 1280.08 -1488.91 1330.25 -1491.41M-952.649 190.708C-906.497 241.415 -848.451 305.689 -780.488 369.436C-712.523 432.896 -634.64 495.829 -548.764 537.19C-463.522 579.384 -372.691 596.729 -282.228 583.702C-191.748 571.344 -101.635 528.612 -17.4574 466.083C152.271 340.254 297.499 148.468 414.897 -14.5209C533.075 -180.654 625.808 -322.4 708.666 -433.459C791.452 -545.534 864.641 -630.745 939.716 -706.126C1013.88 -782.042 1091.98 -846.635 1162.28 -927.614C1196.84 -968.941 1228.93 -1013.87 1252.28 -1069.05C1275.76 -1123.58 1289.95 -1188.75 1291.39 -1254.2C1293.86 -1319.85 1280.51 -1383.21 1269.93 -1425.76C1261.09 -1468.12 1252.15 -1494.25 1300.66 -1498.31M-933.622 194.241C-888.852 243.24 -831.109 306.266 -762.859 368.126C-694.606 429.706 -615.848 490.118 -528.973 527.383C-442.714 565.622 -350.878 577.409 -259.669 558.317C-168.446 539.902 -77.8479 490.607 6.30453 422.346C176.079 284.794 319.559 85.5194 434.197 -80.3672C549.611 -249.571 638.73 -390.679 717.534 -500.633C796.232 -611.558 864.875 -694.979 934.619 -769.668C1003.5 -844.676 1075.28 -910.237 1138.94 -991.008C1170.26 -1031.99 1199.04 -1076.15 1219.77 -1127.9C1240.63 -1179.11 1252.92 -1237.91 1254.18 -1294.69C1256.48 -1351.65 1244.76 -1404.65 1237.14 -1440.2C1230.92 -1475.67 1226.17 -1497.65 1272.36 -1502.95M-914.937 196.836C-871.483 244.336 -813.973 306.201 -745.379 366.162C-676.78 425.85 -597.099 483.63 -509.21 516.637C-421.904 550.765 -329.05 556.81 -237.097 531.527C-145.128 506.931 -54.062 451.005 30.0375 377.051C199.815 227.822 341.469 21.4161 453.307 -146.943C565.908 -318.765 651.397 -458.749 726.181 -567.055C800.827 -676.287 865.01 -757.334 929.618 -830.401C993.407 -903.585 1059.17 -968.648 1116.71 -1047.35C1145.02 -1087.11 1170.8 -1129.57 1189.22 -1177.46C1207.77 -1224.93 1218.49 -1277.59 1219.74 -1326.85C1222.02 -1376.27 1211.96 -1420.93 1206.96 -1450.96C1203.06 -1481.04 1201.9 -1499.75 1245.29 -1505.88M-896.68 198.53C-854.769 244.784 -797.302 305.664 -728.166 363.634C-659.023 421.365 -578.21 476.187 -489.485 504.772C-401.379 534.749 -307.364 535.041 -214.576 503.463C-121.771 472.61 -30.1927 409.888 53.4209 330.567C139.024 249.995 216.31 155.565 285.913 61.2672C355.506 -33.2707 417.414 -127.675 472.028 -213.707C581.761 -387.496 664.572 -528.272 734.637 -632.568C805.281 -739.58 865.11 -817.738 924.78 -888.374C983.68 -958.971 1043.73 -1022.31 1095.65 -1097.55C1121.2 -1135.45 1144.27 -1175.54 1160.66 -1219.4C1177.19 -1262.92 1186.61 -1309.82 1187.98 -1352.61C1190.37 -1395.54 1181.93 -1433.47 1179.23 -1459.13C1177.33 -1484.89 1179.19 -1500.96 1219.41 -1507.52" stroke="#FFF9EB" stroke-miterlimit="10"/>
</g>
</svg>
