<svg width="1440" height="670" viewBox="0 0 1440 670" fill="none" xmlns="http://www.w3.org/2000/svg">
<mask id="mask0_44_14240" style="mask-type:alpha" maskUnits="userSpaceOnUse" x="0" y="0" width="1440" height="670">
<rect width="1440" height="670" fill="#526476"/>
</mask>
<g mask="url(#mask0_44_14240)">
<path d="M0.5 30.5649H1440" stroke="#121212" stroke-opacity="0.1"/>
<path d="M0.5 82.7405H1440" stroke="#121212" stroke-opacity="0.1"/>
<path d="M0.5 134.916H1440" stroke="#121212" stroke-opacity="0.1"/>
<path d="M0.5 187.092H1440" stroke="#121212" stroke-opacity="0.1"/>
<path d="M0.5 239.267H1440" stroke="#121212" stroke-opacity="0.1"/>
<path d="M0.5 291.443H1440" stroke="#121212" stroke-opacity="0.1"/>
<path d="M0.5 343.618H1440" stroke="#121212" stroke-opacity="0.1"/>
<path d="M0.5 395.794H1440" stroke="#121212" stroke-opacity="0.1"/>
<path d="M0.5 447.969H1440" stroke="#121212" stroke-opacity="0.1"/>
<path d="M0.5 500.145H1440" stroke="#121212" stroke-opacity="0.1"/>
<path d="M0.5 552.32H1440" stroke="#121212" stroke-opacity="0.1"/>
<path d="M0.5 604.496H1440" stroke="#121212" stroke-opacity="0.1"/>
<path d="M0.5 656.672H1440" stroke="#121212" stroke-opacity="0.1"/>
<path d="M51.8828 -22V710.405" stroke="#121212" stroke-opacity="0.1"/>
<path d="M0.5 -22V710.405" stroke="#121212" stroke-opacity="0.1"/>
<path d="M103.266 -22V710.405" stroke="#121212" stroke-opacity="0.1"/>
<path d="M154.648 -22V710.405" stroke="#121212" stroke-opacity="0.1"/>
<path d="M206.031 -22V710.405" stroke="#121212" stroke-opacity="0.1"/>
<path d="M257.414 -22V710.405" stroke="#121212" stroke-opacity="0.1"/>
<path d="M308.797 -22V710.405" stroke="#121212" stroke-opacity="0.1"/>
<path d="M360.181 -22V710.405" stroke="#121212" stroke-opacity="0.1"/>
<path d="M411.563 -22V710.405" stroke="#121212" stroke-opacity="0.1"/>
<path d="M462.946 -22V710.405" stroke="#121212" stroke-opacity="0.1"/>
<path d="M514.329 -22V710.405" stroke="#121212" stroke-opacity="0.1"/>
<path d="M565.712 -22V710.405" stroke="#121212" stroke-opacity="0.1"/>
<path d="M617.095 -22V710.405" stroke="#121212" stroke-opacity="0.1"/>
<path d="M668.478 -22V710.405" stroke="#121212" stroke-opacity="0.1"/>
<path d="M719.86 -22V710.405" stroke="#121212" stroke-opacity="0.1"/>
<path d="M771.243 -22V710.405" stroke="#121212" stroke-opacity="0.1"/>
<path d="M822.627 -22V710.405" stroke="#121212" stroke-opacity="0.1"/>
<path d="M874.01 -22V710.405" stroke="#121212" stroke-opacity="0.1"/>
<path d="M925.393 -22V710.405" stroke="#121212" stroke-opacity="0.1"/>
<path d="M976.775 -22V710.405" stroke="#121212" stroke-opacity="0.1"/>
<path d="M1028.16 -22V710.405" stroke="#121212" stroke-opacity="0.1"/>
<path d="M1079.54 -22V710.405" stroke="#121212" stroke-opacity="0.1"/>
<path d="M1130.92 -22V710.405" stroke="#121212" stroke-opacity="0.1"/>
<path d="M1182.31 -22V710.405" stroke="#121212" stroke-opacity="0.1"/>
<path d="M1233.69 -22V710.405" stroke="#121212" stroke-opacity="0.1"/>
<path d="M1285.07 -22V710.405" stroke="#121212" stroke-opacity="0.1"/>
<path d="M1336.46 -22V710.405" stroke="#121212" stroke-opacity="0.1"/>
<path d="M1387.84 -22V710.405" stroke="#121212" stroke-opacity="0.1"/>
<path d="M1439.22 -22V710.405" stroke="#121212" stroke-opacity="0.1"/>
</g>
</svg>
