<svg width="1440" height="910" viewBox="0 0 1440 910" fill="none" xmlns="http://www.w3.org/2000/svg">
<mask id="mask0_44_11187" style="mask-type:alpha" maskUnits="userSpaceOnUse" x="0" y="0" width="1440" height="910">
<rect width="1440" height="910" fill="#90B39D"/>
</mask>
<g mask="url(#mask0_44_11187)">
<g opacity="0.1">
<path d="M391.312 640.132C414.395 616.207 439.634 594.459 466.709 575.167C549.197 516.116 646.613 483.064 740.706 451.169C830.592 420.557 915.517 391.899 984.404 342.916C1049.57 296.123 1072.36 251.062 1052.16 208.917M-1215.77 2139.15L-1216.19 2140.2L-1216.08 2141.1C-1215.81 2143.56 -1217.13 2145.72 -1218.39 2148.16C-1219.46 2150.38 -1220.32 2152.7 -1220.98 2155.08C-1226.26 2211.44 -1208.86 2258.69 -1188.78 2313.73C-1179.5 2338.7 -1170.09 2364.23 -1162.09 2392.98C-1156.06 2414.38 -1152.05 2434.8 -1148.25 2454.4C-1139.5 2499.01 -1131.18 2540.97 -1102.57 2586.64C-1099.28 2591.61 -1095.69 2596.36 -1091.8 2600.89C-1061.68 2635.84 -1012.69 2648.12 -956.95 2634.75C-884.803 2617.65 -820.739 2563.13 -807.449 2508.28C-804.497 2496.33 -802.77 2476.33 -803.439 2460.76C-806.822 2370.79 -855.333 2256.85 -924.036 2177.12C-960.646 2134.63 -1019.12 2082.76 -1089.43 2077.07C-1133.36 2073.2 -1189.79 2087.52 -1215.77 2139.15M-1228.57 1996.01C-1320.01 2018.4 -1339.04 2101.58 -1327.13 2166.19C-1321.47 2197.57 -1309.26 2235.39 -1296.46 2275.05C-1285.66 2308.72 -1274.74 2342.92 -1265.61 2378.71C-1256.85 2413.11 -1251.48 2444.74 -1246.48 2475.35C-1235.02 2543.68 -1224.13 2608.48 -1176.11 2685.93L-1176.03 2686.21L-1175.87 2686.4C-1135.79 2731.75 -1069.25 2738.22 -1020.43 2735.75C-907.324 2729.58 -776.585 2669.63 -729.256 2601.66C-699.102 2558.56 -693.879 2508.41 -694.798 2473.97C-698.76 2335.04 -772.503 2181.42 -840.735 2083.43C-929.978 1981.41 -1092.98 1944.98 -1228.57 1996.01M-1241.29 1738.83C-1212.21 1736.95 -1186.81 1724.04 -1174.1 1703.75L-1173.72 1702.4C-1172.93 1697.88 -1172.46 1693.31 -1172.3 1688.72C-1172.17 1683.93 -1171.71 1679.14 -1170.92 1674.4L-1170.58 1673.41L-1171.23 1672.26C-1185.21 1644.89 -1214.34 1628.2 -1247.52 1628.1C-1275.79 1627.93 -1303.15 1639.76 -1320.18 1659.6L-1321.2 1660.83L-1321.12 1662.5C-1320.5 1665.4 -1322.06 1668.17 -1323.69 1671.26C-1325.73 1675.46 -1328.28 1680.06 -1327.13 1685.97C-1325 1695.9 -1320.41 1705.14 -1313.77 1712.82C-1298.04 1731.08 -1270.82 1740.77 -1241.29 1738.83M-793.547 1090.3C-851.771 1181.3 -896.048 1249.12 -848.498 1328.92C-848.498 1328.92 -834.135 1350.63 -826.295 1359.73C-742.56 1456.91 -627.034 1414.36 -534.419 1379.77L-520.383 1375.1C-509.824 1371.05 -499.047 1367.84 -489.049 1364.3C-467.576 1357.59 -447.129 1351.43 -429.958 1340.71C-358.134 1296.33 -277.664 1177.78 -314.132 1115.08C-316.539 1111.02 -319.287 1107.19 -322.347 1103.6C-358.218 1061.97 -440.62 1051.35 -506.569 1042.74C-514.345 1041.68 -521.856 1040.73 -529.081 1039.52C-629.028 1025.81 -730.24 1022.28 -793.547 1090.3M-759.018 951.161C-842.045 970.328 -892.498 1085.99 -897.847 1099.33C-938.788 1197.75 -975.102 1308.32 -933.238 1384.75C-926.503 1396.95 -918.456 1408.37 -909.241 1418.82C-858.91 1477.23 -765.006 1529.31 -675.638 1548.06C-649.975 1553.45 -617.44 1552.31 -583.031 1551.21C-566.368 1550.61 -548.986 1550.08 -531.718 1549.99C-506.314 1550.24 -483.741 1552.64 -462 1555.05C-420.518 1559.62 -384.576 1563.59 -350.024 1547.93L-349.556 1547.53L-349.185 1547.21C-288.185 1510.99 -281.902 1438.5 -262.102 1378.44C-251.453 1346.09 -240.364 1312.7 -225.366 1282.3C-214.101 1259.18 -199.941 1236.91 -186.295 1215.39C-159.022 1171.72 -130.412 1126.95 -123.299 1073.47L-123.481 1072.29C-126.809 1058.05 -133.597 1044.86 -143.243 1033.87C-148.95 1027.34 -155.452 1021.55 -162.597 1016.63C-193.687 995.067 -319.743 970.345 -537.114 943.34C-636.46 931.205 -705.008 933.52 -759.018 951.161M-103.856 883.111C-136.321 891.618 -170.046 900.212 -205.304 902.773C-279.018 907.275 -357.986 892.152 -434.802 877.209C-474.296 869.661 -515.257 861.69 -555.025 856.747C-626.413 847.5 -757.583 838.463 -835.207 877.874C-854.194 887.506 -869.63 902.83 -884.243 917.757C-893.422 927.008 -902.28 935.667 -910.91 942.076L-911.567 942.641L-911.981 943.344C-935.196 991.189 -959.232 1044.07 -982.178 1095.7C-1007.37 1150.92 -1032.78 1208.39 -1057.56 1257.89C-1074.63 1292.38 -1092.3 1345.51 -1048.26 1407.82C-1044.01 1413.88 -1039.02 1420.29 -1033.7 1426.46C-1004.51 1460.33 -966.765 1487.13 -926.876 1515.46C-889.962 1541.68 -851.777 1568.79 -818.251 1603.26C-797.07 1624.94 -782.078 1651.23 -766.028 1679.32C-756.6 1695.68 -746.544 1713.15 -735.472 1729.11C-727.242 1740.76 -719.693 1750.71 -712.391 1759.18C-670.944 1807.29 -639.855 1809.33 -579.435 1808.92C-332.694 1807.53 -189.919 1702.3 -154.962 1496.48C-152.038 1479.2 -149.943 1460.95 -148.048 1443.25C-145.477 1416.86 -142.538 1389.55 -136.231 1364.98C-116.572 1290.4 -73.5205 1232.15 -31.9963 1175.6C11.7106 1115.79 53.4007 1059.43 67.6849 987.116C74.0242 955.825 70.6708 913.092 48.9548 887.889C38.5084 875.766 24.7316 868.86 8.16768 867.028C-26.9214 863.407 -64.4758 872.966 -103.856 883.111M564.893 250.275L564.024 248.264C562.921 245.419 562.034 242.041 560.931 238.805C559.036 232.499 557.24 225.717 552.281 219.963C550.43 217.805 548.258 215.945 545.842 214.446L545.313 214.2C448.877 178.598 365.731 253.67 303.953 322.822L303.179 323.49L303.122 324.598C302.687 327.028 301.614 329.694 300.775 332.829C298.166 340.951 294.907 351.059 301.919 359.197C303.507 361.022 305.4 362.557 307.514 363.733L308.649 364.464L309.867 364.117C318.114 362.537 326.207 360.779 334.551 359.117C417.896 341.987 512.284 322.613 563.63 251.719L564.893 250.275M1139.6 786.982C1125.82 745.485 1095.89 724.386 1052.41 725.127C974.539 726.256 868.054 799.312 828.805 848.77C793.48 892.465 778.837 966.973 817.154 1011.44C826.248 1022 837.818 1030.36 852.058 1036.79C925.902 1065.62 1013.75 1017.46 1066.38 967.379C1127.93 908.563 1156.73 837.826 1139.6 786.982M694.513 191.178C655.679 146.108 565.77 112.939 493.702 117.158C360.832 143.319 255.183 233.655 166.13 316.489C118.205 378.788 109.852 439.106 143.818 478.525C175.619 515.432 235.212 523.307 295.497 498.434C313.218 491.266 338.501 477.941 367.629 462.678C398.796 446.292 434.21 427.633 470.146 411.568C492.612 401.01 514.943 392.576 536.369 384.277C575.299 369.335 611.933 355.028 647.725 331.982C688.466 306.343 711.009 278.806 714.84 250.453C717.681 230.09 710.909 210.206 694.514 191.178M1261.01 879.132C1280.9 817.577 1283.94 730.48 1232.17 670.397C1228.1 665.708 1223.8 661.229 1219.27 656.977C1081.77 531.483 844.786 678.443 715.284 777.587C610.106 890.436 611.854 1093.88 719.122 1221.85L719.294 1222.05C773.414 1281.76 833.336 1301.15 897.621 1280.08C950.496 1262.43 1036.32 1225.5 1075.41 1200.57C1099.08 1185.24 1139.84 1145.4 1151.76 1125.72C1185.89 1070.05 1234.78 959.276 1261.01 879.132M827.521 202.912C822.764 195.095 817.344 187.702 811.318 180.817C762.332 123.966 668.949 83.1415 602.671 69.1286C406.248 27.7596 221.451 188.023 122.42 274.007C76.746 307.328 43.5268 370.975 35.8096 440.628C29.5746 497.242 42.0496 548.495 70.2055 581.172C86.5348 600.124 107.543 612.698 132.83 619.204C212.982 639.448 290.344 587.932 372.013 533.093C407.669 509.437 444.539 485.061 482.635 465.376C532.069 440.313 583.359 422.414 628.967 407.02C665.028 394.481 699.254 382.521 726.939 368.778C770.454 347.468 824.875 312.685 837.914 267.427C844.056 246.296 840.788 224.502 827.521 202.912M1230.1 1113.74C1241.53 1062.58 1260.94 1012.93 1279.77 965.134C1296.98 921.059 1313.32 879.464 1321.22 841.425C1335.96 772.618 1317.64 702.407 1271.46 648.811C1222.78 592.308 1152.01 562.616 1076.67 567.059C983.264 572.623 811.881 646.759 721.173 709.436C692.736 729.256 675.226 749.372 659.951 767.248C654.24 774.163 648.839 780.496 642.762 786.772C541.856 932.808 587.046 1172.36 688.974 1319.67C698.696 1333.73 709.14 1347.27 720.264 1360.24C782.386 1432.34 843.406 1451.3 911.897 1419.15C925.383 1412.93 939.452 1401.81 954.404 1389.92C965.917 1381.03 977.688 1371.89 990.319 1363.69C1020.18 1344.36 1054.06 1328.92 1083.87 1315.35C1106.91 1304.54 1126.88 1295.41 1140.71 1286.49C1207.99 1243.65 1214.73 1202.9 1223.05 1151.39C1224.98 1139.34 1227.19 1127.01 1230.1 1113.74M941.486 224.857L941.376 223.958L940.884 223.388C933.041 214.069 925.991 204.756 919.275 195.803C911.991 186.001 905.12 176.87 897.66 168.211C891.99 161.453 885.758 155.188 879.03 149.483C801.788 84.1278 668.013 29.6913 567.749 23.0143C409.748 12.5597 261.294 110.338 149.789 197.023C39.0872 282.713 -23.3342 369.303 -36.1895 454.046C-41.5048 490.092 -33.7687 528.95 -26.5583 566.234C-18.5769 606.556 -11.1344 644.664 -18.3966 679.03C-43.7716 798.012 -204.878 841.397 -305.477 833.367C-334.013 829.166 -363.761 824.327 -395.617 818.97C-555.277 792.517 -736.353 762.414 -863.443 813.687C-909.22 832.052 -941.923 865.231 -957.256 883.484C-984.007 914.894 -999.307 954.197 -1015.75 995.478C-1033.38 1041.11 -1051.98 1087.95 -1086.84 1127.69C-1111.66 1155.76 -1138.97 1173.6 -1168.13 1181.01C-1200.56 1188.87 -1235.68 1182.62 -1272.99 1175.94C-1330.46 1165.53 -1390.21 1154.77 -1439.83 1201.88L-1440.61 1202.89C-1454.76 1232.16 -1482.25 1307.05 -1430.28 1367.37C-1423.97 1374.65 -1416.93 1381.27 -1409.27 1387.12C-1382.71 1407.72 -1349.44 1410.87 -1310.77 1414.71C-1298.58 1415.92 -1285.96 1417.08 -1272.92 1418.9C-1167.4 1433.42 -1058.78 1488.15 -967.659 1572.31C-956.217 1583.01 -945.391 1594.35 -935.234 1606.28C-910.063 1635.5 -889.036 1666.26 -882.079 1684.36C-881.382 1685.74 -828.72 1824.16 -929.887 1873.5C-944.064 1880.37 -969.093 1884.86 -983.808 1887.83C-1018.28 1894.09 -1058.62 1897.39 -1100.96 1901.07C-1186.27 1908.28 -1274.63 1915.8 -1330.4 1947.46C-1410.87 1992.7 -1408.62 2077.8 -1400.01 2124.6C-1392.68 2164.15 -1378.12 2210.54 -1362.65 2260.11C-1350.59 2298.58 -1337.9 2338.56 -1327.31 2379.96C-1315.57 2425.75 -1307.48 2473.34 -1299.62 2519.47C-1292.16 2564.94 -1285.02 2608.32 -1274.38 2646.69C-1272.85 2652.71 -1271.4 2658.82 -1269.94 2664.59C-1262.83 2693.64 -1255.7 2723.31 -1230.37 2752.7C-1219.56 2765.1 -1207.22 2776.06 -1193.63 2785.32C-1111.8 2842.31 -1011.87 2806.77 -915.322 2772.12L-883.73 2760.98C-813.57 2736 -752.97 2714.57 -712.933 2687.78C-588.427 2605.58 -615.785 2476.87 -635.834 2382.66L-636.942 2376.94C-644.855 2339.23 -657.462 2294.53 -669.558 2251.38C-682.909 2203.31 -697.011 2153.21 -704.366 2114.02L-704.678 2111.93C-714.847 2058.1 -723.381 2011.57 -648.747 1964.98C-605.902 1937.79 -550.211 1926.28 -491.233 1913.96C-408.786 1896.49 -323.195 1878.62 -259.812 1816.66C-236.703 1788.35 -216.741 1768.17 -194.489 1750.98C-111.709 1663.92 -90.1938 1574.77 -67.4897 1479.87C-58.9275 1443.74 -49.7738 1406.36 -37.0385 1367.94C-11.4206 1290.3 29.2473 1222.8 68.6694 1157.71C123.19 1067.54 179.36 974.272 195.245 854.491C196.725 842.137 197.75 830.218 198.393 818.628C201.476 781.147 204.093 749.1 227.318 720.729C278.665 659.07 324.728 623.083 410.394 560.963C488.811 504.117 571.921 471.995 643.833 446.539C658.628 441.155 673.737 436.161 688.809 430.882C750.812 409.926 814.923 388.139 869.318 351.992C928.786 312.479 951.76 272.252 941.486 224.858M1293.86 1175.56C1292.1 1143.54 1290.31 1110.53 1294.87 1079.07C1301.46 1032.79 1317.47 993.155 1334.61 951.549C1349.65 914.092 1365.5 875.631 1374.49 830.955C1388.13 761.512 1367.66 690.572 1316.72 631.456C1266.11 572.72 1189.79 532.105 1122.05 527.736C1064.3 524.143 984.424 550.359 961.406 558.451C824.578 606.559 730.843 648.405 675.236 686.935C662.414 695.646 642.544 713.772 628.123 728.192C460.307 948.955 538.62 1266.66 697.837 1453.96C698.988 1455.29 699.974 1456.43 701.316 1457.99C772.491 1540.6 870.643 1551.64 977.626 1489C995.428 1478.34 1013.06 1466.51 1030.05 1454.9C1060.69 1434.19 1089.9 1414.73 1120.87 1402.13C1130.39 1398.29 1142.22 1394.8 1154.54 1390.92C1203.99 1375.8 1271.55 1354.83 1288.28 1292.44C1298.18 1255.4 1296.11 1214.9 1293.87 1175.56M1306.88 1444.05C1371.04 1416.27 1382.19 1370.45 1378.84 1310.31C1376.84 1272.81 1369.21 1238.47 1362.26 1205.25C1352.58 1160.96 1343.69 1119.33 1347.41 1073.21C1350.8 1033.07 1368.81 991.732 1387.56 947.773C1402.53 912.385 1418.21 876.075 1426.09 839.796C1441.32 769.338 1414.47 687.53 1352.64 615.774C1277.04 528.035 1170.77 479.117 1081.71 491.15C1056.7 494.603 1020.16 503.606 978.587 516.629C892.197 544.131 769.329 589.99 689.386 630.385C663.34 643.452 605.042 689.64 571.607 723.489L571.192 724.191C507.573 830.307 471.895 991.465 480.027 1134.66C486.091 1247.42 551.145 1343.6 613.815 1436.43C633.941 1466.36 654.731 1497.06 673.027 1527.58L673.349 1527.95L681.68 1535.88C725.178 1576.5 778.787 1626.54 853.112 1619.83C894.824 1616.05 943.216 1586.78 994.569 1555.92C1035.92 1531.04 1078.83 1505.46 1124.12 1488.25C1159.42 1474.92 1191.82 1469.79 1223.03 1464.67C1252.73 1459.88 1280.87 1455.42 1306.88 1444.05M1052.16 208.917C1048.59 202.012 1044.2 195.562 1039.09 189.703C1004.34 149.374 923.007 107.026 884.08 86.6901C787.439 36.4306 681.797 -12.7339 546.379 -11.8345C367.905 -10.9814 124.12 146.538 -14.7545 293.967C-88.4197 372.509 -122.917 460.462 -120.222 562.859C-117.739 657.106 -151.164 718.356 -220.066 744.597C-268.744 763.471 -330.423 755.692 -395.952 746.912C-429.423 742.957 -464.367 738.255 -499.026 737.352C-511.004 736.945 -523.329 736.519 -536.002 736.075C-675.136 731.119 -848.472 725.214 -936.09 776.961C-992.671 809.987 -1025.44 861.971 -1057.08 911.99C-1074.3 939.23 -1090.47 965.187 -1110.13 987.479C-1169.9 1055.73 -1224.98 1045.97 -1288.56 1034.83C-1317.04 1029.92 -1346.83 1024.45 -1378.21 1026.4C-1432.86 1029.66 -1468.83 1053.63 -1507.57 1082.32C-1585.13 1160.19 -1583.06 1385.62 -1503.88 1477.7C-1493.45 1490.05 -1480.88 1500.41 -1466.76 1508.28C-1422.02 1532.99 -1373.66 1527.44 -1322.32 1521.68C-1278.19 1516.8 -1232.55 1511.94 -1186.14 1525.52C-1134.86 1540.89 -1075.67 1579.9 -1038.44 1623.11C-1017.92 1646.92 -994.366 1683.51 -999.308 1721.89C-1002.91 1748.77 -1020.18 1772.67 -1050.37 1793.34C-1102.91 1828.58 -1178.44 1843.45 -1232.66 1849.71C-1252.18 1852.12 -1272.75 1851.76 -1294.57 1851.5C-1328.66 1851.07 -1363.79 1850.58 -1395.22 1860.94C-1428.49 1871.84 -1452.75 1892.1 -1467.17 1921.24C-1505.39 1998.7 -1463.89 2119.53 -1450.22 2159.29C-1444.75 2174.32 -1439.7 2189.05 -1434.66 2203.77C-1412.9 2266.02 -1392.1 2325.06 -1375.61 2389.49C-1361.65 2444.05 -1353.28 2503.11 -1345.39 2559.88C-1335.09 2631.97 -1324.76 2706.41 -1302.49 2772.54C-1294.41 2796.38 -1283.07 2817.05 -1268.5 2833.96C-1209.6 2902.32 -1115.87 2893.52 -1065.13 2882.24C-1047.39 2878.33 -1015.09 2864.56 -973.949 2847.55C-946.099 2835.92 -914.562 2822.79 -882.172 2810.26C-852.365 2798.98 -824.214 2790.79 -797.328 2782.67C-737.52 2764.95 -681.108 2748.12 -614.232 2701.21C-528.854 2642.04 -526.188 2538.35 -527.355 2507.89C-529.85 2446.78 -546.188 2382.91 -560.837 2326.59C-573.38 2278.49 -585.218 2233.14 -586.464 2196.42C-588.71 2143.12 -581.439 2083.32 -511.319 2042.3C-484.535 2026.93 -459.766 2020.98 -433.446 2014.71M2187.09 1004.44C2188.63 995.901 2185.39 986.04 2178.42 977.945C2172.71 971.321 2165.16 966.985 2158.24 965.689C2145.1 963.29 2135.56 974.76 2129.61 983.887L2128.82 985.265L2129.56 987.178C2130.33 990.112 2131.78 992.818 2133.82 995.065C2133.84 995.623 2133.9 996.179 2133.98 996.731C2133.75 1002.6 2135.83 1008.33 2139.76 1012.7C2140.65 1013.74 2142.02 1015.12 2143.19 1016.26L2144.21 1016.82C2160.39 1022.75 2180.61 1021.98 2187.04 1005.23L2187.09 1004.44M1745.79 354.388C1714.75 314.179 1663.81 304.091 1623.55 300.204L1622.46 300.132L1621.59 300.524C1608.74 307.156 1593.83 316.922 1593.6 334.191C1596.66 367.44 1607.88 396.01 1625.79 416.785C1626.64 417.77 1627.48 418.755 1628.33 419.737C1668.07 462.697 1726.11 466.662 1753.48 443.429C1776.58 424.195 1773.72 390.795 1745.79 354.388M2290.6 925.05C2248.83 883.225 2185.33 857.075 2128.92 858.326C2087.12 859.129 2051.7 874.755 2025.5 903.434C1991.27 946.471 2003.61 1018.71 2055.32 1078.72C2093.13 1122.6 2143.28 1149.1 2192.47 1151.02C2246.53 1153.5 2292.14 1128.75 2314.52 1085.11C2339.43 1036.9 2330.79 977.37 2290.6 925.05M1885.39 428.413C1882.29 398.445 1864.37 364.374 1832.09 326.907C1754.34 236.674 1621.76 157.017 1567.89 143.522C1509.46 129.231 1463.82 141.293 1414.83 183.85L1414.24 184.36C1386.49 223.411 1390.18 271.42 1425.47 326.845C1437.03 345.149 1452.53 365.462 1471.68 387.679C1536.44 462.837 1638.04 551.675 1686.23 563.657C1728.04 574.096 1799.17 560.953 1846.01 520.592C1875.3 495.018 1888.87 463.116 1885.39 428.413M1995.12 485.521L1995.45 484.55C2001.29 451.654 1981.47 409.607 1934.8 355.439C1893.28 307.25 1838.5 259.043 1798.28 223.833C1788.2 215.053 1778.97 206.87 1770.94 199.686C1761.98 191.619 1753.11 183.47 1744.15 175.405C1673.18 110.945 1606.1 50.1837 1556.82 37.8994C1453.06 11.419 1350.87 87.0203 1283.12 154.825L1282.35 155.488C1280.72 158.237 1279.19 161.546 1277.46 164.372C1265.21 185.012 1251.25 208.451 1252.83 236.336L1252.94 237.239C1262.46 259.958 1280.1 286.065 1307.34 317.686C1346.71 363.367 1399.68 412.791 1450.89 460.364C1468.68 476.926 1486.06 493.209 1502.57 508.875C1584.5 587.069 1645.89 629.896 1690.45 640.202C1778.54 660.378 1880.91 608.462 1994.62 486.3L1995.12 485.521M2384.17 457.603C2424.62 435.264 2489.64 443.829 2518.86 474.556C2518.29 497.983 2499.81 509.753 2484.1 515.643C2440.95 531.267 2377.95 520.263 2360.61 500.137C2357 495.951 2355.46 491.375 2356.06 486.699C2357.59 477.727 2367.19 467.362 2384.17 457.603M2291.56 398.222C2302.64 393.015 2313.34 387.059 2323.6 380.395C2402.74 355.774 2558.54 357.578 2671.42 384.58C2705.98 392.622 2736.7 409.025 2753.4 428.409C2775.44 453.988 2773.54 483.277 2748.06 515.713C2679.2 603.746 2360.69 637.455 2268.42 566.726C2258.27 559.165 2248.91 550.587 2240.5 541.127C2201.78 496.19 2225.07 460.24 2245.31 429.291C2258.32 415.04 2274.42 406.903 2291.56 398.222M2110.21 447.558C2176.76 387.53 2284.02 314.271 2419.4 306.997C2453.47 305.246 2491.59 308.413 2531.95 311.995C2558.98 314.284 2587 316.751 2614.22 317.519C2628.96 317.954 2644 317.77 2658.52 317.36C2692.23 316.944 2724.05 316.455 2751.8 323.838C2781.32 331.732 2806.86 347.418 2826.15 369.812C2873.75 425.054 2872.38 508.37 2822.72 558.912C2764.02 618.551 2604.97 657.68 2478.01 665.419C2365.51 672.502 2203.41 627.064 2127.53 538.993C2121.93 532.553 2116.78 525.737 2112.12 518.592C2095.73 493.362 2095.24 472.243 2110.21 447.558M1875.56 668.651C1820.43 702.769 1763.29 737.614 1700.41 727.258C1646.04 718.292 1594.79 664.794 1545.49 612.976C1536.66 603.879 1527.91 594.695 1519.14 585.86C1389.11 453.453 1239.67 321.061 1117.61 344.333C1059.66 355.12 1005.7 381.898 948.332 409.928C905.972 430.71 862.373 452.561 814.913 468.387C789.333 477.043 763.616 485.157 738.668 492.62C666.129 514.988 597.604 536.234 541.994 572.469C389.193 672.019 370.749 763.139 351.134 859.646C344.875 889.763 338.625 921.239 327.524 952.864C309.427 1006.6 284.415 1053.9 260.052 1099.61C243.306 1131.43 225.878 1164.19 210.428 1199.25C198.553 1232.87 188.432 1268.33 178.753 1302.76C163.232 1355.27 147.554 1409.91 125.426 1459.38C97.4119 1521.66 63.0932 1581.64 17.507 1648.01C-13.9786 1693.55 -46.6516 1735.4 -78.386 1775.45C-145.647 1861.17 -209.427 1941.88 -245.743 2044.05L-250.286 2057.66C-275.22 2129.3 -295.139 2185.57 -399.55 2248.79L-400.386 2249.17L-400.692 2249.78C-435.338 2299.36 -428.223 2359.45 -421.161 2417.91C-417.131 2451.9 -412.925 2487.03 -416.794 2520.12C-429.077 2624.36 -480.674 2704.95 -570.357 2759.44C-613.085 2785.58 -670.587 2799 -731.261 2813.17C-774.661 2823.14 -819.31 2833.53 -858.699 2849.09C-898.55 2864.69 -936.684 2886.53 -973.62 2907.63C-1013.88 2930.3 -1051.73 2951.86 -1088.37 2964.05C-1150.29 2984.3 -1263.02 3008.19 -1320.73 2941.22C-1326.66 2934.29 -1331.83 2926.75 -1336.14 2918.71C-1365.37 2864.33 -1367.97 2788.32 -1370.54 2714.62C-1371.77 2680.24 -1372.97 2647.83 -1376.69 2618.27C-1391.64 2499.76 -1418.28 2343.79 -1489.5 2192.15C-1501.8 2166.32 -1515.81 2140.24 -1529.32 2115.11C-1554.47 2068.58 -1580.15 2020.47 -1597.49 1968.53C-1617.65 1908.36 -1613.98 1846.34 -1609.79 1774.51C-1608.41 1749.9 -1606.98 1724.59 -1606.23 1697.52C-1604.45 1624.45 -1610.96 1549.46 -1617.26 1476.99C-1632.38 1299.73 -1646.83 1132.29 -1544.77 1007.56C-1479.42 934.865 -1398.31 929.173 -1319.8 923.747C-1275.94 920.705 -1234.41 918.028 -1198.46 903.108C-1156.73 886.222 -1120.13 849.313 -1081.39 810.254C-1040.23 768.795 -997.749 725.821 -948.765 708.681C-888.662 687.678 -819.688 690.076 -753.058 691.872C-723.351 693.015 -695.579 693.84 -668.307 692.734C-550.721 688.734 -463.795 680.366 -385.854 666.386C-360.746 661.805 -294.064 649.814 -254.864 596.654C-231.613 564.268 -224.966 539.804 -218.023 513.758C-214.076 498.298 -209.728 482.534 -201.89 464.078C-164.431 375.949 -88.3924 291.358 44.3314 189.703C241.64 39.106 419.088 -40.8959 557.492 -42.1236C696.407 -42.7574 788.969 -3.15879 887.371 38.7849C927.584 55.9757 969.098 73.6868 1015.22 89.4508C1025.88 92.9773 1046.28 99.505 1062.33 102.718C1156.05 120.924 1234.56 72.3502 1317.8 21.3371C1366.27 -8.71133 1416.41 -39.5475 1471.18 -57.294L1473.19 -58.0381C1489.31 -63.2293 1511.3 -70.4632 1528.64 -71.7204C1580.95 -74.9835 1608.39 -55.8282 1637.99 -21.4762C1648.24 -9.58461 1658.33 3.45447 1670.27 19.26C1675.45 25.8232 1680.86 32.8735 1686.44 40.1229C1703.07 61.5426 1728.52 93.7746 1755.48 125.061C1776.65 149.625 1796.69 171.153 1814.45 188.274C1892.98 264.412 2010.21 362.69 2122.21 341.42C2167.56 332.782 2204.91 315.626 2241.58 299.407C2278.22 282.559 2313.05 266.936 2354.71 259.795C2386.48 254.468 2420.33 255.408 2456.12 256.678C2473.97 257.357 2492.25 257.98 2510.78 258.067C2549.83 257.533 2588.38 255.067 2625.68 252.683C2664.59 250.245 2705.03 247.86 2745.48 247.763C2802.94 247.418 2849.73 267.61 2884.14 307.545C2892.22 316.964 2899.41 327.116 2905.61 337.868C2956.63 425.975 2958.06 548.45 2862.6 613.003C2760.15 682.552 2581.1 724.491 2467.68 725.207C2374.34 725.753 2282.86 689.528 2194.25 654.516C2162.95 642.054 2133.34 630.45 2103.54 620.337C2082.33 612.867 2033.71 606.923 2013.53 608.939C1965.23 613.78 1919.69 641.655 1875.56 668.651M2117.07 4341.03C2022.05 4352.72 1912.05 4293.84 1845.04 4229.94C1836.09 4221.29 1827.1 4212.01 1818.02 4201.47C1798.18 4178.45 1780.47 4153.28 1763.08 4128.85C1746.35 4105.19 1728.88 4080.49 1709.71 4058.24C1698.77 4045.42 1686.92 4033.41 1674.25 4022.29C1618.84 3974.17 1547.58 3953.7 1471.84 3932.1C1444.77 3924.36 1416.54 3916.25 1389.56 3907.1C1313.71 3880.91 1246.22 3841.51 1194.21 3793.1C1187.76 3787.01 1181.62 3780.59 1175.82 3773.88C1132.7 3723.83 1111.86 3662.29 1122.43 3617.09C1136.13 3558.85 1202.31 3521.2 1272.32 3481.26C1320.12 3454.09 1369.44 3425.97 1404.29 3389.92C1431.73 3361.28 1456.49 3311.21 1451.23 3270.62C1445.75 3229.58 1428.32 3191.82 1399.24 3158.07C1344.22 3094.21 1251.48 3053.83 1163.3 3055.34C1090.65 3056.76 1028.25 3085.49 987.764 3136.76C934.979 3203.63 932.439 3280.64 929.915 3354.97C928.932 3388.89 927.871 3423.88 921.616 3456.34C914.457 3495.59 859.781 3571.43 760.496 3577.78C713.52 3580.87 677.448 3551.12 655.811 3526.01C634.337 3501.09 616.486 3469.03 605.437 3435.78C581.375 3364.31 536.479 3199.5 532.517 3125.74C529.332 3072.72 542.948 3019.54 566.874 2989.9C610.85 2934.97 678.704 2930.29 743.897 2925.22C791.992 2921.89 841.52 2918.29 882.057 2895.4C900.682 2885.03 919.108 2866.15 928.603 2853.28C970.386 2796.58 973.945 2717.67 977.468 2634.09C979.262 2596.48 980.951 2557.6 986.003 2518.19C993.816 2458.66 1009.48 2399.39 1024.7 2342.49C1044.79 2266.39 1063.69 2194.31 1060.74 2132.7C1057.98 2072.27 1038.2 2015.79 1019.02 1961.16C987.656 1871.58 960.342 1794.22 1014.73 1722.29C1083.26 1631.52 1191.4 1617.51 1296.45 1604.17C1351.14 1597.15 1407.58 1589.61 1457.25 1571.54C1519.6 1548.53 1581.04 1492.29 1586.22 1453.4C1592.38 1406.97 1559.07 1349.84 1527.12 1294.84C1508.93 1263.72 1491.89 1234.3 1483.73 1209.61C1476.58 1188.03 1453.89 1112.36 1467.17 1048.79C1475.71 1009.37 1503.85 970.749 1531.12 933.23C1556.95 898.277 1581.22 864.982 1587.63 832.732C1597.48 784.842 1557.51 704.33 1478.53 612.67C1412.79 536.375 1333.72 468.503 1272.3 435.561C1208.57 401.283 1140.04 391.496 1074.11 406.88C1026.35 417.955 972.455 440.343 915.695 463.868C870.906 482.404 824.814 501.739 777.493 517.121C766.309 520.735 755.498 524.372 744.631 527.752C678.267 549.185 615.396 569.279 563.539 605.62C539.722 622.101 508.166 649.636 493.24 667.186C438.097 730.737 418.874 816.104 400.302 898.615C391.604 936.493 382.893 976.093 370.532 1012.8C364.153 1031.99 356.666 1051.81 348.647 1072.76C306.336 1184.72 258.31 1311.63 337.859 1422.84C340.212 1426.14 342.591 1429.1 345.399 1432.36C355.157 1443.68 367.015 1454.17 379.473 1465.16C392.349 1476.44 405.986 1488.39 417.897 1502.21C435.239 1522.34 445.605 1542.49 450.758 1565.42C451.204 1584.45 445.279 1590.38 426.214 1586.26C400.247 1576.55 381.542 1562.93 364.859 1550.89C342.757 1534.87 323.691 1521.22 293.444 1518.9C246.241 1515.12 182.728 1554.15 104.076 1633.96C80.7358 1657.73 51.9302 1691.93 21.1781 1728.1C7.34533 1744.03 -6.72306 1760.84 -20.8674 1777.37C-140.702 1915.36 -169.511 1992.32 -190.683 2140.19C-200.573 2208.86 -222.76 2256.71 -248.776 2311.87C-258.707 2333.12 -268.96 2355.3 -279.393 2379.99C-291.311 2409.31 -299.308 2437.24 -306.669 2464.32C-311.95 2483.24 -316.88 2500.83 -322.987 2518.79C-352.735 2603.91 -400.513 2689.49 -448.405 2741.8C-532.503 2833.98 -597.489 2842.18 -666.423 2850.8C-682.665 2852.76 -699.178 2854.98 -716.495 2858.2C-834.318 2880.22 -935.08 2943.97 -998.802 2993.54L-1002.31 2996.22C-1045.98 3030.5 -1127.94 3093.76 -1136.25 3122.65C-1146.13 3157.23 -1127.1 3185.28 -1109.27 3205.97C-1097.87 3219.21 -1084.64 3231.86 -1070.49 3245.4C-1056.34 3258.93 -1041.92 3272.58 -1029.37 3287.14L-1026.79 3289.95C-979.704 3344.59 -926.499 3425.03 -939.489 3498.39C-947.039 3540.3 -976.001 3575.27 -1025.5 3602.22C-1093.24 3639.2 -1224.23 3647.5 -1293.96 3566.58C-1297.88 3562.04 -1301.56 3557.31 -1305 3552.39C-1359.29 3473.2 -1362.08 3379.4 -1365.97 3260.45C-1366.17 3248.27 -1366.88 3235.5 -1367.12 3222.7C-1369.14 3167.96 -1381.59 3116.9 -1394.06 3067.16C-1407.12 3013.28 -1420.87 2957.63 -1420.27 2898.99C-1420 2872.33 -1419.63 2845.98 -1418.98 2820.34C-1416.31 2667.37 -1413.82 2535.59 -1449.1 2420.66C-1453.84 2406.68 -1458.23 2393.11 -1462.65 2379.89C-1487.51 2304.41 -1508.91 2239.31 -1559.66 2168.46C-1566.85 2158.22 -1574.57 2148.36 -1582.79 2138.92C-1608.55 2109.02 -1636.98 2083.74 -1664.56 2059.05C-1688.63 2037.67 -1711.33 2017.49 -1729.18 1996.77C-1739.08 1985.54 -1747.65 1973.2 -1754.72 1960C-1770.84 1928.77 -1773.99 1890.05 -1764.14 1838.48C-1755.2 1792.02 -1742.73 1744.84 -1730.44 1699.18C-1714.39 1639.58 -1697.94 1577.95 -1688.68 1514.52C-1679.75 1452.05 -1677.9 1386.96 -1676.2 1324.01C-1672.25 1186.98 -1668.58 1057.53 -1594.4 970.218C-1497.34 860.52 -1421.27 847.443 -1340.79 833.556C-1289.81 824.703 -1236.96 815.906 -1179.49 780.106C-1154.81 764.822 -1130.06 745.181 -1105.92 726.388C-1070.75 698.417 -1037.46 671.743 -1007.18 661.024C-947.225 639.089 -872.007 641.441 -817.099 642.909L-799.005 643.68C-659.344 647.97 -514.711 652.635 -407.696 586.839C-381.998 571.024 -344.081 537.36 -327.941 517.774C-303.736 489.222 -287.231 459.632 -270.993 431.274C-256.229 404.865 -242.113 380.016 -223.274 357.76C-201.79 332.576 -150.426 291.638 -123.5 271.445C104.682 101.244 340.279 -75.0407 583.347 -73.6625C694.199 -72.9445 781.534 -43.6439 865.957 -14.8101C921.771 3.91752 979.688 23.4972 1042.3 33.3793C1145.43 49.7657 1236.69 -5.165 1333.32 -63.3442C1388.71 -96.7389 1446.17 -131.204 1505.7 -150.746C1586.16 -176.993 1642.2 -165.148 1677.13 -114.401C1699.58 -81.604 1713.84 -49.4463 1728.87 -15.6299C1749.11 30.4006 1770.01 77.5615 1813.63 128.181C1821.71 137.564 1830.45 146.764 1839.64 155.887C1889.69 205.305 1965.2 267.511 2040.75 282.942C2114.64 297.79 2180.33 270.925 2243.78 244.982C2281.92 229.509 2321.24 213.308 2361.87 206.701C2411.91 198.688 2470.45 200.347 2527.04 202.057C2583.09 203.53 2636.54 205.238 2679.56 197.597C2691.53 195.287 2705.15 191.247 2719.64 187.448C2779.36 170.063 2853.77 148.716 2913.75 218.319C2920.79 226.57 2927.2 235.352 2932.89 244.586C2971.63 307.075 3002.65 428.041 2997.08 493.637C2992.54 543.664 2978.01 596.927 2902 647.056C2844.39 685 2743.43 716.19 2654.22 743.281C2641.51 747.224 2628.8 751.161 2616.19 755.016C2611.15 756.683 2605.86 758.23 2600.91 759.832C2570.99 769.225 2545.09 777.508 2518.41 780.452C2430.1 791.06 2340.4 758.434 2253.73 727.217C2199.24 707.327 2147.92 688.773 2098.1 680.889C1982.19 662.152 1857.56 725.785 1780.23 842.196L1779.82 842.88L1779.67 843.667C1770.59 937.359 1829.72 1037.77 1887.36 1135.11C1893.58 1145.8 1900.12 1156.86 1906.56 1168C1921.07 1192.93 1934.84 1218.15 1946.93 1240.47C1964.08 1272.12 1978.95 1299.4 1991.6 1317.93C1996.91 1325.77 2002.67 1333.29 2008.85 1340.46C2072.46 1414.28 2151.53 1411.64 2227.68 1408.5C2300.03 1405.96 2368.02 1403.17 2420.4 1463.96C2427.29 1472.02 2433.52 1480.62 2439.05 1489.66C2469.55 1538.54 2473.35 1590.73 2477.64 1646.19C2483.58 1722.25 2490.32 1808.3 2568.98 1899.58C2580.03 1912.38 2591.76 1924.58 2604.12 1936.12C2663.79 1992.27 2824.79 2105.14 2895.87 2128.09C3039.06 2174.44 3127.28 2056.99 3212.64 1943.35C3258.58 1882.03 3302.04 1824.19 3352.99 1791.99C3413.89 1753.24 3479.46 1769.23 3537.95 1837.11C3546.29 1846.89 3554.13 1857.08 3561.44 1867.64C3607.45 1934.91 3644.19 2031.88 3679.84 2125.47C3684.81 2138.56 3689.67 2151.72 3694.74 2164.73C3712.64 2211.13 3728.53 2261.93 3744.07 2311.01C3755.38 2347.04 3765.85 2380.78 3776.6 2410.59C3788.52 2444.07 3807.26 2478.73 3825.61 2512.36C3854.7 2566.16 3884.48 2621.34 3886.11 2671.39C3887.39 2712.4 3869.67 2752.71 3835.92 2784.81C3793.12 2825.69 3731.56 2848.66 3674.8 2844.43C3608.27 2839.28 3546.84 2807.68 3487.51 2776.96C3414.8 2739.37 3339.66 2700.56 3255.79 2712.68C3141.84 2729.34 3048.23 2810.68 2957.83 2889.57C2910.36 2930.81 2861.27 2973.45 2810.5 3005.84C2751.02 3043.37 2692.78 3060.16 2636.61 3076.47C2555.25 3100.15 2470.98 3124.31 2385.29 3212.52C2272.02 3283.37 2222.97 3372.1 2230.8 3491.96C2232.96 3524.53 2234.54 3557.58 2236.44 3592.34C2242.13 3704.72 2248.25 3821.06 2267.87 3918.4C2272.97 3943.77 2279.15 3968.48 2285.32 3992.59C2296.96 4038.67 2307.91 4082.03 2309.85 4124.14C2315.5 4256.91 2217.29 4328.84 2117.07 4341.03M2063.77 4374.55C1981.14 4368.23 1882.42 4318.98 1805.79 4246.04C1798.25 4238.82 1790.43 4230.53 1781.52 4220.18C1770.12 4206.95 1758.72 4192.37 1746.47 4177.2C1734.25 4161.66 1721.36 4145.36 1708.32 4130.22C1697.58 4117.75 1687.44 4107.14 1678.15 4098.1C1594.38 4017.25 1516.49 3995.82 1433.79 3972.87C1401.16 3963.9 1367.39 3954.57 1333.29 3941.19C1246.72 3907.19 1166.46 3856.44 1094.45 3790.2C1078.99 3776.12 1065.8 3761.75 1053.25 3748.17C1039.11 3733.3 1025.91 3718.94 1011.3 3706.8C947.106 3652.53 883.17 3673.89 821.083 3694.31C782.037 3707.56 744.763 3719.63 710.301 3711.59C685.221 3705.79 661.902 3690.48 640.755 3665.94C603.587 3622.8 572.824 3552.42 547.317 3450.76L541.722 3428.86C507.346 3293.79 464.328 3125.38 487.637 3024.12C496.472 2985.43 520.486 2932 583.872 2897.09C627.627 2872.74 671.364 2865.12 713.657 2857.75C750.863 2851.42 785.91 2845.28 815.383 2828.23C832.563 2818.12 858.618 2796.32 872.137 2777.35C915.638 2716.11 914.803 2637.67 913.926 2561.9C913.427 2519.9 912.94 2476.56 920.451 2437.69C927.914 2398.19 942.753 2361.66 956.993 2326.36C971.452 2290.16 986.714 2252.96 993.279 2213.57C1010.67 2112.37 989.087 2037.43 965.702 1977.73C956.726 1954.41 945.789 1932.08 935.323 1910.69C892.042 1822.69 854.879 1746.81 979.302 1654.62C1057.57 1596.89 1133.53 1559.84 1198.61 1547.52C1213.48 1544.74 1232.43 1543.42 1254.14 1541.45C1335.99 1534.72 1448.19 1525.25 1476.08 1438.75C1492.89 1385.81 1469.9 1329.47 1452.92 1287.96C1448.8 1277.82 1444.84 1268.21 1442.04 1259.95C1428.34 1219.94 1413.45 1173.98 1408.33 1132.61C1398 1049.31 1425.1 996.573 1453.58 940.618C1469.17 910.157 1485.27 878.558 1496.56 840.433C1515.12 776.994 1483.18 689.253 1410.98 605.457C1328.38 509.599 1216.63 444.857 1132.37 443.95C1056.56 443.441 985.781 471.689 910.608 501.393C882.061 512.96 852.522 524.725 821.52 535.391L807.226 540.358C742.146 562.7 674.77 585.655 629.431 612.026C492.756 690.38 471.754 800.677 452.852 897.804C451.891 904.009 450.573 909.801 449.532 915.72C444.595 941.011 438.127 966.641 431.526 994.045C406.309 1098.29 380.389 1206.16 424.979 1287C450.804 1333.92 486.953 1386.28 521.879 1437.03C579.138 1520.02 638.049 1605.56 653.944 1668.71C659.584 1691.24 653.332 1715.01 636.469 1735.89C610.876 1767.29 565.058 1786.73 522.44 1784.68C472.378 1782.05 418.843 1752.67 367.048 1724.15C312.306 1694.15 260.735 1666.08 216.82 1671.18C166.553 1677.41 74.8502 1747.05 10.4273 1812.93C-65.3577 1890.28 -113.631 1980.32 -128.5 2073.62C-131.873 2094.56 -133.508 2116.36 -135.349 2137.34C-137.247 2160.02 -139.021 2181.25 -142.554 2200.65C-157.39 2282.27 -205.012 2408.49 -283.68 2576.51C-327.593 2669.47 -406.939 2794.32 -477.725 2847.6C-547.514 2899.74 -604.267 2904.2 -664.507 2908.65C-694.354 2911 -725.47 2913.43 -759.31 2921.55C-811.574 2934.49 -911.423 2985.45 -957.613 3067.67C-986.742 3120.18 -982.029 3181.9 -943.967 3241.68C-932.22 3259.99 -919.18 3277.44 -904.948 3293.9C-880.165 3322.66 -854.212 3346.42 -831.379 3367.14C-812.561 3384.36 -794.499 3400.89 -780.306 3417.36C-751.394 3450.92 -742.697 3480.85 -751.118 3517.49C-778.632 3635.11 -920.601 3755.08 -1055.56 3727.72C-1073.1 3725.1 -1091.18 3722.99 -1108.82 3720.82C-1196.97 3710.25 -1288.11 3699.25 -1346.76 3631.18C-1355.81 3620.57 -1363.81 3609.1 -1370.62 3596.93C-1377.14 3585.51 -1387.34 3559.23 -1394.89 3538.33C-1425.98 3451.19 -1438.69 3360.92 -1452.02 3265.49C-1455.68 3237.93 -1459.83 3209.41 -1464.48 3180.33L-1466.7 3166.19C-1475.4 3110.24 -1484.61 3052.34 -1485.05 3008.29C-1485.89 2952.22 -1477.11 2895.56 -1468.66 2840.82C-1460.01 2785.93 -1451.14 2729.18 -1451.76 2672.59C-1453.02 2558.42 -1480.34 2384.15 -1553.47 2268.44C-1565.12 2250.05 -1578.07 2232.51 -1592.22 2215.96C-1644.09 2155.76 -1702.7 2122.06 -1754.68 2092.34C-1796.16 2068.29 -1835.26 2045.83 -1863.01 2013.63C-1875.79 1998.82 -1885.96 1981.93 -1893.08 1963.7C-1910.48 1919.24 -1906.05 1887 -1893 1849.36C-1876.48 1802.04 -1855.99 1753.98 -1833.85 1703.19C-1798.33 1621.47 -1761.66 1537.09 -1740.83 1447.97C-1730.97 1406.05 -1720.71 1336.08 -1720.7 1296.97C-1722.13 1079.73 -1652.36 894.636 -1528.9 789.586C-1459.48 719.102 -1403.72 712.141 -1345.06 704.702C-1322.32 701.805 -1298.77 698.894 -1274.06 692.312C-1228.91 679.783 -1188.54 660.358 -1149.37 641.661C-1105.94 620.588 -1064.73 600.786 -1021.98 593.372C-953.087 581.428 -878.74 588.529 -807.108 594.983C-692.946 605.52 -574.712 616.568 -472.111 553.553C-442.289 535.207 -404.042 500.58 -382.059 475.615C-358.918 449.682 -341.263 422.776 -324.036 396.917C-294.547 351.765 -263.873 305.289 -203.945 261.001C-126.258 203.751 -50.7539 160.754 29.2222 115.239C58.0476 98.4094 88.3331 81.3441 119.329 62.9885C321.239 -56.2178 489.404 -124.589 703.453 -97.5632C751.753 -91.3849 798.557 -77.9336 848.245 -63.6174C895.663 -50.0076 944.73 -35.8347 998.921 -27.0795C1015.9 -24.3269 1049.22 -19.9511 1079.7 -21.1796C1163.49 -24.5377 1244.51 -74.9821 1329.82 -128.757C1413.99 -181.92 1501.05 -236.548 1592.78 -243.77C1643.05 -247.648 1678.98 -234.851 1705.75 -203.789C1731.68 -173.692 1747.06 -129.806 1764.76 -79.2371C1787.17 -14.6924 1812.57 58.3269 1867.25 121.781C1879.15 135.568 1892.04 148.47 1905.82 160.383C1929.5 180.731 1993.06 228.876 2067.75 232.323C2127.02 235.035 2173.7 213.872 2223.22 191.589C2269.69 170.572 2318.09 148.91 2379.73 146.265C2403.81 147.241 2426.33 148.527 2447.99 149.577C2537.19 154.239 2607.56 158.095 2676.31 135.59C2706.54 125.59 2738.54 107.047 2769.25 88.9381C2839.76 48.2314 2906.46 9.4671 2954.53 65.2516C2963.12 75.2216 2970.81 87.9974 2977.91 103.567C2999.39 151.225 3013.96 225.54 3029.38 304.133C3032.03 317.222 3034.57 330.386 3037.21 343.47C3040.41 360.113 3044.09 376.308 3047.65 391.615C3054.45 421.852 3060.21 447.606 3061.26 466.745C3068.56 636.858 2970.42 674.003 2807.59 735.105L2783.6 744.067C2739.47 761.054 2698.1 780.659 2661.72 797.979C2625.54 815.128 2591.46 831.456 2561.35 841.393C2525.42 853.641 2502.71 858.497 2472.34 852.919C2427.58 844.715 2379.94 824.289 2329.34 802.749C2248.62 768.408 2157.2 729.555 2060.73 735.503C2000.74 739.087 1873.36 784.693 1861.9 901.824C1853.25 990.81 1927.14 1103.53 1959.55 1148.09C1974.3 1168.48 1989.06 1187.16 2003.28 1203.65C2060.6 1270.17 2112.37 1305.41 2171.99 1318.52C2205.45 1325.78 2240.3 1324.8 2273.75 1323.73C2339.81 1321.6 2402.55 1319.66 2453.76 1379.09C2461.02 1387.61 2467.58 1396.71 2473.37 1406.29C2514.01 1471.17 2523.08 1549.91 2532.61 1633.21C2536.54 1667.25 2540.58 1702.19 2547 1736.41C2552.92 1767.75 2571.11 1829.9 2628.61 1896.64C2638.85 1908.52 2649.89 1920.05 2661.72 1931.23C2720.09 1985.87 2789.72 2029.09 2894.8 2075.52C3039.72 2114.04 3121.55 2003.44 3200.34 1896.44C3264.58 1809.35 3325.28 1727.01 3417.28 1719.55C3461.72 1716.02 3519.01 1744.14 3557 1788.23C3562.12 1794.11 3566.85 1800.31 3571.15 1806.8C3629.02 1890.91 3677.01 2008.26 3723.31 2121.71C3766.36 2226.59 3806.8 2325.73 3854.59 2401.81C3873.32 2431.45 3894.48 2458.32 3914.99 2484.43C3951.4 2530.54 3982.58 2570.19 3986.12 2608.22L3986.4 2609.31C3986.87 2629.3 3987.63 2650.03 3991.05 2669.8C3968.24 2816.72 3834.54 2929.94 3692.72 2922.17C3627.68 2918.75 3566.34 2888.4 3501.9 2856.39C3437.11 2824.35 3369.91 2791.05 3297.16 2786.58C3182.74 2779.59 3108.83 2834.27 3023.11 2897.78C2997.8 2916.57 2971.37 2935.99 2942.65 2955.06L2942.18 2955.46L2941.79 2955.8C2871.16 3051.08 2756.25 3089.95 2645.02 3127.32C2558.62 3156.33 2469.38 3186.47 2401.69 3242.77C2329.71 3303.15 2290.22 3370.23 2281.17 3448.53C2283.26 3499.51 2282.93 3551.91 2282.8 3602.82C2282.27 3698.15 2281.94 3788.31 2295.14 3867.8C2303.21 3915.31 2316.11 3960.34 2328.98 4004.36C2345.75 4062.74 2361.69 4117.85 2363.49 4170.42C2364.7 4212.47 2346.23 4253.09 2310.07 4287.6C2243.28 4351.49 2133.31 4380.11 2063.77 4374.55M2455.34 4182.07C2452.99 4141 2432.26 4098.07 2412.57 4056.92C2402.21 4035.44 2391.71 4013.43 2383.67 3991.97C2329.62 3845.44 2317.9 3655.77 2350.23 3444.19C2358.9 3387.98 2379.76 3327.24 2471.72 3262.67C2528.55 3223.08 2595.85 3207.17 2661.17 3191.67C2722.1 3177.23 2779.6 3163.43 2829.41 3131.87C2868.83 3106.9 2903.2 3073.97 2936.14 3041.89C2963.47 3016.01 2991.52 2988.84 3021.88 2966.67C3085.05 2920.93 3212.23 2850.45 3354.97 2892.81C3399.1 2905.88 3442.9 2924.93 3485.15 2943.33C3563.36 2977.46 3644.3 3012.64 3734.2 3013.33C3781.76 3013.43 3849.56 2991.75 3895.07 2961.56C4004.69 2889.18 4112.05 2760.24 4105.25 2635.81C4101.21 2565.81 4080.94 2498.75 3993.56 2397.33C3982.32 2384.3 3969.98 2370.55 3956.93 2356.75C3946.79 2346.14 3919.75 2317.64 3895.45 2289.45C3877.95 2269.13 3864.91 2252.65 3857.18 2240.61C3819.53 2182.84 3787.48 2116.94 3756.25 2052.96C3748.62 2037.17 3740.88 2021.47 3733.21 2006.01C3721.25 1981.9 3709.8 1957.05 3698.44 1933.08C3671.3 1874.98 3645.69 1820.23 3615.84 1777.12C3608.37 1766.52 3600.67 1756.42 3592.75 1747.24C3504.37 1644.67 3384.59 1631.64 3287.61 1713.86C3240.31 1753.94 3207.45 1802.3 3175.4 1849.28C3126.69 1920.67 3080.66 1988.04 2991.94 2013.38C2899.4 2039.68 2756.22 1963.28 2680.73 1875.67C2671.64 1865.18 2663.25 1854.1 2655.63 1842.5C2613.99 1778.18 2604.11 1697.17 2593.32 1611.25C2587.1 1561.84 2580.64 1510.62 2568.09 1460.96C2541.33 1356.73 2512.98 1255.24 2461.94 1159.59L2461.15 1157.91L2459.03 1157.76C2421.69 1157.19 2393.22 1172.7 2365.77 1187.66C2350.74 1195.61 2336.31 1203.36 2320.91 1208.63C2238.09 1236.55 2115.58 1226.53 2019.77 1115.33C2018.11 1113.41 2016.62 1111.68 2015.08 1109.7C1971.86 1057.42 1936.05 974.028 1953.6 905.428C1964.24 864.216 1992.56 834.471 2037.81 816.862C2132.9 780.013 2276.53 830.951 2355.1 899.215C2363.73 906.84 2371.81 915.059 2379.28 923.81C2390.35 936.649 2400.38 950.409 2410.14 963.69C2419.35 976.474 2429.2 990.025 2439.62 1002.11C2452.17 1016.68 2464 1027.52 2476.79 1036.2L2478.49 1037.41L2480.45 1036.4C2530.21 1008.23 2561.56 973.529 2591.93 940.007C2616.2 913.074 2641.2 884.865 2676.01 860.544C2698 845.487 2720.99 831.934 2744.81 819.977C2799.14 791.529 2860.07 773.436 2918.66 755.695C2979.88 737.36 3037.62 719.996 3085.26 692.636C3196.75 628.994 3177.04 529.061 3159.71 440.751C3153.62 409.606 3147.84 380.167 3147.35 352.849C3146.83 301.547 3157.44 261.653 3169.94 215.481C3175.21 195.586 3180.78 175.083 3185.71 152.462L3186.04 151.157L3185.42 150.036C3172.4 127.194 3158.65 93.9164 3144.09 58.716C3117.17 -6.61676 3086.73 -80.2807 3047.09 -126.291C3008.92 -170.583 2968.71 -182.006 2924.2 -161.028C2889.94 -144.542 2860.07 -114.469 2833.59 -87.9875C2826.76 -81.0795 2820.01 -74.2722 2813.76 -68.2302C2718.22 22.7797 2670.16 68.5306 2578.28 79.2197C2529.42 84.9251 2485.68 76.1652 2443.38 67.5283C2406.27 60.0977 2371.26 53.1825 2333.55 55.2665C2285.14 58.223 2243.1 82.4427 2202.52 106.05C2148.7 137.025 2093.28 169.419 2022.61 151.166C1979.05 139.915 1944.34 117.73 1912.94 81.298C1903.6 70.466 1895.01 59.0128 1887.22 47.0172C1860.48 5.5784 1845.72 -49.4991 1831.6 -102.497C1814.82 -164.524 1797.76 -228.674 1760.92 -271.433C1728.71 -308.811 1684.76 -325.7 1626.41 -323.865C1592.43 -322.662 1546.53 -308.496 1528.5 -302.645C1452.97 -277.993 1382.94 -235.028 1315.4 -193.183C1215.09 -131.784 1120.44 -73.6381 1023.45 -83.9162C839.845 -128.839 645.633 -165.61 469.361 -129.954C363.674 -108.703 241.916 -47.5404 136.529 9.50631C77.5656 41.6377 16.6252 71.0877 -36.8227 97.0977C-108.866 131.772 -170.984 161.589 -212.514 189.68C-291.105 242.377 -339.508 306.799 -386.081 369.3C-434.695 434.247 -480.73 495.638 -554.184 527.518C-616.907 554.516 -709.796 561.722 -809.518 546.743C-836.846 542.575 -864.084 536.971 -890.509 531.348C-938.772 521.186 -988.553 510.612 -1040.98 509.678C-1058.03 509.346 -1075.5 509.689 -1092.41 509.899C-1160.23 510.564 -1230.12 511.326 -1284.65 482.139C-1320.81 462.526 -1351.39 437.435 -1380.8 413.318C-1411.45 387.964 -1443.22 361.876 -1480.85 342.859C-1572.4 296.139 -1713.55 270.461 -1822.77 317.471C-1895.57 349.139 -1944.84 407.936 -1969.19 492.404C-1981.18 534.138 -1981.51 596.55 -1959.23 635.128C-1954.78 642.758 -1949.63 649.954 -1943.84 656.622C-1916.08 688.835 -1875.87 708.947 -1836.93 728.518C-1800.73 746.445 -1766.82 763.647 -1745.51 788.384C-1733.13 802.751 -1725.93 818.617 -1723.67 837.031C-1717.99 884.27 -1730.05 935.392 -1741.64 985.13C-1748.09 1011.75 -1754.62 1039.42 -1758.18 1065.53C-1762.51 1098.65 -1765.1 1134.95 -1767.51 1170.1C-1771.61 1224.1 -1775.86 1279.85 -1786.16 1329.16C-1805.08 1418.94 -1837.44 1469.22 -1866.66 1506.4C-1882.39 1526.67 -1903.46 1547.49 -1924.2 1567.34C-1952.91 1595.1 -1979.74 1621.56 -1994.44 1647.26C-2001.91 1660.37 -2007.36 1675.43 -2012.59 1689.96C-2024.12 1721.28 -2035.09 1750.77 -2064.37 1765.3C-2074.31 1759.16 -2080.71 1748.65 -2084.58 1731.26C-2044.73 1625.12 -2025.91 1539.08 -2143.53 1402.57C-2158.72 1384.94 -2176.86 1365.82 -2197.01 1346.1C-2228.93 1314.83 -2266.72 1286.58 -2303.57 1259.22C-2344.33 1228.87 -2382.8 1200.21 -2407.91 1171.07C-2423.94 1152.47 -2433.45 1135.27 -2436.88 1118.19C-2419.61 1080.24 -2368.91 1030.23 -2315.37 977.745C-2247.5 911.257 -2170.84 835.521 -2145.89 767.572C-2135.77 739.828 -2135.12 694.153 -2166.83 657.344C-2177.56 644.894 -2191.46 634.156 -2207.85 625.535C-2268.84 594.248 -2387.42 561.818 -2477.99 541.654C-2535.5 529.05 -2607.46 521.242 -2653.11 574.604L-2656.87 582.187C-2668.68 606.428 -2680.95 631.326 -2678.93 669.671C-2675.59 735.964 -2648.75 811.037 -2622.89 883.618C-2598.91 950.144 -2574.4 1018.89 -2569.3 1077.97C-2582.59 1105.13 -2600.72 1121.07 -2627.74 1129.98C-2653.92 1138.51 -2680.67 1146.2 -2706.42 1153.68C-2791.05 1178.17 -2870.87 1201.51 -2943.37 1251.64C-3007.22 1295.63 -3062.28 1349.41 -3120.63 1406.36C-3138.89 1424.46 -3158.3 1443.17 -3177.75 1461.25C-3198.75 1481.37 -3220.42 1500.72 -3243.46 1521.57C-3274.97 1549.71 -3307.53 1578.79 -3339.95 1610.73C-3430.63 1743.97 -3415.65 1867.68 -3290.94 2012.43C-3275.73 2030.08 -3258.19 2048.7 -3239.29 2067.16C-3134.51 2170.28 -2933.07 2298.69 -2790.65 2326.62C-2596.09 2364.76 -2417.57 2257.36 -2328.15 2189.69C-2299.64 2163.44 -2273.24 2133 -2248.22 2103.09C-2202.32 2049.86 -2154.99 1994.37 -2091.31 1961.56C-2058.54 1966.06 -2047.57 1977.64 -2023.53 2003.04C-2016.04 2010.96 -2007.8 2019.56 -1997.28 2029.84C-1933.32 2092.31 -1863.81 2128.3 -1796.9 2163.17C-1768.86 2177.42 -1739.79 2192.47 -1712.01 2209.3C-1683.88 2226.15 -1657.51 2248.86 -1633.72 2276.46C-1544.85 2379.6 -1492.64 2554.43 -1503.76 2711.64C-1507.13 2761.3 -1519.11 2810.38 -1530.48 2858.25C-1546.11 2923.52 -1562.01 2990.99 -1557.27 3060.07C-1554.36 3099.66 -1546.4 3147.23 -1537.24 3198.14C-1533.14 3222.34 -1528.69 3247.56 -1524.66 3272.82C-1522.38 3287.23 -1520.22 3302.06 -1517.97 3316.82C-1500.83 3428.01 -1483.52 3542.69 -1446 3642.3C-1435.77 3669.58 -1423.03 3691.68 -1407.02 3710.28C-1360.77 3763.95 -1295.58 3775.26 -1226.67 3787.04C-1210.05 3789.75 -1192.91 3792.7 -1175.82 3796.34C-1145.35 3802.82 -1114.33 3811.85 -1084.45 3820.51C-998.508 3845.32 -909.593 3871.26 -824.077 3838.35C-788.503 3824.73 -751.41 3793.41 -730.226 3768.49C-676.442 3705.11 -628.177 3600.08 -587.059 3455.73L-586.824 3454.84L-587.029 3454.03C-589.399 3447.04 -590.347 3436.5 -591.234 3425.26C-592.399 3408.88 -594.022 3390.24 -600.454 3376.41C-604.366 3368.04 -609.444 3360.27 -615.537 3353.32C-638.493 3326.68 -676.095 3305.97 -715.861 3284.09C-756.452 3261.64 -798.446 3238.33 -824.974 3207.76C-850.247 3178.43 -857.885 3145.27 -848.465 3107.08C-837.37 3061.78 -807.55 3030.72 -754.48 3009.06C-722.835 2996.47 -688.904 2992.31 -652.66 2988.14C-580.964 2979.45 -499.596 2969.47 -418.264 2886.05C-265.191 2728.08 -117.763 2422.02 -76.3809 2173.57C-73.6498 2158.82 -72.5444 2143.54 -71.516 2128.93C-69.9897 2111.27 -68.4956 2092.95 -64.583 2075.52C-32.8535 1927.6 92.6248 1795.43 208.96 1786.73C225.679 1785.35 251.012 1788.91 261.888 1790.56C263.586 1790.9 265.311 1791.1 267.044 1791.14C322.084 1805.15 362.921 1837.11 399.029 1865.14C418.592 1880.34 436.985 1894.55 455.915 1904.96C485.199 1920.84 520.399 1937.61 568.878 1933.58C596.647 1931.71 623.141 1921.23 648.873 1911.41C675.251 1901.37 702.487 1890.6 730.692 1889.04C777.832 1886.15 820.784 1905.58 854.818 1945.08C907.189 2005.86 932.72 2109.47 916.787 2196.33C905.272 2234.98 888.951 2268.44 872.982 2300.57C850.939 2344.94 830.169 2386.89 823.171 2438.68C818.555 2472.05 820.561 2508.09 822.403 2542.59C825.729 2611.18 829.238 2676.32 787.299 2727.82C754.348 2768.57 704.317 2782.94 651.379 2798.17C615.792 2808.12 579.262 2818.89 547.66 2838.08C425.466 2913 427.011 3009.19 428.445 3102.16C428.69 3119.98 428.836 3138.26 428.435 3156.29L428.45 3157.27C446.545 3222.19 458.973 3294.99 471.848 3371.77C496.884 3521.23 523.144 3675.96 595.849 3785.38C646.372 3861.74 697.797 3896.96 753.531 3894.02C785.132 3892.16 813.041 3879.48 842.358 3865.92C887.835 3845.1 935.055 3823.81 998.791 3845.38C1038.77 3859.03 1085.96 3885.86 1140.18 3916.61C1213.32 3958.16 1296 4005.17 1383.67 4032.18C1396.79 4036.23 1409.07 4039.69 1421.41 4043.41C1505.43 4067.89 1577.88 4089 1672.52 4183.82C1824.54 4335.78 1946.42 4441.2 2132.62 4415.71C2271.99 4396.19 2462.28 4298 2455.34 4182.07M1183.59 707.766C1171.57 693.813 1155.32 682.132 1135.63 673.44C1008.61 617.79 829.439 762.708 770.017 810.555C686.248 898.604 692.942 1030.92 752.049 1099.51C771.594 1122.2 796.726 1137.98 824.76 1144.91C909.075 1166.13 1042.46 1115.68 1110.22 1037.38C1172.6 965.059 1258.05 794.176 1183.59 707.766Z" stroke="#121212" stroke-miterlimit="10"/>
</g>
</g>
</svg>
