<svg width="1440" height="536" viewBox="0 0 1440 536" fill="none" xmlns="http://www.w3.org/2000/svg">
<g opacity="0.1">
<mask id="mask0_44_14451" style="mask-type:alpha" maskUnits="userSpaceOnUse" x="0" y="0" width="1440" height="536">
<rect width="1440" height="536" fill="#90B39D"/>
</mask>
<g mask="url(#mask0_44_14451)">
<path d="M2020.31 -202.868C2043.4 -226.793 2068.63 -248.541 2095.71 -267.833C2178.2 -326.884 2275.61 -359.936 2369.71 -391.831C2459.59 -422.443 2544.52 -451.101 2613.4 -500.084C2678.57 -546.877 2701.36 -591.938 2681.16 -634.083M413.227 1296.15L412.808 1297.2L412.916 1298.1C413.188 1300.56 411.868 1302.72 410.608 1305.16C409.544 1307.38 408.677 1309.7 408.018 1312.08C402.737 1368.44 420.139 1415.69 440.222 1470.73C449.498 1495.7 458.909 1521.23 466.912 1549.98C472.942 1571.38 476.951 1591.8 480.751 1611.4C489.504 1656.01 497.818 1697.97 526.427 1743.64C529.716 1748.61 533.313 1753.36 537.195 1757.89C567.317 1792.84 616.308 1805.12 672.05 1791.75C744.197 1774.65 808.261 1720.13 821.551 1665.28C824.503 1653.33 826.23 1633.33 825.561 1617.76C822.178 1527.79 773.667 1413.85 704.964 1334.12C668.354 1291.63 609.884 1239.76 539.569 1234.07C495.644 1230.2 439.206 1244.52 413.227 1296.15M400.432 1153.01C308.985 1175.4 289.962 1258.58 301.87 1323.19C307.532 1354.57 319.736 1392.39 332.537 1432.05C343.336 1465.72 354.264 1499.92 363.393 1535.71C372.15 1570.11 377.524 1601.74 382.523 1632.35C393.983 1700.68 404.865 1765.48 452.892 1842.93L452.967 1843.21L453.133 1843.4C493.215 1888.75 559.748 1895.22 608.568 1892.75C721.676 1886.58 852.415 1826.63 899.744 1758.66C929.898 1715.56 935.121 1665.41 934.202 1630.97C930.24 1492.04 856.497 1338.42 788.265 1240.43C699.022 1138.41 536.015 1101.98 400.432 1153.01M387.712 895.826C416.788 893.945 442.195 881.038 454.897 860.752L455.275 859.4C456.065 854.88 456.54 850.311 456.697 845.725C456.831 840.925 457.293 836.141 458.077 831.404L458.419 830.407L457.772 829.259C443.793 801.89 414.663 785.201 381.481 785.101C353.212 784.934 325.849 796.764 308.816 816.602L307.799 817.834L307.883 819.5C308.499 822.404 306.935 825.167 305.313 828.259C303.271 832.459 300.723 837.063 301.871 842.974C303.998 852.902 308.592 862.135 315.229 869.82C330.961 888.078 358.18 897.775 387.712 895.826M835.453 247.299C777.229 338.296 732.952 406.123 780.502 485.915C780.502 485.915 794.865 507.631 802.705 516.73C886.44 613.909 1001.97 571.363 1094.58 536.774L1108.62 532.101C1119.18 528.052 1129.95 524.839 1139.95 521.304C1161.42 514.588 1181.87 508.427 1199.04 497.712C1270.87 453.335 1351.34 334.779 1314.87 272.075C1312.46 268.024 1309.71 264.185 1306.65 260.602C1270.78 218.972 1188.38 208.35 1122.43 199.745C1114.65 198.676 1107.14 197.726 1099.92 196.52C999.972 182.811 898.76 179.279 835.453 247.299M869.982 108.161C786.955 127.328 736.502 242.992 731.153 256.333C690.212 354.753 653.898 465.319 695.762 541.751C702.497 553.947 710.544 565.371 719.759 575.82C770.09 634.23 863.994 686.31 953.362 705.059C979.025 710.455 1011.56 709.31 1045.97 708.212C1062.63 707.613 1080.01 707.078 1097.28 706.988C1122.69 707.245 1145.26 709.636 1167 712.053C1208.48 716.624 1244.42 720.594 1278.98 704.928L1279.44 704.527L1279.82 704.207C1340.81 667.99 1347.1 595.495 1366.9 535.442C1377.55 503.092 1388.64 469.702 1403.63 439.303C1414.9 416.183 1429.06 393.907 1442.7 372.387C1469.98 328.724 1498.59 283.952 1505.7 230.466L1505.52 229.288C1502.19 215.052 1495.4 201.856 1485.76 190.868C1480.05 184.338 1473.55 178.548 1466.4 173.633C1435.31 152.067 1309.26 127.345 1091.89 100.34C992.54 88.2046 923.992 90.52 869.982 108.161M1525.14 40.1113C1492.68 48.6178 1458.95 57.212 1423.7 59.7727C1349.98 64.2754 1271.01 49.1521 1194.2 34.2093C1154.7 26.6614 1113.74 18.6905 1073.97 13.7469C1002.59 4.49992 871.417 -4.5375 793.793 34.8739C774.806 44.506 759.37 59.8295 744.757 74.757C735.578 84.0075 726.72 92.6669 718.09 99.0762L717.433 99.6414L717.019 100.344C693.804 148.189 669.768 201.068 646.822 252.703C621.633 307.918 596.221 365.386 571.442 414.893C554.372 449.384 536.705 502.508 580.74 564.82C584.987 570.884 589.984 577.288 595.3 583.458C624.488 617.332 662.235 644.135 702.124 672.455C739.038 698.677 777.223 725.795 810.749 760.258C831.93 781.941 846.922 808.231 862.972 836.325C872.4 852.678 882.456 870.146 893.528 886.11C901.758 897.764 909.307 907.71 916.609 916.183C958.056 964.285 989.145 966.332 1049.57 965.918C1296.31 964.533 1439.08 859.303 1474.04 653.483C1476.96 636.2 1479.06 617.955 1480.95 600.249C1483.52 573.859 1486.46 546.546 1492.77 521.979C1512.43 447.399 1555.48 389.146 1597 332.6C1640.71 272.787 1682.4 216.433 1696.68 144.116C1703.02 112.825 1699.67 70.0917 1677.95 44.8885C1667.51 32.7656 1653.73 25.8598 1637.17 24.0281C1602.08 20.4071 1564.52 29.9657 1525.14 40.111M2193.89 -592.725L2193.02 -594.736C2191.92 -597.581 2191.03 -600.959 2189.93 -604.195C2188.04 -610.501 2186.24 -617.283 2181.28 -623.037C2179.43 -625.195 2177.26 -627.055 2174.84 -628.554L2174.31 -628.8C2077.88 -664.402 1994.73 -589.33 1932.95 -520.178L1932.18 -519.51L1932.12 -518.402C1931.69 -515.972 1930.61 -513.306 1929.77 -510.171C1927.17 -502.049 1923.91 -491.941 1930.92 -483.803C1932.51 -481.978 1934.4 -480.443 1936.51 -479.267L1937.65 -478.536L1938.87 -478.883C1947.11 -480.463 1955.21 -482.221 1963.55 -483.883C2046.9 -501.013 2141.28 -520.387 2192.63 -591.281L2193.89 -592.725M2768.6 -56.0177C2754.82 -97.5147 2724.89 -118.614 2681.41 -117.873C2603.54 -116.744 2497.05 -43.6875 2457.81 5.76975C2422.48 49.4648 2407.84 123.973 2446.15 168.443C2455.25 178.997 2466.82 187.363 2481.06 193.79C2554.9 222.617 2642.75 174.459 2695.38 124.379C2756.93 65.563 2785.73 -5.17422 2768.6 -56.0177M2323.51 -651.822C2284.68 -696.892 2194.77 -730.061 2122.7 -725.842C1989.83 -699.681 1884.18 -609.345 1795.13 -526.511C1747.21 -464.212 1738.85 -403.894 1772.82 -364.475C1804.62 -327.568 1864.21 -319.693 1924.5 -344.566C1942.22 -351.734 1967.5 -365.059 1996.63 -380.322C2027.8 -396.708 2063.21 -415.367 2099.15 -431.432C2121.61 -441.99 2143.94 -450.424 2165.37 -458.723C2204.3 -473.665 2240.93 -487.972 2276.72 -511.018C2317.47 -536.657 2340.01 -564.194 2343.84 -592.547C2346.68 -612.91 2339.91 -632.794 2323.51 -651.822M2890.01 36.1321C2909.9 -25.4232 2912.94 -112.52 2861.17 -172.603C2857.1 -177.292 2852.8 -181.771 2848.27 -186.023C2710.77 -311.517 2473.79 -164.557 2344.28 -65.4129C2239.11 47.4361 2240.85 250.876 2348.12 378.853L2348.29 379.052C2402.41 438.762 2462.34 458.148 2526.62 437.083C2579.5 419.433 2665.32 382.502 2704.41 357.569C2728.08 342.241 2768.84 302.397 2780.76 282.719C2814.89 227.049 2863.78 116.276 2890.01 36.1322M2456.52 -640.088C2451.76 -647.905 2446.34 -655.298 2440.32 -662.183C2391.33 -719.034 2297.95 -759.859 2231.67 -773.871C2035.25 -815.24 1850.45 -654.977 1751.42 -568.993C1705.75 -535.672 1672.53 -472.025 1664.81 -402.372C1658.57 -345.758 1671.05 -294.505 1699.21 -261.828C1715.53 -242.876 1736.54 -230.302 1761.83 -223.796C1841.98 -203.552 1919.34 -255.068 2001.01 -309.907C2036.67 -333.563 2073.54 -357.939 2111.63 -377.624C2161.07 -402.687 2212.36 -420.586 2257.97 -435.98C2294.03 -448.519 2328.25 -460.479 2355.94 -474.222C2399.45 -495.532 2453.87 -530.315 2466.91 -575.573C2473.06 -596.704 2469.79 -618.498 2456.52 -640.088M2859.1 270.74C2870.53 219.58 2889.94 169.934 2908.77 122.134C2925.98 78.0594 2942.32 36.464 2950.22 -1.57516C2964.96 -70.3823 2946.64 -140.593 2900.46 -194.189C2851.78 -250.692 2781.01 -280.384 2705.67 -275.941C2612.26 -270.377 2440.88 -196.241 2350.17 -133.564C2321.74 -113.744 2304.23 -93.6279 2288.95 -75.7524C2283.24 -68.8372 2277.84 -62.5039 2271.76 -56.2283C2170.86 89.8078 2216.05 329.357 2317.97 476.674C2327.7 490.729 2338.14 504.27 2349.26 517.243C2411.39 589.34 2472.41 608.302 2540.9 576.148C2554.38 569.934 2568.45 558.809 2583.4 546.923C2594.92 538.032 2606.69 528.886 2619.32 520.69C2649.18 501.357 2683.06 485.923 2712.87 472.347C2735.91 461.539 2755.88 452.411 2769.71 443.492C2836.99 400.651 2843.73 359.902 2852.05 308.392C2853.98 296.343 2856.19 284.012 2859.1 270.74M2570.49 -618.143L2570.38 -619.042L2569.88 -619.612C2562.04 -628.931 2554.99 -638.244 2548.27 -647.197C2540.99 -656.999 2534.12 -666.13 2526.66 -674.789C2520.99 -681.547 2514.76 -687.812 2508.03 -693.517C2430.79 -758.872 2297.01 -813.309 2196.75 -819.986C2038.75 -830.44 1890.29 -732.662 1778.79 -645.977C1668.09 -560.287 1605.67 -473.697 1592.81 -388.954C1587.5 -352.908 1595.23 -314.05 1602.44 -276.766C1610.42 -236.444 1617.87 -198.336 1610.6 -163.97C1585.23 -44.9878 1424.12 -1.60329 1323.52 -9.63324C1294.99 -13.834 1265.24 -18.6732 1233.38 -24.0299C1073.72 -50.4831 892.647 -80.5861 765.557 -29.3134C719.78 -10.9484 687.077 22.2306 671.744 40.4842C644.993 71.894 629.693 111.197 613.252 152.478C595.622 198.11 577.02 244.955 542.159 284.69C517.345 312.757 490.032 330.601 460.869 338.007C428.44 345.866 393.324 339.615 356.01 332.937C298.544 322.534 238.793 311.766 189.171 358.875L188.389 359.894C174.239 389.157 146.75 464.049 198.723 524.365C205.028 531.652 212.066 538.27 219.726 544.116C246.287 564.724 279.558 567.868 318.225 571.707C330.417 572.918 343.044 574.078 356.077 575.903C461.598 590.416 570.216 645.148 661.341 729.314C672.783 740.014 683.609 751.355 693.766 763.282C718.937 792.496 739.964 823.26 746.921 841.358C747.618 842.745 800.28 981.163 699.113 1030.5C684.936 1037.37 659.907 1041.86 645.192 1044.83C610.722 1051.09 570.377 1054.39 528.036 1058.07C442.73 1065.28 354.365 1072.8 298.597 1104.46C218.133 1149.7 220.384 1234.8 228.988 1281.6C236.323 1321.15 250.878 1367.54 266.35 1417.11C278.412 1455.58 291.095 1495.56 301.687 1536.96C313.428 1582.75 321.524 1630.34 329.381 1676.47C336.836 1721.94 343.981 1765.32 354.618 1803.69C356.153 1809.71 357.602 1815.82 359.064 1821.59C366.173 1850.64 373.304 1880.31 398.631 1909.7C409.435 1922.1 421.782 1933.06 435.369 1942.32C517.202 1999.31 617.134 1963.77 713.678 1929.12L745.27 1917.98C815.43 1893 876.03 1871.57 916.067 1844.78C1040.57 1762.58 1013.21 1633.87 993.166 1539.66L992.058 1533.94C984.145 1496.23 971.538 1451.53 959.442 1408.38C946.091 1360.31 931.989 1310.21 924.634 1271.02L924.322 1268.93C914.153 1215.1 905.619 1168.57 980.253 1121.98C1023.1 1094.79 1078.79 1083.28 1137.77 1070.96C1220.21 1053.49 1305.81 1035.62 1369.19 973.663C1392.3 945.352 1412.26 925.169 1434.51 907.983C1517.29 820.924 1538.81 731.774 1561.51 636.873C1570.07 600.737 1579.23 563.362 1591.96 524.94C1617.58 447.298 1658.25 379.797 1697.67 314.708C1752.19 224.538 1808.36 131.272 1824.24 11.491C1825.72 -0.863027 1826.75 -12.7819 1827.39 -24.3716C1830.48 -61.853 1833.09 -93.9002 1856.32 -122.271C1907.67 -183.93 1953.73 -219.917 2039.39 -282.037C2117.81 -338.883 2200.92 -371.005 2272.83 -396.461C2287.63 -401.845 2302.74 -406.839 2317.81 -412.118C2379.81 -433.074 2443.92 -454.861 2498.32 -491.008C2557.79 -530.521 2580.76 -570.748 2570.49 -618.142M2922.86 332.557C2921.1 300.542 2919.31 267.526 2923.87 236.074C2930.46 189.792 2946.47 150.155 2963.61 108.549C2978.65 71.0924 2994.5 32.6313 3003.49 -12.0451C3017.13 -81.4883 2996.66 -152.428 2945.72 -211.544C2895.11 -270.28 2818.79 -310.895 2751.05 -315.264C2693.3 -318.857 2613.42 -292.641 2590.41 -284.549C2453.58 -236.441 2359.84 -194.595 2304.24 -156.065C2291.41 -147.354 2271.54 -129.228 2257.12 -114.808C2089.31 105.955 2167.62 423.66 2326.84 610.955C2327.99 612.291 2328.97 613.434 2330.32 614.993C2401.49 697.595 2499.64 708.636 2606.63 646.001C2624.43 635.338 2642.06 623.51 2659.05 611.896C2689.69 591.193 2718.9 571.726 2749.87 559.133C2759.39 555.291 2771.22 551.804 2783.54 547.922C2832.99 532.803 2900.55 511.827 2917.28 449.445C2927.18 412.396 2925.11 371.897 2922.87 332.557M2935.88 601.054C3000.04 573.27 3011.19 527.447 3007.84 467.309C3005.84 429.813 2998.21 395.466 2991.26 362.249C2981.58 317.964 2972.69 276.332 2976.41 230.208C2979.8 190.066 2997.81 148.732 3016.56 104.773C3031.53 69.3849 3047.21 33.0753 3055.09 -3.20435C3070.32 -73.662 3043.47 -155.47 2981.64 -227.226C2906.04 -314.965 2799.77 -363.883 2710.71 -351.85C2685.7 -348.397 2649.16 -339.394 2607.59 -326.371C2521.2 -298.869 2398.33 -253.01 2318.39 -212.615C2292.34 -199.548 2234.04 -153.36 2200.61 -119.511L2200.19 -118.809C2136.57 -12.6932 2100.89 148.465 2109.03 291.656C2115.09 404.423 2180.14 500.6 2242.81 593.434C2262.94 623.364 2283.73 654.064 2302.03 684.576L2302.35 684.948L2310.68 692.878C2354.18 733.503 2407.79 783.542 2482.11 776.829C2523.82 773.052 2572.22 743.78 2623.57 712.922C2664.92 688.041 2707.83 662.463 2753.12 645.245C2788.42 631.919 2820.82 626.792 2852.03 621.672C2881.73 616.878 2909.87 612.418 2935.88 601.054M2681.16 -634.083C2677.59 -640.988 2673.2 -647.438 2668.09 -653.297C2633.34 -693.626 2552.01 -735.974 2513.08 -756.31C2416.44 -806.569 2310.8 -855.734 2175.38 -854.835C1996.91 -853.981 1753.12 -696.462 1614.25 -549.033C1540.58 -470.491 1506.08 -382.538 1508.78 -280.141C1511.26 -185.894 1477.84 -124.644 1408.93 -98.4031C1360.26 -79.5287 1298.58 -87.3076 1233.05 -96.088C1199.58 -100.043 1164.63 -104.745 1129.97 -105.648C1118 -106.055 1105.67 -106.481 1093 -106.925C953.864 -111.881 780.528 -117.786 692.91 -66.0394C636.329 -33.0134 603.559 18.9712 571.918 68.9902C554.698 96.2303 538.531 122.187 518.874 144.479C459.101 212.735 404.019 202.974 340.435 191.827C311.962 186.924 282.168 181.453 250.794 183.4C196.14 186.664 160.173 210.628 121.428 239.318C43.8667 317.193 45.9441 542.622 125.119 634.702C135.546 647.052 148.123 657.412 162.243 665.281C206.976 689.993 255.339 684.441 306.683 678.683C350.809 673.801 396.449 668.943 442.857 682.518C494.137 697.888 553.329 736.902 590.558 780.106C611.078 803.921 634.634 840.512 629.692 878.893C626.093 905.774 608.818 929.674 578.629 950.343C526.087 985.576 450.563 1000.45 396.336 1006.71C376.823 1009.12 356.248 1008.76 334.435 1008.5C300.341 1008.07 265.206 1007.58 233.775 1017.94C200.508 1028.84 176.251 1049.1 161.834 1078.24C123.607 1155.7 165.111 1276.53 178.776 1316.29C184.25 1331.32 189.302 1346.05 194.34 1360.77C216.096 1423.02 236.903 1482.06 253.391 1546.49C267.349 1601.05 275.717 1660.11 283.61 1716.88C293.912 1788.97 304.238 1863.41 326.509 1929.54C334.595 1953.38 345.926 1974.05 360.498 1990.96C419.399 2059.32 513.127 2050.52 563.87 2039.24C581.613 2035.33 613.907 2021.56 655.051 2004.55C682.901 1992.92 714.438 1979.79 746.828 1967.26C776.635 1955.98 804.786 1947.79 831.672 1939.67C891.48 1921.95 947.892 1905.12 1014.77 1858.21C1100.15 1799.04 1102.81 1695.35 1101.65 1664.89C1099.15 1603.78 1082.81 1539.91 1068.16 1483.59C1055.62 1435.49 1043.78 1390.14 1042.54 1353.42C1040.29 1300.12 1047.56 1240.32 1117.68 1199.3C1144.46 1183.93 1169.23 1177.98 1195.55 1171.71M3816.09 161.441C3817.63 152.901 3814.39 143.04 3807.42 134.945C3801.71 128.321 3794.16 123.985 3787.24 122.689C3774.1 120.29 3764.56 131.76 3758.61 140.887L3757.82 142.265L3758.56 144.178C3759.33 147.112 3760.78 149.818 3762.82 152.065C3762.84 152.623 3762.9 153.179 3762.98 153.731C3762.75 159.604 3764.83 165.334 3768.76 169.702C3769.65 170.739 3771.02 172.121 3772.19 173.262L3773.21 173.816C3789.39 179.748 3809.61 178.985 3816.04 162.228L3816.09 161.441M3374.79 -488.612C3343.75 -528.821 3292.81 -538.909 3252.55 -542.796L3251.46 -542.868L3250.59 -542.476C3237.74 -535.844 3222.83 -526.078 3222.6 -508.809C3225.66 -475.56 3236.88 -446.99 3254.79 -426.215C3255.64 -425.23 3256.48 -424.245 3257.33 -423.263C3297.07 -380.303 3355.11 -376.338 3382.48 -399.571C3405.58 -418.805 3402.72 -452.205 3374.79 -488.612M3919.6 82.0503C3877.83 40.225 3814.33 14.0752 3757.92 15.3263C3716.12 16.1285 3680.7 31.7553 3654.5 60.4337C3620.27 103.471 3632.61 175.709 3684.32 235.72C3722.13 279.603 3772.28 306.103 3821.47 308.025C3875.53 310.502 3921.14 285.754 3943.52 242.105C3968.43 193.897 3959.79 134.37 3919.6 82.0503M3514.39 -414.587C3511.29 -444.555 3493.37 -478.626 3461.09 -516.093C3383.34 -606.326 3250.76 -685.983 3196.89 -699.478C3138.46 -713.769 3092.82 -701.707 3043.83 -659.15L3043.24 -658.64C3015.49 -619.589 3019.18 -571.58 3054.47 -516.155C3066.03 -497.851 3081.53 -477.538 3100.68 -455.321C3165.44 -380.163 3267.04 -291.325 3315.23 -279.343C3357.04 -268.904 3428.17 -282.047 3475.01 -322.408C3504.3 -347.982 3517.87 -379.884 3514.39 -414.587M3624.12 -357.479L3624.45 -358.45C3630.29 -391.346 3610.47 -433.393 3563.8 -487.561C3522.28 -535.75 3467.5 -583.957 3427.28 -619.167C3417.2 -627.947 3407.97 -636.13 3399.94 -643.314C3390.98 -651.381 3382.11 -659.53 3373.15 -667.595C3302.18 -732.055 3235.1 -792.816 3185.82 -805.101C3082.06 -831.581 2979.87 -755.98 2912.12 -688.175L2911.35 -687.512C2909.72 -684.763 2908.19 -681.454 2906.46 -678.628C2894.21 -657.988 2880.25 -634.549 2881.83 -606.664L2881.94 -605.761C2891.46 -583.042 2909.1 -556.935 2936.34 -525.314C2975.71 -479.633 3028.68 -430.209 3079.89 -382.636C3097.68 -366.074 3115.06 -349.791 3131.57 -334.125C3213.5 -255.931 3274.89 -213.104 3319.45 -202.798C3407.54 -182.622 3509.91 -234.538 3623.62 -356.7L3624.12 -357.479M4013.17 -385.397C4053.62 -407.736 4118.64 -399.171 4147.86 -368.444C4147.29 -345.017 4128.81 -333.247 4113.1 -327.357C4069.95 -311.733 4006.95 -322.737 3989.61 -342.863C3986 -347.049 3984.46 -351.625 3985.06 -356.301C3986.59 -365.273 3996.19 -375.638 4013.17 -385.397M3920.56 -444.778C3931.64 -449.985 3942.34 -455.941 3952.6 -462.605C4031.74 -487.226 4187.54 -485.422 4300.42 -458.42C4334.98 -450.378 4365.7 -433.975 4382.4 -414.591C4404.44 -389.012 4402.54 -359.723 4377.06 -327.287C4308.2 -239.254 3989.69 -205.545 3897.42 -276.274C3887.27 -283.835 3877.91 -292.413 3869.5 -301.873C3830.78 -346.81 3854.07 -382.76 3874.31 -413.709C3887.32 -427.96 3903.42 -436.097 3920.56 -444.778M3739.21 -395.442C3805.76 -455.47 3913.02 -528.729 4048.4 -536.003C4082.47 -537.754 4120.59 -534.587 4160.95 -531.005C4187.98 -528.716 4216 -526.249 4243.22 -525.481C4257.96 -525.046 4273 -525.23 4287.52 -525.64C4321.23 -526.056 4353.05 -526.545 4380.8 -519.162C4410.32 -511.268 4435.86 -495.582 4455.15 -473.188C4502.75 -417.946 4501.38 -334.63 4451.72 -284.088C4393.02 -224.449 4233.97 -185.32 4107.01 -177.581C3994.51 -170.498 3832.41 -215.936 3756.53 -304.007C3750.93 -310.447 3745.78 -317.263 3741.12 -324.408C3724.73 -349.638 3724.24 -370.757 3739.21 -395.442M3504.56 -174.349C3449.43 -140.231 3392.29 -105.386 3329.41 -115.742C3275.04 -124.708 3223.79 -178.206 3174.49 -230.024C3165.66 -239.121 3156.91 -248.305 3148.14 -257.14C3018.11 -389.547 2868.67 -521.939 2746.61 -498.667C2688.66 -487.88 2634.7 -461.102 2577.33 -433.072C2534.97 -412.29 2491.37 -390.439 2443.91 -374.613C2418.33 -365.957 2392.62 -357.843 2367.67 -350.38C2295.13 -328.012 2226.6 -306.766 2170.99 -270.531C2018.19 -170.981 1999.75 -79.861 1980.13 16.6458C1973.87 46.7628 1967.63 78.2389 1956.52 109.864C1938.43 163.599 1913.42 210.898 1889.05 256.614C1872.31 288.431 1854.88 321.193 1839.43 356.25C1827.55 389.869 1817.43 425.33 1807.75 459.763C1792.23 512.271 1776.55 566.909 1754.43 616.375C1726.41 678.664 1692.09 738.643 1646.51 805.008C1615.02 850.55 1582.35 892.403 1550.61 932.453C1483.35 1018.17 1419.57 1098.88 1383.26 1201.05L1378.71 1214.66C1353.78 1286.3 1333.86 1342.57 1229.45 1405.79L1228.61 1406.17L1228.31 1406.78C1193.66 1456.36 1200.78 1516.45 1207.84 1574.91C1211.87 1608.9 1216.08 1644.03 1212.21 1677.12C1199.92 1781.36 1148.33 1861.95 1058.64 1916.44C1015.92 1942.58 958.413 1956 897.739 1970.17C854.339 1980.14 809.69 1990.53 770.301 2006.09C730.45 2021.69 692.316 2043.53 655.38 2064.63C615.124 2087.3 577.272 2108.86 540.626 2121.05C478.71 2141.3 365.98 2165.19 308.271 2098.22C302.336 2091.29 297.17 2083.75 292.863 2075.71C263.625 2021.33 261.033 1945.32 258.46 1871.62C257.23 1837.24 256.03 1804.83 252.308 1775.27C237.361 1656.76 210.724 1500.79 139.497 1349.15C127.2 1323.32 113.193 1297.24 99.6775 1272.11C74.5264 1225.58 48.8481 1177.47 31.5092 1125.53C11.3491 1065.36 15.0187 1003.34 19.2087 931.511C20.5867 906.905 22.0207 881.593 22.7681 854.522C24.5527 781.447 18.0449 706.456 11.7402 633.987C-3.37578 456.734 -17.8272 289.287 84.2311 164.564C149.576 91.865 230.693 86.1727 309.196 80.7468C353.062 77.7053 394.587 75.0284 430.542 60.108C472.274 43.2217 508.875 6.31273 547.607 -32.7457C588.774 -74.2049 631.251 -117.179 680.235 -134.319C740.338 -155.322 809.312 -152.924 875.942 -151.128C905.649 -149.985 933.421 -149.16 960.693 -150.266C1078.28 -154.266 1165.21 -162.634 1243.15 -176.614C1268.25 -181.195 1334.94 -193.186 1374.14 -246.346C1397.39 -278.732 1404.03 -303.196 1410.98 -329.242C1414.92 -344.702 1419.27 -360.466 1427.11 -378.922C1464.57 -467.051 1540.61 -551.642 1673.33 -653.297C1870.64 -803.894 2048.09 -883.896 2186.49 -885.124C2325.41 -885.757 2417.97 -846.159 2516.37 -804.215C2556.58 -787.024 2598.1 -769.313 2644.22 -753.549C2654.88 -750.023 2675.28 -743.495 2691.33 -740.282C2785.05 -722.076 2863.56 -770.65 2946.8 -821.663C2995.27 -851.711 3045.41 -882.547 3100.18 -900.294L3102.19 -901.038C3118.31 -906.229 3140.3 -913.463 3157.64 -914.72C3209.95 -917.984 3237.39 -898.828 3266.99 -864.476C3277.24 -852.585 3287.33 -839.546 3299.27 -823.74C3304.45 -817.177 3309.86 -810.126 3315.44 -802.877C3332.07 -781.457 3357.52 -749.225 3384.48 -717.939C3405.65 -693.375 3425.69 -671.847 3443.45 -654.726C3521.98 -578.588 3639.21 -480.31 3751.21 -501.58C3796.56 -510.218 3833.91 -527.374 3870.58 -543.593C3907.22 -560.441 3942.05 -576.064 3983.71 -583.205C4015.48 -588.532 4049.33 -587.592 4085.12 -586.322C4102.97 -585.643 4121.25 -585.02 4139.78 -584.933C4178.83 -585.467 4217.38 -587.933 4254.68 -590.317C4293.59 -592.755 4334.03 -595.14 4374.48 -595.237C4431.94 -595.582 4478.73 -575.39 4513.14 -535.455C4521.22 -526.036 4528.41 -515.884 4534.61 -505.132C4585.63 -417.025 4587.06 -294.55 4491.6 -229.997C4389.15 -160.448 4210.1 -118.509 4096.68 -117.793C4003.34 -117.247 3911.86 -153.472 3823.25 -188.484C3791.95 -200.946 3762.34 -212.55 3732.54 -222.663C3711.33 -230.133 3662.71 -236.077 3642.53 -234.061C3594.23 -229.22 3548.69 -201.345 3504.56 -174.349M3746.07 3498.03C3651.05 3509.72 3541.05 3450.84 3474.04 3386.94C3465.09 3378.29 3456.1 3369.01 3447.02 3358.47C3427.18 3335.45 3409.47 3310.28 3392.08 3285.85C3375.35 3262.19 3357.88 3237.49 3338.71 3215.24C3327.77 3202.42 3315.92 3190.41 3303.25 3179.29C3247.84 3131.17 3176.58 3110.7 3100.84 3089.1C3073.77 3081.36 3045.54 3073.25 3018.56 3064.1C2942.71 3037.91 2875.22 2998.51 2823.21 2950.1C2816.76 2944.01 2810.62 2937.59 2804.82 2930.88C2761.7 2880.83 2740.86 2819.29 2751.43 2774.09C2765.13 2715.85 2831.31 2678.2 2901.32 2638.26C2949.12 2611.09 2998.44 2582.97 3033.29 2546.92C3060.73 2518.28 3085.49 2468.21 3080.23 2427.62C3074.75 2386.58 3057.32 2348.82 3028.24 2315.07C2973.22 2251.21 2880.48 2210.83 2792.3 2212.34C2719.65 2213.76 2657.25 2242.49 2616.76 2293.76C2563.98 2360.63 2561.44 2437.64 2558.92 2511.97C2557.93 2545.89 2556.87 2580.88 2550.62 2613.34C2543.46 2652.59 2488.78 2728.43 2389.5 2734.78C2342.52 2737.87 2306.45 2708.12 2284.81 2683.01C2263.34 2658.09 2245.49 2626.03 2234.44 2592.78C2210.38 2521.31 2165.48 2356.5 2161.52 2282.74C2158.33 2229.72 2171.95 2176.54 2195.87 2146.9C2239.85 2091.97 2307.7 2087.29 2372.9 2082.22C2420.99 2078.89 2470.52 2075.29 2511.06 2052.4C2529.68 2042.03 2548.11 2023.15 2557.6 2010.28C2599.39 1953.58 2602.95 1874.67 2606.47 1791.09C2608.26 1753.48 2609.95 1714.6 2615 1675.19C2622.82 1615.66 2638.48 1556.39 2653.7 1499.49C2673.79 1423.39 2692.69 1351.31 2689.74 1289.7C2686.98 1229.27 2667.2 1172.79 2648.02 1118.16C2616.66 1028.58 2589.34 951.222 2643.73 879.287C2712.26 788.522 2820.4 774.506 2925.45 761.175C2980.14 754.147 3036.58 746.608 3086.25 728.54C3148.6 705.531 3210.04 649.286 3215.22 610.403C3221.38 563.967 3188.07 506.836 3156.12 451.841C3137.93 420.715 3120.89 391.301 3112.73 366.612C3105.58 345.026 3082.89 269.363 3096.17 205.787C3104.71 166.369 3132.85 127.749 3160.12 90.2299C3185.95 55.2772 3210.22 21.982 3216.63 -10.268C3226.48 -58.1576 3186.51 -138.67 3107.53 -230.33C3041.79 -306.625 2962.72 -374.497 2901.3 -407.439C2837.57 -441.717 2769.04 -451.504 2703.11 -436.12C2655.35 -425.045 2601.46 -402.657 2544.7 -379.132C2499.91 -360.596 2453.81 -341.261 2406.49 -325.879C2395.31 -322.265 2384.5 -318.628 2373.63 -315.248C2307.27 -293.815 2244.4 -273.721 2192.54 -237.38C2168.72 -220.899 2137.17 -193.364 2122.24 -175.814C2067.1 -112.263 2047.87 -26.8959 2029.3 55.6146C2020.6 93.4929 2011.89 133.093 1999.53 169.804C1993.15 188.989 1985.67 208.814 1977.65 229.756C1935.34 341.721 1887.31 468.633 1966.86 579.837C1969.21 583.145 1971.59 586.098 1974.4 589.357C1984.16 600.681 1996.02 611.168 2008.47 622.161C2021.35 633.441 2034.99 645.391 2046.9 659.214C2064.24 679.341 2074.6 699.487 2079.76 722.422C2080.2 741.455 2074.28 747.379 2055.21 743.259C2029.25 733.547 2010.54 719.931 1993.86 707.89C1971.76 691.874 1952.69 678.224 1922.44 675.898C1875.24 672.124 1811.73 711.148 1733.08 790.956C1709.74 814.732 1680.93 848.929 1650.18 885.104C1636.35 901.033 1622.28 917.844 1608.13 934.374C1488.3 1072.36 1459.49 1149.32 1438.32 1297.19C1428.43 1365.86 1406.24 1413.71 1380.22 1468.87C1370.29 1490.12 1360.04 1512.3 1349.61 1536.99C1337.69 1566.31 1329.69 1594.24 1322.33 1621.32C1317.05 1640.24 1312.12 1657.83 1306.01 1675.79C1276.27 1760.91 1228.49 1846.49 1180.6 1898.8C1096.5 1990.98 1031.51 1999.18 962.577 2007.8C946.335 2009.76 929.822 2011.98 912.505 2015.2C794.682 2037.22 693.92 2100.97 630.198 2150.54L626.693 2153.22C583.019 2187.5 501.063 2250.76 492.752 2279.65C482.873 2314.23 501.898 2342.28 519.726 2362.97C531.132 2376.21 544.361 2388.86 558.512 2402.4C572.664 2415.93 587.079 2429.58 599.631 2444.14L602.215 2446.95C649.296 2501.59 702.501 2582.03 689.511 2655.39C681.961 2697.3 652.999 2732.27 603.504 2759.22C535.764 2796.2 404.766 2804.5 335.044 2723.58C331.123 2719.04 327.438 2714.31 324.003 2709.39C269.709 2630.2 266.916 2536.4 263.03 2417.45C262.829 2405.27 262.117 2392.5 261.883 2379.7C259.864 2324.96 247.412 2273.9 234.939 2224.16C221.877 2170.28 208.125 2114.63 208.727 2055.99C209.003 2029.33 209.369 2002.98 210.021 1977.34C212.686 1824.37 215.18 1692.59 179.902 1577.66C175.156 1563.68 170.772 1550.11 166.347 1536.89C141.491 1461.41 120.089 1396.31 69.3382 1325.46C62.1537 1315.22 54.4331 1305.36 46.2086 1295.92C20.4462 1266.02 -7.98242 1240.74 -35.5603 1216.05C-59.6269 1194.67 -82.3314 1174.49 -100.18 1153.77C-110.077 1142.54 -118.647 1130.2 -125.722 1117C-141.844 1085.77 -144.991 1047.05 -135.138 995.483C-126.197 949.024 -113.728 901.841 -101.44 856.183C-85.3932 796.583 -68.9381 734.952 -59.6839 671.516C-50.7545 609.05 -48.9049 543.956 -47.1971 481.01C-43.2514 343.979 -39.577 214.531 34.6012 127.218C131.657 17.5196 207.733 4.44276 288.215 -9.44448C339.19 -18.2969 392.039 -27.0938 449.51 -62.8936C474.191 -78.1781 498.936 -97.8192 523.085 -116.612C558.25 -144.583 591.544 -171.257 621.82 -181.976C681.775 -203.911 756.993 -201.559 811.901 -200.091L829.995 -199.32C969.656 -195.03 1114.29 -190.365 1221.3 -256.161C1247 -271.976 1284.92 -305.64 1301.06 -325.226C1325.26 -353.778 1341.77 -383.368 1358.01 -411.726C1372.77 -438.135 1386.89 -462.984 1405.73 -485.24C1427.21 -510.424 1478.57 -551.362 1505.5 -571.555C1733.68 -741.756 1969.28 -918.041 2212.35 -916.662C2323.2 -915.945 2410.53 -886.644 2494.96 -857.81C2550.77 -839.082 2608.69 -819.503 2671.3 -809.621C2774.43 -793.234 2865.69 -848.165 2962.32 -906.344C3017.71 -939.739 3075.17 -974.204 3134.7 -993.746C3215.16 -1019.99 3271.2 -1008.15 3306.13 -957.401C3328.58 -924.604 3342.84 -892.446 3357.87 -858.63C3378.11 -812.599 3399.01 -765.439 3442.63 -714.819C3450.71 -705.436 3459.45 -696.236 3468.64 -687.113C3518.69 -637.695 3594.2 -575.489 3669.75 -560.058C3743.64 -545.21 3809.33 -572.075 3872.78 -598.018C3910.92 -613.491 3950.24 -629.692 3990.87 -636.299C4040.91 -644.312 4099.45 -642.653 4156.04 -640.943C4212.09 -639.47 4265.54 -637.762 4308.56 -645.403C4320.53 -647.713 4334.15 -651.753 4348.64 -655.552C4408.36 -672.937 4482.77 -694.284 4542.75 -624.681C4549.79 -616.43 4556.2 -607.648 4561.89 -598.414C4600.63 -535.925 4631.65 -414.959 4626.08 -349.363C4621.54 -299.336 4607.01 -246.073 4531 -195.944C4473.39 -158 4372.43 -126.81 4283.22 -99.7187C4270.51 -95.7764 4257.8 -91.839 4245.19 -87.9845C4240.15 -86.3173 4234.86 -84.7699 4229.91 -83.1678C4199.99 -73.7749 4174.09 -65.4924 4147.41 -62.5477C4059.1 -51.9405 3969.4 -84.566 3882.73 -115.783C3828.24 -135.673 3776.92 -154.227 3727.1 -162.111C3611.19 -180.848 3486.56 -117.215 3409.23 -0.804141L3408.82 -0.12034L3408.67 0.667387C3399.59 94.3588 3458.72 194.771 3516.36 292.109C3522.58 302.796 3529.12 313.855 3535.56 324.996C3550.07 349.926 3563.84 375.15 3575.93 397.47C3593.08 429.124 3607.95 456.403 3620.6 474.93C3625.91 482.768 3631.67 490.291 3637.85 497.461C3701.46 571.282 3780.53 568.638 3856.68 565.499C3929.03 562.961 3997.02 560.174 4049.4 620.963C4056.29 629.023 4062.52 637.615 4068.05 646.661C4098.55 695.544 4102.35 747.733 4106.64 803.186C4112.58 879.252 4119.32 965.3 4197.98 1056.58C4209.03 1069.38 4220.76 1081.58 4233.12 1093.12C4292.79 1149.27 4453.79 1262.14 4524.87 1285.09C4668.06 1331.44 4756.28 1213.99 4841.64 1100.35C4887.58 1039.03 4931.04 981.195 4981.99 948.992C5042.89 910.236 5108.46 926.231 5166.95 994.108C5175.29 1003.89 5183.13 1014.08 5190.44 1024.64C5236.45 1091.91 5273.19 1188.88 5308.84 1282.47C5313.81 1295.56 5318.67 1308.72 5323.74 1321.73C5341.64 1368.13 5357.53 1418.93 5373.07 1468.01C5384.38 1504.04 5394.85 1537.78 5405.6 1567.59C5417.52 1601.07 5436.26 1635.73 5454.61 1669.36C5483.7 1723.16 5513.48 1778.34 5515.11 1828.39C5516.39 1869.4 5498.67 1909.71 5464.92 1941.81C5422.12 1982.69 5360.56 2005.66 5303.8 2001.43C5237.27 1996.28 5175.84 1964.68 5116.51 1933.96C5043.8 1896.37 4968.66 1857.56 4884.79 1869.68C4770.84 1886.34 4677.23 1967.68 4586.83 2046.57C4539.36 2087.81 4490.27 2130.45 4439.5 2162.84C4380.02 2200.37 4321.78 2217.16 4265.61 2233.47C4184.25 2257.15 4099.98 2281.31 4014.29 2369.52C3901.02 2440.37 3851.97 2529.1 3859.8 2648.96C3861.96 2681.53 3863.54 2714.58 3865.44 2749.34C3871.13 2861.72 3877.25 2978.06 3896.87 3075.4C3901.97 3100.77 3908.15 3125.48 3914.32 3149.59C3925.96 3195.67 3936.91 3239.03 3938.85 3281.14C3944.5 3413.91 3846.29 3485.84 3746.07 3498.03M3692.77 3531.55C3610.14 3525.23 3511.42 3475.98 3434.79 3403.04C3427.25 3395.82 3419.43 3387.53 3410.52 3377.18C3399.12 3363.95 3387.72 3349.37 3375.47 3334.2C3363.25 3318.66 3350.36 3302.36 3337.32 3287.22C3326.58 3274.75 3316.44 3264.14 3307.15 3255.1C3223.38 3174.25 3145.49 3152.82 3062.79 3129.87C3030.16 3120.9 2996.39 3111.57 2962.29 3098.19C2875.72 3064.19 2795.46 3013.44 2723.45 2947.2C2707.99 2933.12 2694.8 2918.75 2682.25 2905.17C2668.11 2890.3 2654.91 2875.94 2640.3 2863.8C2576.11 2809.53 2512.17 2830.89 2450.08 2851.31C2411.04 2864.56 2373.76 2876.63 2339.3 2868.59C2314.22 2862.79 2290.9 2847.48 2269.75 2822.94C2232.59 2779.8 2201.82 2709.42 2176.32 2607.76L2170.72 2585.86C2136.35 2450.79 2093.33 2282.38 2116.64 2181.12C2125.47 2142.43 2149.49 2089 2212.87 2054.09C2256.63 2029.74 2300.36 2022.12 2342.66 2014.75C2379.86 2008.42 2414.91 2002.28 2444.38 1985.23C2461.56 1975.12 2487.62 1953.32 2501.14 1934.35C2544.64 1873.11 2543.8 1794.67 2542.93 1718.9C2542.43 1676.9 2541.94 1633.56 2549.45 1594.69C2556.91 1555.19 2571.75 1518.66 2585.99 1483.36C2600.45 1447.16 2615.71 1409.96 2622.28 1370.57C2639.67 1269.37 2618.09 1194.43 2594.7 1134.73C2585.73 1111.41 2574.79 1089.08 2564.32 1067.69C2521.04 979.693 2483.88 903.811 2608.3 811.625C2686.57 753.894 2762.53 716.843 2827.61 704.521C2842.48 701.735 2861.43 700.425 2883.14 698.448C2964.99 691.719 3077.19 682.253 3105.08 595.753C3121.89 542.813 3098.9 486.465 3081.92 444.961C3077.8 434.817 3073.84 425.205 3071.04 416.947C3057.34 376.943 3042.45 330.976 3037.33 289.608C3027 206.309 3054.1 153.573 3082.58 97.618C3098.17 67.1573 3114.27 35.5579 3125.56 -2.56684C3144.12 -66.006 3112.18 -153.747 3039.98 -237.543C2957.38 -333.401 2845.63 -398.143 2761.37 -399.05C2685.56 -399.559 2614.78 -371.311 2539.61 -341.607C2511.06 -330.04 2481.52 -318.275 2450.52 -307.609L2436.23 -302.642C2371.15 -280.3 2303.77 -257.345 2258.43 -230.974C2121.76 -152.62 2100.75 -42.3232 2081.85 54.8045C2080.89 61.0088 2079.57 66.8006 2078.53 72.7204C2073.6 98.0113 2067.13 123.641 2060.53 151.045C2035.31 255.295 2009.39 363.158 2053.98 443.998C2079.8 490.924 2115.95 543.281 2150.88 594.026C2208.14 677.022 2267.05 762.563 2282.94 825.708C2288.58 848.244 2282.33 872.007 2265.47 892.894C2239.88 924.291 2194.06 943.725 2151.44 941.682C2101.38 939.046 2047.84 909.668 1996.05 881.153C1941.31 851.145 1889.74 823.083 1845.82 828.181C1795.55 834.409 1703.85 904.05 1639.43 969.927C1563.64 1047.28 1515.37 1137.32 1500.5 1230.62C1497.13 1251.56 1495.49 1273.36 1493.65 1294.34C1491.75 1317.02 1489.98 1338.25 1486.45 1357.65C1471.61 1439.27 1423.99 1565.49 1345.32 1733.51C1301.41 1826.47 1222.06 1951.32 1151.28 2004.6C1081.49 2056.74 1024.73 2061.2 964.493 2065.65C934.646 2068 903.53 2070.43 869.69 2078.55C817.426 2091.49 717.577 2142.45 671.387 2224.67C642.258 2277.18 646.971 2338.9 685.033 2398.68C696.78 2416.99 709.82 2434.44 724.052 2450.9C748.835 2479.66 774.788 2503.42 797.621 2524.14C816.439 2541.36 834.501 2557.89 848.694 2574.36C877.606 2607.92 886.303 2637.85 877.882 2674.49C850.368 2792.11 708.399 2912.08 573.436 2884.72C555.904 2882.1 537.821 2879.99 520.18 2877.82C432.032 2867.25 340.893 2856.25 282.242 2788.18C273.187 2777.57 265.194 2766.1 258.377 2753.93C251.856 2742.51 241.665 2716.23 234.114 2695.33C203.023 2608.19 190.31 2517.92 176.98 2422.49C173.32 2394.93 169.167 2366.41 164.524 2337.33L162.305 2323.19C153.601 2267.24 144.39 2209.34 143.948 2165.29C143.109 2109.22 151.893 2052.56 160.344 1997.82C168.985 1942.93 177.864 1886.18 177.242 1829.59C175.978 1715.42 148.663 1541.15 75.5276 1425.44C63.8809 1407.05 50.9314 1389.51 36.7783 1372.96C-15.0938 1312.76 -73.6974 1279.06 -125.681 1249.34C-167.159 1225.29 -206.263 1202.83 -234.007 1170.63C-246.794 1155.82 -256.964 1138.93 -264.079 1120.7C-281.477 1076.24 -277.054 1044 -263.997 1006.36C-247.477 959.041 -226.992 910.976 -204.848 860.19C-169.33 778.468 -132.66 694.086 -111.831 604.974C-101.967 563.055 -91.7096 493.077 -91.7048 453.974C-93.1338 236.727 -23.3623 51.6364 100.105 -53.4136C169.521 -123.898 225.279 -130.859 283.943 -138.298C306.68 -141.195 330.234 -144.106 354.944 -150.688C400.092 -163.217 440.461 -182.642 479.631 -201.339C523.063 -222.412 564.269 -242.214 607.018 -249.628C675.913 -261.572 750.26 -254.471 821.892 -248.017C936.054 -237.48 1054.29 -226.432 1156.89 -289.447C1186.71 -307.793 1224.96 -342.42 1246.94 -367.385C1270.08 -393.318 1287.74 -420.224 1304.96 -446.083C1334.45 -491.235 1365.13 -537.711 1425.06 -581.999C1502.74 -639.249 1578.25 -682.246 1658.22 -727.761C1687.05 -744.591 1717.33 -761.656 1748.33 -780.011C1950.24 -899.218 2118.4 -967.589 2332.45 -940.563C2380.75 -934.385 2427.56 -920.934 2477.24 -906.617C2524.66 -893.008 2573.73 -878.835 2627.92 -870.079C2644.9 -867.327 2678.22 -862.951 2708.7 -864.18C2792.49 -867.538 2873.51 -917.982 2958.82 -971.757C3042.99 -1024.92 3130.05 -1079.55 3221.78 -1086.77C3272.05 -1090.65 3307.98 -1077.85 3334.75 -1046.79C3360.68 -1016.69 3376.06 -972.806 3393.76 -922.237C3416.17 -857.692 3441.57 -784.673 3496.25 -721.219C3508.15 -707.432 3521.04 -694.53 3534.82 -682.617C3558.5 -662.269 3622.06 -614.124 3696.75 -610.677C3756.02 -607.965 3802.7 -629.128 3852.22 -651.411C3898.69 -672.428 3947.09 -694.09 4008.73 -696.735C4032.81 -695.759 4055.33 -694.473 4076.99 -693.423C4166.19 -688.761 4236.56 -684.905 4305.31 -707.41C4335.54 -717.41 4367.54 -735.953 4398.25 -754.062C4468.76 -794.769 4535.46 -833.533 4583.53 -777.748C4592.12 -767.778 4599.81 -755.003 4606.91 -739.433C4628.39 -691.775 4642.96 -617.46 4658.38 -538.867C4661.03 -525.778 4663.57 -512.614 4666.21 -499.53C4669.41 -482.887 4673.09 -466.692 4676.65 -451.385C4683.45 -421.148 4689.21 -395.394 4690.26 -376.255C4697.56 -206.142 4599.42 -168.997 4436.59 -107.895L4412.6 -98.9327C4368.47 -81.9457 4327.1 -62.3413 4290.72 -45.0212C4254.54 -27.872 4220.46 -11.5438 4190.35 -1.60706C4154.42 10.6413 4131.71 15.4974 4101.34 9.91877C4056.58 1.71547 4008.94 -18.7114 3958.34 -40.2507C3877.62 -74.592 3786.2 -113.445 3689.73 -107.497C3629.74 -103.913 3502.36 -58.3066 3490.9 58.8238C3482.25 147.81 3556.14 260.535 3588.55 305.092C3603.3 325.476 3618.06 344.156 3632.28 360.652C3689.6 427.173 3741.37 462.409 3800.99 475.516C3834.45 482.777 3869.3 481.796 3902.75 480.729C3968.81 478.605 4031.55 476.659 4082.76 536.092C4090.02 544.611 4096.58 553.707 4102.37 563.29C4143.01 628.172 4152.08 706.905 4161.61 790.214C4165.54 824.249 4169.58 859.187 4176 893.415C4181.92 924.752 4200.11 986.901 4257.61 1053.64C4267.85 1065.52 4278.89 1077.05 4290.72 1088.23C4349.09 1142.87 4418.72 1186.09 4523.8 1232.52C4668.72 1271.04 4750.55 1160.44 4829.34 1053.44C4893.58 966.352 4954.28 884.015 5046.28 876.546C5090.72 873.015 5148.01 901.14 5186 945.235C5191.12 951.108 5195.85 957.309 5200.15 963.8C5258.02 1047.91 5306.01 1165.26 5352.31 1278.71C5395.36 1383.59 5435.8 1482.73 5483.59 1558.81C5502.32 1588.45 5523.48 1615.32 5543.99 1641.43C5580.4 1687.54 5611.58 1727.19 5615.12 1765.22L5615.4 1766.31C5615.87 1786.3 5616.63 1807.03 5620.05 1826.8C5597.24 1973.72 5463.54 2086.94 5321.72 2079.17C5256.68 2075.75 5195.34 2045.4 5130.9 2013.39C5066.11 1981.35 4998.91 1948.05 4926.16 1943.58C4811.74 1936.59 4737.83 1991.27 4652.11 2054.78C4626.8 2073.57 4600.37 2092.99 4571.65 2112.06L4571.18 2112.46L4570.79 2112.8C4500.16 2208.08 4385.25 2246.95 4274.02 2284.32C4187.62 2313.33 4098.38 2343.47 4030.69 2399.77C3958.71 2460.15 3919.22 2527.23 3910.17 2605.53C3912.26 2656.51 3911.93 2708.91 3911.8 2759.82C3911.27 2855.15 3910.94 2945.31 3924.14 3024.8C3932.21 3072.31 3945.11 3117.34 3957.98 3161.36C3974.75 3219.74 3990.69 3274.85 3992.49 3327.42C3993.7 3369.47 3975.23 3410.09 3939.07 3444.6C3872.28 3508.49 3762.31 3537.11 3692.77 3531.55M4084.34 3339.07C4081.99 3298 4061.26 3255.07 4041.57 3213.92C4031.21 3192.44 4020.71 3170.43 4012.67 3148.97C3958.62 3002.44 3946.9 2812.77 3979.23 2601.19C3987.9 2544.98 4008.76 2484.24 4100.72 2419.67C4157.55 2380.08 4224.85 2364.17 4290.17 2348.67C4351.1 2334.23 4408.6 2320.43 4458.41 2288.87C4497.83 2263.9 4532.2 2230.97 4565.14 2198.89C4592.47 2173.01 4620.52 2145.84 4650.88 2123.67C4714.05 2077.93 4841.23 2007.45 4983.97 2049.81C5028.1 2062.88 5071.9 2081.93 5114.15 2100.33C5192.36 2134.46 5273.3 2169.64 5363.2 2170.33C5410.76 2170.43 5478.56 2148.75 5524.07 2118.56C5633.69 2046.18 5741.05 1917.24 5734.25 1792.81C5730.21 1722.81 5709.94 1655.75 5622.56 1554.33C5611.32 1541.3 5598.98 1527.55 5585.93 1513.75C5575.79 1503.14 5548.75 1474.64 5524.45 1446.45C5506.95 1426.13 5493.91 1409.65 5486.18 1397.61C5448.53 1339.84 5416.48 1273.94 5385.25 1209.96C5377.62 1194.17 5369.88 1178.47 5362.21 1163.01C5350.25 1138.9 5338.8 1114.05 5327.44 1090.08C5300.3 1031.98 5274.69 977.227 5244.84 934.117C5237.37 923.519 5229.67 913.423 5221.75 904.238C5133.37 801.667 5013.59 788.639 4916.61 870.862C4869.31 910.94 4836.45 959.3 4804.4 1006.28C4755.69 1077.67 4709.66 1145.04 4620.94 1170.38C4528.4 1196.68 4385.22 1120.28 4309.73 1032.67C4300.64 1022.18 4292.25 1011.1 4284.63 999.499C4242.99 935.184 4233.11 854.173 4222.32 768.248C4216.1 718.842 4209.64 667.618 4197.09 617.961C4170.33 513.732 4141.98 412.245 4090.94 316.594L4090.15 314.913L4088.03 314.759C4050.69 314.194 4022.22 329.697 3994.77 344.66C3979.74 352.615 3965.31 360.361 3949.91 365.631C3867.09 393.55 3744.58 383.528 3648.77 272.334C3647.11 270.411 3645.62 268.68 3644.08 266.699C3600.86 214.417 3565.05 131.028 3582.6 62.4285C3593.24 21.2159 3621.56 -8.52911 3666.81 -26.138C3761.9 -62.9867 3905.53 -12.0494 3984.1 56.2149C3992.73 63.8404 4000.81 72.0588 4008.28 80.81C4019.35 93.6486 4029.38 107.409 4039.14 120.69C4048.35 133.474 4058.2 147.025 4068.62 159.114C4081.17 173.684 4093 184.525 4105.79 193.203L4107.49 194.408L4109.45 193.402C4159.21 165.234 4190.56 130.529 4220.93 97.0069C4245.2 70.0737 4270.2 41.8654 4305.01 17.5439C4327 2.48672 4349.99 -11.0665 4373.81 -23.023C4428.14 -51.4705 4489.07 -69.5642 4547.66 -87.3048C4608.88 -105.64 4666.62 -123.004 4714.26 -150.364C4825.75 -214.006 4806.04 -313.939 4788.71 -402.249C4782.62 -433.394 4776.84 -462.833 4776.35 -490.151C4775.83 -541.453 4786.44 -581.347 4798.94 -627.519C4804.21 -647.414 4809.78 -667.917 4814.71 -690.538L4815.04 -691.843L4814.42 -692.964C4801.4 -715.806 4787.65 -749.084 4773.09 -784.284C4746.17 -849.617 4715.73 -923.281 4676.09 -969.291C4637.92 -1013.58 4597.71 -1025.01 4553.2 -1004.03C4518.94 -987.542 4489.07 -957.469 4462.59 -930.988C4455.76 -924.079 4449.01 -917.272 4442.76 -911.23C4347.22 -820.22 4299.16 -774.469 4207.28 -763.78C4158.42 -758.075 4114.68 -766.835 4072.38 -775.472C4035.27 -782.902 4000.26 -789.818 3962.55 -787.733C3914.14 -784.777 3872.1 -760.557 3831.52 -736.95C3777.7 -705.975 3722.28 -673.581 3651.61 -691.834C3608.05 -703.085 3573.34 -725.27 3541.94 -761.702C3532.6 -772.534 3524.01 -783.987 3516.22 -795.983C3489.48 -837.422 3474.72 -892.499 3460.6 -945.497C3443.82 -1007.52 3426.76 -1071.67 3389.92 -1114.43C3357.71 -1151.81 3313.76 -1168.7 3255.41 -1166.87C3221.43 -1165.66 3175.53 -1151.5 3157.5 -1145.64C3081.97 -1120.99 3011.94 -1078.03 2944.4 -1036.18C2844.09 -974.784 2749.44 -916.638 2652.45 -926.916C2468.85 -971.839 2274.63 -1008.61 2098.36 -972.954C1992.67 -951.703 1870.92 -890.54 1765.53 -833.494C1706.57 -801.362 1645.63 -771.912 1592.18 -745.902C1520.13 -711.228 1458.02 -681.411 1416.49 -653.32C1337.89 -600.623 1289.49 -536.201 1242.92 -473.7C1194.31 -408.753 1148.27 -347.362 1074.82 -315.482C1012.09 -288.484 919.204 -281.278 819.482 -296.257C792.154 -300.425 764.916 -306.029 738.491 -311.652C690.228 -321.814 640.447 -332.388 588.02 -333.322C570.969 -333.654 553.502 -333.311 536.587 -333.101C468.769 -332.436 398.878 -331.674 344.348 -360.861C308.193 -380.474 277.61 -405.565 248.198 -429.682C217.554 -455.036 185.779 -481.124 148.146 -500.141C56.5971 -546.861 -84.5466 -572.539 -193.768 -525.529C-266.575 -493.861 -315.84 -435.064 -340.186 -350.596C-352.177 -308.862 -352.514 -246.45 -330.229 -207.872C-325.783 -200.242 -320.631 -193.046 -314.841 -186.378C-287.085 -154.165 -246.868 -134.053 -207.928 -114.482C-171.732 -96.5555 -137.819 -79.3527 -116.505 -54.6164C-104.126 -40.2492 -96.9292 -24.383 -94.6743 -5.96942C-88.995 41.2697 -101.051 92.3918 -112.641 142.13C-119.086 168.749 -125.622 196.418 -129.18 222.532C-133.511 255.651 -136.095 291.951 -138.509 327.101C-142.61 381.098 -146.859 436.85 -157.161 486.156C-176.077 575.936 -208.44 626.224 -237.656 663.403C-253.39 683.673 -274.462 704.491 -295.2 724.345C-323.907 752.097 -350.735 778.564 -365.441 804.264C-372.907 817.368 -378.355 832.428 -383.594 846.963C-395.123 878.277 -406.086 907.767 -435.372 922.301C-445.314 916.157 -451.708 905.654 -455.578 888.256C-415.729 782.12 -396.905 696.085 -514.531 559.573C-529.723 541.941 -547.86 522.818 -568.007 503.097C-599.928 471.831 -637.72 443.576 -674.569 416.221C-715.329 385.869 -753.802 357.209 -778.906 328.074C-794.939 309.466 -804.446 292.269 -807.879 275.185C-790.607 237.243 -739.912 187.235 -686.372 134.745C-618.501 68.2572 -541.836 -7.47918 -516.889 -75.4283C-506.766 -103.172 -506.118 -148.847 -537.835 -185.656C-548.562 -198.106 -562.462 -208.844 -578.854 -217.465C-639.842 -248.752 -758.418 -281.182 -848.995 -301.346C-906.502 -313.95 -978.464 -321.758 -1024.11 -268.396L-1027.87 -260.813C-1039.68 -236.572 -1051.95 -211.674 -1049.93 -173.329C-1046.59 -107.036 -1019.75 -31.963 -993.893 40.6179C-969.915 107.144 -945.396 175.887 -940.298 234.974C-953.588 262.125 -971.724 278.066 -998.736 286.978C-1024.92 295.508 -1051.67 303.204 -1077.42 310.677C-1162.05 335.167 -1241.87 358.509 -1314.37 408.635C-1378.22 452.634 -1433.28 506.408 -1491.63 563.356C-1509.89 581.462 -1529.3 600.166 -1548.75 618.248C-1569.75 638.371 -1591.42 657.722 -1614.46 678.566C-1645.97 706.705 -1678.53 735.793 -1710.95 767.731C-1801.63 900.969 -1786.65 1024.68 -1661.94 1169.43C-1646.73 1187.08 -1629.19 1205.7 -1610.29 1224.16C-1505.51 1327.28 -1304.07 1455.69 -1161.65 1483.62C-967.094 1521.76 -788.57 1414.36 -699.149 1346.69C-670.639 1320.44 -644.245 1290 -619.223 1260.09C-573.316 1206.86 -525.991 1151.37 -462.307 1118.56C-429.541 1123.06 -418.568 1134.64 -394.528 1160.04C-387.039 1167.96 -378.798 1176.56 -368.275 1186.84C-304.321 1249.31 -234.806 1285.3 -167.904 1320.17C-139.857 1334.42 -110.789 1349.47 -83.0097 1366.3C-54.8785 1383.15 -28.507 1405.86 -4.72453 1433.46C84.1478 1536.6 136.355 1711.43 125.241 1868.64C121.872 1918.3 109.894 1967.38 98.522 2015.25C82.8872 2080.52 66.9892 2147.99 71.7335 2217.07C74.6426 2256.66 82.6016 2304.23 91.7573 2355.14C95.863 2379.34 100.305 2404.56 104.335 2429.82C106.625 2444.23 108.781 2459.06 111.034 2473.82C128.165 2585.01 145.479 2699.69 183.002 2799.3C193.227 2826.58 205.966 2848.68 221.983 2867.28C268.232 2920.95 333.424 2932.26 402.328 2944.04C418.945 2946.75 436.095 2949.7 453.176 2953.34C483.655 2959.82 514.674 2968.85 544.549 2977.51C630.492 3002.32 719.407 3028.26 804.923 2995.35C840.497 2981.73 877.59 2950.41 898.774 2925.49C952.558 2862.11 1000.82 2757.08 1041.94 2612.73L1042.18 2611.84L1041.97 2611.03C1039.6 2604.04 1038.65 2593.5 1037.77 2582.26C1036.6 2565.88 1034.98 2547.24 1028.55 2533.41C1024.63 2525.04 1019.56 2517.27 1013.46 2510.32C990.507 2483.68 952.905 2462.97 913.139 2441.09C872.548 2418.64 830.554 2395.33 804.026 2364.76C778.753 2335.43 771.115 2302.27 780.535 2264.08C791.63 2218.78 821.45 2187.72 874.52 2166.06C906.165 2153.47 940.096 2149.31 976.34 2145.14C1048.04 2136.45 1129.4 2126.47 1210.74 2043.05C1363.81 1885.08 1511.24 1579.02 1552.62 1330.57C1555.35 1315.82 1556.46 1300.54 1557.48 1285.93C1559.01 1268.27 1560.5 1249.95 1564.42 1232.52C1596.15 1084.6 1721.62 952.431 1837.96 943.732C1854.68 942.354 1880.01 945.914 1890.89 947.555C1892.59 947.902 1894.31 948.099 1896.04 948.144C1951.08 962.152 1991.92 994.11 2028.03 1022.14C2047.59 1037.34 2065.98 1051.55 2084.91 1061.96C2114.2 1077.84 2149.4 1094.61 2197.88 1090.58C2225.65 1088.71 2252.14 1078.23 2277.87 1068.41C2304.25 1058.37 2331.49 1047.6 2359.69 1046.04C2406.83 1043.15 2449.78 1062.58 2483.82 1102.08C2536.19 1162.86 2561.72 1266.47 2545.79 1353.33C2534.27 1391.98 2517.95 1425.44 2501.98 1457.57C2479.94 1501.94 2459.17 1543.89 2452.17 1595.68C2447.56 1629.05 2449.56 1665.09 2451.4 1699.59C2454.73 1768.18 2458.24 1833.32 2416.3 1884.82C2383.35 1925.57 2333.32 1939.94 2280.38 1955.17C2244.79 1965.12 2208.26 1975.89 2176.66 1995.08C2054.47 2070 2056.01 2166.19 2057.44 2259.16C2057.69 2276.98 2057.84 2295.26 2057.44 2313.29L2057.45 2314.27C2075.55 2379.19 2087.97 2451.99 2100.85 2528.77C2125.88 2678.23 2152.14 2832.96 2224.85 2942.38C2275.37 3018.74 2326.8 3053.96 2382.53 3051.02C2414.13 3049.16 2442.04 3036.48 2471.36 3022.92C2516.83 3002.1 2564.06 2980.81 2627.79 3002.38C2667.77 3016.03 2714.96 3042.86 2769.18 3073.61C2842.32 3115.16 2925 3162.17 3012.67 3189.18C3025.79 3193.23 3038.07 3196.69 3050.41 3200.41C3134.43 3224.89 3206.88 3246 3301.52 3340.82C3453.54 3492.78 3575.42 3598.2 3761.62 3572.71C3900.99 3553.19 4091.28 3455 4084.34 3339.07M2812.59 -135.234C2800.57 -149.187 2784.32 -160.868 2764.63 -169.56C2637.61 -225.21 2458.44 -80.2921 2399.02 -32.445C2315.25 55.6037 2321.94 187.92 2381.05 256.515C2400.59 279.199 2425.73 294.98 2453.76 301.908C2538.08 323.132 2671.46 272.681 2739.22 194.381C2801.6 122.059 2887.05 -48.8241 2812.59 -135.234Z" stroke="#121212" stroke-miterlimit="10"/>
</g>
</g>
</svg>
