<svg width="1440" height="536" viewBox="0 0 1440 536" fill="none" xmlns="http://www.w3.org/2000/svg">
<g opacity="0.1">
<mask id="mask0_44_13799" style="mask-type:alpha" maskUnits="userSpaceOnUse" x="0" y="0" width="1440" height="536">
<rect width="1440" height="536" fill="#A93427"/>
</mask>
<g mask="url(#mask0_44_13799)">
<path d="M1591.04 -482.696C1706.9 -306.538 1798.91 -56.3891 1867.07 174.193C1935.23 407.306 1979.54 620.852 2000 782.248M1527.38 -498.943C1641.65 -310.739 1732.79 -60.0721 1800.8 168.857C1868.8 400.096 1913.68 609.597 1935.41 768.831M1470.84 -519.6C1582.87 -317.912 1672.52 -65.7369 1739.81 162.189C1807.09 392.206 1852.01 597.974 1874.54 755.166M1420.71 -542.058C1529.9 -326.42 1617.53 -72.3061 1683.59 154.91C1749.64 384.005 1794.13 586.202 1817.05 741.4M1376.3 -564.033C1482.15 -334.817 1567.27 -78.8228 1631.65 147.667C1696.03 375.83 1739.68 574.488 1762.6 727.674M1336.98 -583.616C1439.02 -341.892 1521.2 -84.4831 1583.52 141.005C1645.83 367.97 1688.28 563.013 1710.86 714.116M1302.11 -599.294C1399.96 -346.691 1478.84 -88.6551 1538.75 135.351C1598.66 360.65 1639.59 551.918 1661.54 700.831M1271.09 -609.955C1364.42 -348.518 1439.69 -90.8821 1496.9 131.015C1554.11 354.031 1593.26 541.309 1614.35 687.897M1243.36 -614.873C1331.9 -346.933 1403.3 -90.8841 1457.57 128.179C1511.85 348.204 1548.99 531.243 1568.99 675.365M1218.36 -613.684C1301.89 -341.734 1369.22 -88.5431 1420.36 126.918C1471.51 343.195 1506.46 521.976 1525.21 663.261M1195.59 -606.352C1273.94 -332.935 1337.04 -83.8901 1384.9 127.199C1432.76 338.972 1465.38 512.789 1482.75 651.584M1174.54 -593.121C1247.59 -320.735 1306.35 -77.0801 1350.83 128.903C1395.3 335.456 1425.48 504.336 1441.37 640.316M1154.75 -574.475C1222.44 -305.488 1276.79 -68.3771 1317.81 131.841C1358.82 332.524 1386.5 496.313 1400.85 629.421M1135.79 -551.088C1198.08 -287.669 1247.99 -58.1241 1285.52 135.763C1323.05 330.025 1348.2 488.628 1360.96 618.852M1117.23 -523.773C1174.15 -267.844 1219.63 -46.4583 1253.68 140.385C1287.73 327.791 1310.34 481.182 1321.51 608.557M1098.7 -493.437C1150.3 -246.628 1191.4 -34.6041 1222 145.404C1252.6 325.646 1272.7 473.873 1282.3 598.481M1079.84 -461.034C1172.57 12.8359 1227.01 345.764 1243.17 588.571M1060.31 -427.527C1142.81 23.1849 1190.69 340.612 1203.94 578.782M1039.81 -393.849C1112.39 32.4189 1153.95 335.167 1164.48 569.076M1018.05 -360.872C1081.09 40.2859 1116.61 329.325 1124.63 559.427M994.797 -329.379C1048.69 46.5839 1078.52 323.01 1084.29 549.824M969.81 -300.046C1015.02 51.1669 1039.53 316.174 1043.33 540.266M942.894 -273.427C979.919 53.9459 999.513 308.804 1001.67 530.77M913.875 -249.944C943.25 54.8949 958.359 300.909 959.206 521.361M882.607 -229.88C904.894 54.0451 915.986 292.533 915.881 512.078M848.972 -213.386C864.755 51.4849 872.309 283.742 871.63 502.969M812.876 -200.481C822.759 47.3508 827.273 274.627 826.41 494.088M774.252 -191.063C778.857 41.8259 780.837 265.292 780.188 485.49M732.951 431.735C844.859 450.615 947.093 473.107 1042.4 493.701C1137.94 514.676 1226.56 533.752 1316.55 554.627C1406.77 575.474 1498.37 598.112 1605.17 625.52C1712.2 652.487 1834.44 684.223 1991.26 713.114M732.957 387.573C845.008 406.674 946.654 428.617 1040.8 447.213C1135.19 466.274 1222.07 481.989 1310.23 499.392C1398.62 516.754 1488.28 535.795 1593.81 560.516C1699.58 584.687 1821.23 614.538 1979.22 640.844M732.964 343.43C845.002 362.47 945.873 383.443 1038.65 399.491C1131.68 416.096 1216.61 427.776 1302.69 441.159C1389.02 454.483 1476.5 469.499 1580.53 491.335C1684.82 512.489 1805.66 540.462 1964.65 563.97M732.97 299.304C844.832 317.979 944.746 337.529 1035.94 350.446C1127.41 364.027 1210.16 370.974 1293.93 379.803C1377.97 388.547 1463.02 399.158 1565.33 418.002C1667.91 436.005 1787.73 462.241 1947.54 482.851M732.977 255.195C844.503 273.174 943.275 290.816 1032.69 299.995C1122.39 309.955 1202.73 311.451 1283.96 315.209C1365.47 318.848 1447.86 324.731 1548.21 340.584C1648.85 355.407 1767.44 380.2 1927.9 397.943M732.985 211.104C844.014 228.031 941.458 243.248 1028.88 248.054C1116.61 253.771 1194.32 249.079 1272.77 247.275C1351.51 245.309 1431 246.211 1529.17 259.194C1627.64 270.927 1744.78 294.74 1905.73 309.801M732.992 167.03C843.366 182.526 939.297 194.766 1024.53 194.541C1110.08 195.37 1184.92 183.735 1260.36 175.911C1336.11 167.871 1412.45 163.618 1508.21 173.99C1604.28 182.857 1719.76 206.349 1881.02 219.085M733 122.974C842.561 136.631 936.795 145.312 1019.63 139.372C1102.79 134.648 1174.55 115.302 1246.74 101.041C1319.26 86.4939 1392.22 77.0029 1485.33 85.1809C1578.77 91.5549 1692.37 115.598 1853.77 126.563M733.008 78.9359C841.592 90.3219 933.944 94.8289 1014.17 82.4709C1094.74 71.5039 1163.19 43.6709 1231.9 22.5999C1300.96 1.16191 1370.28 -13.5471 1460.53 -6.97809C1551.12 -2.55409 1662.63 23.1489 1823.99 33.1159M733.016 34.9149C840.467 43.5739 930.75 43.2589 1008.17 23.7559C1085.94 5.83892 1150.85 -31.2651 1215.85 -59.4631C1281.21 -88.1231 1346.66 -107.916 1433.81 -102.179C1521.31 -98.9761 1630.51 -70.2441 1791.67 -60.2601M733.025 -9.08813C839.18 -3.64113 927.212 -9.45808 1001.61 -36.8481C1076.39 -62.4401 1137.53 -109.604 1198.58 -145.183C1260.01 -181.337 1321.35 -205.95 1405.17 -200.06C1489.36 -197.147 1596.04 -163.73 1756.82 -152.446M733.034 -53.0728C837.735 -51.3448 923.329 -63.3778 994.505 -99.4168C1066.07 -133.425 1123.23 -191.439 1180.11 -234.734C1208.66 -255.898 1237.32 -274.987 1268.74 -286.71C1300.19 -298.65 1334.41 -303.224 1374.62 -300.357C1414.87 -297.707 1461.11 -287.616 1517.2 -275.229C1573.3 -263.059 1639.24 -248.593 1719.43 -242.201M733.043 -97.0398C836.129 -99.5668 919.1 -118.56 986.849 -164.025C1055.01 -207.203 1107.94 -276.853 1160.41 -327.841C1186.76 -352.791 1213.17 -374.941 1242.42 -388.235C1271.7 -401.781 1303.81 -406.471 1342.14 -402.314C1380.5 -398.41 1425.07 -385.659 1479.85 -370.135C1534.66 -354.864 1599.68 -336.82 1679.51 -328.154M733.062 -185.249C832.425 -195.631 909.573 -233.897 969.82 -300.647C1030.51 -365.104 1074.3 -458.045 1117.18 -524.681C1160.51 -593.384 1202.93 -630.477 1271.15 -610.701C1305.37 -601.782 1346.24 -580.043 1398.1 -553.567C1449.99 -527.644 1512.86 -496.986 1591.72 -483.018M733.052 -140.99C834.364 -146.207 914.529 -175.519 978.643 -231.167C1043.18 -284.762 1091.68 -364.694 1139.48 -423.617C1187.71 -484.301 1235.26 -519.314 1307.74 -505.98C1344.1 -500.15 1386.88 -483.435 1440.26 -462.751C1493.66 -442.55 1557.66 -418.38 1637.05 -408.8M2000.11 783.201C2020.48 946.087 2017 1056.8 1989.66 1127.1C1962.33 1198.57 1911.14 1229.64 1836.11 1260.32M1935.54 769.771C1957.19 930.361 1955.7 1040.66 1931.08 1112.73C1906.47 1185.88 1858.71 1220.81 1787.83 1255.56M1874.68 756.094C1897.13 914.504 1897.22 1024.32 1874.93 1098.05C1852.64 1172.77 1807.99 1211.4 1740.96 1250.13M1817.19 742.316C1840.02 898.596 1841.29 1007.87 1820.98 1083.15C1800.68 1159.33 1758.81 1201.53 1695.37 1244.16M1762.73 728.577C1785.57 882.714 1787.67 991.372 1769.04 1068.13C1750.42 1145.68 1711.06 1191.33 1650.96 1237.78M1711 715.007C1733.5 866.937 1736.14 974.924 1718.91 1053.07C1701.68 1131.91 1664.59 1180.91 1607.63 1231.1M1661.67 701.708C1683.55 851.329 1686.46 958.596 1670.4 1038.05C1654.33 1118.12 1619.29 1170.38 1565.28 1224.24M1614.47 688.76C1635.48 835.947 1638.43 942.451 1623.32 1023.16C1608.22 1104.4 1575.04 1159.84 1523.81 1217.28M1569.11 676.214C1589.05 820.835 1591.85 926.548 1577.52 1008.45C1563.19 1090.82 1531.73 1149.37 1483.13 1210.31M1525.32 664.094C1544.01 806.02 1546.51 910.931 1532.82 993.995C1519.12 1077.45 1489.23 1139.06 1443.15 1203.43M1482.85 652.401C1500.17 791.523 1502.24 895.64 1489.06 979.839C1475.88 1064.37 1447.46 1128.98 1403.8 1196.69M1441.47 641.116C1457.3 777.352 1458.84 880.705 1446.1 966.029C1433.35 1051.63 1406.31 1119.2 1364.98 1190.17M1400.93 630.204C1415.22 763.508 1416.18 866.15 1403.8 952.604C1391.41 1039.28 1365.7 1109.77 1326.64 1183.93M1361.03 619.618C1386.46 881.499 1362.34 1024.64 1288.7 1178M1321.57 609.306C1343.83 865.165 1320.33 1012.83 1251.09 1172.45M1282.36 599.214C1301.48 849.268 1278.61 1001.65 1213.75 1167.31M1243.22 589.289C1259.3 833.845 1237.1 991.116 1176.63 1162.61M1203.98 579.485C1217.17 818.937 1195.73 981.274 1139.66 1158.38M1164.51 569.766C1174.97 804.584 1154.41 972.143 1102.82 1154.63M1124.66 560.105C1132.62 790.827 1113.08 963.744 1066.04 1151.38M1084.31 550.492C1090.03 777.706 1071.69 956.09 1029.29 1148.65M1043.34 540.926C1047.11 765.257 1030.17 949.191 992.528 1146.43M1001.67 531.423C1003.8 753.517 988.478 943.048 955.731 1144.71M959.209 522.009C960.029 742.517 946.577 937.657 918.868 1143.49M915.88 512.724C915.994 723.195 904.655 933.516 881.913 1142.75M871.628 503.614C870.931 722.836 862.008 929.077 844.851 1142.47M826.408 494.733C825.532 714.184 819.289 925.843 807.666 1142.6M780.186 486.137C779.533 706.33 776.252 923.263 770.345 1143.11M732.884 1144.29C908.599 1138.9 1076.87 1146.89 1251.22 1172.8C1426.69 1196.92 1608.23 1238.96 1836.63 1260.48M732.886 1098.19C914.278 1095.52 1086.63 1108.19 1264.91 1139.75C1444.44 1169.58 1629.89 1218.3 1866.38 1247.66M732.889 1053.78C919.427 1053.97 1095.28 1071.24 1276.87 1108.09C1459.83 1143.27 1648.53 1198.01 1892.49 1234.73M732.892 1009.37C924.258 1012.65 1103.19 1034.53 1287.62 1076.37C1473.55 1116.64 1664.98 1176.88 1916.05 1220.59M732.895 964.99C928.775 971.515 1110.35 997.896 1297.15 1044.35C1485.58 1089.35 1679.25 1154.43 1937.08 1204.64M732.898 920.622C932.973 930.524 1116.76 961.216 1305.46 1011.81C1495.94 1061.07 1691.32 1130.24 1955.58 1186.34M732.902 876.271C936.852 889.634 1122.43 924.346 1312.56 978.502C1504.61 1031.47 1701.21 1103.88 1971.54 1165.16M732.905 831.937C940.415 848.805 1127.35 887.146 1318.44 944.207C1511.6 1000.23 1708.9 1074.97 1984.97 1140.61M732.909 787.621C943.662 807.997 1131.53 849.473 1323.1 908.704C1516.91 967.048 1714.42 1043.15 1995.86 1112.28M732.914 743.321C946.591 767.171 1134.96 811.184 1326.55 871.779C1520.53 931.637 1717.73 1008.08 2004.22 1079.78M732.918 699.038C949.2 726.29 1137.65 772.131 1328.78 833.224C1522.48 893.721 1718.86 969.469 2010.04 1042.78M732.923 654.773C951.497 685.318 1139.59 732.17 1329.8 792.84C1522.74 853.038 1717.8 927.055 2013.33 1001.03M732.928 610.524C953.474 642.663 1140.79 692.662 1329.6 750.54C1521.33 807.839 1714.55 882.164 2014.08 954.31M732.933 566.293C955.131 600.942 1141.24 650.883 1328.32 705.805C1422.67 733.83 1518.67 764.444 1627.93 798.08C1737.38 831.494 1860.09 867.931 2012.3 902.496M732.944 477.553C844.535 495.937 947.184 518.589 1043.48 540.703C1140 563.121 1230.17 585 1321.83 608.891C1413.7 632.763 1507.05 658.64 1614.92 688.541C1723.02 718.095 1845.64 751.673 2001.06 782.919M732.938 522.079C844.054 539.744 946.916 562.186 1043.97 585.271C1141.23 608.595 1232.67 632.562 1325.7 658.813C1418.93 685.047 1513.73 713.56 1622.42 745.534C1731.31 777.23 1854.08 812.387 2007.98 845.523M733.055 -184.921C733.006 35.1269 732.967 255.844 732.937 477.231M689.283 -181.754C685.209 27.5009 683.671 246.437 684.665 469.365M642.945 -181.18C635.473 19.2062 632.946 237.167 635.372 461.935M594.08 -182.762C583.826 10.5099 580.821 228.16 585.076 454.975M542.755 -186.022C530.321 1.6799 527.341 219.521 533.811 448.503M489.062 -190.462C475.04 -7.0331 472.556 211.341 481.623 442.518M433.122 -195.578C418.069 -15.3921 416.55 203.686 428.569 437.001M375.082 -200.88C359.531 -23.1929 359.411 196.599 374.722 431.911M315.114 -205.903C299.565 -30.2611 301.249 190.093 320.166 427.182M253.418 -210.22C238.328 -36.4598 242.19 184.154 265 422.725M190.22 -213.449C176.004 -41.6871 182.372 178.735 209.334 418.427M125.773 -215.257C112.79 -45.8801 121.962 173.763 153.291 414.155M60.3571 -215.365C48.9131 -49.0142 61.131 169.14 97.009 409.755M-5.72198 -213.543C-15.379 -51.0911 0.0740242 164.743 40.637 405.058M-72.1329 -209.61C-79.8279 -52.1379 -61.002 160.436 -15.662 399.884M-138.514 -203.422C-144.14 -52.1971 -121.872 156.07 -71.7109 394.044M-204.482 -194.864C-208.008 -51.3141 -182.288 151.5 -127.323 387.352M-269.622 -183.843C-271.103 -49.5301 -241.995 146.581 -182.295 379.626M-333.496 -170.272C-333.075 -46.8701 -300.713 141.194 -236.412 370.702M-395.639 -154.065C-393.549 -43.3201 -358.148 135.239 -289.446 360.433M-455.558 -135.127C-453.844 -86.3432 -443.454 -21.2079 -424.388 60.2788C-405.321 141.594 -377.577 239.318 -341.157 348.705M-512.734 -113.353C-510.571 -72.6002 -499.369 -14.8622 -479.129 60.6938C-458.888 136.021 -429.609 229.165 -391.289 335.44M-566.621 -88.6322C-564.283 -56.7692 -552.527 -7.3022 -531.354 61.5058C-510.179 130.052 -479.587 217.94 -439.577 320.605M-616.648 -60.8612C-614.465 -38.6822 -602.464 1.60479 -580.646 62.8498C-558.828 123.796 -527.193 205.701 -485.74 304.217M-662.216 -29.9712C-660.577 -18.1602 -648.697 12.0558 -626.575 64.9098C-604.453 117.422 -572.09 192.571 -529.485 286.349M-702.699 4.03381C-702.059 4.96681 -690.722 24.2738 -668.69 67.9108C-646.658 111.155 -613.929 178.729 -570.506 267.129M-737.446 41.0178C-738.322 30.8178 -728.013 38.4738 -706.519 72.0988C-685.025 105.271 -652.347 164.412 -608.483 246.748M-786.991 122.18C-792.728 90.5752 -786.178 73.4352 -767.341 84.9823C-748.504 95.9242 -717.38 135.438 -673.968 203.523M-765.778 80.6262C-768.756 59.4092 -760.021 54.8332 -739.572 77.7202C-719.124 100.085 -686.961 149.911 -643.086 225.448M-691.123 177.201C-624.31 221.796 -522.93 263.454 -406.356 292.417C-289.551 322.112 -157.552 339.113 -24.187 351.317C109.409 363.611 244.371 371.097 372.405 383.726C500.67 395.795 622.008 413.007 733.669 431.859M-706.456 154.657C-640.534 190.823 -538.288 226.956 -420.181 252.192C-301.831 278.178 -167.619 293.266 -32.152 304.694C103.558 316.21 240.523 324.055 369.983 337.448C499.687 350.258 621.885 368.617 733.676 387.7M-720.484 135.134C-655.601 162.291 -552.595 192.369 -433.048 213.498C-313.243 235.39 -176.898 248.333 -39.416 258.849C98.323 269.445 237.198 277.6 367.969 291.672C498.998 305.136 621.924 324.517 733.683 343.556M-733.206 118.66C-669.512 136.272 -565.85 159.765 -444.953 176.411C-323.786 193.822 -185.384 204.386 -45.974 213.847C93.707 223.379 234.397 231.795 366.365 246.447C498.604 260.47 622.119 280.731 733.688 299.428M-744.623 105.242C-682.264 112.82 -578.052 129.208 -455.899 140.996C-333.461 153.543 -193.082 161.49 -51.829 169.752C89.709 178.073 232.122 186.696 365.171 201.824C498.505 216.301 622.476 237.283 733.693 255.315M-754.734 94.8609C-693.86 91.9759 -589.203 100.751 -465.885 107.313C-342.267 114.616 -199.989 119.707 -56.9789 126.627C86.3301 133.588 230.369 142.364 364.385 157.852C498.7 172.669 622.992 194.198 733.697 211.218M-763.54 87.4759C-704.298 73.7639 -599.301 74.4329 -474.91 75.4089C-350.204 77.0969 -206.105 79.094 -61.4247 84.5279C83.5683 89.9779 229.141 98.8539 364.009 114.577C499.191 129.614 623.668 151.499 733.7 167.135M-771.04 83.0179C-713.579 58.1919 -608.347 50.2809 -482.975 45.3239C-357.273 41.0359 -211.43 39.7029 -65.1667 43.508C81.4252 47.3019 228.437 56.2229 364.042 72.0509C499.976 87.1769 624.503 109.211 733.702 123.068M-777.235 81.3929C-721.702 45.2469 -616.341 28.3079 -490.079 17.0869C-363.473 6.47491 -215.966 1.5799 -68.2057 3.6189C79.8992 5.6109 228.257 14.5239 364.485 30.3179C501.056 45.3979 625.498 67.3579 733.705 79.0159M-782.125 82.4779C-728.669 34.9039 -623.283 8.51588 -496.224 -9.28412C-368.804 -26.5521 -219.711 -35.2331 -70.5397 -35.0941C78.9913 -35.0451 228.601 -26.1881 365.336 -10.5751C502.431 4.31687 626.652 25.9629 733.705 34.9779M-785.709 86.1219C-734.478 27.1119 -629.173 -9.11009 -501.408 -33.7801C-373.267 -58.0161 -222.666 -70.7011 -72.1708 -72.5881C78.7012 -74.6181 229.468 -65.8611 366.596 -50.5811C504.1 -36.0261 627.965 -14.9481 733.706 -9.04413M-787.988 92.1429C-739.13 21.8029 -634.012 -24.6001 -505.633 -56.4071C-376.861 -87.8991 -224.831 -104.793 -73.0967 -108.826C79.0313 -113.061 230.861 -104.445 368.266 -89.6561C506.065 -75.5911 629.438 -55.3531 733.705 -53.0531M-788.96 100.329C-742.624 18.8899 -637.796 -38.0001 -508.896 -77.1791C-379.586 -116.188 -226.204 -137.486 -73.3177 -143.773C79.9783 -150.333 232.778 -141.891 370.347 -127.755C508.324 -114.338 631.071 -95.2271 733.704 -97.0471M-786.973 122.273C-746.148 19.8069 -642.221 -58.8491 -512.551 -113.407C-382.435 -168.166 -226.577 -198.829 -71.6388 -209.922C83.7432 -221.461 238.205 -213.435 375.754 -201.116C513.748 -189.491 634.829 -173.573 733.699 -185.319M-788.628 110.434C-744.963 18.2619 -640.53 -49.3691 -511.2 -96.1251C-381.443 -142.881 -226.788 -168.762 -72.8359 -177.402C81.5431 -186.394 235.218 -178.151 372.834 -164.834C510.878 -152.227 632.863 -134.545 733.702 -141.026M732.937 477.882C732.908 699.261 732.889 921.286 732.879 1143.96M684.668 470.021C685.671 692.955 689.203 919.875 695.275 1145.07M635.379 462.596C637.812 687.373 645.199 918.939 657.532 1146.39M585.088 455.642C589.353 682.46 600.88 918.404 619.654 1147.85M533.83 449.176C540.32 678.144 556.259 918.175 581.652 1149.35M481.65 443.198C490.737 674.335 511.366 918.148 543.542 1150.8M428.604 437.687C440.647 670.925 466.229 918.202 505.342 1152.1M374.767 432.603C390.107 667.789 420.878 918.205 467.076 1153.15M320.222 427.879C339.172 664.78 375.356 918.013 428.771 1153.81M265.067 423.426C287.915 661.737 329.712 917.467 390.459 1153.96M209.413 419.131C236.414 658.479 284.002 916.4 352.177 1153.46M153.383 414.861C184.755 654.814 238.284 914.631 313.963 1152.17M97.114 410.462C133.039 650.532 192.621 911.973 275.864 1149.95M40.756 405.764C81.371 645.418 147.091 908.228 237.927 1146.62M-15.529 400.586C29.866 639.244 101.777 903.194 200.206 1142.04M-71.564 394.742C-21.349 631.786 56.7581 896.664 162.758 1136.03M-127.161 388.043C-72.139 622.811 12.13 888.43 125.644 1128.44M-182.119 380.309C-122.359 612.101 -32.0099 878.286 88.9301 1119.1M-236.223 371.373C-171.86 599.44 -75.5579 866.027 52.6851 1107.84M-289.244 361.092C-220.474 584.634 -118.397 851.458 16.986 1094.51M-340.942 349.348C-268.032 567.506 -160.415 834.394 -18.092 1078.94M-391.064 336.065C-314.353 547.908 -201.489 814.663 -52.465 1061M-439.342 321.209C-359.247 525.728 -241.483 792.11 -86.046 1040.55M-485.496 304.797C-402.514 500.888 -280.263 766.605 -118.744 1017.46M-529.234 286.9C-443.945 473.363 -317.688 738.039 -150.464 991.622M-570.251 267.649C-483.318 443.175 -353.605 706.335 -181.106 962.946M-608.225 247.232C-520.412 410.405 -387.857 671.445 -210.566 931.36M-673.712 203.922C-630.253 271.614 -574.505 367.637 -506.471 481.473C-438.436 595.065 -358.114 726.469 -265.505 859.282M-642.828 225.892C-598.907 301.197 -543.272 402.202 -475.923 518.44C-408.574 634.473 -329.512 765.739 -238.737 896.813M-265.229 859.677C-143.206 1043.8 25.657 1118.98 200.584 1142.6C376.644 1165.94 558.766 1147.94 733.448 1144.27M-302.886 804.798C-240.554 897.844 -164.886 964.71 -82.459 1010.2C0.0460129 1055.88 89.31 1080.19 180.639 1092.72C272.047 1105.26 365.52 1106.01 458.244 1104.61C551.046 1103 643.098 1099.24 733.468 1098.19M-337.86 752.281C-274.188 846.335 -196.073 914.232 -110.731 960.374C-25.3028 1006.74 67.3512 1031.36 162.081 1044.15C256.897 1056.95 353.788 1057.93 449.665 1057.15C545.628 1056.15 640.576 1053.41 733.487 1053.78M-371.527 700.39C-306.665 794.958 -226.208 863.611 -138.043 910.245C-49.783 957.14 46.1831 982.016 144.227 995.084C242.364 1008.17 342.58 1009.43 441.495 1009.39C540.505 1009.11 638.214 1007.51 733.505 1009.39M-403.889 649.361C-337.985 743.913 -255.291 813.017 -164.395 859.957C-73.397 907.194 25.804 932.267 127.075 945.611C228.449 958.975 331.894 960.605 433.733 961.378C535.675 961.894 636.01 961.553 733.522 965.013M-434.946 599.422C-368.148 693.397 -283.322 762.618 -189.786 809.657C-96.1399 857.029 6.21603 882.22 110.629 895.827C215.152 909.462 321.733 911.508 426.381 913.176C531.14 914.564 633.967 915.572 733.539 920.656M-464.697 550.796C-397.153 643.602 -310.299 712.579 -214.216 759.488C-118.013 806.768 -12.58 831.981 94.888 845.827C202.475 859.707 312.098 862.214 419.44 864.837C526.902 867.155 632.083 869.589 733.553 876.315M-493.143 503.697C-425.001 594.716 -336.226 663.062 -237.688 709.593C-139.02 756.533 -30.588 781.656 79.848 795.701C190.414 809.789 302.984 812.791 412.906 816.415C522.957 819.711 630.359 823.629 733.569 831.992M-520.283 458.329C-451.693 546.92 -361.101 614.225 -260.198 660.108C-159.157 706.44 -47.804 731.349 65.514 745.541C178.971 759.785 294.395 763.305 406.782 767.964C519.307 772.27 628.794 777.715 733.584 787.686M-546.118 414.886C-477.227 500.391 -384.923 566.221 -281.749 611.168C-178.426 656.605 -64.2309 681.159 51.8831 695.437C168.148 709.774 286.332 713.826 401.068 719.54C515.952 724.875 627.389 731.872 733.596 743.397M-570.647 373.551C-501.602 455.298 -407.693 519.198 -302.339 562.906C-196.825 607.143 -79.866 631.187 38.957 645.476C157.942 659.831 278.792 664.421 395.762 671.196C512.892 677.567 626.142 686.124 733.609 699.124M-593.871 334.493C-524.821 411.8 -429.41 473.297 -321.968 515.445C-214.356 558.163 -94.712 581.53 26.736 595.744C148.354 610.031 271.776 615.155 390.866 622.985C510.127 630.387 625.057 640.495 733.621 654.867M-615.79 297.868C-546.883 370.051 -450.077 428.655 -340.639 468.91C-231.019 509.771 -108.768 532.283 15.2172 546.327C139.383 560.45 265.283 566.095 386.378 574.963C507.655 583.375 624.129 595.01 733.633 610.627M-636.403 263.818C-567.789 330.191 -469.691 385.399 -358.349 423.414C-246.813 462.072 -122.032 483.537 4.40326 497.305C131.032 511.159 259.315 517.306 382.301 527.18C505.481 536.573 623.363 549.693 733.643 566.403M-673.842 203.72C-606.261 256.409 -505.889 303.232 -391.002 335.664C-275.897 368.802 -146.275 387.548 -15.18 400.416C116.132 413.374 248.916 420.442 375.35 432.196C502.002 443.418 622.302 459.326 733.661 477.674M-655.71 232.466C-587.536 292.356 -488.253 343.652 -375.099 379.069C-261.739 415.163 -134.507 435.38 -5.70679 448.761C123.298 462.23 253.871 468.853 378.632 479.691C503.598 490.022 622.754 504.569 733.652 522.196" stroke="#FFF9EB"/>
</g>
</g>
</svg>
