<svg width="1440" height="536" viewBox="0 0 1440 536" fill="none" xmlns="http://www.w3.org/2000/svg">
<g opacity="0.1">
<path d="M-378.398 629.388C-278.175 555.796 -116.938 435.351 39.2776 375.205C118.504 344.396 196.051 330.188 269.587 336.4C343.123 342.323 412.649 368.667 475.817 412.272C539.742 455.145 598.001 513.308 654.73 571.496C711.642 629.166 766.89 687.19 829.043 717.602C891.55 747.126 960.382 750.203 1052.73 676.772C1146.08 601.566 1260.86 452.237 1438.94 133.206M-386.299 620.327C-282.672 543.251 -119.386 415.137 38.9848 347.634C119.254 313.07 197.842 295.26 272.358 298.24C346.875 300.926 417.321 324.401 481.281 365.655C545.993 406.105 604.907 462.415 662.092 519.075C719.459 575.231 774.972 632.035 837.15 661.562C899.675 690.238 968.313 692.746 1060.04 619.941C1152.73 545.433 1266.51 397.911 1442.16 84.5575M-393.801 612.055C-287.085 531.15 -121.867 395.173 38.6229 320.077C119.92 281.653 199.55 260.142 275.061 259.814C350.569 259.19 421.959 279.749 486.726 318.629C552.244 356.633 611.829 411.094 669.476 466.255C727.305 520.923 783.078 576.553 845.269 605.259C907.799 633.148 976.218 635.167 1067.29 563.085C1159.29 489.37 1272.03 343.767 1445.23 36.1966M-400.943 604.51C-346.034 561.304 -277.111 504.95 -201.318 447.837C-125.575 390.943 -42.9627 333.289 38.1655 292.519C120.474 250.125 201.153 224.813 277.672 221.103C354.187 217.094 426.543 234.687 492.139 271.173C558.483 306.709 618.754 359.329 676.871 413.018C735.171 466.226 791.202 520.731 853.393 548.684C915.917 575.854 984.095 577.468 1074.48 506.205C1165.76 433.379 1277.42 289.809 1448.16 -11.8774M-407.766 597.642C-350.677 551.981 -280.801 492.666 -204.348 431.972C-127.945 371.53 -44.965 309.709 37.1787 264.853C120.244 218.261 202.341 189.051 280.233 182.133C358.123 174.87 431.806 189.898 497.978 223.777C565.513 257.299 626.021 307.676 684.305 359.412C742.742 410.67 798.84 463.604 861.142 491.06C923.747 517.706 992.057 519.892 1082.01 450.337C1172.81 379.212 1283.55 238.36 1450.93 -59.6645M-414.312 591.411C-356.396 543.615 -285.029 480.78 -207.781 416.325C-130.454 351.955 -47.0651 286.893 36.4765 237.159C120.076 187.102 203.747 153.028 282.685 142.654C361.748 131.746 435.909 144.702 503.349 175.412C571.81 206.438 632.97 254.991 691.691 305.296C750.56 355.138 806.883 407.025 869.185 433.876C931.779 459.948 999.873 461.957 1089.14 393.467C1179.21 323.472 1288.84 184.904 1453.55 -107.167M-420.627 585.786C-361.597 535.469 -289.424 469.325 -211.358 401.075C-133.22 332.915 -49.0048 263.569 35.5079 209.578C120.067 155.263 204.84 116.999 284.897 103C365.073 88.4463 440.355 98.3636 508.632 126.571C578.045 155.078 639.879 201.817 699.049 250.721C758.364 299.179 814.914 350.074 877.206 376.396C939.779 401.97 1007.64 403.899 1096.19 336.579C1185.51 267.82 1294 131.653 1456.01 -154.384M-426.754 580.749C-366.752 527.829 -293.865 458.298 -215.041 386.148C-136.153 314.097 -51.1359 240.346 34.3366 181.982C119.848 123.293 205.732 80.7258 286.929 63.0214C368.238 44.7377 444.67 51.5592 513.811 77.2437C584.201 103.209 646.733 148.141 706.364 195.678C766.138 242.783 822.919 292.746 885.196 318.617C947.742 343.769 1015.35 345.715 1103.16 279.676C1191.7 212.257 1299 78.6116 1458.32 -201.315M-432.742 576.29C-371.908 520.704 -298.391 447.71 -218.865 371.558C-139.282 295.515 -53.4925 217.236 32.9334 154.382C119.389 91.1983 206.397 44.2146 288.756 22.7162C371.218 0.617097 448.832 4.27844 518.826 27.5787C662.525 71.6599 769.593 206.719 893.098 260.723C955.651 284.787 1023.11 287.518 1109.97 222.991C1197.46 157.368 1304.37 24.4866 1460.46 -247.96M-438.636 572.412C-377.097 514.109 -303.035 437.579 -222.863 357.324C-142.643 277.189 -56.1027 194.258 31.2713 126.788C118.664 58.9887 206.811 7.46925 290.354 -17.9124C373.994 -43.9184 452.818 -43.4728 523.738 -22.7481C669.491 16.2397 777.531 149.01 900.999 202.324C963.515 226.153 1030.67 229.085 1116.75 166.048C1203.44 101.967 1309.05 -28.0821 1462.43 -294.319M-444.486 569.129C-382.368 508.074 -307.84 427.939 -227.072 343.477C-146.261 259.149 -58.9987 171.435 29.3206 99.2233C117.649 26.6794 206.949 -29.4988 291.7 -58.8577C376.541 -88.8653 456.609 -91.7004 528.486 -73.5765C676.356 -39.7382 785.414 90.8239 908.838 143.617C971.312 167.293 1038.16 170.528 1123.43 109.092C1209.29 46.6621 1313.56 -80.4385 1464.23 -340.39M-450.34 566.467C-387.76 502.635 -312.836 418.826 -231.526 330.054C-150.175 241.43 -62.2057 148.798 27.0536 71.7134C116.313 -5.70713 206.784 -66.6723 292.768 -100.107C378.837 -134.215 460.181 -140.401 533.05 -124.905C683.102 -96.2782 793.231 32.1622 916.604 84.5993C979.035 108.208 1045.56 111.851 1130 52.1272C1215 -8.54214 1317.92 -132.579 1465.86 -386.172M-456.247 564.467C-393.313 497.844 -318.073 410.289 -236.259 317.102C-154.414 224.076 -65.7582 126.387 24.4416 44.2902C114.633 -38.144 206.29 -104.031 293.534 -141.646C380.854 -179.958 463.512 -189.567 537.407 -176.729C689.709 -153.381 800.967 -26.9794 924.285 25.2744C986.673 48.9003 1052.86 53.0572 1136.45 -4.84389C1220.58 -63.6434 1322.11 -184.5 1467.31 -431.663M-462.254 563.18C-399.074 493.76 -323.577 402.394 -241.306 304.678C-159.008 207.141 -69.6826 104.246 21.4683 16.9887C112.601 -70.6097 205.484 -141.568 294.052 -183.475C382.692 -226.107 466.755 -239.207 541.716 -229.041C695.134 -211.314 809.725 -86.2193 931.92 -34.5073C994.039 -10.2682 1059.61 -6.21326 1142.79 -62.0389C1226.4 -118.984 1326.65 -234.456 1468.58 -476.862M-468.41 562.674C-404.441 490.013 -329.257 395.186 -246.738 292.869C-164.276 190.801 -74.1621 82.4247 17.9603 -9.94537C110.74 -103.795 204.383 -178.778 294.054 -225.301C383.698 -272.264 469.37 -290.767 545.604 -281.84C701.36 -269.497 817.308 -146.356 939.392 -94.4346C1001.46 -70.028 1066.67 -65.2199 1148.97 -119.002C1231.67 -173.849 1330.56 -285.989 1469.66 -521.764M-474.763 563.033C-410.702 487.521 -335.409 388.792 -252.52 281.725C-169.698 174.932 -78.9416 61.0196 14.1325 -36.82C107.86 -136.18 202.754 -216.5 293.755 -267.554C384.727 -319.065 471.806 -341.31 549.217 -335.1C707.386 -328.228 824.76 -206.979 946.791 -154.475C1008.44 -130.61 1073.81 -124.159 1155.03 -175.737C1236.7 -228.097 1334.22 -338.487 1470.55 -566.369M-481.359 564.356C-417.294 486.003 -341.942 383.299 -258.719 271.356C-175.57 159.712 -84.1883 40.0882 9.84101 -63.3939C104.521 -168.437 200.685 -254.261 293.048 -309.976C385.377 -366.167 473.906 -392.246 552.533 -388.803C713.199 -387.507 832.064 -268.051 954.009 -215C1015.6 -190.761 1080.61 -183.375 1160.92 -232.689C1241.66 -282.745 1337.71 -389.501 1471.24 -610.671M-488.242 566.761C-424.25 485.577 -348.89 378.818 -265.365 261.866C-181.922 145.237 -89.9281 19.7174 5.0569 -89.589C100.69 -200.499 198.146 -292.009 291.903 -352.523C385.622 -413.534 475.641 -443.549 555.527 -442.927C718.775 -447.317 839.203 -329.577 961.074 -275.809C1022.62 -251.112 1087.25 -242.682 1166.65 -289.622C1246.44 -337.264 1341 -440.276 1471.72 -654.667M-495.456 570.384C-431.603 486.383 -356.283 375.485 -272.488 253.378C-188.781 131.62 -96.1939 0.0104207 -0.122498 -115.529C95.8781 -231.467 195.288 -330.03 290.424 -395.379C385.708 -461.483 476.387 -494.263 558.177 -497.445C724.092 -507.644 846.159 -391.549 967.972 -336.892C1029.48 -311.653 1093.74 -302.073 1172.2 -346.529C1251.04 -391.648 1344.08 -490.805 1472 -698.353M-84.3078 1181.4C-102.526 1092.4 -86.901 1050.75 -55.9997 1027.56C-24.8096 1005.41 21.5134 1004.93 71.7005 1024.02C122.131 1043.12 176.412 1083.07 229.06 1141.04C281.885 1198.83 333.041 1274.63 381.254 1360.08C430.371 1444.84 475.569 1539.3 522.061 1628.3C568.615 1716.95 616.461 1800.16 672.332 1854.31C729.288 1906.6 794.355 1931.9 890.229 1866.21C938.563 1832.2 994.949 1774.66 1066.32 1675.31C1137.95 1575.58 1224.57 1434.04 1339.29 1223.42M-103.633 1131.32C-118.405 1049.37 -99.6545 1010.92 -66.215 989.208C-32.4669 968.506 15.883 967.748 67.7117 985.968C119.787 1004.18 175.331 1042.56 229.039 1098.89C282.923 1155.02 334.931 1229.07 383.931 1312.99C433.804 1396.16 479.724 1489.41 526.881 1577.41C574.103 1665.05 622.562 1747.44 679.012 1800.83C736.523 1852.31 802.096 1876.57 898.182 1809.88C946.611 1775.42 1003.01 1717.45 1074.18 1618.12C1145.58 1518.43 1231.76 1377.36 1345.42 1168.48M-122.611 1084.26C-133.812 1009.04 -111.951 973.358 -75.9958 952.806C-39.7159 933.227 10.6205 931.95 64.0666 949.124C117.759 966.263 174.551 1002.96 229.308 1057.55C284.238 1111.94 337.091 1184.16 386.961 1266.42C437.099 1348.22 484.244 1439.9 531.979 1526.77C579.925 1613.19 628.323 1695.27 685.782 1747.38C743.811 1797.97 809.86 1821.13 906.118 1753.5C954.624 1718.61 1011.02 1660.26 1081.95 1561.01C1153.12 1461.42 1238.82 1320.91 1351.4 1113.84M-141.187 1040.17C-148.016 971.189 -123.646 937.845 -85.3736 918.246C-46.852 899.569 5.57518 897.52 60.7542 913.39C116.178 929.214 174.345 964.005 229.888 1016.93C285.685 1069.58 338.828 1140.31 390.127 1220.43C441.011 1300.57 488.815 1390.81 537.165 1476.49C585.722 1561.71 634.684 1642.85 692.64 1693.96C751.156 1743.57 817.643 1765.6 914.037 1697.07C962.6 1661.77 1018.97 1603.09 1089.65 1503.99C1160.55 1404.56 1245.76 1264.69 1357.25 1059.5M-159.312 998.953C-162.407 935.933 -135 904.458 -94.2813 885.388C-53.3087 867.177 1.01943 864.172 57.7598 878.678C114.741 893.112 174.127 926.029 230.695 977.001C287.516 1027.7 341.492 1096.36 393.528 1174.88C445.148 1253.29 493.59 1342.03 542.531 1426.44C591.674 1510.39 641.169 1590.5 699.587 1640.54C758.555 1689.11 825.449 1709.99 921.939 1640.61C970.541 1604.92 1026.86 1545.96 1097.27 1447.06C1167.89 1347.85 1252.58 1208.71 1362.95 1005.47M-176.943 960.54C-176.269 902.978 -145.875 872.972 -102.754 854.138C-59.3753 836.094 -3.19779 831.921 55.0717 844.897C113.581 857.778 174.168 888.708 231.755 937.646C289.592 986.313 344.395 1052.86 397.154 1129.71C449.496 1206.34 498.564 1293.5 548.069 1376.59C597.776 1459.19 647.772 1538.19 706.622 1587.11C766.01 1634.59 833.275 1654.28 929.826 1584.12C978.447 1548.07 1034.7 1488.87 1104.81 1390.24C1175.12 1291.31 1259.28 1152.96 1368.51 951.742M-194.042 924.825C-189.594 872.197 -156.271 843.275 -110.799 824.387C-65.0701 806.22 -7.09287 800.674 52.6753 811.963C112.676 823.134 174.451 851.968 233.049 898.794C291.894 945.352 347.528 1009.74 400.994 1084.85C454.049 1159.63 503.726 1245.18 553.775 1326.87C604.023 1408.08 654.493 1485.89 713.743 1533.64C773.519 1579.99 841.123 1598.48 937.695 1527.59C986.315 1491.22 1042.49 1431.82 1112.27 1333.52C1182.26 1234.94 1265.86 1097.45 1373.94 898.319M-210.578 891.699C-202.372 843.465 -166.189 815.252 -118.425 796.03C-70.4035 777.463 -10.6782 770.35 50.5541 779.796C112.015 789.103 174.961 815.733 234.564 860.374C294.41 904.746 350.876 966.948 405.037 1040.24C458.798 1113.13 509.071 1197.02 559.643 1277.26C610.412 1357.01 661.329 1433.58 720.948 1480.13C781.081 1525.31 848.991 1542.58 945.545 1471.04C994.148 1434.37 1050.21 1374.83 1119.66 1276.92C1189.3 1178.74 1272.31 1042.19 1379.22 845.202M-226.526 861.042C-214.602 816.655 -175.635 788.795 -125.641 768.969C-75.3926 749.731 -13.9718 740.868 48.6935 748.322C111.581 755.619 175.684 779.939 236.287 822.32C297.128 864.431 354.428 924.405 409.272 995.814C463.732 1066.77 514.592 1148.95 565.667 1227.7C616.938 1305.95 668.275 1381.22 728.235 1426.55C788.697 1470.53 856.878 1486.6 953.378 1414.47C1001.94 1377.53 1057.88 1317.9 1126.97 1220.44C1196.23 1122.72 1278.65 987.169 1384.38 792.39M-241.866 832.727C-226.283 791.643 -184.622 763.792 -132.462 743.105C-80.0554 722.94 -16.9901 712.147 47.0731 717.468C111.352 722.611 176.6 744.518 238.198 784.568C300.03 824.342 358.169 882.05 413.686 951.519C468.842 1020.49 520.277 1100.93 571.839 1178.15C623.598 1254.86 675.329 1328.81 735.601 1372.89C796.362 1415.66 864.781 1430.53 961.191 1357.87C1009.7 1320.71 1065.49 1261.04 1134.19 1164.08C1203.07 1066.88 1284.86 932.4 1389.39 739.884M-256.583 806.629C-237.418 768.309 -193.154 740.145 -138.899 718.347C-84.4061 697.01 -19.7514 684.121 45.6775 687.168C111.314 690.019 177.694 709.414 240.283 747.059C303.102 784.424 362.085 839.825 418.269 907.302C474.117 974.248 526.122 1052.92 578.156 1128.57C630.385 1203.72 682.49 1276.3 743.045 1319.13C804.078 1360.68 872.703 1374.37 968.984 1301.27C1017.42 1263.91 1073.04 1204.24 1141.34 1107.85C1209.81 1011.23 1290.95 877.879 1394.27 687.681M-270.671 782.614C-248.017 746.534 -201.247 717.752 -144.973 694.608C-88.4658 671.868 -22.2767 656.719 44.4863 657.357C111.448 657.783 178.946 674.565 242.527 709.737C306.33 744.619 366.162 797.675 423.009 863.111C479.548 927.994 532.116 1004.86 584.608 1078.93C637.293 1152.49 689.75 1223.68 750.563 1265.25C811.84 1305.58 880.641 1318.12 976.755 1244.64C1025.09 1207.12 1080.53 1147.52 1148.41 1051.75C1216.45 955.759 1296.92 823.61 1399.02 635.783M-284.124 760.551C-258.091 726.206 -208.917 696.519 -150.698 671.804C-92.2537 647.441 -24.5847 629.877 43.4802 627.978C111.735 625.849 180.343 639.919 244.91 672.545C309.696 704.873 370.386 755.547 427.889 818.894C485.121 881.678 538.25 956.728 591.187 1029.19C644.318 1101.14 697.107 1170.92 758.151 1211.25C819.648 1250.36 888.592 1261.77 984.503 1188C1032.73 1150.37 1087.96 1090.87 1155.39 995.782C1222.98 900.48 1302.77 769.592 1403.62 584.187M-296.944 740.309C-267.653 707.214 -216.182 676.356 -156.094 649.858C-95.7939 623.663 -26.6948 603.538 42.6398 598.972C112.157 594.165 181.862 605.424 247.417 635.436C313.186 665.139 374.741 713.392 432.904 774.607C490.828 835.26 544.516 908.469 597.888 979.308C651.454 1049.64 704.556 1118.01 765.807 1157.1C827.499 1195 896.555 1205.32 992.226 1131.35C1040.32 1093.63 1095.33 1034.29 1162.3 939.946C1229.41 845.39 1308.49 715.825 1408.1 532.892M-309.14 721.758C-276.721 689.455 -223.061 657.179 -161.185 628.696C-99.1063 600.474 -28.6315 577.644 41.9429 570.288C112.692 562.678 183.486 571.032 250.032 598.36C316.783 625.368 379.215 671.159 438.036 730.205C496.658 788.695 550.904 860.048 604.701 929.258C658.694 997.967 712.092 1064.91 773.528 1102.78C835.389 1139.51 904.528 1148.78 999.922 1074.68C1047.87 1036.93 1102.63 977.801 1169.11 884.245C1235.74 790.492 1314.09 662.31 1412.44 481.897M-320.72 704.773C-285.314 672.832 -229.572 638.907 -165.99 608.25C-102.214 577.814 -30.4148 552.141 41.3707 541.867C113.321 531.328 185.197 536.663 252.735 561.2C320.472 585.403 383.794 628.634 443.282 685.371C502.556 742.757 557.391 811.53 611.629 878.844C666.065 945.543 719.736 1011.31 781.308 1048.28C843.298 1084.12 912.445 1092.73 1007.58 1018.07C1055.38 980.151 1109.92 920.879 1175.94 827.978C1242.08 734.896 1319.7 608.186 1416.64 431.201M-331.701 689.233C-293.456 657.253 -235.747 621.468 -170.536 588.457C-105.143 555.635 -32.0704 526.988 40.8969 513.687C114.018 500.111 186.971 502.35 255.501 524.066C324.225 545.436 388.442 586.131 448.593 640.635C508.633 695.727 563.992 762.674 618.632 828.369C673.467 893.462 727.417 957.811 789.139 993.604C851.268 1028.3 920.451 1035.94 1015.22 961.365C1111.22 884.549 1230.11 728.563 1420.7 380.8M-342.101 675.023C-300.91 642.207 -241.408 604.332 -174.728 568.971C-107.884 533.763 -33.6961 502.355 40.3997 486.027C114.634 469.434 188.71 468.33 258.33 486.798C328.128 504.948 393.39 542.509 454.113 595.118C515.034 647.458 570.799 713.063 625.736 777.576C680.855 841.525 734.987 904.834 796.877 939.332C859.151 972.806 928.5 978.872 1023.03 903.832C1118.7 826.726 1237.08 671.278 1424.63 330.697M-351.943 662.032C-308.388 628.521 -247.106 588.413 -178.908 550.348C-110.554 512.414 -35.1157 477.746 40.1245 458.154C115.498 438.29 190.604 433.917 261.172 449.447C331.915 464.642 398.029 499.598 459.486 549.894C521.137 599.905 577.511 663.648 632.896 726.552C688.46 788.902 742.883 850.838 804.865 884.241C867.224 916.652 936.484 921.874 1030.52 847.107C1125.66 770.349 1243.2 616.265 1428.42 280.887M-361.254 650.158C-315.493 615.65 -252.546 573.141 -182.908 532.222C-113.121 491.414 -36.4797 453.361 39.8814 430.398C116.37 407.152 192.503 399.414 264.025 411.934C335.72 424.103 402.706 456.405 464.905 504.365C527.3 552.02 584.292 613.901 640.121 675.212C696.132 735.983 750.838 796.576 812.894 828.929C875.318 860.326 944.463 864.766 1037.97 790.355C1132.55 714.026 1249.21 561.418 1432.06 231.368M-370.061 639.305C-273.56 568.8 -114.491 455.836 39.5283 402.811C117.69 375.647 194.2 364.942 266.768 374.316C339.335 383.401 407.959 412.566 470.354 458.5C533.506 503.775 591.125 563.796 647.404 623.534C703.863 682.743 758.843 742.032 820.956 773.387C883.429 803.82 952.43 807.543 1045.37 733.576C1139.35 657.764 1255.1 506.741 1435.57 182.142" stroke="#FFF9EB" stroke-miterlimit="10"/>
</g>
</svg>
