<svg width="1376" height="688" viewBox="0 0 1376 688" fill="none" xmlns="http://www.w3.org/2000/svg">
<path d="M977.248 -4.55884C988.607 -16.3324 1001.03 -27.034 1014.35 -36.5278C1054.94 -65.586 1102.88 -81.8507 1149.18 -97.5463C1193.41 -112.61 1235.21 -126.712 1269.1 -150.817C1301.17 -173.843 1312.39 -196.017 1302.45 -216.757M186.414 733.096L186.208 733.61L186.262 734.056C186.395 735.265 185.746 736.331 185.126 737.528C184.602 738.623 184.176 739.763 183.851 740.934C181.253 768.668 189.816 791.921 199.698 819.004C204.263 831.295 208.894 843.854 212.833 858.004C215.8 868.536 217.772 878.585 219.642 888.226C223.95 910.181 228.041 930.831 242.119 953.3C243.738 955.746 245.508 958.088 247.418 960.312C262.241 977.515 286.349 983.557 313.779 976.978C349.282 968.56 380.808 941.732 387.348 914.741C388.8 908.86 389.65 899.022 389.321 891.359C387.656 847.087 363.784 791.016 329.976 751.779C311.961 730.871 283.188 705.346 248.586 702.548C226.971 700.644 199.199 707.688 186.415 733.096M180.118 662.659C135.118 673.677 125.757 714.61 131.616 746.403C134.403 761.846 140.408 780.454 146.707 799.974C152.022 816.539 157.399 833.369 161.892 850.983C166.201 867.907 168.845 883.473 171.306 898.538C176.945 932.162 182.3 964.049 205.933 1002.16L205.97 1002.3L206.052 1002.39C225.776 1024.71 258.516 1027.89 282.54 1026.68C338.2 1023.64 402.536 994.143 425.826 960.694C440.664 939.484 443.235 914.805 442.782 897.861C440.832 829.492 404.544 753.895 370.968 705.674C327.052 655.471 246.838 637.546 180.118 662.659M173.859 536.1C188.167 535.174 200.669 528.823 206.92 518.84L207.106 518.175C207.495 515.951 207.729 513.702 207.806 511.445C207.872 509.084 208.099 506.729 208.485 504.398L208.653 503.908L208.335 503.343C201.456 489.875 187.121 481.662 170.792 481.613C156.882 481.531 143.416 487.352 135.034 497.114L134.534 497.721L134.576 498.541C134.879 499.969 134.109 501.329 133.311 502.851C132.306 504.917 131.052 507.183 131.617 510.092C132.664 514.977 134.924 519.521 138.19 523.303C145.932 532.287 159.326 537.059 173.859 536.1M394.189 216.965C365.537 261.744 343.749 295.121 367.148 334.386C367.148 334.386 374.216 345.072 378.073 349.55C419.279 397.371 476.129 376.434 521.703 359.413L528.611 357.114C533.807 355.121 539.11 353.54 544.03 351.8C554.597 348.496 564.658 345.464 573.108 340.191C608.452 318.353 648.051 260.013 630.105 229.157C628.921 227.163 627.568 225.274 626.062 223.511C608.41 203.025 567.861 197.798 535.408 193.564C531.582 193.038 527.886 192.57 524.33 191.977C475.147 185.231 425.341 183.493 394.189 216.965M411.18 148.496C370.323 157.928 345.496 214.845 342.864 221.41C322.717 269.842 304.847 324.251 325.448 361.862C328.762 367.864 332.722 373.485 337.257 378.627C362.024 407.371 408.234 432.998 452.211 442.225C464.839 444.88 480.85 444.317 497.782 443.776C505.981 443.482 514.535 443.218 523.033 443.174C535.534 443.301 546.642 444.477 557.341 445.667C577.753 447.916 595.44 449.87 612.443 442.16L612.673 441.963L612.856 441.806C642.873 423.983 645.965 388.309 655.709 358.758C660.949 342.838 666.405 326.408 673.786 311.448C679.33 300.071 686.298 289.109 693.012 278.52C706.433 257.033 720.512 235.001 724.012 208.681L723.923 208.102C722.285 201.096 718.945 194.602 714.198 189.196C711.39 185.982 708.19 183.133 704.674 180.714C689.375 170.102 627.344 157.936 520.377 144.647C471.49 138.676 437.758 139.815 411.18 148.496M733.58 115.009C717.604 119.195 701.009 123.424 683.659 124.685C647.385 126.9 608.525 119.458 570.724 112.105C551.29 108.391 531.133 104.468 511.563 102.036C476.434 97.4852 411.886 93.038 373.688 112.432C364.345 117.172 356.749 124.713 349.558 132.058C345.041 136.61 340.682 140.872 336.435 144.025L336.112 144.304L335.908 144.649C324.484 168.193 312.656 194.215 301.365 219.624C288.969 246.795 276.464 275.075 264.271 299.437C255.871 316.409 247.177 342.551 268.846 373.214C270.936 376.199 273.395 379.35 276.011 382.386C290.374 399.055 308.949 412.245 328.579 426.181C346.744 439.084 365.534 452.429 382.032 469.388C392.455 480.058 399.833 492.995 407.731 506.82C412.37 514.867 417.318 523.463 422.767 531.319C426.817 537.054 430.532 541.948 434.125 546.118C454.521 569.788 469.819 570.795 499.552 570.592C620.971 569.91 691.229 518.127 708.431 416.845C709.87 408.34 710.901 399.362 711.834 390.649C713.099 377.663 714.545 364.222 717.649 352.133C727.323 315.433 748.508 286.767 768.942 258.941C790.45 229.507 810.965 201.776 817.994 166.189C821.114 150.791 819.463 129.762 808.777 117.36C803.637 111.395 796.857 107.996 788.706 107.095C771.439 105.313 752.959 110.017 733.58 115.009M1062.67 -196.405L1062.24 -197.394C1061.7 -198.794 1061.26 -200.456 1060.72 -202.049C1059.78 -205.152 1058.9 -208.489 1056.46 -211.321C1055.55 -212.383 1054.48 -213.298 1053.29 -214.035L1053.03 -214.157C1005.58 -231.676 964.66 -194.734 934.26 -160.704L933.879 -160.376L933.851 -159.831C933.637 -158.635 933.109 -157.323 932.696 -155.78C931.412 -151.784 929.808 -146.809 933.259 -142.805C934.04 -141.907 934.972 -141.151 936.012 -140.573L936.571 -140.213L937.17 -140.384C941.228 -141.161 945.211 -142.026 949.317 -142.844C990.33 -151.274 1036.78 -160.808 1062.04 -195.694L1062.67 -196.405M1345.47 67.705C1338.69 47.2846 1323.97 36.902 1302.57 37.2665C1264.25 37.8222 1211.85 73.7726 1192.54 98.1101C1175.15 119.612 1167.95 156.277 1186.8 178.161C1191.28 183.354 1196.97 187.471 1203.98 190.633C1240.32 204.819 1283.54 181.121 1309.45 156.477C1339.73 127.534 1353.91 92.7247 1345.47 67.705M1126.45 -225.485C1107.34 -247.664 1063.1 -263.986 1027.63 -261.91C962.25 -249.037 910.26 -204.583 866.438 -163.821C842.855 -133.164 838.744 -103.482 855.459 -84.0842C871.108 -65.9228 900.433 -62.0476 930.099 -74.2871C938.819 -77.8148 951.26 -84.3716 965.594 -91.8824C980.931 -99.9459 998.358 -109.128 1016.04 -117.033C1027.1 -122.229 1038.09 -126.379 1048.63 -130.463C1067.79 -137.816 1085.81 -144.857 1103.43 -156.197C1123.48 -168.814 1134.57 -182.364 1136.45 -196.317C1137.85 -206.338 1134.52 -216.122 1126.45 -225.485M1405.22 113.051C1415.01 82.7603 1416.51 39.9009 1391.03 10.3343C1389.03 8.02709 1386.91 5.82291 1384.68 3.73021C1317.02 -58.0241 1200.4 14.2934 1136.67 63.0817C1084.92 118.614 1085.78 218.725 1138.56 281.701L1138.65 281.799C1165.28 311.182 1194.77 320.722 1226.4 310.356C1252.42 301.67 1294.65 283.497 1313.89 271.228C1325.54 263.685 1345.59 244.078 1351.46 234.395C1368.25 207 1392.31 152.49 1405.22 113.051M1191.9 -219.712C1189.56 -223.558 1186.9 -227.196 1183.93 -230.584C1159.82 -258.56 1113.87 -278.65 1081.26 -285.545C984.598 -305.903 893.661 -227.038 844.929 -184.726C822.453 -168.329 806.106 -137.009 802.309 -102.733C799.24 -74.8741 805.379 -49.6526 819.234 -33.5728C827.27 -24.2463 837.608 -18.0591 850.051 -14.8573C889.494 -4.89524 927.563 -30.2462 967.752 -57.2322C985.298 -68.8729 1003.44 -80.8682 1022.19 -90.5551C1046.51 -102.888 1071.75 -111.696 1094.2 -119.272C1111.94 -125.442 1128.78 -131.327 1142.41 -138.09C1163.82 -148.577 1190.6 -165.693 1197.02 -187.964C1200.04 -198.362 1198.43 -209.087 1191.9 -219.712M1390.01 228.5C1395.63 203.325 1405.19 178.894 1414.45 155.372C1422.92 133.683 1430.96 113.215 1434.85 94.4957C1442.1 60.6363 1433.09 26.086 1410.36 -0.287782C1386.41 -28.0928 1351.58 -42.7039 1314.51 -40.5173C1268.54 -37.7797 1184.21 -1.29764 1139.57 29.5448C1125.58 39.2982 1116.96 49.1973 1109.44 57.9937C1106.63 61.3966 1103.98 64.5132 1100.99 67.6013C1051.33 139.465 1073.57 257.345 1123.73 329.839C1128.51 336.755 1133.65 343.418 1139.12 349.802C1169.69 385.28 1199.72 394.612 1233.42 378.789C1240.06 375.731 1246.98 370.256 1254.34 364.407C1260.01 360.032 1265.8 355.532 1272.02 351.499C1286.71 341.985 1303.38 334.39 1318.05 327.709C1329.39 322.391 1339.22 317.899 1346.02 313.51C1379.13 292.428 1382.44 272.376 1386.54 247.028C1387.49 241.099 1388.58 235.031 1390.01 228.5M1247.98 -208.912L1247.93 -209.355L1247.69 -209.635C1243.83 -214.221 1240.36 -218.804 1237.05 -223.21C1233.47 -228.033 1230.09 -232.527 1226.42 -236.787C1223.63 -240.113 1220.56 -243.196 1217.25 -246.003C1179.24 -278.164 1113.41 -304.952 1064.07 -308.238C986.321 -313.382 913.267 -265.266 858.397 -222.609C803.921 -180.442 773.204 -137.832 766.878 -96.1303C764.263 -78.3922 768.07 -59.2705 771.618 -40.9235C775.545 -21.0816 779.208 -2.32883 775.634 14.5825C763.147 73.1327 683.868 94.4819 634.364 90.5304C620.322 88.4633 605.683 86.0819 590.007 83.4459C511.439 70.4285 422.334 55.6151 359.793 80.846C337.267 89.8833 321.174 106.21 313.629 115.193C300.465 130.649 292.936 149.99 284.845 170.304C276.17 192.759 267.016 215.811 249.861 235.364C237.65 249.176 224.21 257.957 209.859 261.602C193.901 265.469 176.621 262.393 158.258 259.107C129.98 253.987 100.577 248.689 76.1584 271.871L75.7735 272.372C68.8102 286.772 55.2832 323.626 80.8586 353.307C83.9614 356.892 87.4249 360.149 91.1943 363.026C104.265 373.167 120.637 374.714 139.665 376.603C145.664 377.199 151.878 377.77 158.291 378.668C210.217 385.81 263.667 412.743 308.509 454.161C314.14 459.426 319.467 465.007 324.465 470.876C336.852 485.252 347.199 500.391 350.623 509.296C350.966 509.979 376.88 578.094 327.097 602.371C320.12 605.752 307.804 607.963 300.563 609.425C283.6 612.505 263.747 614.128 242.911 615.939C200.933 619.488 157.449 623.187 130.006 638.768C90.41 661.031 91.518 702.905 95.7517 725.937C99.3616 745.399 106.524 768.224 114.138 792.617C120.073 811.553 126.314 831.223 131.527 851.596C137.304 874.131 141.288 897.549 145.154 920.249C148.823 942.625 152.339 963.97 157.574 982.851C158.329 985.814 159.042 988.823 159.761 991.662C163.259 1005.95 166.768 1020.56 179.232 1035.02C184.549 1041.12 190.624 1046.51 197.311 1051.07C237.58 1079.12 286.755 1061.63 334.264 1044.58L349.81 1039.09C384.336 1026.8 414.156 1016.26 433.858 1003.07C495.127 962.625 481.664 899.285 471.798 852.927L471.253 850.113C467.359 831.554 461.155 809.556 455.203 788.324C448.633 764.669 441.693 740.014 438.074 720.731L437.92 719.699C432.916 693.212 428.717 670.315 465.443 647.39C486.527 634.01 513.932 628.346 542.955 622.282C583.526 613.685 625.645 604.892 656.835 574.403C668.207 560.471 678.031 550.539 688.98 542.082C729.716 499.241 740.303 455.371 751.476 408.671C755.689 390.889 760.194 372.497 766.461 353.59C779.067 315.383 799.079 282.166 818.479 250.136C845.308 205.764 872.948 159.869 880.765 100.926C881.494 94.8462 881.998 88.981 882.315 83.2778C883.832 64.8335 885.12 49.0633 896.548 35.1024C921.816 4.76024 944.483 -12.9488 986.638 -43.5172C1025.23 -71.491 1066.12 -87.2979 1101.51 -99.8243C1108.79 -102.474 1116.23 -104.932 1123.64 -107.529C1154.16 -117.841 1185.7 -128.562 1212.47 -146.35C1241.74 -165.795 1253.04 -185.59 1247.98 -208.912M1421.39 258.92C1420.52 243.165 1419.64 226.918 1421.88 211.441C1425.12 188.666 1433.01 169.161 1441.44 148.687C1448.84 130.255 1456.64 111.328 1461.06 89.3436C1467.77 55.1711 1457.7 20.2623 1432.63 -8.82816C1407.73 -37.7319 1370.18 -57.7184 1336.84 -59.8682C1308.42 -61.6361 1269.11 -48.7353 1257.79 -44.7533C1190.46 -21.0799 1144.33 -0.487574 1116.97 18.4727C1110.66 22.759 1100.88 31.679 1093.78 38.7747C1011.2 147.411 1049.74 303.751 1128.09 395.917C1128.65 396.574 1129.14 397.137 1129.8 397.904C1164.82 438.552 1213.12 443.985 1265.77 413.163C1274.53 407.916 1283.21 402.095 1291.56 396.38C1306.65 386.192 1321.02 376.613 1336.26 370.416C1340.94 368.525 1346.76 366.809 1352.82 364.899C1377.16 357.459 1410.41 347.137 1418.64 316.439C1423.51 298.208 1422.49 278.278 1421.39 258.92M1427.79 391.045C1459.37 377.373 1464.85 354.823 1463.2 325.23C1462.22 306.779 1458.46 289.877 1455.04 273.531C1450.28 251.738 1445.9 231.252 1447.74 208.554C1449.4 188.801 1458.27 168.461 1467.49 146.829C1474.86 129.415 1482.58 111.547 1486.45 93.694C1493.95 59.0223 1480.74 18.7653 1450.31 -16.5453C1413.11 -59.7208 1360.81 -83.7929 1316.99 -77.8717C1304.68 -76.1725 1286.7 -71.7423 1266.24 -65.3336C1223.73 -51.8001 1163.27 -29.2333 1123.93 -9.35523C1111.11 -2.92505 1082.42 19.8035 1065.97 36.4603L1065.77 36.8061C1034.46 89.0246 1016.9 168.329 1020.9 238.793C1023.89 294.284 1055.9 341.612 1086.74 387.295C1096.64 402.024 1106.88 417.131 1115.88 432.145L1116.04 432.329L1120.14 436.231C1141.54 456.222 1167.92 480.846 1204.5 477.542C1225.02 475.684 1248.84 461.279 1274.11 446.094C1294.45 433.85 1315.57 421.264 1337.86 412.791C1355.23 406.233 1371.17 403.71 1386.53 401.191C1401.15 398.832 1414.99 396.637 1427.79 391.045M1302.45 -216.757C1300.69 -220.154 1298.53 -223.328 1296.02 -226.211C1278.91 -246.057 1238.89 -266.896 1219.74 -276.903C1172.18 -301.636 1120.19 -325.829 1053.56 -325.387C965.73 -324.967 845.766 -247.453 777.426 -174.904C741.176 -136.254 724.2 -92.9731 725.527 -42.5844C726.748 3.79383 710.301 33.9344 676.394 46.8475C652.44 56.1354 622.089 52.3075 589.842 47.9867C573.371 46.0404 556.176 43.7267 539.12 43.2825C533.226 43.0819 527.161 42.8723 520.924 42.6538C452.458 40.2153 367.16 37.3092 324.045 62.7734C296.201 79.0252 280.075 104.606 264.505 129.22C256.031 142.625 248.076 155.398 238.403 166.368C208.989 199.956 181.883 195.153 150.594 189.667C136.583 187.255 121.921 184.562 106.482 185.521C79.5879 187.127 61.8888 198.919 42.8225 213.038C4.65519 251.359 5.67745 362.291 44.6388 407.603C49.7698 413.68 55.9591 418.778 62.907 422.65C84.9198 434.811 108.719 432.079 133.985 429.246C155.699 426.843 178.158 424.453 200.995 431.133C226.23 438.696 255.358 457.895 273.678 479.155C283.775 490.874 295.367 508.88 292.935 527.767C291.164 540.995 282.663 552.756 267.807 562.927C241.952 580.265 204.787 587.583 178.103 590.666C168.5 591.853 158.376 591.675 147.642 591.548C130.864 591.333 113.575 591.091 98.1076 596.19C81.7373 601.557 69.8003 611.523 62.7059 625.865C43.8948 663.98 64.3186 723.444 71.0429 743.009C73.7368 750.404 76.223 757.653 78.7018 764.893C89.4078 795.529 99.6469 824.581 107.761 856.288C114.629 883.135 118.747 912.197 122.631 940.133C127.7 975.61 132.782 1012.24 143.741 1044.78C147.72 1056.52 153.296 1066.69 160.467 1075.01C189.452 1108.65 235.575 1104.31 260.545 1098.77C269.276 1096.84 285.168 1090.07 305.414 1081.69C319.119 1075.97 334.638 1069.51 350.577 1063.35C365.245 1057.79 379.097 1053.76 392.328 1049.77C421.759 1041.05 449.519 1032.76 482.428 1009.68C524.442 980.567 525.754 929.54 525.18 914.551C523.952 884.48 515.912 853.049 508.703 825.333C502.531 801.664 496.706 779.348 496.092 761.278C494.987 735.049 498.565 705.624 533.071 685.438C546.251 677.874 558.44 674.947 571.391 671.861M1860.94 174.715C1861.69 170.512 1860.1 165.66 1856.67 161.676C1853.86 158.417 1850.15 156.283 1846.74 155.645C1840.27 154.465 1835.58 160.109 1832.65 164.6L1832.26 165.279L1832.63 166.22C1833 167.663 1833.72 168.995 1834.72 170.101C1834.73 170.375 1834.76 170.649 1834.8 170.921C1834.69 173.811 1835.71 176.631 1837.65 178.78C1838.09 179.29 1838.76 179.97 1839.33 180.532L1839.84 180.805C1847.8 183.723 1857.75 183.348 1860.91 175.102L1860.94 174.715M1643.78 -145.171C1628.5 -164.958 1603.44 -169.922 1583.62 -171.835L1583.09 -171.87L1582.66 -171.677C1576.34 -168.414 1569 -163.608 1568.88 -155.11C1570.39 -138.749 1575.91 -124.69 1584.72 -114.466C1585.14 -113.981 1585.56 -113.497 1585.98 -113.013C1605.53 -91.8734 1634.09 -89.9219 1647.56 -101.355C1658.93 -110.82 1657.52 -127.256 1643.78 -145.171M1911.87 135.647C1891.32 115.065 1860.07 102.197 1832.31 102.813C1811.74 103.208 1794.31 110.897 1781.42 125.01C1764.57 146.188 1770.65 181.736 1796.09 211.267C1814.7 232.861 1839.38 245.902 1863.59 246.847C1890.19 248.067 1912.63 235.888 1923.65 214.409C1935.9 190.686 1931.65 161.393 1911.87 135.647M1712.47 -108.744C1710.95 -123.491 1702.13 -140.257 1686.24 -158.695C1647.98 -203.097 1582.74 -242.296 1556.23 -248.937C1527.48 -255.969 1505.02 -250.034 1480.92 -229.091L1480.62 -228.841C1466.97 -209.624 1468.78 -185.999 1486.15 -158.725C1491.84 -149.718 1499.47 -139.722 1508.89 -128.789C1540.76 -91.8044 1590.75 -48.0878 1614.47 -42.1918C1635.04 -37.0548 1670.04 -43.5223 1693.09 -63.3835C1707.51 -75.9683 1714.19 -91.6673 1712.47 -108.744M1766.47 -80.6417L1766.63 -81.1198C1769.5 -97.3075 1759.76 -117.998 1736.79 -144.654C1716.35 -168.367 1689.4 -192.09 1669.61 -209.416C1664.65 -213.737 1660.11 -217.764 1656.15 -221.299C1651.74 -225.269 1647.38 -229.279 1642.97 -233.248C1608.05 -264.968 1575.04 -294.868 1550.78 -300.913C1499.72 -313.944 1449.44 -276.741 1416.1 -243.375L1415.72 -243.048C1414.92 -241.696 1414.17 -240.068 1413.31 -238.677C1407.29 -228.52 1400.42 -216.986 1401.19 -203.264L1401.25 -202.819C1405.93 -191.64 1414.61 -178.792 1428.02 -163.232C1447.39 -140.753 1473.46 -116.432 1498.66 -93.0212C1507.41 -84.8715 1515.97 -76.8586 1524.09 -69.1496C1564.41 -30.671 1594.62 -9.59582 1616.55 -4.52464C1659.89 5.40408 1710.27 -20.1434 1766.22 -80.2586L1766.47 -80.6416M1957.92 -94.3799C1977.82 -105.373 2009.82 -101.158 2024.2 -86.0376C2023.92 -74.5093 2014.82 -68.7175 2007.09 -65.819C1985.86 -58.1304 1954.86 -63.5455 1946.32 -73.4493C1944.55 -75.5093 1943.79 -77.7612 1944.09 -80.0621C1944.84 -84.4773 1949.56 -89.5775 1957.92 -94.3799M1912.35 -123.601C1917.8 -126.163 1923.06 -129.094 1928.11 -132.373C1967.06 -144.489 2043.72 -143.601 2099.27 -130.314C2116.28 -126.356 2131.39 -118.285 2139.61 -108.746C2150.46 -96.1588 2149.53 -81.7461 2136.99 -65.7846C2103.1 -22.464 1946.36 -5.8763 1900.96 -40.6814C1895.96 -44.4022 1891.36 -48.6231 1887.22 -53.2785C1868.17 -75.3916 1879.63 -93.0824 1889.58 -108.312C1895.99 -115.325 1903.91 -119.329 1912.35 -123.601M1823.11 -99.3233C1855.85 -128.863 1908.63 -164.913 1975.26 -168.492C1992.02 -169.353 2010.78 -167.795 2030.64 -166.033C2043.94 -164.906 2057.73 -163.692 2071.12 -163.314C2078.38 -163.1 2085.78 -163.191 2092.92 -163.392C2109.51 -163.597 2125.17 -163.838 2138.82 -160.205C2153.35 -156.32 2165.92 -148.601 2175.42 -137.581C2198.84 -110.397 2198.16 -69.398 2173.72 -44.5269C2144.84 -15.1788 2066.57 4.07645 2004.1 7.88461C1948.74 11.3704 1868.97 -10.9894 1831.63 -54.3286C1828.87 -57.4978 1826.34 -60.852 1824.04 -64.3677C1815.98 -76.7834 1815.74 -87.1758 1823.11 -99.3233M1707.64 9.47525C1680.51 26.2641 1652.39 43.411 1621.45 38.3154C1594.69 33.9032 1569.47 7.57726 1545.21 -17.9224C1540.86 -22.3987 1536.56 -26.9183 1532.24 -31.2658C1468.26 -96.4224 1394.72 -161.571 1334.65 -150.119C1306.14 -144.811 1279.58 -131.634 1251.35 -117.841C1230.51 -107.614 1209.05 -96.861 1185.7 -89.0732C1173.11 -84.8137 1160.46 -80.8208 1148.18 -77.1484C1112.48 -66.1415 1078.76 -55.6861 1051.4 -37.8553C976.206 11.1324 967.129 55.9719 957.477 103.462C954.397 118.282 951.322 133.772 945.859 149.334C936.953 175.777 924.645 199.052 912.657 221.549C904.416 237.206 895.84 253.328 888.237 270.579C882.393 287.122 877.413 304.572 872.65 321.517C865.012 347.355 857.297 374.243 846.408 398.584C832.623 429.236 815.735 458.752 793.302 491.409C777.808 513.82 761.73 534.415 746.114 554.124C713.015 596.306 681.629 636.02 663.759 686.298L661.523 692.996C649.253 728.251 639.451 755.939 588.072 787.051L587.66 787.237L587.51 787.536C570.461 811.935 573.962 841.504 577.437 870.273C579.42 886.999 581.49 904.287 579.586 920.568C573.542 971.865 548.151 1011.52 504.019 1038.34C482.993 1051.2 454.697 1057.8 424.839 1064.78C403.482 1069.68 381.511 1074.8 362.128 1082.45C342.517 1090.13 323.752 1100.87 305.576 1111.26C285.766 1122.41 267.14 1133.02 249.107 1139.02C218.638 1148.99 163.165 1160.74 134.766 1127.79C131.846 1124.38 129.304 1120.67 127.184 1116.71C112.797 1089.95 111.521 1052.55 110.255 1016.28C109.65 999.364 109.059 983.412 107.228 968.865C99.8721 910.55 86.7642 833.8 51.7139 759.178C45.6627 746.466 38.77 733.632 32.1193 721.267C19.7426 698.369 7.10649 674.696 -1.42585 649.138C-11.3465 619.526 -9.54067 589.005 -7.47881 553.66C-6.80074 541.552 -6.09508 529.096 -5.72727 515.774C-4.84908 479.815 -8.05151 442.912 -11.154 407.251C-18.5925 320.026 -25.7039 237.627 24.5182 176.252C56.6738 140.477 96.5909 137.676 135.222 135.006C156.808 133.509 177.242 132.192 194.935 124.85C215.471 116.54 233.482 98.3773 252.542 79.157C272.8 58.7552 293.702 37.6078 317.807 29.1734C347.383 18.8381 381.325 20.0184 414.113 20.9017C428.732 21.4645 442.398 21.8703 455.818 21.3262C513.681 19.3577 556.457 15.2399 594.811 8.36057C607.167 6.10641 639.981 0.205625 659.27 -25.9542C670.712 -41.8912 673.983 -53.9296 677.4 -66.7465C679.342 -74.3541 681.481 -82.1115 685.338 -91.1936C703.772 -134.561 741.19 -176.188 806.502 -226.211C903.596 -300.319 990.917 -339.687 1059.02 -340.292C1127.38 -340.603 1172.93 -321.117 1221.36 -300.477C1241.14 -292.018 1261.57 -283.302 1284.27 -275.545C1289.51 -273.809 1299.55 -270.597 1307.45 -269.016C1353.57 -260.057 1392.21 -283.96 1433.17 -309.063C1457.02 -323.85 1481.69 -339.024 1508.64 -347.757L1509.63 -348.123C1517.56 -350.678 1528.38 -354.237 1536.92 -354.856C1562.66 -356.462 1576.17 -347.035 1590.73 -330.131C1595.77 -324.279 1600.74 -317.863 1606.61 -310.085C1609.16 -306.855 1611.83 -303.386 1614.57 -299.819C1622.76 -289.278 1635.28 -273.417 1648.54 -258.021C1658.96 -245.934 1668.82 -235.34 1677.56 -226.915C1716.21 -189.448 1773.9 -141.086 1829.01 -151.553C1851.33 -155.803 1869.71 -164.246 1887.75 -172.227C1905.78 -180.518 1922.92 -188.206 1943.42 -191.72C1959.05 -194.341 1975.71 -193.878 1993.33 -193.253C2002.11 -192.919 2011.11 -192.613 2020.22 -192.57C2039.44 -192.833 2058.41 -194.046 2076.76 -195.219C2095.91 -196.419 2115.81 -197.593 2135.72 -197.641C2163.99 -197.81 2187.01 -187.874 2203.95 -168.223C2207.93 -163.587 2211.46 -158.592 2214.52 -153.301C2239.62 -109.944 2240.33 -49.6748 2193.35 -17.9087C2142.94 16.3157 2054.83 36.9536 1999.01 37.3058C1953.08 37.5746 1908.07 19.7484 1864.46 2.51933C1849.06 -3.61307 1834.49 -9.32321 1819.82 -14.3C1809.38 -17.9757 1785.46 -20.9006 1775.53 -19.9087C1751.76 -17.5267 1729.35 -3.8096 1707.64 9.47497M1826.48 1816.62C1779.72 1822.38 1725.59 1793.4 1692.62 1761.96C1688.21 1757.7 1683.79 1753.13 1679.32 1747.95C1669.56 1736.62 1660.84 1724.23 1652.28 1712.21C1644.05 1700.57 1635.46 1688.41 1626.02 1677.47C1620.64 1671.16 1614.81 1665.24 1608.57 1659.77C1581.31 1636.09 1546.24 1626.02 1508.97 1615.39C1495.65 1611.58 1481.75 1607.59 1468.48 1603.09C1431.15 1590.2 1397.94 1570.82 1372.35 1546.99C1369.18 1544 1366.15 1540.84 1363.3 1537.53C1342.08 1512.91 1331.82 1482.62 1337.02 1460.38C1343.77 1431.72 1376.33 1413.19 1410.78 1393.54C1434.31 1380.17 1458.58 1366.33 1475.72 1348.59C1489.23 1334.49 1501.41 1309.86 1498.82 1289.88C1496.13 1269.69 1487.55 1251.11 1473.24 1234.5C1446.17 1203.08 1400.53 1183.2 1357.14 1183.95C1321.39 1184.65 1290.68 1198.78 1270.76 1224.01C1244.78 1256.92 1243.53 1294.81 1242.29 1331.39C1241.81 1348.08 1241.29 1365.3 1238.21 1381.27C1234.68 1400.59 1207.78 1437.91 1158.92 1441.04C1135.8 1442.56 1118.05 1427.92 1107.41 1415.56C1096.84 1403.3 1088.05 1387.52 1082.62 1371.16C1070.78 1335.99 1048.68 1254.89 1046.73 1218.59C1045.17 1192.5 1051.87 1166.33 1063.64 1151.74C1085.28 1124.71 1118.67 1122.41 1150.75 1119.92C1174.42 1118.28 1198.79 1116.51 1218.74 1105.24C1227.91 1100.14 1236.97 1090.85 1241.65 1084.51C1262.21 1056.61 1263.96 1017.78 1265.69 976.653C1266.57 958.146 1267.41 939.011 1269.89 919.616C1273.74 890.326 1281.44 861.156 1288.93 833.156C1298.82 795.71 1308.12 760.239 1306.67 729.922C1305.31 700.185 1295.58 672.391 1286.14 645.507C1270.7 601.43 1257.26 563.36 1284.03 527.961C1317.75 483.296 1370.96 476.399 1422.66 469.839C1449.57 466.381 1477.34 462.671 1501.79 453.78C1532.47 442.457 1562.7 414.779 1565.25 395.645C1568.28 372.795 1551.89 344.681 1536.17 317.618C1527.22 302.302 1518.83 287.827 1514.82 275.678C1511.3 265.056 1500.13 227.822 1506.67 196.537C1510.87 177.14 1524.72 158.135 1538.14 139.672C1550.85 122.472 1562.79 106.088 1565.95 90.2181C1570.79 66.6519 1551.13 27.0322 1512.26 -18.0726C1479.91 -55.617 1441 -89.0163 1410.78 -105.227C1379.41 -122.094 1345.69 -126.911 1313.25 -119.34C1289.75 -113.89 1263.22 -102.873 1235.29 -91.2968C1213.25 -82.1757 1190.57 -72.6608 1167.29 -65.0917C1161.78 -63.3133 1156.46 -61.5237 1151.11 -59.8603C1118.46 -49.3133 1087.52 -39.4252 1062 -21.5419C1050.28 -13.4318 1034.75 0.118023 1027.41 8.75415C1000.27 40.0269 990.812 82.0356 981.672 122.638C977.392 141.278 973.106 160.765 967.023 178.83C963.884 188.271 960.2 198.027 956.253 208.332C935.432 263.429 911.799 325.882 950.945 380.604C952.103 382.232 953.273 383.685 954.655 385.289C959.457 390.862 965.292 396.022 971.423 401.431C977.759 406.982 984.469 412.863 990.331 419.665C998.865 429.569 1003.97 439.483 1006.5 450.769C1006.72 460.135 1003.81 463.05 994.423 461.023C981.645 456.244 972.441 449.543 964.231 443.618C953.355 435.737 943.973 429.02 929.088 427.875C905.86 426.018 874.606 445.221 835.902 484.494C824.416 496.194 810.241 513.022 795.108 530.824C788.302 538.662 781.379 546.935 774.418 555.069C715.449 622.969 701.272 660.842 690.853 733.606C685.986 767.398 675.069 790.945 662.266 818.088C657.379 828.546 652.334 839.46 647.2 851.611C641.335 866.041 637.4 879.784 633.778 893.109C631.179 902.418 628.753 911.075 625.747 919.912C611.109 961.8 587.598 1003.92 564.03 1029.66C522.646 1075.02 490.667 1079.05 456.746 1083.3C448.753 1084.26 440.627 1085.35 432.105 1086.93C374.125 1097.77 324.541 1129.14 293.184 1153.54L291.459 1154.85C269.968 1171.72 229.638 1202.85 225.548 1217.07C220.687 1234.08 230.049 1247.89 238.822 1258.07C244.435 1264.58 250.944 1270.81 257.908 1277.47C264.872 1284.13 271.966 1290.85 278.143 1298.02L279.414 1299.4C302.582 1326.28 328.764 1365.87 322.372 1401.97C318.656 1422.59 304.404 1439.8 280.048 1453.06C246.714 1471.26 182.251 1475.34 147.941 1435.52C146.012 1433.29 144.198 1430.96 142.508 1428.54C115.79 1389.57 114.416 1343.42 112.504 1284.88C112.405 1278.89 112.055 1272.6 111.939 1266.3C110.946 1239.36 104.818 1214.24 98.6802 1189.76C92.2529 1163.25 85.4854 1135.86 85.7816 1107.01C85.9176 1093.89 86.0976 1080.92 86.4184 1068.3C87.7298 993.03 88.9572 928.181 71.5969 871.626C69.2616 864.745 67.1042 858.07 64.927 851.561C52.6955 814.421 42.1638 782.384 17.1895 747.521C13.6541 742.478 9.85482 737.626 5.8076 732.985C-6.86986 718.271 -20.8594 705.828 -34.4302 693.682C-46.2732 683.16 -57.4459 673.228 -66.229 663.035C-71.0993 657.505 -75.3167 651.433 -78.7979 644.939C-86.7314 629.569 -88.2801 610.516 -83.4317 585.14C-79.0318 562.278 -72.896 539.06 -66.8493 516.592C-58.9526 487.263 -50.8552 456.935 -46.3013 425.719C-41.9072 394.98 -40.997 362.947 -40.1566 331.972C-38.2149 264.54 -36.4068 200.84 0.0957176 157.874C47.8559 103.892 85.2926 97.4571 124.897 90.6233C149.982 86.2671 175.988 81.9382 204.269 64.3214C216.415 56.8 228.591 47.1348 240.475 37.8871C257.779 24.1226 274.163 10.9967 289.062 5.72212C318.565 -5.07196 355.579 -3.91466 382.599 -3.19216L391.503 -2.81314C460.229 -0.70183 531.401 1.59377 584.063 -30.7839C596.709 -38.5665 615.367 -55.132 623.31 -64.7705C635.221 -78.8205 643.343 -93.3815 651.334 -107.337C658.599 -120.332 665.545 -132.56 674.816 -143.512C685.388 -155.905 710.663 -176.05 723.913 -185.987C836.2 -269.741 952.136 -356.49 1071.75 -355.812C1126.3 -355.458 1169.27 -341.04 1210.82 -326.851C1238.28 -317.635 1266.78 -308 1297.6 -303.137C1348.34 -295.074 1393.25 -322.105 1440.8 -350.734C1468.06 -367.167 1496.34 -384.128 1525.63 -393.744C1565.22 -406.66 1592.8 -400.831 1609.99 -375.859C1621.04 -359.72 1628.06 -343.895 1635.45 -327.254C1645.41 -304.603 1655.69 -281.395 1677.16 -256.486C1681.14 -251.868 1685.44 -247.341 1689.96 -242.852C1714.59 -218.534 1751.75 -187.923 1788.93 -180.329C1825.28 -173.023 1857.61 -186.243 1888.84 -199.009C1907.6 -206.623 1926.95 -214.596 1946.94 -217.847C1971.57 -221.79 2000.37 -220.973 2028.22 -220.132C2055.8 -219.407 2082.11 -218.567 2103.28 -222.327C2109.17 -223.464 2115.87 -225.452 2123 -227.321C2152.39 -235.876 2189.01 -246.381 2218.52 -212.13C2221.99 -208.07 2225.14 -203.748 2227.94 -199.204C2247 -168.453 2262.27 -108.927 2259.53 -76.648C2257.29 -52.03 2250.14 -25.8196 2212.74 -1.15142C2184.39 17.5202 2134.71 32.8688 2090.81 46.2001C2084.56 48.1401 2078.3 50.0776 2072.09 51.9744C2069.61 52.7948 2067.01 53.5563 2064.58 54.3447C2049.85 58.9668 2037.11 63.0426 2023.98 64.4916C1980.52 69.7114 1936.38 53.6566 1893.73 38.2952C1866.92 28.5073 1841.66 19.3768 1817.15 15.4975C1760.11 6.27708 1698.78 37.5902 1660.72 94.8752L1660.52 95.2116L1660.45 95.5993C1655.98 141.704 1685.08 191.116 1713.44 239.015C1716.5 244.275 1719.72 249.717 1722.89 255.199C1730.03 267.467 1736.81 279.879 1742.76 290.863C1751.2 306.44 1758.51 319.863 1764.74 328.98C1767.35 332.837 1770.18 336.539 1773.23 340.068C1804.53 376.395 1843.44 375.093 1880.91 373.548C1916.51 372.299 1949.97 370.928 1975.75 400.842C1979.14 404.808 1982.21 409.036 1984.93 413.488C1999.94 437.543 2001.8 463.224 2003.91 490.512C2006.84 527.944 2010.16 570.288 2048.86 615.206C2054.3 621.506 2060.07 627.509 2066.15 633.189C2095.52 660.818 2174.74 716.361 2209.72 727.656C2280.18 750.461 2323.6 692.666 2365.6 636.744C2388.21 606.571 2409.6 578.109 2434.67 562.262C2464.63 543.191 2496.9 551.062 2525.69 584.464C2529.79 589.275 2533.65 594.29 2537.24 599.49C2559.88 632.592 2577.96 680.311 2595.51 726.362C2597.95 732.807 2600.35 739.28 2602.84 745.684C2611.65 768.516 2619.47 793.517 2627.11 817.667C2632.68 835.396 2637.83 851.998 2643.12 866.668C2648.99 883.146 2658.21 900.203 2667.24 916.748C2681.56 943.223 2696.21 970.377 2697.01 995.007C2697.64 1015.19 2688.92 1035.03 2672.31 1050.82C2651.25 1070.94 2620.96 1082.24 2593.03 1080.16C2560.29 1077.63 2530.06 1062.07 2500.86 1046.96C2465.08 1028.46 2428.11 1009.36 2386.84 1015.33C2330.76 1023.52 2284.7 1063.55 2240.21 1102.37C2216.85 1122.67 2192.7 1143.65 2167.71 1159.59C2138.44 1178.05 2109.78 1186.32 2082.14 1194.35C2042.11 1206 2000.64 1217.89 1958.47 1261.29C1902.73 1296.16 1878.59 1339.82 1882.45 1398.81C1883.51 1414.83 1884.29 1431.09 1885.22 1448.2C1888.02 1503.5 1891.03 1560.75 1900.69 1608.65C1903.2 1621.14 1906.24 1633.3 1909.27 1645.16C1915.01 1667.83 1920.39 1689.17 1921.35 1709.89C1924.13 1775.23 1875.8 1810.63 1826.48 1816.62M1800.25 1833.12C1759.59 1830.01 1711.01 1805.77 1673.3 1769.88C1669.59 1766.33 1665.75 1762.25 1661.36 1757.15C1655.75 1750.64 1650.14 1743.47 1644.11 1736C1638.1 1728.36 1631.76 1720.34 1625.34 1712.89C1620.05 1706.75 1615.06 1701.53 1610.49 1697.08C1569.27 1657.3 1530.94 1646.75 1490.24 1635.45C1474.19 1631.04 1457.57 1626.45 1440.79 1619.87C1398.19 1603.14 1358.69 1578.16 1323.26 1545.56C1315.65 1538.64 1309.16 1531.56 1302.99 1524.88C1296.02 1517.56 1289.53 1510.5 1282.34 1504.53C1250.75 1477.82 1219.29 1488.33 1188.74 1498.38C1169.52 1504.9 1151.18 1510.84 1134.22 1506.88C1121.88 1504.03 1110.4 1496.49 1100 1484.42C1081.71 1463.19 1066.57 1428.56 1054.02 1378.53L1051.26 1367.75C1034.35 1301.28 1013.18 1218.41 1024.65 1168.58C1029 1149.55 1040.81 1123.25 1072.01 1106.07C1093.54 1094.09 1115.06 1090.34 1135.87 1086.72C1154.18 1083.6 1171.43 1080.58 1185.93 1072.19C1194.38 1067.21 1207.21 1056.48 1213.86 1047.15C1235.27 1017.02 1234.85 978.415 1234.42 941.128C1234.18 920.46 1233.94 899.134 1237.63 880.007C1241.31 860.567 1248.61 842.591 1255.62 825.22C1262.73 807.406 1270.24 789.103 1273.47 769.719C1282.03 719.92 1271.41 683.041 1259.9 653.663C1255.48 642.185 1250.1 631.199 1244.95 620.67C1223.65 577.37 1205.37 540.029 1266.59 494.665C1305.11 466.256 1342.49 448.024 1374.51 441.96C1381.83 440.589 1391.16 439.944 1401.84 438.972C1442.12 435.66 1497.33 431.002 1511.06 388.436C1519.32 362.385 1508.01 334.657 1499.66 314.233C1497.63 309.241 1495.68 304.511 1494.3 300.447C1487.56 280.762 1480.23 258.141 1477.71 237.785C1472.63 196.794 1485.97 170.843 1499.98 143.308C1507.65 128.318 1515.58 112.769 1521.13 94.0077C1530.27 62.7898 1514.55 19.6132 1479.02 -21.6223C1438.37 -68.7929 1383.38 -100.652 1341.92 -101.098C1304.61 -101.349 1269.78 -87.4483 1232.79 -72.8314C1218.74 -67.1393 1204.21 -61.3499 1188.95 -56.1009L1181.92 -53.6571C1149.89 -42.6624 1116.74 -31.3668 1094.42 -18.3896C1027.17 20.1677 1016.83 74.4439 1007.53 122.24C1007.06 125.293 1006.41 128.143 1005.9 131.056C1003.47 143.501 1000.29 156.114 997.037 169.599C984.629 220.9 971.874 273.978 993.816 313.759C1006.52 336.851 1024.31 362.615 1041.5 387.587C1069.68 428.428 1098.67 470.522 1106.49 501.596C1109.26 512.685 1106.19 524.379 1097.89 534.657C1085.29 550.107 1062.75 559.671 1041.78 558.665C1017.14 557.368 990.797 542.911 965.309 528.879C938.37 514.113 912.993 500.303 891.382 502.812C866.646 505.877 821.52 540.147 789.818 572.564C752.525 610.628 728.77 654.935 721.453 700.851C719.793 711.154 718.989 721.881 718.083 732.208C717.149 743.365 716.276 753.812 714.537 763.36C707.237 803.524 683.802 865.635 645.09 948.318C623.481 994.06 584.435 1055.5 549.602 1081.72C515.259 1107.38 487.332 1109.57 457.688 1111.76C443.001 1112.92 427.689 1114.11 411.036 1118.11C385.318 1124.47 336.183 1149.55 313.453 1190.01C299.119 1215.85 301.438 1246.23 320.168 1275.64C325.949 1284.65 332.366 1293.24 339.369 1301.34C351.564 1315.49 364.336 1327.19 375.572 1337.38C384.832 1345.85 393.72 1353.99 400.705 1362.1C414.932 1378.61 419.211 1393.34 415.067 1411.37C401.528 1469.25 331.666 1528.28 265.252 1514.82C256.625 1513.53 247.726 1512.49 239.045 1511.42C195.668 1506.22 150.82 1500.81 121.958 1467.31C117.502 1462.09 113.569 1456.45 110.214 1450.46C107.005 1444.84 101.99 1431.91 98.2746 1421.62C82.9749 1378.74 76.719 1334.32 70.1593 1287.36C68.3582 1273.8 66.3143 1259.76 64.0298 1245.45L62.9377 1238.5C58.6544 1210.96 54.122 1182.47 53.9045 1160.79C53.4917 1133.2 57.8141 1105.32 61.9727 1078.38C66.2251 1051.37 70.5943 1023.45 70.2881 995.598C69.666 939.414 56.2246 853.658 20.2353 796.721C14.504 787.667 8.13166 779.036 1.16702 770.893C-24.3588 741.269 -53.1972 724.688 -78.7779 710.063C-99.1888 698.226 -118.432 687.176 -132.084 671.33C-138.377 664.04 -143.381 655.732 -146.883 646.761C-155.444 624.879 -153.268 609.013 -146.842 590.493C-138.713 567.208 -128.632 543.555 -117.735 518.563C-100.257 478.349 -82.2123 436.825 -71.9623 392.974C-67.1087 372.346 -62.0609 337.91 -62.0585 318.668C-62.7617 211.763 -28.4277 120.681 32.3296 68.9864C66.4889 34.3017 93.9267 30.8763 122.795 27.2154C133.984 25.7898 145.575 24.3574 157.734 21.1187C179.951 14.9531 199.816 5.39394 219.091 -3.80667C240.464 -14.1763 260.741 -23.921 281.778 -27.5692C315.68 -33.4468 352.266 -29.9524 387.515 -26.7762C443.694 -21.5913 501.875 -16.1546 552.365 -47.1638C567.04 -56.1919 585.861 -73.2315 596.679 -85.5166C608.066 -98.278 616.754 -111.518 625.231 -124.243C639.743 -146.462 654.837 -169.333 684.327 -191.126C722.556 -219.299 759.711 -240.457 799.067 -262.855C813.252 -271.136 828.155 -279.534 843.408 -288.567C942.766 -347.227 1025.52 -380.872 1130.85 -367.573C1154.62 -364.533 1177.65 -357.913 1202.1 -350.869C1225.44 -344.171 1249.58 -337.197 1276.25 -332.888C1284.6 -331.534 1301 -329.381 1316 -329.985C1357.23 -331.638 1397.1 -356.461 1439.08 -382.923C1480.5 -409.084 1523.34 -435.966 1568.48 -439.52C1593.22 -441.429 1610.9 -435.131 1624.07 -419.846C1636.83 -405.035 1644.4 -383.439 1653.11 -358.555C1664.14 -326.793 1676.64 -290.861 1703.54 -259.636C1709.4 -252.851 1715.75 -246.502 1722.53 -240.64C1734.18 -230.626 1765.46 -206.935 1802.21 -205.239C1831.38 -203.904 1854.35 -214.318 1878.72 -225.283C1901.58 -235.626 1925.4 -246.285 1955.73 -247.587C1967.58 -247.107 1978.67 -246.474 1989.32 -245.957C2033.22 -243.663 2067.85 -241.766 2101.68 -252.84C2116.56 -257.761 2132.3 -266.886 2147.42 -275.797C2182.11 -295.829 2214.93 -314.904 2238.59 -287.453C2242.82 -282.547 2246.6 -276.26 2250.1 -268.598C2260.66 -245.146 2267.83 -208.576 2275.42 -169.901C2276.72 -163.46 2277.98 -156.982 2279.28 -150.544C2280.85 -142.354 2282.66 -134.385 2284.41 -126.852C2287.76 -111.973 2290.59 -99.2996 2291.11 -89.8815C2294.7 -6.16982 2246.41 12.1088 2166.28 42.1764L2154.48 46.5869C2132.76 54.946 2112.4 64.5932 2094.5 73.1163C2076.69 81.5553 2059.93 89.5903 2045.1 94.48C2027.43 100.507 2016.25 102.897 2001.3 100.152C1979.28 96.115 1955.83 86.0632 1930.94 75.4638C1891.21 58.5647 1846.23 39.4453 1798.76 42.3724C1769.23 44.1361 1706.55 66.5786 1700.91 124.218C1696.66 168.007 1733.02 223.478 1748.97 245.404C1756.22 255.435 1763.49 264.627 1770.48 272.745C1798.69 305.48 1824.17 322.819 1853.51 329.268C1869.97 332.842 1887.12 332.359 1903.58 331.834C1936.09 330.789 1966.96 329.831 1992.16 359.078C1995.74 363.27 1998.96 367.746 2001.81 372.461C2021.81 404.39 2026.28 443.133 2030.97 484.129C2032.9 500.877 2034.89 518.07 2038.04 534.913C2040.96 550.334 2049.91 580.917 2078.21 613.758C2083.25 619.605 2088.68 625.28 2094.5 630.782C2123.22 657.668 2157.49 678.935 2209.2 701.784C2280.51 720.742 2320.78 666.316 2359.55 613.662C2391.16 570.805 2421.03 530.288 2466.31 526.612C2488.17 524.875 2516.36 538.715 2535.06 560.414C2537.58 563.304 2539.9 566.355 2542.02 569.549C2570.5 610.94 2594.12 668.687 2616.9 724.516C2638.09 776.126 2657.98 824.91 2681.5 862.35C2690.72 876.936 2701.13 890.155 2711.22 903.006C2729.14 925.698 2744.48 945.207 2746.23 963.92L2746.37 964.458C2746.59 974.297 2746.97 984.497 2748.65 994.225C2737.43 1066.53 2671.64 1122.24 2601.85 1118.41C2569.84 1116.73 2539.66 1101.8 2507.94 1086.04C2476.06 1070.28 2442.99 1053.89 2407.19 1051.69C2350.89 1048.25 2314.52 1075.16 2272.34 1106.41C2259.88 1115.66 2246.88 1125.22 2232.74 1134.6L2232.51 1134.8L2232.32 1134.96C2197.56 1181.85 2141.01 1200.98 2086.28 1219.37C2043.76 1233.64 1999.85 1248.47 1966.54 1276.18C1931.12 1305.89 1911.69 1338.9 1907.23 1377.43C1908.26 1402.52 1908.1 1428.31 1908.04 1453.36C1907.77 1500.27 1907.61 1544.64 1914.11 1583.75C1918.08 1607.13 1924.43 1629.29 1930.76 1650.95C1939.01 1679.68 1946.86 1706.8 1947.74 1732.67C1948.34 1753.36 1939.25 1773.35 1921.46 1790.33C1888.59 1821.77 1834.47 1835.86 1800.25 1833.12M1992.94 1738.4C1991.78 1718.19 1981.58 1697.06 1971.9 1676.82C1966.79 1666.25 1961.63 1655.42 1957.67 1644.85C1931.07 1572.75 1925.31 1479.41 1941.22 1375.3C1945.48 1347.64 1955.75 1317.75 2001 1285.97C2028.97 1266.49 2062.08 1258.66 2094.23 1251.03C2124.21 1243.93 2152.5 1237.14 2177.02 1221.6C2196.41 1209.32 2213.33 1193.11 2229.54 1177.33C2242.99 1164.59 2256.79 1151.22 2271.73 1140.31C2302.82 1117.8 2365.4 1083.12 2435.64 1103.97C2457.36 1110.4 2478.91 1119.77 2499.7 1128.83C2538.19 1145.62 2578.02 1162.93 2622.26 1163.27C2645.66 1163.32 2679.03 1152.65 2701.42 1137.8C2755.37 1102.18 2808.19 1038.73 2804.85 977.497C2802.86 943.052 2792.89 910.052 2749.88 860.146C2744.36 853.731 2738.28 846.965 2731.86 840.175C2726.87 834.952 2713.56 820.932 2701.61 807.058C2693 797.061 2686.58 788.951 2682.78 783.022C2664.25 754.598 2648.48 722.167 2633.11 690.684C2629.35 682.912 2625.54 675.185 2621.77 667.579C2615.89 655.716 2610.25 643.487 2604.66 631.691C2591.31 603.099 2578.7 576.157 2564.01 554.942C2560.34 549.727 2556.55 544.759 2552.65 540.239C2509.16 489.765 2450.22 483.354 2402.5 523.815C2379.22 543.537 2363.05 567.335 2347.27 590.455C2323.31 625.585 2300.65 658.736 2256.99 671.204C2211.46 684.148 2141 646.553 2103.85 603.44C2099.38 598.277 2095.25 592.824 2091.5 587.117C2071.01 555.468 2066.15 515.603 2060.84 473.32C2057.78 449.007 2054.6 423.8 2048.42 399.365C2035.26 348.074 2021.31 298.133 1996.19 251.064L1995.8 250.237L1994.76 250.161C1976.38 249.883 1962.37 257.512 1948.87 264.876C1941.47 268.79 1934.37 272.602 1926.79 275.195C1886.03 288.934 1825.75 284.002 1778.6 229.284C1777.78 228.338 1777.05 227.486 1776.29 226.511C1755.02 200.784 1737.4 159.749 1746.04 125.991C1751.27 105.711 1765.21 91.0738 1787.48 82.4085C1834.27 64.2756 1904.95 89.3415 1943.61 122.934C1947.86 126.686 1951.83 130.73 1955.51 135.037C1960.96 141.355 1965.89 148.126 1970.7 154.661C1975.23 160.952 1980.08 167.62 1985.2 173.57C1991.38 180.739 1997.2 186.074 2003.5 190.345L2004.33 190.938L2005.3 190.443C2029.78 176.581 2045.21 159.503 2060.16 143.007C2072.1 129.754 2084.4 115.873 2101.53 103.904C2112.35 96.4946 2123.66 89.8251 2135.38 83.9414C2162.12 69.9426 2192.11 61.0389 2220.93 52.3089C2251.06 43.2861 2279.48 34.7416 2302.92 21.278C2357.78 -10.0397 2348.08 -59.2162 2339.55 -102.673C2336.56 -117.999 2333.72 -132.485 2333.48 -145.929C2333.22 -171.174 2338.44 -190.805 2344.59 -213.526C2347.18 -223.317 2349.92 -233.406 2352.35 -244.538L2352.51 -245.18L2352.21 -245.731C2345.8 -256.972 2339.03 -273.347 2331.87 -290.669C2318.62 -322.819 2303.64 -359.068 2284.13 -381.71C2265.35 -403.506 2245.56 -409.127 2223.66 -398.804C2206.8 -390.691 2192.11 -375.892 2179.08 -362.861C2175.71 -359.461 2172.39 -356.112 2169.32 -353.138C2122.3 -308.353 2098.65 -285.839 2053.44 -280.579C2029.39 -277.772 2007.87 -282.083 1987.06 -286.333C1968.79 -289.989 1951.57 -293.392 1933.01 -292.367C1909.19 -290.912 1888.5 -278.993 1868.53 -267.376C1842.05 -252.134 1814.78 -236.193 1780 -245.175C1758.56 -250.712 1741.48 -261.629 1726.03 -279.557C1721.44 -284.887 1717.21 -290.523 1713.37 -296.426C1700.21 -316.818 1692.95 -343.921 1686 -370.001C1677.74 -400.524 1669.35 -432.092 1651.22 -453.133C1635.37 -471.526 1613.74 -479.837 1585.03 -478.935C1568.31 -478.342 1545.72 -471.371 1536.85 -468.492C1499.68 -456.361 1465.22 -435.218 1431.98 -414.627C1382.62 -384.413 1336.05 -355.8 1288.32 -360.857C1197.97 -382.963 1102.4 -401.058 1015.66 -383.512C963.648 -373.055 903.732 -342.957 851.872 -314.885C822.856 -299.073 792.868 -284.581 766.567 -271.782C731.115 -254.719 700.547 -240.046 680.11 -226.223C641.436 -200.291 617.618 -168.59 594.699 -137.833C570.777 -105.873 548.123 -75.6633 511.977 -59.9754C481.112 -46.6896 435.402 -43.1439 386.33 -50.5148C372.881 -52.5661 359.478 -55.3235 346.474 -58.0908C322.725 -63.0915 298.228 -68.2948 272.429 -68.7544C264.038 -68.9176 255.443 -68.7491 247.119 -68.6453C213.747 -68.3182 179.354 -67.9432 152.52 -82.3059C134.728 -91.9572 119.679 -104.305 105.205 -116.172C90.1253 -128.649 74.4892 -141.487 55.9703 -150.844C10.9197 -173.835 -58.536 -186.471 -112.283 -163.338C-148.111 -147.754 -172.354 -118.821 -184.334 -77.2546C-190.235 -56.7176 -190.4 -26.0052 -179.434 -7.02153C-177.246 -3.26686 -174.711 0.274356 -171.862 3.55568C-158.203 19.4075 -138.413 29.3043 -119.251 38.9352C-101.439 47.7567 -84.751 56.222 -74.2625 68.3946C-68.171 75.4645 -64.6294 83.2722 -63.5197 92.3334C-60.725 115.579 -66.6579 140.736 -72.3611 165.212C-75.5325 178.311 -78.7488 191.927 -80.4999 204.777C-82.6309 221.075 -83.9028 238.938 -85.0905 256.235C-87.1086 282.806 -89.1996 310.241 -94.2689 334.505C-103.577 378.685 -119.503 403.431 -133.88 421.727C-141.623 431.701 -151.992 441.945 -162.197 451.715C-176.323 465.372 -189.525 478.396 -196.762 491.043C-200.436 497.491 -203.117 504.902 -205.695 512.055C-211.368 527.464 -216.763 541.976 -231.175 549.128C-236.067 546.105 -239.213 540.936 -241.117 532.375C-221.508 480.146 -212.245 437.809 -270.128 370.632C-277.604 361.956 -286.529 352.545 -296.443 342.841C-312.151 327.455 -330.748 313.551 -348.882 300.09C-368.939 285.154 -387.872 271.051 -400.225 256.714C-408.115 247.557 -412.793 239.094 -414.482 230.687C-405.983 212.016 -381.036 187.408 -354.69 161.578C-321.291 128.86 -283.565 91.5904 -271.288 58.1532C-266.307 44.5007 -265.988 22.0244 -281.595 3.91086C-286.874 -2.21572 -293.714 -7.49969 -301.781 -11.7422C-331.792 -27.1381 -390.143 -43.0967 -434.715 -53.019C-463.014 -59.2213 -498.426 -63.0639 -520.889 -36.8045L-522.739 -33.0733C-528.552 -21.1445 -534.587 -8.89202 -533.593 9.9772C-531.949 42.5993 -518.742 79.5421 -506.018 115.259C-494.219 147.996 -482.153 181.823 -479.644 210.9C-486.184 224.261 -495.109 232.105 -508.402 236.49C-521.286 240.688 -534.451 244.475 -547.119 248.153C-588.768 260.204 -628.044 271.69 -663.724 296.357C-695.141 318.009 -722.239 344.47 -750.952 372.494C-759.939 381.404 -769.489 390.608 -779.057 399.506C-789.394 409.408 -800.057 418.931 -811.395 429.188C-826.9 443.035 -842.921 457.349 -858.877 473.065C-903.498 538.631 -896.13 599.51 -834.757 670.738C-827.274 679.423 -818.644 688.584 -809.344 697.672C-757.779 748.414 -658.652 811.602 -588.568 825.346C-492.831 844.119 -404.981 791.267 -360.977 757.964C-346.947 745.048 -333.959 730.071 -321.646 715.352C-299.055 689.157 -275.767 661.852 -244.429 645.704C-228.305 647.921 -222.905 653.619 -211.076 666.116C-207.39 670.014 -203.335 674.246 -198.157 679.308C-166.685 710.049 -132.477 727.756 -99.5557 744.918C-85.7539 751.93 -71.4497 759.335 -57.7797 767.616C-43.9366 775.908 -30.9594 787.082 -19.2562 800.664C24.4772 851.419 50.1682 937.452 44.6987 1014.81C43.041 1039.25 37.1466 1063.4 31.5506 1086.96C23.8569 1119.08 16.0336 1152.28 18.3682 1186.27C19.7997 1205.76 23.7163 1229.17 28.2218 1254.22C30.2422 1266.13 32.4282 1278.54 34.4112 1290.97C35.5378 1298.06 36.5991 1305.36 37.7075 1312.62C46.1378 1367.34 54.6579 1423.77 73.1226 1472.79C78.154 1486.21 84.4229 1497.09 92.305 1506.23C115.064 1532.65 147.144 1538.22 181.051 1544.01C189.228 1545.34 197.667 1546.8 206.073 1548.59C221.071 1551.78 236.336 1556.22 251.037 1560.48C293.329 1572.69 337.083 1585.45 379.165 1569.26C396.671 1562.56 414.924 1547.15 425.348 1534.88C451.815 1503.69 475.566 1452.01 495.8 1380.97L495.916 1380.54L495.815 1380.14C494.649 1376.7 494.182 1371.51 493.745 1365.98C493.172 1357.92 492.373 1348.75 489.208 1341.94C487.283 1337.83 484.784 1334 481.786 1330.58C470.49 1317.47 451.986 1307.28 432.417 1296.51C412.443 1285.46 391.778 1274 378.723 1258.95C366.287 1244.52 362.528 1228.2 367.164 1209.41C372.624 1187.11 387.298 1171.83 413.413 1161.17C428.986 1154.98 445.682 1152.93 463.518 1150.88C498.799 1146.6 538.84 1141.69 578.862 1100.64C654.189 1022.91 726.737 872.296 747.1 750.032C748.444 742.777 748.988 735.255 749.494 728.069C750.246 719.377 750.981 710.36 752.906 701.787C768.52 628.996 830.267 563.955 887.515 559.674C895.742 558.996 908.208 560.748 913.56 561.555C914.396 561.726 915.244 561.823 916.097 561.845C943.182 568.739 963.278 584.464 981.046 598.26C990.673 605.736 999.724 612.731 1009.04 617.855C1023.45 625.668 1040.77 633.921 1064.63 631.935C1078.29 631.015 1091.33 625.858 1103.99 621.025C1116.97 616.086 1130.38 610.785 1144.25 610.019C1167.45 608.596 1188.59 618.159 1205.34 637.596C1231.11 667.505 1243.67 718.489 1235.83 761.233C1230.16 780.253 1222.13 796.717 1214.27 812.53C1203.43 834.365 1193.21 855.007 1189.76 880.494C1187.49 896.912 1188.48 914.647 1189.38 931.625C1191.02 965.378 1192.75 997.434 1172.11 1022.78C1155.9 1042.83 1131.28 1049.9 1105.23 1057.4C1087.71 1062.29 1069.74 1067.59 1054.19 1077.04C994.055 1113.9 994.816 1161.23 995.521 1206.99C995.642 1215.75 995.714 1224.75 995.517 1233.62L995.524 1234.1C1004.43 1266.05 1010.54 1301.87 1016.88 1339.66C1029.2 1413.21 1042.12 1489.35 1077.9 1543.19C1102.76 1580.77 1128.07 1598.1 1155.49 1596.65C1171.04 1595.74 1184.78 1589.5 1199.2 1582.82C1221.58 1572.58 1244.82 1562.1 1276.18 1572.72C1295.86 1579.43 1319.08 1592.64 1345.76 1607.77C1381.75 1628.21 1422.44 1651.35 1465.58 1664.64C1472.04 1666.63 1478.08 1668.33 1484.15 1670.17C1525.5 1682.21 1561.15 1692.6 1607.72 1739.26C1682.53 1814.04 1742.51 1865.92 1834.13 1853.37C1902.72 1843.77 1996.36 1795.45 1992.94 1738.4M1367.12 28.7232C1361.21 21.8572 1353.21 16.1091 1343.52 11.8317C1281.02 -15.5532 1192.85 55.7598 1163.61 79.3049C1122.38 122.633 1125.68 187.745 1154.76 221.5C1164.38 232.662 1176.75 240.428 1190.54 243.837C1232.04 254.282 1297.67 229.455 1331.02 190.924C1361.72 155.335 1403.76 71.2449 1367.12 28.7232Z" stroke="rgba(18,18,18,0.1)" stroke-miterlimit="10"/>
<path d="M493.316 245.175C435.841 246.8 421.845 308.525 485.276 311.149C551.076 313.871 541.311 237.176 493.316 245.175Z" stroke="rgba(18, 18, 18, 0.1)" stroke-miterlimit="10"/>
</svg>
