<svg width="1440" height="1878" viewBox="0 0 1440 1878" fill="none" xmlns="http://www.w3.org/2000/svg">
<g opacity="0.1">
<path d="M1698.04 134.304C1813.9 310.462 1905.91 560.611 1974.07 791.193C2042.23 1024.31 2086.54 1237.85 2107 1399.25M1634.38 118.057C1748.65 306.261 1839.79 556.928 1907.8 785.857C1975.8 1017.1 2020.68 1226.6 2042.41 1385.83M1577.84 97.4002C1689.87 299.088 1779.52 551.263 1846.81 779.189C1914.09 1009.21 1959.01 1214.97 1981.54 1372.17M1527.71 74.942C1636.9 290.58 1724.53 544.694 1790.59 771.91C1856.64 1001.01 1901.13 1203.2 1924.05 1358.4M1483.3 52.9672C1589.15 282.183 1674.27 538.177 1738.65 764.667C1803.03 992.83 1846.68 1191.49 1869.6 1344.67M1443.98 33.384C1546.02 275.108 1628.2 532.517 1690.52 758.005C1752.83 984.97 1795.28 1180.01 1817.86 1331.12M1409.11 17.7059C1506.96 270.309 1585.84 528.345 1645.75 752.351C1705.66 977.65 1746.59 1168.92 1768.54 1317.83M1378.09 7.0449C1471.42 268.482 1546.69 526.118 1603.9 748.015C1661.11 971.031 1700.26 1158.31 1721.35 1304.9M1350.36 2.1269C1438.9 270.067 1510.3 526.116 1564.57 745.179C1618.85 965.204 1655.99 1148.24 1675.99 1292.36M1325.36 3.31589C1408.89 275.266 1476.22 528.457 1527.36 743.918C1578.51 960.195 1613.46 1138.98 1632.21 1280.26M1302.59 10.6479C1380.94 284.065 1444.04 533.11 1491.9 744.199C1539.76 955.972 1572.38 1129.79 1589.75 1268.58M1281.54 23.879C1354.59 296.265 1413.35 539.92 1457.83 745.903C1502.3 952.456 1532.48 1121.34 1548.37 1257.32M1261.75 42.525C1329.44 311.512 1383.79 548.623 1424.81 748.841C1465.82 949.524 1493.5 1113.31 1507.85 1246.42M1242.79 65.9119C1305.08 329.331 1354.99 558.876 1392.52 752.763C1430.05 947.025 1455.2 1105.63 1467.96 1235.85M1224.23 93.2269C1281.15 349.156 1326.63 570.542 1360.68 757.385C1394.73 944.791 1417.34 1098.18 1428.51 1225.56M1205.7 123.563C1257.3 370.372 1298.4 582.396 1329 762.404C1359.6 942.646 1379.7 1090.87 1389.3 1215.48M1186.84 155.966C1279.57 629.836 1334.01 962.764 1350.17 1205.57M1167.31 189.473C1249.81 640.185 1297.69 957.612 1310.94 1195.78M1146.81 223.151C1219.39 649.419 1260.95 952.167 1271.48 1186.08M1125.05 256.128C1188.09 657.286 1223.61 946.325 1231.63 1176.43M1101.8 287.621C1155.69 663.584 1185.52 940.01 1191.29 1166.82M1076.81 316.954C1122.02 668.167 1146.53 933.174 1150.33 1157.27M1049.89 343.573C1086.92 670.946 1106.51 925.804 1108.67 1147.77M1020.88 367.056C1050.25 671.895 1065.36 917.909 1066.21 1138.36M989.607 387.12C1011.89 671.045 1022.99 909.533 1022.88 1129.08M955.972 403.614C971.755 668.485 979.309 900.742 978.63 1119.97M919.876 416.519C929.759 664.351 934.273 891.627 933.41 1111.09M881.252 425.937C885.857 658.826 887.837 882.292 887.188 1102.49M839.951 1048.73C951.859 1067.61 1054.09 1090.11 1149.4 1110.7C1244.94 1131.68 1333.56 1150.75 1423.55 1171.63C1513.77 1192.47 1605.37 1215.11 1712.17 1242.52C1819.2 1269.49 1941.44 1301.22 2098.26 1330.11M839.957 1004.57C952.008 1023.67 1053.65 1045.62 1147.8 1064.21C1242.19 1083.27 1329.07 1098.99 1417.23 1116.39C1505.62 1133.75 1595.28 1152.79 1700.81 1177.52C1806.58 1201.69 1928.23 1231.54 2086.22 1257.84M839.964 960.43C952.002 979.47 1052.87 1000.44 1145.65 1016.49C1238.68 1033.1 1323.61 1044.78 1409.69 1058.16C1496.02 1071.48 1583.5 1086.5 1687.53 1108.34C1791.82 1129.49 1912.66 1157.46 2071.65 1180.97M839.97 916.304C951.832 934.979 1051.75 954.529 1142.94 967.446C1234.41 981.027 1317.16 987.974 1400.93 996.803C1484.97 1005.55 1570.02 1016.16 1672.33 1035C1774.91 1053 1894.73 1079.24 2054.54 1099.85M839.977 872.195C951.503 890.174 1050.28 907.816 1139.69 916.995C1229.39 926.955 1309.73 928.451 1390.96 932.209C1472.47 935.848 1554.86 941.731 1655.21 957.584C1755.85 972.407 1874.44 997.2 2034.9 1014.94M839.985 828.104C951.014 845.031 1048.46 860.248 1135.88 865.054C1223.61 870.771 1301.32 866.079 1379.77 864.275C1458.51 862.309 1538 863.211 1636.17 876.194C1734.64 887.927 1851.78 911.74 2012.73 926.801M839.992 784.03C950.366 799.526 1046.3 811.766 1131.53 811.541C1217.08 812.37 1291.92 800.735 1367.36 792.911C1443.11 784.871 1519.45 780.618 1615.21 790.99C1711.28 799.857 1826.76 823.349 1988.02 836.085M840 739.974C949.561 753.631 1043.8 762.312 1126.63 756.372C1209.79 751.648 1281.55 732.302 1353.74 718.041C1426.26 703.494 1499.22 694.003 1592.33 702.181C1685.77 708.555 1799.37 732.598 1960.77 743.563M840.008 695.936C948.592 707.322 1040.94 711.829 1121.17 699.471C1201.74 688.504 1270.19 660.671 1338.9 639.6C1407.96 618.162 1477.28 603.453 1567.53 610.022C1658.12 614.446 1769.63 640.149 1930.99 650.116M840.016 651.915C947.467 660.574 1037.75 660.259 1115.17 640.756C1192.94 622.839 1257.85 585.735 1322.85 557.537C1388.21 528.877 1453.66 509.084 1540.81 514.821C1628.31 518.024 1737.51 546.756 1898.67 556.74M840.025 607.912C946.18 613.359 1034.21 607.542 1108.61 580.152C1183.39 554.56 1244.53 507.396 1305.58 471.817C1367.01 435.663 1428.35 411.05 1512.17 416.94C1596.36 419.853 1703.04 453.27 1863.82 464.554M840.034 563.927C944.735 565.655 1030.33 553.622 1101.51 517.583C1173.07 483.575 1230.23 425.561 1287.11 382.266C1315.66 361.102 1344.32 342.013 1375.74 330.29C1407.19 318.35 1441.41 313.776 1481.62 316.643C1521.87 319.293 1568.11 329.384 1624.2 341.771C1680.3 353.941 1746.24 368.407 1826.43 374.799M840.043 519.96C943.129 517.433 1026.1 498.44 1093.85 452.975C1162.01 409.797 1214.94 340.147 1267.41 289.159C1293.76 264.209 1320.17 242.059 1349.42 228.765C1378.7 215.219 1410.81 210.529 1449.14 214.686C1487.5 218.59 1532.07 231.341 1586.85 246.865C1641.66 262.136 1706.68 280.18 1786.51 288.846M840.062 431.751C939.425 421.369 1016.57 383.103 1076.82 316.353C1137.51 251.896 1181.3 158.955 1224.18 92.3189C1267.51 23.6159 1309.93 -13.4771 1378.15 6.2989C1412.37 15.218 1453.24 36.957 1505.1 63.4329C1556.99 89.3559 1619.86 120.014 1698.72 133.982M840.052 476.01C941.364 470.793 1021.53 441.481 1085.64 385.833C1150.18 332.238 1198.68 252.306 1246.48 193.383C1294.71 132.699 1342.26 97.6862 1414.74 111.02C1451.1 116.85 1493.88 133.565 1547.26 154.249C1600.66 174.45 1664.66 198.62 1744.05 208.2M2107.11 1400.2C2127.48 1563.09 2124 1673.8 2096.66 1744.1C2069.33 1815.57 2018.14 1846.64 1943.11 1877.32M2042.54 1386.77C2064.19 1547.36 2062.7 1657.66 2038.08 1729.73C2013.47 1802.88 1965.71 1837.81 1894.83 1872.56M1981.68 1373.09C2004.13 1531.5 2004.22 1641.32 1981.93 1715.05C1959.64 1789.77 1914.99 1828.4 1847.96 1867.13M1924.19 1359.32C1947.02 1515.6 1948.29 1624.87 1927.98 1700.15C1907.68 1776.33 1865.81 1818.53 1802.37 1861.16M1869.73 1345.58C1892.57 1499.71 1894.67 1608.37 1876.04 1685.13C1857.42 1762.68 1818.06 1808.33 1757.96 1854.78M1818 1332.01C1840.5 1483.94 1843.14 1591.92 1825.91 1670.07C1808.68 1748.91 1771.59 1797.91 1714.63 1848.1M1768.67 1318.71C1790.55 1468.33 1793.46 1575.6 1777.4 1655.05C1761.33 1735.12 1726.29 1787.38 1672.28 1841.24M1721.47 1305.76C1742.48 1452.95 1745.43 1559.45 1730.32 1640.16C1715.22 1721.4 1682.04 1776.84 1630.81 1834.28M1676.11 1293.21C1696.05 1437.84 1698.85 1543.55 1684.52 1625.45C1670.19 1707.82 1638.73 1766.37 1590.13 1827.31M1632.32 1281.09C1651.01 1423.02 1653.51 1527.93 1639.82 1611C1626.12 1694.45 1596.23 1756.06 1550.15 1820.43M1589.85 1269.4C1607.17 1408.52 1609.24 1512.64 1596.06 1596.84C1582.88 1681.37 1554.46 1745.98 1510.8 1813.69M1548.47 1258.12C1564.3 1394.35 1565.84 1497.71 1553.1 1583.03C1540.35 1668.63 1513.31 1736.2 1471.98 1807.17M1507.93 1247.2C1522.22 1380.51 1523.18 1483.15 1510.8 1569.6C1498.41 1656.28 1472.7 1726.77 1433.64 1800.93M1468.03 1236.62C1493.46 1498.5 1469.34 1641.64 1395.7 1795M1428.57 1226.31C1450.83 1482.17 1427.33 1629.83 1358.09 1789.45M1389.36 1216.21C1408.48 1466.27 1385.61 1618.65 1320.75 1784.31M1350.22 1206.29C1366.3 1450.85 1344.1 1608.12 1283.63 1779.61M1310.98 1196.49C1324.17 1435.94 1302.73 1598.27 1246.66 1775.38M1271.51 1186.77C1281.97 1421.58 1261.41 1589.14 1209.82 1771.63M1231.66 1177.11C1239.62 1407.83 1220.08 1580.74 1173.04 1768.38M1191.31 1167.49C1197.03 1394.71 1178.69 1573.09 1136.29 1765.65M1150.34 1157.93C1154.11 1382.26 1137.17 1566.19 1099.53 1763.43M1108.67 1148.42C1110.8 1370.52 1095.48 1560.05 1062.73 1761.71M1066.21 1139.01C1067.03 1359.52 1053.58 1554.66 1025.87 1760.49M1022.88 1129.72C1022.99 1340.19 1011.66 1550.52 988.913 1759.75M978.628 1120.61C977.931 1339.84 969.008 1546.08 951.851 1759.47M933.408 1111.73C932.532 1331.18 926.289 1542.84 914.666 1759.6M887.186 1103.14C886.533 1323.33 883.252 1540.26 877.345 1760.11M839.884 1761.29C1015.6 1755.9 1183.87 1763.89 1358.22 1789.8C1533.69 1813.92 1715.23 1855.96 1943.63 1877.48M839.886 1715.19C1021.28 1712.52 1193.63 1725.19 1371.91 1756.75C1551.44 1786.58 1736.89 1835.3 1973.38 1864.66M839.889 1670.78C1026.43 1670.97 1202.28 1688.24 1383.87 1725.09C1566.83 1760.27 1755.53 1815.01 1999.49 1851.73M839.892 1626.37C1031.26 1629.65 1210.19 1651.53 1394.62 1693.37C1580.55 1733.64 1771.98 1793.88 2023.05 1837.59M839.895 1581.99C1035.78 1588.52 1217.35 1614.9 1404.15 1661.35C1592.58 1706.35 1786.25 1771.43 2044.08 1821.64M839.898 1537.62C1039.97 1547.52 1223.76 1578.22 1412.46 1628.81C1602.94 1678.07 1798.32 1747.24 2062.58 1803.34M839.902 1493.27C1043.85 1506.63 1229.43 1541.35 1419.56 1595.5C1611.61 1648.47 1808.21 1720.88 2078.54 1782.16M839.905 1448.94C1047.42 1465.81 1234.35 1504.15 1425.44 1561.21C1618.6 1617.23 1815.9 1691.97 2091.97 1757.61M839.909 1404.62C1050.66 1425 1238.53 1466.47 1430.1 1525.7C1623.91 1584.05 1821.42 1660.15 2102.86 1729.28M839.914 1360.32C1053.59 1384.17 1241.96 1428.18 1433.55 1488.78C1627.53 1548.64 1824.73 1625.08 2111.22 1696.78M839.918 1316.04C1056.2 1343.29 1244.65 1389.13 1435.78 1450.22C1629.48 1510.72 1825.86 1586.47 2117.04 1659.78M839.923 1271.77C1058.5 1302.32 1246.59 1349.17 1436.8 1409.84C1629.74 1470.04 1824.8 1544.06 2120.33 1618.03M839.928 1227.52C1060.47 1259.66 1247.79 1309.66 1436.6 1367.54C1628.33 1424.84 1821.55 1499.16 2121.08 1571.31M839.933 1183.29C1062.13 1217.94 1248.24 1267.88 1435.32 1322.8C1529.67 1350.83 1625.67 1381.44 1734.93 1415.08C1844.38 1448.49 1967.09 1484.93 2119.3 1519.5M839.944 1094.55C951.535 1112.94 1054.18 1135.59 1150.48 1157.7C1247 1180.12 1337.17 1202 1428.83 1225.89C1520.7 1249.76 1614.05 1275.64 1721.92 1305.54C1830.02 1335.09 1952.64 1368.67 2108.06 1399.92M839.938 1139.08C951.054 1156.74 1053.92 1179.19 1150.97 1202.27C1248.23 1225.59 1339.67 1249.56 1432.7 1275.81C1525.93 1302.05 1620.73 1330.56 1729.42 1362.53C1838.31 1394.23 1961.08 1429.39 2114.98 1462.52M840.055 432.079C840.006 652.127 839.967 872.844 839.937 1094.23M796.283 435.246C792.209 644.501 790.671 863.437 791.665 1086.36M749.945 435.82C742.473 636.206 739.946 854.167 742.372 1078.94M701.08 434.238C690.826 627.51 687.821 845.16 692.076 1071.97M649.755 430.978C637.321 618.68 634.341 836.521 640.811 1065.5M596.062 426.538C582.04 609.967 579.556 828.341 588.623 1059.52M540.122 421.422C525.069 601.608 523.55 820.686 535.569 1054M482.082 416.12C466.531 593.807 466.411 813.599 481.722 1048.91M422.114 411.097C406.565 586.739 408.249 807.093 427.166 1044.18M360.418 406.78C345.328 580.54 349.19 801.154 372 1039.73M297.22 403.551C283.004 575.313 289.372 795.735 316.334 1035.43M232.773 401.743C219.79 571.12 228.962 790.763 260.291 1031.15M167.357 401.635C155.913 567.986 168.131 786.14 204.009 1026.75M101.278 403.457C91.621 565.909 107.074 781.743 147.637 1022.06M34.8671 407.39C27.1721 564.862 45.998 777.436 91.338 1016.88M-31.514 413.578C-37.14 564.803 -14.8719 773.07 35.2891 1011.04M-97.482 422.136C-101.008 565.686 -75.2879 768.5 -20.3229 1004.35M-162.622 433.157C-164.103 567.47 -134.995 763.581 -75.295 996.626M-226.496 446.728C-226.075 570.13 -193.713 758.194 -129.412 987.702M-288.639 462.935C-286.549 573.68 -251.148 752.239 -182.446 977.433M-348.558 481.873C-346.844 530.657 -336.454 595.792 -317.388 677.279C-298.321 758.594 -270.577 856.318 -234.157 965.705M-405.734 503.647C-403.571 544.4 -392.369 602.138 -372.129 677.694C-351.888 753.021 -322.609 846.165 -284.289 952.44M-459.621 528.368C-457.283 560.231 -445.527 609.698 -424.354 678.506C-403.179 747.052 -372.587 834.94 -332.577 937.605M-509.648 556.139C-507.465 578.318 -495.464 618.605 -473.646 679.85C-451.828 740.796 -420.193 822.701 -378.74 921.217M-555.216 587.029C-553.577 598.84 -541.697 629.056 -519.575 681.91C-497.453 734.422 -465.09 809.571 -422.485 903.349M-595.699 621.034C-595.059 621.967 -583.722 641.274 -561.69 684.911C-539.658 728.155 -506.929 795.729 -463.506 884.129M-630.446 658.018C-631.322 647.818 -621.013 655.474 -599.519 689.099C-578.025 722.271 -545.347 781.412 -501.483 863.748M-679.991 739.18C-685.728 707.575 -679.178 690.435 -660.341 701.982C-641.504 712.924 -610.38 752.438 -566.968 820.523M-658.778 697.626C-661.756 676.409 -653.021 671.833 -632.572 694.72C-612.124 717.085 -579.961 766.911 -536.086 842.448M-584.123 794.201C-517.31 838.796 -415.93 880.454 -299.356 909.417C-182.551 939.112 -50.552 956.113 82.813 968.317C216.409 980.611 351.371 988.097 479.405 1000.73C607.67 1012.8 729.008 1030.01 840.669 1048.86M-599.456 771.657C-533.534 807.823 -431.288 843.956 -313.181 869.192C-194.831 895.178 -60.619 910.266 74.848 921.694C210.558 933.21 347.523 941.055 476.983 954.448C606.687 967.258 728.885 985.617 840.676 1004.7M-613.484 752.134C-548.601 779.291 -445.595 809.369 -326.048 830.498C-206.243 852.39 -69.8979 865.333 67.584 875.849C205.323 886.445 344.198 894.6 474.969 908.672C605.998 922.136 728.924 941.517 840.683 960.556M-626.206 735.66C-562.512 753.272 -458.85 776.765 -337.953 793.411C-216.786 810.822 -78.384 821.386 61.026 830.847C200.707 840.379 341.397 848.795 473.365 863.447C605.604 877.47 729.119 897.731 840.688 916.428M-637.623 722.242C-575.264 729.82 -471.052 746.208 -348.899 757.996C-226.461 770.543 -86.082 778.49 55.171 786.752C196.709 795.073 339.122 803.696 472.171 818.824C605.505 833.301 729.476 854.283 840.693 872.315M-647.734 711.861C-586.86 708.976 -482.203 717.751 -358.885 724.313C-235.267 731.616 -92.9889 736.707 50.0211 743.627C193.33 750.588 337.369 759.364 471.385 774.852C605.7 789.669 729.992 811.198 840.697 828.218M-656.54 704.476C-597.298 690.764 -492.301 691.433 -367.91 692.409C-243.204 694.097 -99.1047 696.094 45.5753 701.528C190.568 706.978 336.141 715.854 471.009 731.577C606.191 746.614 730.668 768.499 840.7 784.135M-664.04 700.018C-606.579 675.192 -501.347 667.281 -375.975 662.324C-250.273 658.036 -104.43 656.703 41.8333 660.508C188.425 664.302 335.437 673.223 471.042 689.051C606.976 704.177 731.503 726.211 840.702 740.068M-670.235 698.393C-614.702 662.247 -509.341 645.308 -383.079 634.087C-256.473 623.475 -108.966 618.58 38.7943 620.619C186.899 622.611 335.257 631.524 471.485 647.318C608.056 662.398 732.498 684.358 840.705 696.016M-675.125 699.478C-621.669 651.904 -516.283 625.516 -389.224 607.716C-261.804 590.448 -112.711 581.767 36.4603 581.906C185.991 581.955 335.601 590.812 472.336 606.425C609.431 621.317 733.652 642.963 840.705 651.978M-678.709 703.122C-627.478 644.112 -522.173 607.89 -394.408 583.22C-266.267 558.984 -115.666 546.299 34.8292 544.412C185.701 542.382 336.468 551.139 473.596 566.419C611.1 580.974 734.965 602.052 840.706 607.956M-680.988 709.143C-632.13 638.803 -527.012 592.4 -398.633 560.593C-269.861 529.101 -117.831 512.207 33.9033 508.174C186.031 503.939 337.861 512.555 475.266 527.344C613.065 541.409 736.438 561.647 840.705 563.947M-681.96 717.329C-635.624 635.89 -530.796 579 -401.896 539.821C-272.586 500.812 -119.204 479.514 33.6823 473.227C186.978 466.667 339.778 475.109 477.347 489.245C615.324 502.662 738.071 521.773 840.704 519.953M-679.973 739.273C-639.148 636.807 -535.221 558.151 -405.551 503.593C-275.435 448.834 -119.577 418.171 35.3612 407.078C190.743 395.539 345.205 403.565 482.754 415.884C620.748 427.509 741.829 443.427 840.699 431.681M-681.628 727.434C-637.963 635.262 -533.53 567.631 -404.2 520.875C-274.443 474.119 -119.788 448.238 34.1641 439.598C188.543 430.606 342.218 438.849 479.834 452.166C617.878 464.773 739.863 482.455 840.702 475.974M839.937 1094.88C839.908 1316.26 839.889 1538.29 839.879 1760.96M791.668 1087.02C792.671 1309.95 796.203 1536.87 802.275 1762.07M742.379 1079.6C744.812 1304.37 752.199 1535.94 764.532 1763.39M692.088 1072.64C696.353 1299.46 707.88 1535.4 726.654 1764.85M640.83 1066.18C647.32 1295.14 663.259 1535.17 688.652 1766.35M588.65 1060.2C597.737 1291.33 618.366 1535.15 650.542 1767.8M535.604 1054.69C547.647 1287.92 573.229 1535.2 612.342 1769.1M481.767 1049.6C497.107 1284.79 527.878 1535.21 574.076 1770.15M427.222 1044.88C446.172 1281.78 482.356 1535.01 535.771 1770.81M372.067 1040.43C394.915 1278.74 436.712 1534.47 497.459 1770.96M316.413 1036.13C343.414 1275.48 391.002 1533.4 459.177 1770.46M260.383 1031.86C291.755 1271.81 345.284 1531.63 420.963 1769.17M204.114 1027.46C240.039 1267.53 299.621 1528.97 382.864 1766.95M147.756 1022.76C188.371 1262.42 254.091 1525.23 344.927 1763.62M91.471 1017.59C136.866 1256.24 208.777 1520.19 307.206 1759.04M35.436 1011.74C85.651 1248.79 163.758 1513.66 269.758 1753.03M-20.1609 1005.04C34.861 1239.81 119.13 1505.43 232.644 1745.44M-75.119 997.309C-15.359 1229.1 74.9901 1495.29 195.93 1736.1M-129.223 988.373C-64.86 1216.44 31.4421 1483.03 159.685 1724.84M-182.244 978.092C-113.474 1201.63 -11.397 1468.46 123.986 1711.51M-233.942 966.348C-161.032 1184.51 -53.415 1451.39 88.908 1695.94M-284.064 953.065C-207.353 1164.91 -94.489 1431.66 54.535 1678M-332.342 938.209C-252.247 1142.73 -134.483 1409.11 20.954 1657.55M-378.496 921.797C-295.514 1117.89 -173.263 1383.6 -11.744 1634.46M-422.234 903.9C-336.945 1090.36 -210.688 1355.04 -43.464 1608.62M-463.251 884.649C-376.318 1060.18 -246.605 1323.34 -74.106 1579.95M-501.225 864.232C-413.412 1027.41 -280.857 1288.45 -103.566 1548.36M-566.712 820.922C-523.253 888.614 -467.505 984.637 -399.471 1098.47C-331.436 1212.07 -251.114 1343.47 -158.505 1476.28M-535.828 842.892C-491.907 918.197 -436.272 1019.2 -368.923 1135.44C-301.574 1251.47 -222.512 1382.74 -131.737 1513.81M-158.229 1476.68C-36.2059 1660.8 132.657 1735.98 307.584 1759.6C483.644 1782.94 665.766 1764.94 840.448 1761.27M-195.886 1421.8C-133.554 1514.84 -57.886 1581.71 24.541 1627.2C107.046 1672.88 196.31 1697.19 287.639 1709.72C379.047 1722.26 472.52 1723.01 565.244 1721.61C658.046 1720 750.098 1716.24 840.468 1715.19M-230.86 1369.28C-167.188 1463.33 -89.0728 1531.23 -3.73077 1577.37C81.6972 1623.74 174.351 1648.36 269.081 1661.15C363.897 1673.95 460.788 1674.93 556.665 1674.15C652.628 1673.15 747.576 1670.41 840.487 1670.78M-264.527 1317.39C-199.665 1411.96 -119.208 1480.61 -31.043 1527.25C57.217 1574.14 153.183 1599.02 251.227 1612.08C349.364 1625.17 449.58 1626.43 548.495 1626.39C647.505 1626.11 745.214 1624.51 840.505 1626.39M-296.889 1266.36C-230.985 1360.91 -148.291 1430.02 -57.395 1476.96C33.603 1524.19 132.804 1549.27 234.075 1562.61C335.449 1575.97 438.894 1577.6 540.733 1578.38C642.675 1578.89 743.01 1578.55 840.522 1582.01M-327.946 1216.42C-261.148 1310.4 -176.322 1379.62 -82.7859 1426.66C10.8601 1474.03 113.216 1499.22 217.629 1512.83C322.152 1526.46 428.733 1528.51 533.381 1530.18C638.14 1531.56 740.967 1532.57 840.539 1537.66M-357.697 1167.8C-290.153 1260.6 -203.299 1329.58 -107.216 1376.49C-11.0129 1423.77 94.42 1448.98 201.888 1462.83C309.475 1476.71 419.098 1479.21 526.44 1481.84C633.902 1484.15 739.083 1486.59 840.553 1493.31M-386.143 1120.7C-318.001 1211.72 -229.226 1280.06 -130.688 1326.59C-32.02 1373.53 76.412 1398.66 186.848 1412.7C297.414 1426.79 409.984 1429.79 519.906 1433.41C629.957 1436.71 737.359 1440.63 840.569 1448.99M-413.283 1075.33C-344.693 1163.92 -254.101 1231.22 -153.198 1277.11C-52.157 1323.44 59.196 1348.35 172.514 1362.54C285.971 1376.78 401.395 1380.3 513.782 1384.96C626.307 1389.27 735.794 1394.71 840.584 1404.69M-439.118 1031.89C-370.227 1117.39 -277.923 1183.22 -174.749 1228.17C-71.426 1273.6 42.7691 1298.16 158.883 1312.44C275.148 1326.77 393.332 1330.83 508.068 1336.54C622.952 1341.87 734.389 1348.87 840.596 1360.4M-463.647 990.551C-394.602 1072.3 -300.693 1136.2 -195.339 1179.91C-89.825 1224.14 27.134 1248.19 145.957 1262.48C264.942 1276.83 385.792 1281.42 502.762 1288.2C619.892 1294.57 733.142 1303.12 840.609 1316.12M-486.871 951.493C-417.821 1028.8 -322.41 1090.3 -214.968 1132.44C-107.356 1175.16 12.288 1198.53 133.736 1212.74C255.354 1227.03 378.776 1232.15 497.866 1239.98C617.127 1247.39 732.057 1257.49 840.621 1271.87M-508.79 914.868C-439.883 987.051 -343.077 1045.65 -233.639 1085.91C-124.019 1126.77 -1.76778 1149.28 122.217 1163.33C246.383 1177.45 372.283 1183.09 493.378 1191.96C614.655 1200.37 731.129 1212.01 840.633 1227.63M-529.403 880.818C-460.789 947.191 -362.691 1002.4 -251.349 1040.41C-139.813 1079.07 -15.0317 1100.54 111.403 1114.3C238.032 1128.16 366.315 1134.31 489.301 1144.18C612.481 1153.57 730.363 1166.69 840.643 1183.4M-566.842 820.72C-499.261 873.409 -398.889 920.232 -284.002 952.664C-168.897 985.802 -39.275 1004.55 91.82 1017.42C223.132 1030.37 355.916 1037.44 482.35 1049.2C609.002 1060.42 729.302 1076.33 840.661 1094.67M-548.71 849.466C-480.536 909.356 -381.253 960.652 -268.099 996.069C-154.739 1032.16 -27.5068 1052.38 101.293 1065.76C230.298 1079.23 360.871 1085.85 485.632 1096.69C610.598 1107.02 729.754 1121.57 840.652 1139.2" stroke="#FFF9EB"/>
</g>
</svg>
