<svg width="1440" height="733" viewBox="0 0 1440 733" fill="none" xmlns="http://www.w3.org/2000/svg">
<path d="M-493.013 390.455C-333.772 273.535 -77.5915 82.178 170.613 -13.3791C296.492 -62.3277 419.703 -84.901 536.542 -75.0308C653.379 -65.6214 763.845 -23.7674 864.211 45.5103C965.777 113.626 1058.34 206.033 1148.48 298.478C1238.9 390.102 1326.68 482.288 1425.43 530.605C1524.75 577.512 1634.11 582.401 1780.85 465.736C1929.16 346.253 2111.54 109.006 2394.47 -397.857M-505.566 376.06C-340.919 253.605 -81.481 50.0627 170.148 -57.1835C297.685 -112.096 422.548 -140.392 540.945 -135.659C659.34 -131.391 771.269 -94.094 872.891 -28.552C975.71 35.7126 1069.32 125.175 1160.18 215.195C1251.32 304.413 1339.52 394.66 1438.32 441.572C1537.66 487.13 1646.72 491.115 1792.45 375.446C1939.72 257.071 2120.51 22.6947 2399.58 -475.147M-517.485 362.918C-347.929 234.378 -85.4226 18.3442 169.573 -100.964C298.743 -162.011 425.262 -196.187 545.238 -196.708C665.21 -197.699 778.638 -165.036 881.544 -103.264C985.642 -42.8862 1080.31 43.6401 1171.91 131.277C1263.79 218.131 1352.4 306.512 1451.22 352.121C1550.57 396.429 1659.28 399.637 1803.97 285.115C1950.14 168.001 2129.28 -63.326 2404.47 -551.981M-528.834 350.93C-441.591 282.287 -332.082 192.753 -211.658 102.015C-91.3136 11.6237 39.9452 -79.9735 168.846 -144.747C299.623 -212.102 427.809 -252.316 549.386 -258.209C670.958 -264.579 785.922 -236.628 890.144 -178.661C995.554 -122.203 1091.32 -38.6024 1183.66 46.6966C1276.29 131.231 1365.31 217.826 1464.12 262.237C1563.46 305.402 1671.79 307.967 1815.4 194.748C1960.42 79.0451 2137.85 -149.053 2409.11 -628.359M-539.674 340.019C-448.968 267.475 -337.945 173.237 -216.472 76.8094C-95.0793 -19.2185 36.7639 -117.437 167.278 -188.702C299.256 -262.726 429.697 -309.132 553.456 -320.123C677.211 -331.663 794.284 -307.788 899.421 -253.961C1006.72 -200.703 1102.86 -120.667 1195.47 -38.4712C1288.31 42.9655 1377.45 127.065 1476.44 170.686C1575.91 213.019 1684.44 216.493 1827.37 105.987C1971.63 -7.01308 2147.58 -230.793 2413.52 -704.281M-550.074 330.119C-458.055 254.183 -344.663 154.353 -221.927 51.9499C-99.0655 -50.3185 33.4271 -153.686 166.163 -232.701C298.99 -312.23 431.931 -366.364 557.352 -382.846C682.971 -400.176 800.802 -379.592 907.954 -330.801C1016.73 -281.51 1113.9 -204.37 1207.2 -124.448C1300.74 -45.2617 1390.23 37.1744 1489.21 79.8341C1588.67 121.256 1696.86 124.449 1838.7 15.6338C1981.8 -95.5706 2155.99 -315.722 2417.68 -779.751M-560.108 321.183C-466.318 241.241 -351.645 136.154 -227.611 27.721C-103.46 -80.5681 30.3453 -190.742 164.624 -276.52C298.975 -362.813 433.668 -423.606 560.867 -445.847C688.254 -468.969 807.867 -453.213 916.349 -408.398C1026.64 -363.108 1124.88 -288.851 1218.89 -211.153C1313.14 -134.167 1402.99 -53.3062 1501.96 -11.4866C1601.38 29.1429 1709.2 32.2077 1849.9 -74.7463C1991.81 -183.987 2164.18 -400.324 2421.6 -854.767M-569.843 313.18C-474.509 229.103 -358.702 118.634 -233.462 4.00613C-108.12 -110.466 26.9592 -227.638 162.763 -320.364C298.628 -413.606 435.085 -481.235 564.095 -509.363C693.283 -538.411 814.723 -527.574 924.577 -486.767C1036.42 -445.515 1135.77 -374.129 1230.52 -298.604C1325.49 -223.766 1415.71 -144.387 1514.65 -103.285C1614.03 -63.3233 1721.45 -60.2314 1860.97 -165.152C2001.65 -272.264 2172.13 -484.594 2425.26 -929.328M-579.357 306.096C-482.7 217.782 -365.893 101.813 -239.538 -19.1739C-113.093 -139.988 23.2149 -264.353 160.533 -364.213C297.899 -464.597 436.141 -539.242 566.998 -573.398C698.018 -608.508 821.335 -602.691 932.545 -565.673C1160.86 -495.638 1330.98 -281.062 1527.21 -195.263C1626.6 -157.032 1733.77 -152.692 1871.78 -255.211C2010.8 -359.469 2180.66 -570.585 2428.66 -1003.44M-588.722 299.934C-490.946 207.305 -373.272 85.7183 -245.891 -41.7883C-118.432 -169.102 19.0676 -300.861 157.892 -408.053C296.747 -515.77 436.8 -597.622 569.537 -637.947C702.428 -679.264 827.668 -678.556 940.351 -645.63C1171.93 -583.688 1343.59 -372.749 1539.76 -288.045C1639.09 -250.186 1745.8 -245.528 1882.56 -345.679C2020.3 -447.488 2188.09 -654.104 2431.79 -1077.09M-598.017 294.718C-499.32 197.716 -380.907 70.4024 -252.577 -63.7875C-124.181 -197.764 14.4663 -337.121 154.793 -451.847C295.134 -567.101 437.018 -656.355 571.676 -702.999C706.476 -750.674 833.692 -755.178 947.894 -726.384C1182.84 -672.623 1356.12 -465.191 1552.22 -381.317C1651.48 -343.7 1757.69 -338.561 1893.18 -436.168C2029.59 -535.354 2195.27 -737.286 2434.66 -1150.28M-607.317 290.49C-507.888 189.076 -388.844 55.9228 -259.654 -85.1141C-130.4 -225.916 9.37094 -373.084 151.191 -495.553C293.012 -618.556 436.757 -715.415 573.373 -768.534C710.123 -822.723 839.367 -832.551 955.145 -807.932C1193.56 -762.451 1368.54 -558.391 1564.56 -475.081C1663.75 -437.572 1769.45 -431.785 1903.62 -526.671C2038.67 -623.06 2202.19 -820.123 2437.25 -1223.02M-616.703 287.311C-516.71 181.464 -397.165 42.3607 -267.174 -105.692C-137.134 -253.487 3.72652 -408.69 147.041 -539.122C290.341 -670.09 435.972 -774.768 574.589 -834.529C713.329 -895.398 844.66 -910.664 962.068 -890.268C1204.05 -853.174 1380.83 -652.352 1576.76 -569.334C1675.89 -531.798 1781.04 -525.194 1913.87 -617.184C2047.53 -710.602 2208.85 -902.614 2439.55 -1295.3M-626.247 285.266C-525.863 174.975 -405.91 29.8166 -275.194 -125.429C-144.434 -280.392 -2.50877 -443.867 142.317 -582.498C287.113 -721.67 434.69 -834.406 575.412 -900.985C716.248 -968.717 849.812 -989.53 968.914 -973.378C1212.67 -945.216 1394.74 -746.47 1588.89 -664.312C1687.59 -625.802 1791.77 -619.36 1923.94 -708.053C2056.78 -798.525 2216.06 -981.982 2441.56 -1367.1M-636.029 284.463C-534.391 169.022 -414.934 18.3647 -283.823 -144.192C-152.805 -306.352 -9.62614 -478.536 136.743 -625.289C284.156 -774.393 432.941 -893.523 575.415 -967.436C717.847 -1042.05 853.968 -1071.45 975.092 -1057.26C1222.57 -1037.65 1406.79 -842.012 1600.76 -759.522C1699.38 -720.746 1802.99 -713.107 1933.76 -798.553C2065.15 -885.691 2222.27 -1063.85 2443.28 -1438.44M-646.122 285.033C-544.339 165.063 -424.709 8.2062 -293.01 -161.896C-161.418 -331.564 -17.2199 -512.543 130.661 -667.987C279.581 -825.846 430.353 -953.454 574.941 -1034.57C719.481 -1116.4 857.838 -1151.75 980.832 -1141.88C1232.14 -1130.96 1418.63 -938.328 1612.52 -854.912C1710.47 -816.996 1814.34 -806.747 1943.38 -888.691C2073.15 -971.879 2228.09 -1147.26 2444.69 -1509.31M-656.602 287.134C-554.813 162.651 -435.09 -0.520422 -302.86 -178.37C-170.749 -355.746 -25.5562 -545.798 123.843 -710.206C274.275 -877.093 427.066 -1013.45 573.817 -1101.96C720.515 -1191.24 861.174 -1232.67 986.101 -1227.2C1241.38 -1225.14 1430.24 -1035.36 1623.99 -951.071C1721.85 -912.562 1825.13 -900.827 1952.74 -979.175C2081.03 -1058.7 2233.63 -1228.31 2445.78 -1579.7M-667.539 290.956C-565.865 161.974 -446.128 -7.6392 -313.42 -193.448C-180.84 -378.742 -34.676 -578.162 116.241 -751.824C268.189 -928.033 423.032 -1073.42 571.998 -1169.56C720.904 -1266.49 863.932 -1314.18 990.859 -1313.19C1250.24 -1320.17 1441.58 -1133.11 1635.21 -1047.68C1733 -1008.44 1835.69 -995.052 1961.84 -1069.63C2088.62 -1145.32 2238.86 -1308.98 2446.56 -1649.59M-679 296.712C-577.548 163.254 -457.876 -12.9346 -324.737 -206.933C-191.739 -400.376 -44.6314 -609.472 108.012 -793.036C260.543 -977.233 418.491 -1133.83 569.649 -1237.65C721.041 -1342.67 865.116 -1394.75 995.068 -1399.81C1258.68 -1416.01 1452.63 -1231.56 1646.17 -1144.73C1743.9 -1104.63 1846 -1089.41 1970.66 -1160.04C2095.92 -1231.72 2243.75 -1389.26 2447 -1719M-25.7461 1267.47C-54.692 1126.07 -29.8663 1059.9 19.2314 1023.05C68.7878 987.86 142.388 987.102 222.128 1017.43C302.254 1047.77 388.5 1111.24 472.15 1203.35C556.081 1295.17 637.36 1415.59 713.964 1551.34C792.003 1686.01 863.817 1836.08 937.685 1977.48C1011.65 2118.33 1087.67 2250.52 1176.44 2336.55C1266.94 2419.64 1370.32 2459.83 1522.65 2355.46C1599.45 2301.43 1689.04 2210.02 1802.44 2052.17C1916.25 1893.73 2053.87 1668.85 2236.15 1334.23M-56.4506 1187.91C-79.9215 1057.71 -50.1298 996.621 3.00072 962.122C56.6216 929.231 133.443 928.026 215.791 956.974C298.53 985.9 386.783 1046.88 472.117 1136.37C557.73 1225.56 640.363 1343.2 718.217 1476.53C797.459 1608.67 870.419 1756.82 945.344 1896.62C1020.37 2035.87 1097.37 2166.77 1187.06 2251.58C1278.43 2333.38 1382.62 2371.91 1535.29 2265.97C1612.23 2211.22 1701.85 2119.13 1814.92 1961.31C1928.37 1802.92 2065.29 1578.81 2245.88 1246.94M-86.6043 1113.14C-104.401 993.623 -69.6674 936.939 -12.5395 904.288C45.1039 873.18 125.081 871.153 209.999 898.438C295.308 925.667 385.542 983.969 472.544 1070.71C559.819 1157.11 643.795 1271.86 723.031 1402.55C802.694 1532.5 877.6 1678.17 953.444 1816.17C1029.62 1953.48 1106.52 2083.88 1197.81 2166.67C1290.01 2247.04 1394.96 2283.85 1547.9 2176.39C1624.96 2120.96 1714.57 2028.26 1827.27 1870.57C1940.34 1712.34 2076.51 1489.12 2255.39 1160.13M-116.119 1043.08C-126.969 933.493 -88.2494 880.519 -27.4396 849.379C33.7658 819.707 117.065 816.451 204.736 841.664C292.797 866.805 385.215 922.081 473.465 1006.17C562.119 1089.81 646.555 1202.19 728.061 1329.48C808.909 1456.79 884.862 1600.16 961.684 1736.29C1038.83 1871.69 1116.63 2000.6 1208.71 2081.8C1301.68 2160.62 1407.32 2195.63 1560.48 2086.75C1637.64 2030.66 1727.2 1937.44 1839.5 1779.98C1952.15 1622.01 2087.54 1399.8 2264.67 1073.8M-144.917 977.603C-149.834 877.48 -106.288 827.474 -41.5925 797.177C23.507 768.244 109.826 763.47 199.979 786.516C290.513 809.449 384.869 861.745 474.748 942.728C565.028 1023.27 650.787 1132.35 733.465 1257.11C815.481 1381.69 892.449 1522.66 970.209 1656.78C1048.29 1790.15 1126.93 1917.43 1219.75 1996.93C1313.44 2074.1 1419.72 2107.26 1573.03 1997.04C1650.26 1940.34 1739.74 1846.66 1851.6 1689.54C1963.81 1531.92 2098.38 1310.85 2273.73 987.958M-172.929 916.575C-171.859 825.122 -123.567 777.451 -55.054 747.527C13.868 718.86 103.126 712.23 195.708 732.846C288.671 753.312 384.935 802.452 476.431 880.202C568.325 957.522 655.4 1063.25 739.227 1185.35C822.39 1307.09 900.352 1445.57 979.008 1577.58C1057.99 1708.81 1137.42 1834.32 1230.93 1912.03C1325.28 1987.47 1432.16 2018.75 1585.56 1907.28C1662.82 1850.02 1752.2 1755.96 1863.59 1599.26C1975.3 1442.09 2109.02 1222.28 2282.57 902.597M-200.098 859.833C-193.031 776.22 -140.085 730.269 -67.8372 700.261C4.81976 671.399 96.9372 662.587 191.9 680.521C287.233 698.27 385.384 744.08 478.488 818.475C571.984 892.444 660.378 994.749 745.329 1114.07C829.625 1232.89 908.554 1368.81 988.074 1498.59C1067.91 1627.6 1148.1 1751.23 1242.24 1827.09C1337.22 1900.73 1444.63 1930.1 1598.07 1817.48C1675.32 1759.69 1764.57 1665.33 1875.45 1509.15C1986.64 1352.53 2119.47 1134.09 2291.19 817.72M-226.371 807.204C-213.333 730.571 -155.844 685.748 -79.9532 655.209C-3.65428 625.71 91.2406 614.409 188.53 629.416C286.183 644.204 386.194 686.512 480.895 757.435C575.982 827.932 665.697 926.756 751.751 1043.19C837.17 1159 917.046 1292.28 997.397 1419.76C1078.06 1546.47 1158.96 1668.11 1253.69 1742.07C1349.23 1813.85 1457.13 1841.3 1610.54 1727.63C1687.76 1669.37 1776.84 1574.79 1887.18 1419.23C1997.82 1263.24 2129.73 1046.29 2299.59 733.331M-251.71 758.496C-232.764 687.977 -170.852 643.713 -91.4179 612.215C-11.5812 581.65 86.0075 567.569 185.574 579.412C285.492 591.005 387.344 629.643 483.632 696.977C580.3 763.881 671.341 859.165 758.48 972.616C845.01 1085.34 925.818 1215.91 1006.97 1341.02C1088.43 1465.34 1170 1584.94 1265.27 1656.95C1361.33 1726.83 1469.66 1752.36 1622.99 1637.75C1700.15 1579.07 1789.02 1484.34 1898.79 1329.5C2008.85 1174.24 2139.79 958.882 2307.78 649.426M-276.083 713.512C-251.324 648.239 -185.13 603.991 -102.256 571.123C-18.9897 539.087 81.2119 521.939 182.999 530.393C285.13 538.563 388.798 573.368 486.669 636.999C584.911 700.19 677.285 791.873 765.493 902.242C853.128 1011.82 934.851 1139.62 1016.78 1262.3C1099.01 1384.18 1181.21 1501.66 1276.97 1571.69C1373.51 1639.65 1482.22 1663.28 1635.4 1547.84C1712.47 1488.8 1801.12 1393.99 1910.28 1239.96C2019.71 1085.53 2149.66 871.867 2315.75 566.006M-299.467 672.048C-269.016 611.167 -198.687 566.421 -112.484 531.789C-25.9024 497.891 76.8245 477.413 180.782 482.253C285.068 486.782 390.536 517.597 489.981 577.406C589.792 636.77 683.507 724.788 772.775 831.992C861.51 938.354 944.138 1063.34 1026.81 1183.54C1109.8 1302.93 1192.58 1418.24 1288.8 1486.28C1385.77 1552.3 1494.81 1574.05 1647.78 1457.9C1724.73 1398.55 1813.11 1303.76 1921.63 1150.62C2030.42 997.106 2159.34 785.247 2323.5 483.069M-321.85 633.894C-285.856 576.572 -211.545 530.844 -122.133 494.073C-32.3526 457.946 72.8122 433.878 178.889 434.892C285.282 435.568 392.527 462.231 493.546 518.109C594.92 573.529 689.985 657.822 780.306 761.783C870.138 864.867 953.661 986.996 1037.06 1104.67C1120.77 1221.54 1204.12 1334.64 1300.74 1400.69C1398.1 1464.76 1507.42 1484.67 1660.13 1367.94C1736.93 1308.34 1825.01 1213.63 1932.86 1061.49C2040.96 908.98 2168.82 699.026 2331.04 400.615M-343.224 598.841C-301.862 544.275 -223.732 497.11 -131.23 457.844C-38.371 419.137 69.1452 391.233 177.29 388.214C285.738 384.833 394.745 407.186 497.332 459.021C600.268 510.383 696.696 590.891 788.061 691.534C878.993 791.282 963.408 910.519 1047.52 1025.64C1131.93 1139.96 1215.81 1250.82 1312.8 1314.89C1410.51 1377.02 1520.05 1395.15 1672.44 1277.95C1749.06 1218.16 1836.82 1123.63 1943.96 972.565C2051.34 821.155 2178.11 613.205 2338.36 318.642M-363.595 566.681C-317.054 514.101 -235.276 465.076 -139.805 422.977C-43.9959 381.36 65.7925 349.386 175.955 342.132C286.408 334.494 397.16 352.382 501.317 400.064C605.813 447.256 703.616 523.916 796.028 621.172C888.06 717.535 973.364 833.847 1058.16 946.393C1143.27 1058.14 1227.64 1166.75 1324.96 1228.85C1422.98 1289.08 1532.7 1305.47 1684.71 1187.94C1761.12 1128.03 1848.52 1033.75 1954.93 883.855C2061.56 733.63 2187.21 527.782 2345.47 237.146M-382.972 537.209C-331.463 485.886 -246.204 434.608 -147.893 389.355C-49.2588 344.517 62.7154 308.246 174.848 296.56C287.258 284.47 399.74 297.742 505.47 341.159C611.529 384.068 710.724 456.82 804.182 550.629C897.323 643.555 983.513 756.918 1068.99 866.875C1154.78 976.038 1239.62 1082.4 1337.23 1142.57C1435.52 1200.91 1545.37 1215.64 1696.94 1097.91C1773.12 1037.94 1860.12 943.999 1965.76 795.361C2071.62 646.41 2196.11 442.76 2352.36 156.128M-401.37 510.224C-345.115 459.477 -256.55 405.578 -155.527 356.872C-54.196 308.517 59.882 267.729 173.939 251.406C288.258 234.661 402.458 243.138 509.767 282.121C617.391 320.574 718 389.258 812.518 479.399C906.694 570.571 993.82 679.835 1080 786.78C1166.49 892.747 1251.76 997.235 1349.59 1055.97C1448.08 1112.91 1557.95 1126.59 1709.11 1007.97C1785.05 947.732 1871.71 853.563 1976.6 705.966C2081.69 558.082 2205.01 356.77 2359.03 75.5839M-418.818 485.535C-358.053 434.725 -266.361 377.872 -162.75 325.427C-58.8504 273.279 57.2516 227.767 173.186 206.635C289.365 185.065 405.276 188.622 514.161 223.125C623.353 257.076 725.385 321.731 820.956 408.323C916.35 495.851 1004.31 602.214 1091.12 706.587C1178.25 810.003 1263.97 912.239 1362.03 969.106C1460.75 1024.22 1570.67 1036.37 1721.24 917.886C1873.77 795.843 2062.68 548.019 2365.49 -4.4897M-435.342 462.958C-369.896 410.821 -275.355 350.648 -169.41 294.467C-63.2051 238.531 54.6685 188.631 172.396 162.689C290.343 136.328 408.039 134.574 518.656 163.914C629.554 192.751 733.246 252.426 829.726 336.008C926.52 419.164 1015.12 523.394 1102.41 625.89C1189.99 727.489 1275.99 828.072 1374.33 882.881C1473.27 936.062 1583.46 945.7 1733.65 826.48C1885.66 703.977 2073.74 457.008 2371.73 -84.0925M-450.979 442.318C-381.778 389.078 -284.409 325.356 -176.052 264.88C-67.4481 204.613 52.413 149.532 171.959 118.406C291.716 86.8478 411.049 79.8993 523.17 104.573C635.571 128.715 740.617 184.251 838.263 264.159C936.218 343.614 1025.79 444.886 1113.79 544.824C1202.07 643.884 1288.54 742.285 1387.02 795.354C1486.1 846.848 1596.14 855.144 1745.55 736.358C1896.72 614.407 2083.47 369.607 2377.75 -163.228M-465.773 423.453C-393.066 368.63 -293.053 301.093 -182.407 236.082C-71.5256 171.248 50.2458 110.792 171.572 74.3091C293.102 37.3771 414.067 25.0832 527.705 44.9732C641.617 64.3077 748.047 115.628 846.873 191.824C946.01 267.536 1036.56 365.85 1125.27 463.258C1214.26 559.808 1301.18 656.077 1399.78 707.477C1498.96 757.36 1608.82 764.412 1757.39 646.193C1907.66 524.925 2093.02 282.467 2383.55 -241.901M-479.767 406.211C-326.44 294.196 -73.703 114.723 171.011 30.479C295.198 -12.6776 416.762 -29.6851 532.062 -14.7925C647.361 -0.357613 756.395 45.9773 855.531 118.955C955.87 190.887 1047.42 286.246 1136.84 381.155C1226.54 475.224 1313.9 569.419 1412.59 619.235C1511.85 667.584 1621.48 673.499 1769.15 555.985C1918.47 435.538 2102.37 195.599 2389.12 -320.109" stroke="#FFF9EB1A" stroke-miterlimit="10"/>
</svg>
