<svg width="1440" height="1000" viewBox="0 0 1440 1000" fill="none" xmlns="http://www.w3.org/2000/svg">
<g opacity="0.1">
<mask id="mask0_44_14441" style="mask-type:alpha" maskUnits="userSpaceOnUse" x="0" y="0" width="1440" height="1000">
<rect width="1440" height="1000" fill="#90B39D"/>
</mask>
<g mask="url(#mask0_44_14441)">
<path d="M288.448 225.874C315.784 197.537 345.673 171.781 377.737 148.932C475.422 78.995 590.785 39.8496 702.214 2.07391C808.66 -34.1805 909.232 -68.1222 990.81 -126.136C1067.98 -181.555 1094.97 -234.923 1071.05 -284.838M-1614.72 2001.24L-1615.22 2002.48L-1615.09 2003.55C-1614.77 2006.46 -1616.33 2009.03 -1617.82 2011.91C-1619.09 2014.54 -1620.11 2017.29 -1620.89 2020.1C-1627.15 2086.85 -1606.54 2142.82 -1582.76 2208C-1571.77 2237.58 -1560.62 2267.81 -1551.15 2301.87C-1544.01 2327.21 -1539.26 2351.4 -1534.76 2374.6C-1524.39 2427.44 -1514.55 2477.14 -1480.67 2531.22C-1476.77 2537.11 -1472.51 2542.74 -1467.92 2548.1C-1432.24 2589.5 -1374.23 2604.04 -1308.22 2588.21C-1222.78 2567.95 -1146.91 2503.38 -1131.17 2438.42C-1127.68 2424.26 -1125.63 2400.59 -1126.42 2382.14C-1130.43 2275.59 -1187.88 2140.64 -1269.24 2046.21C-1312.59 1995.89 -1381.83 1934.45 -1465.1 1927.72C-1517.12 1923.14 -1583.96 1940.09 -1614.72 2001.24M-1629.88 1831.71C-1738.17 1858.23 -1760.7 1956.75 -1746.6 2033.27C-1739.89 2070.44 -1725.44 2115.22 -1710.28 2162.2C-1697.49 2202.07 -1684.55 2242.57 -1673.74 2284.97C-1663.37 2325.7 -1657 2363.16 -1651.08 2399.42C-1637.51 2480.35 -1624.63 2557.09 -1567.75 2648.82L-1567.66 2649.15L-1567.47 2649.38C-1520 2703.09 -1441.21 2710.75 -1383.39 2707.83C-1249.45 2700.52 -1094.62 2629.52 -1038.57 2549.02C-1002.86 2497.97 -996.676 2438.57 -997.765 2397.79C-1002.46 2233.24 -1089.79 2051.3 -1170.59 1935.24C-1276.27 1814.42 -1469.31 1771.27 -1629.88 1831.71M-1644.94 1527.12C-1610.51 1524.89 -1580.42 1509.6 -1565.38 1485.58L-1564.93 1483.97C-1563.99 1478.62 -1563.43 1473.21 -1563.24 1467.78C-1563.09 1462.09 -1562.54 1456.43 -1561.61 1450.82L-1561.21 1449.64L-1561.97 1448.28C-1578.53 1415.86 -1613.02 1396.1 -1652.32 1395.98C-1685.8 1395.78 -1718.2 1409.79 -1738.37 1433.29L-1739.58 1434.75L-1739.48 1436.72C-1738.75 1440.16 -1740.6 1443.43 -1742.52 1447.09C-1744.94 1452.07 -1747.96 1457.52 -1746.6 1464.52C-1744.08 1476.28 -1738.64 1487.21 -1730.78 1496.32C-1712.15 1517.94 -1679.91 1529.42 -1644.94 1527.12M-1114.71 759.03C-1183.66 866.803 -1236.09 947.134 -1179.78 1041.64C-1179.78 1041.64 -1162.77 1067.36 -1153.49 1078.13C-1054.33 1193.23 -917.516 1142.84 -807.838 1101.87L-791.215 1096.34C-778.711 1091.54 -765.949 1087.74 -754.109 1083.55C-728.68 1075.6 -704.465 1068.3 -684.131 1055.61C-599.075 1003.05 -503.779 862.637 -546.966 788.374C-549.816 783.576 -553.071 779.03 -556.695 774.786C-599.174 725.481 -696.757 712.901 -774.857 702.709C-784.066 701.443 -792.96 700.318 -801.517 698.891C-919.877 682.654 -1039.74 678.47 -1114.71 759.03M-1073.82 594.242C-1172.14 616.943 -1231.89 753.929 -1238.22 769.729C-1286.71 886.294 -1329.71 1017.24 -1280.13 1107.77C-1272.16 1122.21 -1262.63 1135.74 -1251.72 1148.12C-1192.11 1217.29 -1080.91 1278.97 -975.075 1301.18C-944.684 1307.57 -906.154 1306.21 -865.406 1304.91C-845.674 1304.21 -825.088 1303.57 -804.639 1303.46C-774.555 1303.77 -747.823 1306.6 -722.076 1309.46C-672.952 1314.88 -630.388 1319.58 -589.47 1301.03L-588.916 1300.55L-588.476 1300.17C-516.238 1257.28 -508.797 1171.42 -485.349 1100.29C-472.738 1061.98 -459.607 1022.43 -441.845 986.431C-428.505 959.049 -411.736 932.666 -395.577 907.179C-363.278 855.467 -329.398 802.441 -320.974 739.094L-321.189 737.699C-325.131 720.838 -333.169 705.209 -344.592 692.197C-351.35 684.462 -359.05 677.605 -367.512 671.783C-404.33 646.242 -553.611 616.963 -811.029 584.979C-928.679 570.606 -1009.86 573.349 -1073.82 594.242M-297.949 513.647C-336.395 523.722 -376.333 533.9 -418.087 536.933C-505.382 542.266 -598.9 524.354 -689.868 506.657C-736.638 497.717 -785.146 488.277 -832.241 482.422C-916.781 471.47 -1072.12 460.767 -1164.04 507.444C-1186.53 518.852 -1204.81 537 -1222.11 554.68C-1232.98 565.636 -1243.47 575.891 -1253.69 583.482L-1254.47 584.152L-1254.96 584.984C-1282.45 641.649 -1310.92 704.276 -1338.09 765.431C-1367.92 830.825 -1398.02 898.888 -1427.36 957.522C-1447.57 998.371 -1468.5 1061.29 -1416.35 1135.09C-1411.32 1142.27 -1405.4 1149.85 -1399.11 1157.16C-1364.54 1197.28 -1319.84 1229.02 -1272.6 1262.57C-1228.89 1293.62 -1183.67 1325.74 -1143.96 1366.56C-1118.88 1392.24 -1101.12 1423.37 -1082.12 1456.65C-1070.95 1476.01 -1059.04 1496.7 -1045.93 1515.61C-1036.19 1529.41 -1027.25 1541.19 -1018.6 1551.23C-969.516 1608.2 -932.699 1610.62 -861.147 1610.13C-568.948 1608.49 -399.867 1483.86 -358.471 1240.1C-355.008 1219.63 -352.527 1198.02 -350.283 1177.05C-347.238 1145.79 -343.758 1113.44 -336.289 1084.35C-313.008 996.02 -262.024 927.028 -212.85 860.056C-161.09 789.218 -111.719 722.474 -94.8034 636.825C-87.2962 599.765 -91.2675 549.154 -116.984 519.305C-129.355 504.947 -145.67 496.768 -165.286 494.599C-206.84 490.31 -251.313 501.631 -297.948 513.646M494.009 -235.855L492.981 -238.237C491.674 -241.607 490.623 -245.607 489.317 -249.44C487.073 -256.908 484.946 -264.94 479.073 -271.755C476.882 -274.311 474.31 -276.515 471.448 -278.289L470.823 -278.581C356.618 -320.746 258.154 -231.835 184.994 -149.933L184.078 -149.143L184.01 -147.831C183.496 -144.953 182.224 -141.795 181.231 -138.082C178.141 -128.463 174.282 -116.491 182.586 -106.853C184.466 -104.691 186.708 -102.873 189.211 -101.481L190.555 -100.615L191.997 -101.026C201.764 -102.897 211.348 -104.979 221.229 -106.948C319.929 -127.235 431.708 -150.182 492.514 -234.145L494.009 -235.855M1174.59 399.796C1158.28 350.649 1122.84 325.66 1071.35 326.538C979.128 327.875 853.025 414.399 806.544 472.974C764.711 524.725 747.37 612.969 792.746 665.638C803.516 678.137 817.217 688.045 834.081 695.657C921.53 729.798 1025.56 672.763 1087.89 613.449C1160.78 543.791 1194.89 460.013 1174.59 399.796M647.511 -305.847C601.521 -359.226 495.048 -398.509 409.702 -393.513C252.353 -362.529 127.239 -255.539 21.7793 -157.434C-34.9755 -83.6508 -44.8681 -12.213 -4.64315 34.4741C33.0166 78.1845 103.589 87.5113 174.981 58.0534C195.966 49.5631 225.907 33.7825 260.402 15.7056C297.311 -3.70131 339.249 -25.8002 381.806 -44.8271C408.411 -57.3311 434.857 -67.32 460.23 -77.1494C506.333 -94.8458 549.716 -111.791 592.102 -139.085C640.349 -169.451 667.045 -202.064 671.582 -235.645C674.947 -259.762 666.928 -283.312 647.511 -305.847M1318.38 508.934C1341.93 436.031 1345.54 332.878 1284.23 261.718C1279.41 256.165 1274.31 250.86 1268.95 245.823C1106.12 97.1949 825.47 271.247 672.108 388.669C547.552 522.322 549.622 763.267 676.653 914.837L676.857 915.072C740.948 985.791 811.91 1008.75 888.038 983.802C950.656 962.898 1052.29 919.159 1098.58 889.63C1126.62 871.476 1174.89 824.286 1188.99 800.981C1229.42 735.048 1287.32 603.853 1318.38 508.934M805.023 -291.95C799.391 -301.208 792.971 -309.963 785.836 -318.119C727.825 -385.449 617.237 -433.8 538.747 -450.397C306.136 -499.392 87.2918 -309.583 -29.9841 -207.749C-84.0729 -168.285 -123.412 -92.9042 -132.551 -10.4104C-139.935 56.6408 -125.162 117.343 -91.8185 156.043C-72.4806 178.49 -47.6015 193.382 -17.6565 201.087C77.263 225.064 168.878 164.05 265.594 99.1008C307.818 71.0842 351.481 42.2143 396.596 18.9002C455.137 -10.7824 515.877 -31.9816 569.889 -50.2139C612.593 -65.0644 653.125 -79.2286 685.91 -95.5061C737.442 -120.744 801.89 -161.94 817.331 -215.541C824.605 -240.568 820.735 -266.379 805.023 -291.95M1281.77 786.793C1295.31 726.201 1318.3 667.403 1340.6 610.79C1360.98 558.591 1380.33 509.327 1389.69 464.275C1407.14 382.783 1385.45 299.629 1330.76 236.153C1273.1 169.233 1189.3 134.067 1100.07 139.33C989.46 145.919 786.502 233.723 679.083 307.953C645.406 331.427 624.669 355.252 606.58 376.423C599.817 384.613 593.421 392.114 586.225 399.547C466.728 572.505 520.244 856.216 640.951 1030.69C652.464 1047.34 664.832 1063.38 678.006 1078.74C751.573 1164.13 823.835 1186.59 904.945 1148.5C920.915 1141.14 937.576 1127.97 955.284 1113.89C968.917 1103.36 982.857 1092.53 997.815 1082.82C1033.17 1059.92 1073.3 1041.65 1108.61 1025.57C1135.88 1012.77 1159.54 1001.96 1175.91 991.392C1255.59 940.653 1263.57 892.392 1273.42 831.386C1275.71 817.115 1278.33 802.512 1281.77 786.793M939.985 -265.959L939.855 -267.023L939.273 -267.699C929.985 -278.736 921.635 -289.766 913.682 -300.369C905.056 -311.979 896.919 -322.793 888.084 -333.048C881.37 -341.051 873.99 -348.472 866.023 -355.228C774.549 -432.632 616.128 -497.104 497.391 -505.012C310.281 -517.394 134.475 -401.59 2.42779 -298.924C-128.67 -197.437 -202.592 -94.8839 -217.815 5.48184C-224.11 48.1734 -214.949 94.1951 -206.41 138.352C-196.958 186.107 -188.144 231.241 -196.744 271.943C-226.795 412.859 -417.583 464.242 -536.716 454.732C-570.509 449.757 -605.739 444.025 -643.463 437.681C-832.539 406.351 -1046.98 370.698 -1197.48 431.423C-1251.69 453.174 -1290.42 492.47 -1308.58 514.089C-1340.26 551.289 -1358.38 597.837 -1377.85 646.729C-1398.72 700.774 -1420.75 756.254 -1462.04 803.314C-1491.42 836.556 -1523.77 857.689 -1558.3 866.461C-1596.71 875.769 -1638.29 868.366 -1682.48 860.456C-1750.54 848.135 -1821.29 835.383 -1880.06 891.176L-1880.98 892.383C-1897.74 927.041 -1930.3 1015.74 -1868.75 1087.17C-1861.28 1095.8 -1852.95 1103.64 -1843.87 1110.57C-1812.42 1134.97 -1773.02 1138.7 -1727.23 1143.24C-1712.79 1144.68 -1697.84 1146.05 -1682.4 1148.21C-1557.44 1165.4 -1428.81 1230.22 -1320.9 1329.91C-1307.35 1342.58 -1294.53 1356.01 -1282.5 1370.14C-1252.69 1404.74 -1227.79 1441.17 -1219.55 1462.61C-1218.73 1464.25 -1156.36 1628.19 -1276.17 1686.61C-1292.96 1694.75 -1322.6 1700.07 -1340.02 1703.59C-1380.84 1711.01 -1428.62 1714.91 -1478.76 1719.27C-1579.78 1727.81 -1684.43 1736.72 -1750.47 1774.21C-1845.76 1827.8 -1843.1 1928.58 -1832.91 1984.01C-1824.22 2030.85 -1806.98 2085.79 -1788.66 2144.49C-1774.38 2190.07 -1759.36 2237.41 -1746.81 2286.44C-1732.91 2340.68 -1723.32 2397.04 -1714.02 2451.68C-1705.19 2505.53 -1696.73 2556.9 -1684.13 2602.34C-1682.31 2609.47 -1680.6 2616.72 -1678.86 2623.55C-1670.45 2657.95 -1662 2693.09 -1632.01 2727.9C-1619.21 2742.58 -1604.59 2755.57 -1588.5 2766.53C-1491.59 2834.04 -1373.25 2791.94 -1258.92 2750.9L-1221.5 2737.71C-1138.42 2708.12 -1066.65 2682.74 -1019.24 2651.01C-871.796 2553.66 -904.195 2401.22 -927.938 2289.65L-929.25 2282.87C-938.621 2238.21 -953.551 2185.26 -967.875 2134.16C-983.685 2077.23 -1000.39 2017.89 -1009.1 1971.48L-1009.47 1969C-1021.51 1905.25 -1031.61 1850.14 -943.23 1794.97C-892.491 1762.76 -826.539 1749.13 -756.695 1734.54C-659.059 1713.85 -557.698 1692.68 -482.638 1619.3C-455.271 1585.77 -431.631 1561.87 -405.28 1541.51C-307.249 1438.4 -281.769 1332.82 -254.882 1220.42C-244.743 1177.63 -233.903 1133.36 -218.821 1087.86C-188.483 995.9 -140.323 915.955 -93.6376 838.866C-29.0723 732.073 37.4461 621.614 56.2577 479.75C58.0103 465.119 59.2241 451.003 59.986 437.276C63.6374 392.885 66.7368 354.93 94.24 321.329C155.047 248.302 209.596 205.681 311.045 132.11C403.91 64.7831 502.332 26.7395 587.493 -3.40874C605.014 -9.7859 622.907 -15.7008 640.756 -21.9529C714.182 -46.7715 790.105 -72.575 854.521 -115.386C924.945 -162.184 952.152 -209.827 939.985 -265.958M1357.29 860.006C1355.2 822.089 1353.08 782.986 1358.48 745.737C1366.28 690.921 1385.24 643.978 1405.54 594.701C1423.35 550.34 1442.12 504.788 1452.76 451.875C1468.92 369.63 1444.67 285.612 1384.35 215.598C1324.42 146.034 1234.04 97.9307 1153.81 92.7565C1085.43 88.5015 990.834 119.551 963.575 129.135C801.539 186.111 690.534 235.672 624.682 281.305C609.498 291.621 585.967 313.09 568.888 330.168C370.155 591.629 462.896 967.904 651.447 1189.73C652.809 1191.31 653.977 1192.66 655.567 1194.51C739.854 1292.34 856.091 1305.42 982.783 1231.24C1003.87 1218.61 1024.75 1204.6 1044.86 1190.84C1081.15 1166.32 1115.75 1143.27 1152.42 1128.35C1163.7 1123.8 1177.7 1119.67 1192.29 1115.07C1250.85 1097.17 1330.86 1072.33 1350.67 998.443C1362.39 954.564 1359.94 906.598 1357.29 860.006M1372.7 1178C1448.68 1145.1 1461.89 1090.82 1457.91 1019.6C1455.55 975.192 1446.51 934.512 1438.28 895.172C1426.82 842.723 1416.29 793.416 1420.7 738.788C1424.71 691.247 1446.04 642.292 1468.24 590.229C1485.97 548.317 1504.54 505.314 1513.87 462.346C1531.91 378.899 1500.11 282.009 1426.89 197.025C1337.36 93.1113 1211.51 35.1752 1106.04 49.4261C1076.43 53.5157 1033.16 64.1783 983.922 79.6026C881.615 112.175 736.111 166.488 641.439 214.33C610.594 229.806 541.555 284.508 501.96 324.597L501.469 325.43C426.128 451.108 383.877 641.976 393.508 811.565C400.689 945.12 477.728 1059.03 551.944 1168.98C575.778 1204.42 600.399 1240.78 622.066 1276.92L622.447 1277.36L632.313 1286.75C683.825 1334.87 747.311 1394.13 835.33 1386.18C884.726 1381.71 942.034 1347.04 1002.85 1310.49C1051.82 1281.02 1102.64 1250.73 1156.27 1230.34C1198.07 1214.56 1236.45 1208.48 1273.41 1202.42C1308.58 1196.74 1341.89 1191.46 1372.7 1178M1071.05 -284.838C1066.82 -293.015 1061.62 -300.655 1055.57 -307.593C1014.42 -355.358 918.102 -405.513 872.003 -429.598C757.557 -489.123 632.452 -547.351 472.084 -546.286C260.729 -545.275 -27.9706 -358.717 -192.431 -184.109C-279.668 -91.0869 -320.522 13.0805 -317.33 134.355C-314.39 245.977 -353.972 318.518 -435.57 349.597C-493.216 371.951 -566.257 362.738 -643.86 352.339C-683.497 347.654 -724.879 342.086 -765.924 341.017C-780.109 340.534 -794.705 340.03 -809.713 339.504C-974.481 333.635 -1179.75 326.64 -1283.51 387.927C-1350.52 427.041 -1389.32 488.609 -1426.8 547.85C-1447.19 580.112 -1466.33 610.854 -1489.61 637.255C-1560.4 718.094 -1625.63 706.533 -1700.93 693.332C-1734.65 687.525 -1769.93 681.046 -1807.08 683.351C-1871.81 687.217 -1914.4 715.599 -1960.28 749.579C-2052.13 841.809 -2049.67 1108.8 -1955.91 1217.85C-1943.56 1232.48 -1928.67 1244.75 -1911.95 1254.07C-1858.97 1283.34 -1801.7 1276.76 -1740.9 1269.94C-1688.64 1264.16 -1634.59 1258.41 -1579.63 1274.48C-1518.91 1292.69 -1448.81 1338.89 -1404.72 1390.06C-1380.42 1418.27 -1352.53 1461.6 -1358.38 1507.06C-1362.64 1538.9 -1383.1 1567.2 -1418.85 1591.68C-1481.07 1633.41 -1570.51 1651.02 -1634.73 1658.44C-1657.83 1661.3 -1682.2 1660.87 -1708.03 1660.57C-1748.41 1660.05 -1790.02 1659.47 -1827.24 1671.74C-1866.63 1684.66 -1895.36 1708.64 -1912.43 1743.16C-1957.7 1834.89 -1908.55 1978.01 -1892.37 2025.1C-1885.89 2042.9 -1879.9 2060.34 -1873.94 2077.77C-1848.17 2151.5 -1823.53 2221.42 -1804.01 2297.74C-1787.48 2362.35 -1777.57 2432.29 -1768.22 2499.53C-1756.02 2584.92 -1743.79 2673.08 -1717.42 2751.4C-1707.84 2779.64 -1694.42 2804.12 -1677.17 2824.15C-1607.41 2905.11 -1496.42 2894.68 -1436.33 2881.33C-1415.31 2876.69 -1377.07 2860.38 -1328.35 2840.23C-1295.36 2826.46 -1258.02 2810.91 -1219.66 2796.08C-1184.36 2782.71 -1151.02 2773.01 -1119.18 2763.39C-1048.36 2742.41 -981.553 2722.47 -902.355 2666.92C-801.247 2596.85 -798.09 2474.04 -799.472 2437.96C-802.427 2365.59 -821.775 2289.94 -839.123 2223.23C-853.977 2166.27 -867.996 2112.56 -869.472 2069.07C-872.131 2005.94 -863.521 1935.12 -780.482 1886.54C-748.764 1868.33 -719.431 1861.29 -688.262 1853.86M2415.08 657.344C2416.9 647.23 2413.07 635.551 2404.81 625.963C2398.05 618.119 2389.11 612.982 2380.91 611.448C2365.35 608.607 2354.06 622.191 2347.01 633.002L2346.07 634.633L2346.95 636.898C2347.85 640.373 2349.58 643.578 2351.99 646.239C2352.02 646.9 2352.08 647.559 2352.19 648.212C2351.91 655.168 2354.37 661.955 2359.03 667.128C2360.08 668.356 2361.71 669.993 2363.09 671.344L2364.3 672.001C2383.46 679.026 2407.4 678.122 2415.02 658.276L2415.08 657.344M1892.47 -112.548C1855.71 -160.17 1795.39 -172.118 1747.71 -176.721L1746.42 -176.807L1745.39 -176.343C1730.17 -168.488 1712.51 -156.922 1712.24 -136.469C1715.87 -97.0908 1729.16 -63.2539 1750.36 -38.6489C1751.37 -37.4813 1752.37 -36.3157 1753.37 -35.1518C1800.44 15.7272 1869.17 20.4242 1901.59 -7.09283C1928.93 -29.8725 1925.55 -69.4302 1892.47 -112.548M2537.65 563.318C2488.19 513.782 2412.99 482.811 2346.19 484.293C2296.69 485.243 2254.74 503.75 2223.71 537.716C2183.18 588.687 2197.79 674.242 2259.03 745.317C2303.81 797.29 2363.19 828.675 2421.45 830.951C2485.47 833.886 2539.48 804.575 2565.99 752.879C2595.48 695.783 2585.25 625.283 2537.65 563.318M2057.79 -24.8771C2054.12 -60.3695 2032.9 -100.722 1994.67 -145.096C1902.6 -251.963 1745.59 -346.306 1681.8 -362.289C1612.61 -379.215 1558.55 -364.928 1500.54 -314.525L1499.84 -313.922C1466.97 -267.671 1471.35 -210.812 1513.13 -145.169C1526.83 -123.491 1545.19 -99.4333 1567.86 -73.1203C1644.55 15.8934 1764.87 121.109 1821.94 135.3C1871.45 147.663 1955.69 132.097 2011.16 84.2961C2045.84 54.0072 2061.92 16.2233 2057.79 -24.8771M2187.74 42.7595L2188.13 41.6087C2195.04 2.6486 2171.58 -47.1499 2116.31 -111.304C2067.13 -168.376 2002.27 -225.471 1954.64 -267.172C1942.7 -277.571 1931.77 -287.262 1922.26 -295.771C1911.65 -305.325 1901.15 -314.976 1890.54 -324.528C1806.48 -400.871 1727.05 -472.834 1668.68 -487.383C1545.81 -518.745 1424.79 -429.207 1344.56 -348.902L1343.65 -348.116C1341.72 -344.86 1339.91 -340.942 1337.86 -337.595C1323.35 -313.15 1306.82 -285.39 1308.69 -252.364L1308.82 -251.294C1320.1 -224.387 1340.98 -193.467 1373.25 -156.017C1419.86 -101.915 1482.59 -43.3792 1543.24 12.9647C1564.31 32.5792 1584.89 51.8645 1604.45 70.4183C1701.47 163.028 1774.17 213.751 1826.94 225.956C1931.26 249.852 2052.48 188.365 2187.14 43.6815L2187.74 42.7596M2648.47 9.69484C2696.37 -16.7627 2773.37 -6.61918 2807.98 29.7727C2807.3 57.5188 2785.41 71.4583 2766.81 78.4344C2715.71 96.9391 2641.1 83.9061 2620.56 60.0699C2616.29 55.112 2614.47 49.6921 2615.18 44.1543C2616.99 33.528 2628.36 21.2531 2648.47 9.69484M2538.8 -60.6332C2551.91 -66.8002 2564.59 -73.8544 2576.74 -81.7466C2670.46 -110.907 2854.96 -108.77 2988.63 -76.79C3029.57 -67.2657 3065.94 -47.8386 3085.72 -24.881C3111.82 5.41321 3109.58 40.1015 3079.4 78.5171C2997.85 182.78 2620.66 222.703 2511.39 138.935C2499.37 129.98 2488.29 119.821 2478.33 108.616C2432.48 55.3953 2460.06 12.8175 2484.02 -23.8371C2499.43 -40.7152 2518.5 -50.3523 2538.8 -60.6332M2324.04 -2.20282C2402.84 -73.2971 2529.86 -160.062 2690.19 -168.677C2730.54 -170.75 2775.68 -167 2823.48 -162.757C2855.48 -160.046 2888.66 -157.124 2920.9 -156.215C2938.36 -155.7 2956.17 -155.917 2973.36 -156.403C3013.29 -156.895 3050.97 -157.475 3083.82 -148.731C3118.78 -139.381 3149.03 -120.804 3171.88 -94.2816C3228.25 -28.8555 3226.62 69.8205 3167.81 129.68C3098.3 200.314 2909.95 246.657 2759.59 255.822C2626.37 264.212 2434.41 210.397 2344.54 106.089C2337.91 98.4616 2331.82 90.3887 2326.29 81.9273C2306.88 52.0455 2306.3 27.0334 2324.04 -2.20282M2046.16 259.65C1980.87 300.057 1913.2 341.326 1838.74 329.062C1774.34 318.443 1713.65 255.082 1655.27 193.711C1644.81 182.937 1634.46 172.059 1624.07 161.596C1470.08 4.77887 1293.11 -152.02 1148.55 -124.457C1079.93 -111.682 1016.03 -79.9676 948.093 -46.7697C897.929 -22.156 846.297 3.72327 790.092 22.4669C759.799 32.7183 729.345 42.3284 699.8 51.1669C613.896 77.6582 532.748 102.822 466.891 145.737C285.939 263.639 264.096 371.557 240.867 485.855C233.456 521.525 226.055 558.803 212.908 596.259C191.476 659.9 161.857 715.918 133.005 770.063C113.174 807.746 92.5351 846.547 74.2386 888.067C60.1753 927.883 48.1904 969.882 36.7273 1010.66C18.3466 1072.85 -0.219427 1137.56 -26.4246 1196.15C-59.5995 1269.92 -100.241 1340.96 -154.226 1419.56C-191.513 1473.49 -230.205 1523.06 -267.786 1570.5C-347.439 1672.02 -422.97 1767.6 -465.976 1888.61L-471.356 1904.73C-500.885 1989.58 -524.474 2056.22 -648.12 2131.1L-649.111 2131.55L-649.473 2132.27C-690.502 2190.99 -682.077 2262.15 -673.714 2331.39C-668.941 2371.65 -663.96 2413.26 -668.541 2452.44C-683.087 2575.9 -744.191 2671.34 -850.396 2735.88C-900.997 2766.84 -969.093 2782.74 -1040.95 2799.52C-1092.34 2811.32 -1145.22 2823.63 -1191.86 2842.06C-1239.06 2860.54 -1284.22 2886.4 -1327.96 2911.39C-1375.63 2938.24 -1420.46 2963.78 -1463.85 2978.22C-1537.18 3002.19 -1670.68 3030.49 -1739.02 2951.17C-1746.04 2942.97 -1752.16 2934.04 -1757.26 2924.52C-1791.89 2860.11 -1794.96 2770.09 -1798 2682.8C-1799.46 2642.09 -1800.88 2603.7 -1805.29 2568.68C-1822.99 2428.33 -1854.54 2243.61 -1938.89 2064.02C-1953.45 2033.42 -1970.04 2002.53 -1986.04 1972.77C-2015.83 1917.66 -2046.23 1860.69 -2066.77 1799.17C-2090.64 1727.9 -2086.3 1654.45 -2081.33 1569.38C-2079.7 1540.24 -2078 1510.26 -2077.12 1478.2C-2075.01 1391.65 -2082.71 1302.83 -2090.18 1217.01C-2108.08 1007.08 -2125.19 808.759 -2004.33 661.043C-1926.95 574.942 -1830.89 568.2 -1737.92 561.774C-1685.97 558.171 -1636.8 555.001 -1594.22 537.33C-1544.8 517.331 -1501.45 473.617 -1455.58 427.358C-1406.83 378.256 -1356.53 327.359 -1298.52 307.059C-1227.35 282.185 -1145.66 285.025 -1066.76 287.151C-1031.58 288.506 -998.689 289.482 -966.393 288.173C-827.144 283.435 -724.202 273.525 -631.902 256.968C-602.167 251.542 -523.2 237.341 -476.778 174.38C-449.243 136.023 -441.372 107.049 -433.15 76.202C-428.475 57.8922 -423.327 39.2219 -414.045 17.3633C-369.684 -87.0131 -279.636 -187.198 -122.46 -307.594C111.201 -485.954 321.341 -580.705 485.245 -582.159C649.753 -582.909 759.369 -536.01 875.9 -486.334C923.522 -465.974 972.684 -444.998 1027.31 -426.328C1039.92 -422.151 1064.08 -414.42 1083.09 -410.615C1194.08 -389.053 1287.06 -446.581 1385.64 -506.999C1443.03 -542.587 1502.4 -579.108 1567.27 -600.126L1569.65 -601.007C1588.74 -607.155 1614.78 -615.723 1635.32 -617.212C1697.26 -621.076 1729.76 -598.39 1764.82 -557.705C1776.95 -543.621 1788.9 -528.178 1803.04 -509.459C1809.17 -501.686 1815.58 -493.336 1822.19 -484.75C1841.89 -459.381 1872.02 -421.207 1903.95 -384.153C1929.01 -355.061 1952.75 -329.563 1973.78 -309.286C2066.79 -219.112 2205.61 -102.716 2338.24 -127.907C2391.95 -138.138 2436.18 -158.457 2479.6 -177.666C2522.99 -197.619 2564.24 -216.122 2613.58 -224.58C2651.2 -230.889 2691.29 -229.776 2733.68 -228.271C2754.81 -227.467 2776.46 -226.73 2798.4 -226.626C2844.65 -227.259 2890.31 -230.18 2934.47 -233.003C2980.55 -235.89 3028.45 -238.715 3076.35 -238.83C3144.39 -239.238 3199.8 -215.324 3240.55 -168.028C3250.12 -156.872 3258.64 -144.849 3265.98 -132.114C3326.39 -27.7644 3328.09 117.29 3215.04 193.743C3093.72 276.114 2881.68 325.785 2747.36 326.632C2636.83 327.279 2528.5 284.375 2423.56 242.909C2386.49 228.15 2351.42 214.407 2316.13 202.429C2291.01 193.582 2233.44 186.543 2209.54 188.93C2152.35 194.663 2098.41 227.677 2046.16 259.65M2332.15 4609.05C2219.64 4622.89 2089.36 4553.15 2010.01 4477.48C1999.41 4467.24 1988.76 4456.24 1978 4443.75C1954.52 4416.5 1933.55 4386.68 1912.95 4357.75C1893.13 4329.73 1872.45 4300.48 1849.75 4274.13C1836.79 4258.94 1822.76 4244.71 1807.75 4231.55C1742.13 4174.55 1657.75 4150.31 1568.05 4124.73C1536 4115.56 1502.56 4105.96 1470.61 4095.12C1380.78 4064.1 1300.87 4017.44 1239.28 3960.1C1231.63 3952.89 1224.36 3945.29 1217.5 3937.34C1166.43 3878.07 1141.75 3805.17 1154.26 3751.64C1170.49 3682.66 1248.86 3638.07 1331.77 3590.77C1388.38 3558.59 1446.78 3525.29 1488.05 3482.6C1520.55 3448.67 1549.87 3389.37 1543.64 3341.3C1537.16 3292.7 1516.51 3247.97 1482.08 3208C1416.92 3132.37 1307.1 3084.55 1202.67 3086.33C1116.64 3088.02 1042.73 3122.04 994.789 3182.77C932.28 3261.96 929.272 3353.16 926.283 3441.2C925.118 3481.38 923.862 3522.82 916.454 3561.25C907.976 3607.75 843.227 3697.57 725.65 3705.09C670.019 3708.75 627.302 3673.52 601.677 3643.78C576.248 3614.26 555.107 3576.29 542.024 3536.91C513.528 3452.27 460.36 3257.07 455.669 3169.71C451.897 3106.91 468.021 3043.94 496.355 3008.83C548.433 2943.77 628.789 2938.23 705.993 2932.23C762.948 2928.28 821.602 2924.02 869.608 2896.91C891.664 2884.63 913.484 2862.27 924.729 2847.02C974.21 2779.87 978.425 2686.41 982.597 2587.43C984.721 2542.89 986.721 2496.83 992.704 2450.15C1001.96 2379.66 1020.5 2309.45 1038.53 2242.06C1062.32 2151.94 1084.71 2066.57 1081.22 1993.6C1077.94 1922.03 1054.52 1855.14 1031.8 1790.43C994.662 1684.35 962.315 1592.72 1026.73 1507.53C1107.88 1400.03 1235.94 1383.43 1360.35 1367.64C1425.11 1359.32 1491.95 1350.39 1550.77 1328.99C1624.61 1301.74 1697.37 1235.13 1703.5 1189.07C1710.79 1134.08 1671.35 1066.41 1633.51 1001.28C1611.98 964.417 1591.79 929.58 1582.13 900.339C1573.67 874.774 1546.79 785.162 1562.52 709.865C1572.63 663.181 1605.96 617.441 1638.26 573.005C1668.85 531.609 1697.59 492.175 1705.18 453.98C1716.84 397.262 1669.51 301.906 1575.98 193.349C1498.12 102.988 1404.49 22.6036 1331.75 -16.4114C1256.27 -57.0079 1175.12 -68.5996 1097.04 -50.3797C1040.49 -37.2624 976.66 -10.7474 909.443 17.115C856.402 39.0675 801.818 61.9677 745.779 80.1847C732.534 84.465 719.731 88.7721 706.862 92.7756C628.271 118.16 553.818 141.958 492.405 184.999C464.201 204.518 426.832 237.13 409.155 257.915C343.853 333.181 321.089 434.287 299.094 532.008C288.793 576.87 278.478 623.77 263.84 667.249C256.285 689.971 247.419 713.45 237.922 738.253C187.816 870.86 130.942 1021.17 225.147 1152.87C227.934 1156.79 230.75 1160.29 234.076 1164.15C245.632 1177.56 259.675 1189.98 274.428 1203C289.676 1216.36 305.825 1230.51 319.931 1246.88C340.468 1270.72 352.744 1294.58 358.847 1321.74C359.374 1344.29 352.358 1351.3 329.78 1346.42C299.03 1334.92 276.878 1318.79 257.121 1304.53C230.948 1285.56 208.369 1269.4 172.549 1266.64C116.65 1262.17 41.4345 1308.39 -51.7074 1402.91C-79.3481 1431.07 -113.461 1471.57 -149.879 1514.42C-166.26 1533.28 -182.92 1553.19 -199.67 1572.77C-341.583 1736.19 -375.699 1827.34 -400.773 2002.47C-412.485 2083.8 -438.759 2140.47 -469.568 2205.8C-481.329 2230.97 -493.471 2257.24 -505.826 2286.48C-519.94 2321.21 -529.41 2354.29 -538.127 2386.36C-544.381 2408.76 -550.22 2429.59 -557.452 2450.86C-592.68 2551.68 -649.261 2653.04 -705.977 2715C-805.569 2824.17 -882.527 2833.88 -964.161 2844.09C-983.397 2846.41 -1002.95 2849.04 -1023.46 2852.85C-1162.99 2878.92 -1282.32 2954.44 -1357.78 3013.15L-1361.93 3016.32C-1413.65 3056.91 -1510.7 3131.83 -1520.55 3166.05C-1532.25 3207.01 -1509.72 3240.23 -1488.6 3264.74C-1475.1 3280.41 -1459.43 3295.4 -1442.67 3311.43C-1425.91 3327.46 -1408.84 3343.62 -1393.98 3360.87L-1390.92 3364.2C-1335.16 3428.91 -1272.15 3524.18 -1287.54 3611.06C-1296.48 3660.69 -1330.78 3702.12 -1389.39 3734.03C-1469.61 3777.84 -1624.74 3787.66 -1707.31 3691.82C-1711.95 3686.45 -1716.32 3680.84 -1720.39 3675.02C-1784.68 3581.23 -1787.99 3470.14 -1792.59 3329.26C-1792.83 3314.83 -1793.67 3299.71 -1793.95 3284.55C-1796.34 3219.71 -1811.09 3159.24 -1825.86 3100.34C-1841.33 3036.52 -1857.61 2970.61 -1856.9 2901.16C-1856.57 2869.59 -1856.14 2838.37 -1855.37 2808.01C-1852.21 2626.84 -1849.26 2470.77 -1891.04 2334.65C-1896.66 2318.09 -1901.85 2302.02 -1907.09 2286.36C-1936.52 2196.97 -1961.87 2119.86 -2021.97 2035.96C-2030.48 2023.82 -2039.62 2012.14 -2049.36 2000.97C-2079.87 1965.56 -2113.54 1935.61 -2146.19 1906.38C-2174.7 1881.06 -2201.58 1857.15 -2222.72 1832.62C-2234.44 1819.31 -2244.59 1804.7 -2252.97 1789.07C-2272.06 1752.08 -2275.79 1706.22 -2264.12 1645.15C-2253.53 1590.12 -2238.76 1534.24 -2224.21 1480.16C-2205.21 1409.58 -2185.72 1336.58 -2174.76 1261.45C-2164.19 1187.47 -2162 1110.38 -2159.98 1035.83C-2155.3 873.533 -2150.95 720.222 -2063.11 616.812C-1948.17 486.89 -1858.08 471.403 -1762.77 454.955C-1702.4 444.471 -1639.82 434.052 -1571.76 391.653C-1542.53 373.55 -1513.22 350.288 -1484.63 328.031C-1442.98 294.903 -1403.55 263.312 -1367.7 250.617C-1296.7 224.639 -1207.62 227.424 -1142.6 229.163L-1121.17 230.075C-955.778 235.156 -784.499 240.681 -657.767 162.756C-627.335 144.025 -582.432 104.156 -563.319 80.9578C-534.654 47.1426 -515.108 12.0976 -495.878 -21.4889C-478.394 -52.7658 -461.678 -82.1956 -439.368 -108.555C-413.926 -138.382 -353.099 -186.867 -321.212 -210.783C-50.9901 -412.36 228.013 -621.144 515.864 -619.512C647.138 -618.662 750.564 -583.959 850.541 -549.81C916.638 -527.63 985.225 -504.44 1059.38 -492.736C1181.5 -473.329 1289.58 -538.387 1404.01 -607.291C1469.61 -646.842 1537.65 -687.662 1608.15 -710.806C1703.43 -741.892 1769.8 -727.863 1811.16 -667.761C1837.75 -628.917 1854.64 -590.831 1872.43 -550.781C1896.4 -496.264 1921.15 -440.409 1972.81 -380.458C1982.38 -369.344 1992.73 -358.449 2003.61 -347.644C2062.88 -289.116 2152.31 -215.442 2241.78 -197.166C2329.28 -179.581 2407.07 -211.399 2482.22 -242.124C2527.37 -260.449 2573.95 -279.637 2622.06 -287.463C2681.31 -296.952 2750.64 -294.987 2817.65 -292.962C2884.03 -291.218 2947.34 -289.195 2998.27 -298.244C3012.45 -300.981 3028.58 -305.765 3045.74 -310.264C3116.47 -330.854 3204.59 -356.137 3275.61 -273.702C3283.96 -263.931 3291.54 -253.53 3298.29 -242.593C3344.16 -168.584 3380.89 -25.3173 3374.3 52.3713C3368.92 111.621 3351.71 174.704 3261.71 234.074C3193.47 279.013 3073.92 315.953 2968.27 348.039C2953.22 352.708 2938.17 357.371 2923.23 361.936C2917.26 363.911 2911 365.743 2905.14 367.641C2869.71 378.765 2839.04 388.575 2807.44 392.062C2702.86 404.625 2596.63 365.985 2494 329.013C2429.47 305.456 2368.69 283.481 2309.7 274.145C2172.42 251.953 2024.83 327.317 1933.26 465.189L1932.77 465.998L1932.6 466.931C1921.84 577.895 1991.86 696.819 2060.12 812.101C2067.49 824.759 2075.23 837.857 2082.87 851.051C2100.05 880.577 2116.35 910.451 2130.67 936.887C2150.98 974.376 2168.59 1006.68 2183.57 1028.63C2189.85 1037.91 2196.68 1046.82 2204 1055.31C2279.33 1142.74 2372.96 1139.61 2463.14 1135.89C2548.83 1132.89 2629.34 1129.59 2691.37 1201.58C2699.53 1211.13 2706.91 1221.3 2713.46 1232.02C2749.58 1289.91 2754.08 1351.72 2759.15 1417.4C2766.19 1507.49 2774.18 1609.4 2867.32 1717.51C2880.41 1732.67 2894.3 1747.12 2908.94 1760.79C2979.6 1827.29 3170.27 1960.96 3254.44 1988.15C3424.01 2043.03 3528.48 1903.94 3629.57 1769.34C3683.98 1696.72 3735.45 1628.22 3795.78 1590.08C3867.9 1544.18 3945.56 1563.13 4014.82 1643.52C4024.69 1655.1 4033.98 1667.17 4042.64 1679.68C4097.12 1759.35 4140.63 1874.2 4182.84 1985.03C4188.74 2000.55 4194.49 2016.12 4200.5 2031.54C4221.69 2086.49 4240.51 2146.66 4258.91 2204.78C4272.3 2247.45 4284.71 2287.41 4297.43 2322.72C4311.55 2362.38 4333.75 2403.43 4355.47 2443.25C4389.93 2506.97 4425.2 2572.32 4427.12 2631.6C4428.64 2680.17 4407.65 2727.92 4367.68 2765.93C4316.99 2814.34 4244.1 2841.55 4176.88 2836.55C4098.09 2830.44 4025.34 2793.01 3955.08 2756.64C3868.97 2712.12 3779.99 2666.14 3680.67 2680.51C3545.72 2700.23 3434.88 2796.57 3327.82 2890C3271.61 2938.85 3213.47 2989.34 3153.34 3027.71C3082.91 3072.15 3013.94 3092.04 2947.42 3111.36C2851.07 3139.41 2751.28 3168.02 2649.79 3272.49C2515.66 3356.4 2457.57 3461.48 2466.84 3603.45C2469.4 3642.02 2471.27 3681.16 2473.52 3722.34C2480.26 3855.42 2487.51 3993.22 2510.74 4108.5C2516.78 4138.55 2524.1 4167.82 2531.4 4196.37C2545.2 4250.94 2558.15 4302.29 2560.46 4352.17C2567.14 4509.42 2450.84 4594.61 2332.15 4609.05M2269.04 4648.74C2171.18 4641.26 2054.27 4582.93 1963.53 4496.54C1954.59 4487.99 1945.34 4478.17 1934.78 4465.92C1921.28 4450.25 1907.78 4432.98 1893.28 4415.01C1878.81 4396.61 1863.55 4377.3 1848.1 4359.38C1835.38 4344.61 1823.37 4332.03 1812.37 4321.33C1713.17 4225.58 1620.92 4200.2 1522.99 4173.01C1484.35 4162.39 1444.36 4151.34 1403.97 4135.5C1301.45 4095.23 1206.41 4035.12 1121.13 3956.67C1102.83 3939.99 1087.21 3922.97 1072.35 3906.89C1055.59 3889.28 1039.97 3872.28 1022.66 3857.89C946.64 3793.62 870.925 3818.92 797.399 3843.1C751.16 3858.8 707.019 3873.08 666.207 3863.56C636.507 3856.7 608.891 3838.57 583.848 3809.5C539.833 3758.41 503.402 3675.05 473.195 3554.66L466.569 3528.71C425.86 3368.74 374.916 3169.28 402.52 3049.35C412.983 3003.54 441.421 2940.26 516.485 2898.92C568.301 2870.07 620.096 2861.05 670.181 2852.32C714.242 2844.82 755.746 2837.55 790.649 2817.36C810.995 2805.38 841.85 2779.56 857.86 2757.09C909.375 2684.57 908.387 2591.67 907.347 2501.93C906.756 2452.18 906.18 2400.86 915.075 2354.82C923.912 2308.03 941.486 2264.77 958.349 2222.96C975.472 2180.09 993.546 2136.04 1001.32 2089.38C1021.91 1969.53 996.357 1880.77 968.663 1810.06C958.033 1782.44 945.082 1756 932.687 1730.66C881.431 1626.44 837.422 1536.57 984.769 1427.39C1077.46 1359.02 1167.41 1315.14 1244.48 1300.54C1262.09 1297.24 1284.54 1295.69 1310.24 1293.35C1407.17 1285.38 1540.04 1274.17 1573.08 1171.72C1592.97 1109.02 1565.75 1042.29 1545.64 993.132C1540.77 981.118 1536.07 969.734 1532.76 959.954C1516.54 912.575 1498.9 858.133 1492.84 809.139C1480.6 710.484 1512.7 648.026 1546.43 581.755C1564.89 545.679 1583.95 508.254 1597.32 463.101C1619.31 387.966 1581.48 284.05 1495.97 184.806C1398.16 71.2767 1265.82 -5.40183 1166.04 -6.47526C1076.26 -7.0787 992.441 26.3775 903.418 61.5571C869.612 75.2566 834.631 89.1905 797.917 101.823L780.99 107.705C703.919 134.167 624.13 161.353 570.437 192.586C408.582 285.385 383.71 416.015 361.326 531.049C360.188 538.397 358.628 545.256 357.394 552.268C351.548 582.221 343.888 612.576 336.071 645.031C306.209 768.501 275.513 896.249 328.318 991.991C358.901 1047.57 401.709 1109.58 443.071 1169.68C510.879 1267.98 580.643 1369.29 599.467 1444.07C606.146 1470.76 598.742 1498.91 578.773 1523.64C548.464 1560.83 494.204 1583.85 443.734 1581.43C384.45 1578.3 321.052 1543.51 259.714 1509.74C194.887 1474.2 133.814 1440.96 81.8076 1447C22.28 1454.38 -86.318 1536.86 -162.61 1614.88C-252.358 1706.49 -309.525 1813.13 -327.133 1923.63C-331.128 1948.43 -333.064 1974.25 -335.243 1999.1C-337.492 2025.96 -339.593 2051.1 -343.777 2074.08C-361.345 2170.75 -417.742 2320.23 -510.903 2519.23C-562.907 2629.32 -656.871 2777.19 -740.699 2840.3C-823.346 2902.05 -890.555 2907.33 -961.893 2912.6C-997.239 2915.39 -1034.09 2918.26 -1074.16 2927.87C-1136.06 2943.2 -1254.3 3003.56 -1309 3100.94C-1343.5 3163.12 -1337.92 3236.23 -1292.84 3307.03C-1278.93 3328.72 -1263.49 3349.38 -1246.63 3368.88C-1217.28 3402.94 -1186.55 3431.08 -1159.51 3455.62C-1137.22 3476.01 -1115.83 3495.59 -1099.03 3515.1C-1064.79 3554.84 -1054.49 3590.29 -1064.46 3633.68C-1097.04 3772.99 -1265.17 3915.07 -1425 3882.67C-1445.76 3879.56 -1467.17 3877.07 -1488.07 3874.5C-1592.45 3861.98 -1700.38 3848.95 -1769.84 3768.33C-1780.56 3755.76 -1790.03 3742.18 -1798.1 3727.77C-1805.82 3714.24 -1817.89 3683.12 -1826.84 3658.37C-1863.65 3555.16 -1878.71 3448.25 -1894.5 3335.23C-1898.83 3302.59 -1903.75 3268.81 -1909.25 3234.36L-1911.87 3217.62C-1922.18 3151.35 -1933.09 3082.79 -1933.61 3030.61C-1934.61 2964.2 -1924.2 2897.1 -1914.2 2832.27C-1903.96 2767.25 -1893.45 2700.05 -1894.19 2633.02C-1895.68 2497.8 -1928.03 2291.4 -2014.64 2154.37C-2028.43 2132.58 -2043.77 2111.81 -2060.53 2092.21C-2121.96 2020.91 -2191.36 1981.01 -2252.92 1945.8C-2302.04 1917.32 -2348.35 1890.72 -2381.2 1852.58C-2396.35 1835.04 -2408.39 1815.04 -2416.82 1793.45C-2437.42 1740.79 -2432.18 1702.6 -2416.72 1658.03C-2397.15 1601.99 -2372.89 1545.06 -2346.67 1484.91C-2304.61 1388.12 -2261.18 1288.18 -2236.52 1182.64C-2224.84 1133 -2212.69 1050.12 -2212.68 1003.81C-2214.38 746.51 -2131.75 527.297 -1985.53 402.88C-1903.33 319.402 -1837.3 311.158 -1767.83 302.347C-1740.9 298.916 -1713.01 295.468 -1683.74 287.673C-1630.28 272.834 -1582.47 249.828 -1536.09 227.684C-1484.65 202.727 -1435.85 179.273 -1385.23 170.493C-1303.64 156.347 -1215.6 164.757 -1130.77 172.401C-995.571 184.88 -855.555 197.965 -734.051 123.333C-698.735 101.605 -653.44 60.5942 -627.408 31.0266C-600.003 0.312803 -579.096 -31.5534 -558.694 -62.179C-523.772 -115.655 -487.447 -170.699 -416.478 -223.151C-324.478 -290.956 -235.063 -341.88 -140.352 -395.786C-106.216 -415.718 -70.3511 -435.929 -33.6443 -457.669C205.465 -598.851 404.612 -679.826 658.098 -647.819C715.296 -640.501 770.724 -624.57 829.565 -607.615C885.719 -591.496 943.827 -574.71 1008 -564.341C1028.11 -561.081 1067.57 -555.899 1103.67 -557.354C1202.89 -561.331 1298.83 -621.075 1399.86 -684.764C1499.54 -747.727 1602.65 -812.426 1711.27 -820.979C1770.81 -825.572 1813.36 -810.416 1845.05 -773.627C1875.76 -737.982 1893.98 -686.005 1914.94 -626.114C1941.48 -549.67 1971.56 -463.19 2036.31 -388.038C2050.4 -371.709 2065.67 -356.429 2081.99 -342.319C2110.03 -318.22 2185.3 -261.199 2273.75 -257.117C2343.94 -253.905 2399.22 -278.969 2457.87 -305.36C2512.9 -330.252 2570.22 -355.907 2643.21 -359.04C2671.72 -357.884 2698.4 -356.361 2724.04 -355.117C2829.68 -349.596 2913.01 -345.029 2994.43 -371.683C3030.23 -383.526 3068.13 -405.487 3104.5 -426.935C3187.99 -475.146 3266.98 -521.057 3323.91 -454.988C3334.08 -443.18 3343.19 -428.049 3351.6 -409.609C3377.03 -353.166 3394.28 -265.15 3412.55 -172.068C3415.68 -156.566 3418.7 -140.975 3421.83 -125.479C3425.61 -105.769 3429.97 -86.5874 3434.19 -68.4587C3442.24 -32.6477 3449.06 -2.14586 3450.3 20.5214C3458.95 221.996 3342.72 265.989 3149.89 338.355L3121.49 348.97C3069.23 369.088 3020.23 392.307 2977.16 412.82C2934.3 433.131 2893.95 452.469 2858.28 464.238C2815.74 478.744 2788.84 484.495 2752.88 477.888C2699.88 468.173 2643.45 443.98 2583.53 418.47C2487.94 377.798 2379.68 331.781 2265.44 338.826C2194.39 343.071 2043.55 397.085 2029.98 535.809C2019.73 641.2 2107.23 774.706 2145.62 827.478C2163.08 851.619 2180.57 873.743 2197.4 893.281C2265.28 972.065 2326.59 1013.8 2397.2 1029.32C2436.82 1037.92 2478.09 1036.76 2517.7 1035.49C2595.94 1032.98 2670.23 1030.67 2730.87 1101.06C2739.48 1111.15 2747.25 1121.93 2754.1 1133.28C2802.23 1210.12 2812.97 1303.37 2824.26 1402.03C2828.91 1442.34 2833.69 1483.72 2841.29 1524.26C2848.3 1561.37 2869.85 1634.98 2937.95 1714.02C2950.07 1728.09 2963.14 1741.75 2977.15 1755C3046.27 1819.7 3128.73 1870.89 3253.18 1925.88C3424.79 1971.51 3521.7 1840.52 3615.01 1713.79C3691.08 1610.64 3762.96 1513.13 3871.92 1504.28C3924.54 1500.1 3992.39 1533.41 4037.38 1585.63C4043.44 1592.59 4049.04 1599.93 4054.14 1607.62C4122.66 1707.24 4179.5 1846.22 4234.32 1980.59C4285.31 2104.8 4333.19 2222.22 4389.8 2312.32C4411.98 2347.43 4437.03 2379.25 4461.32 2410.18C4504.45 2464.79 4541.36 2511.74 4545.56 2556.78L4545.89 2558.08C4546.44 2581.76 4547.34 2606.31 4551.39 2629.72C4524.38 2803.73 4366.05 2937.82 4198.1 2928.61C4121.08 2924.56 4048.44 2888.62 3972.13 2850.7C3895.4 2812.76 3815.82 2773.33 3729.66 2768.02C3594.16 2759.75 3506.64 2824.51 3405.12 2899.73C3375.15 2921.98 3343.85 2944.98 3309.84 2967.57L3309.29 2968.04L3308.82 2968.44C3225.18 3081.29 3089.09 3127.32 2957.37 3171.59C2855.06 3205.94 2749.37 3241.63 2669.21 3308.32C2583.97 3379.83 2537.21 3459.27 2526.49 3552.01C2528.97 3612.39 2528.57 3674.45 2528.42 3734.75C2527.79 3847.65 2527.4 3954.44 2543.04 4048.57C2552.59 4104.84 2567.87 4158.17 2583.11 4210.31C2602.97 4279.46 2621.84 4344.72 2623.98 4406.98C2625.41 4456.79 2603.53 4504.9 2560.72 4545.76C2481.62 4621.43 2351.39 4655.33 2269.04 4648.74M2732.75 4420.78C2729.96 4372.14 2705.42 4321.29 2682.1 4272.56C2669.83 4247.12 2657.39 4221.06 2647.87 4195.63C2583.86 4022.09 2569.99 3797.45 2608.27 3546.87C2618.54 3480.3 2643.25 3408.36 2752.15 3331.89C2819.45 3285 2899.14 3266.16 2976.5 3247.79C3048.66 3230.7 3116.74 3214.36 3175.74 3176.97C3222.42 3147.41 3263.12 3108.4 3302.13 3070.4C3334.5 3039.75 3367.71 3007.57 3403.67 2981.32C3478.48 2927.14 3629.09 2843.67 3798.12 2893.84C3850.39 2909.32 3902.26 2931.88 3952.28 2953.67C4044.91 2994.1 4140.76 3035.76 4247.22 3036.58C4303.55 3036.7 4383.84 3011.02 4437.74 2975.27C4567.55 2889.54 4694.68 2736.83 4686.64 2589.46C4681.85 2506.56 4657.85 2427.13 4554.36 2307.02C4541.06 2291.58 4526.44 2275.3 4510.99 2258.96C4498.98 2246.39 4466.95 2212.64 4438.19 2179.25C4417.46 2155.19 4402.01 2135.67 4392.87 2121.4C4348.28 2052.99 4310.32 1974.94 4273.34 1899.16C4264.3 1880.46 4255.13 1861.86 4246.05 1843.56C4231.89 1815.01 4218.33 1785.57 4204.87 1757.18C4172.74 1688.37 4142.4 1623.52 4107.06 1572.47C4098.21 1559.91 4089.09 1547.96 4079.72 1537.08C3975.05 1415.6 3833.2 1400.17 3718.36 1497.55C3662.34 1545.02 3623.43 1602.29 3585.47 1657.94C3527.78 1742.49 3473.27 1822.27 3368.21 1852.28C3258.62 1883.43 3089.06 1792.95 2999.66 1689.19C2988.9 1676.76 2978.97 1663.64 2969.94 1649.9C2920.63 1573.73 2908.93 1477.78 2896.15 1376.02C2888.78 1317.5 2881.14 1256.84 2866.27 1198.03C2834.59 1074.58 2801.01 954.384 2740.56 841.101L2739.63 839.109L2737.12 838.927C2692.9 838.258 2659.18 856.619 2626.68 874.341C2608.87 883.761 2591.79 892.935 2573.55 899.178C2475.47 932.244 2330.39 920.374 2216.93 788.681C2214.97 786.403 2213.2 784.353 2211.37 782.007C2160.19 720.086 2117.78 621.325 2138.58 540.078C2151.17 491.268 2184.71 456.039 2238.29 435.184C2350.9 391.542 2520.99 451.87 2614.05 532.719C2624.26 541.751 2633.83 551.484 2642.68 561.849C2655.78 577.054 2667.66 593.351 2679.22 609.08C2690.13 624.221 2701.79 640.27 2714.13 654.588C2729 671.844 2743.01 684.683 2758.15 694.962L2760.17 696.389L2762.48 695.197C2821.41 661.837 2858.54 620.734 2894.51 581.031C2923.25 549.133 2952.85 515.724 2994.08 486.919C3020.12 469.086 3047.34 453.034 3075.54 438.874C3139.89 405.182 3212.05 383.752 3281.42 362.741C3353.93 341.025 3422.31 320.461 3478.72 288.057C3610.75 212.682 3587.41 94.3256 3566.89 -10.2638C3559.68 -47.1515 3552.84 -82.0167 3552.26 -114.371C3551.63 -175.131 3564.2 -222.379 3579.01 -277.064C3585.24 -300.626 3591.84 -324.909 3597.68 -351.701L3598.07 -353.246L3597.34 -354.573C3581.92 -381.627 3565.63 -421.039 3548.39 -462.729C3516.52 -540.106 3480.47 -627.35 3433.52 -681.843C3388.32 -734.3 3340.7 -747.829 3287.99 -722.984C3247.41 -703.459 3212.05 -667.841 3180.69 -636.478C3172.6 -628.296 3164.61 -620.234 3157.21 -613.078C3044.06 -505.29 2987.15 -451.105 2878.34 -438.445C2820.47 -431.688 2768.68 -442.063 2718.59 -452.292C2674.64 -461.092 2633.18 -469.282 2588.52 -466.814C2531.19 -463.313 2481.4 -434.628 2433.35 -406.669C2369.62 -369.984 2303.99 -331.617 2220.3 -353.236C2168.71 -366.561 2127.6 -392.836 2090.42 -435.984C2079.36 -448.813 2069.19 -462.377 2059.96 -476.584C2028.29 -525.663 2010.82 -590.894 1994.09 -653.662C1974.22 -727.124 1954.02 -803.1 1910.39 -853.742C1872.25 -898.011 1820.19 -918.013 1751.1 -915.841C1710.85 -914.415 1656.51 -897.638 1635.15 -890.708C1545.7 -861.511 1462.78 -810.625 1382.79 -761.067C1264 -688.349 1151.91 -619.483 1037.05 -631.656C819.619 -684.86 589.624 -728.411 380.876 -686.181C255.719 -661.013 111.528 -588.574 -13.2752 -521.011C-83.1024 -482.956 -155.27 -448.076 -218.565 -417.271C-303.881 -376.204 -377.445 -340.891 -426.626 -307.621C-519.696 -245.209 -577.017 -168.911 -632.17 -94.888C-689.741 -17.9669 -744.257 54.7412 -831.245 92.4984C-905.523 124.474 -1015.53 133.008 -1133.62 115.268C-1165.98 110.331 -1198.24 103.695 -1229.53 97.0343C-1286.69 84.9988 -1345.64 72.4755 -1407.73 71.3695C-1427.92 70.9766 -1448.6 71.3822 -1468.64 71.632C-1548.95 72.4194 -1631.72 73.3218 -1696.29 38.754C-1739.11 15.5256 -1775.33 -14.192 -1810.16 -42.7546C-1846.45 -72.7823 -1884.08 -103.68 -1928.64 -126.203C-2037.06 -181.536 -2204.21 -211.948 -2333.55 -156.271C-2419.77 -118.765 -2478.11 -49.1287 -2506.94 50.9115C-2521.14 100.339 -2521.54 174.257 -2495.15 219.946C-2489.89 228.983 -2483.79 237.506 -2476.93 245.403C-2444.06 283.555 -2396.43 307.374 -2350.32 330.554C-2307.45 351.785 -2267.29 372.159 -2242.05 401.456C-2227.39 418.472 -2218.87 437.263 -2216.2 459.071C-2209.47 515.019 -2223.75 575.565 -2237.48 634.473C-2245.11 665.999 -2252.85 698.769 -2257.06 729.698C-2262.19 768.922 -2265.25 811.914 -2268.11 853.544C-2272.97 917.496 -2278 983.525 -2290.2 1041.92C-2312.6 1148.25 -2350.93 1207.81 -2385.52 1251.85C-2404.16 1275.85 -2429.11 1300.51 -2453.67 1324.02C-2487.67 1356.89 -2519.44 1388.24 -2536.85 1418.67C-2545.69 1434.19 -2552.15 1452.03 -2558.35 1469.24C-2572 1506.33 -2584.98 1541.26 -2619.67 1558.47C-2631.44 1551.2 -2639.01 1538.76 -2643.59 1518.15C-2596.4 1392.45 -2574.11 1290.55 -2713.41 1128.87C-2731.4 1107.99 -2752.88 1085.34 -2776.74 1061.99C-2814.54 1024.96 -2859.29 991.492 -2902.93 959.094C-2951.2 923.146 -2996.76 889.203 -3026.49 854.697C-3045.48 832.658 -3056.74 812.291 -3060.8 792.058C-3040.35 747.121 -2980.31 687.893 -2916.91 625.727C-2836.54 546.982 -2745.75 457.283 -2716.2 376.807C-2704.21 343.949 -2703.45 289.853 -2741.01 246.258C-2753.71 231.513 -2770.17 218.796 -2789.58 208.585C-2861.81 171.531 -3002.23 133.122 -3109.49 109.241C-3177.6 94.3134 -3262.82 85.0651 -3316.88 148.266L-3321.33 157.246C-3335.32 185.956 -3349.84 215.445 -3347.45 260.858C-3343.49 339.372 -3311.71 428.285 -3281.09 514.247C-3252.69 593.037 -3223.66 674.453 -3217.62 744.433C-3233.36 776.59 -3254.84 795.469 -3286.82 806.024C-3317.83 816.127 -3349.51 825.242 -3380 834.093C-3480.23 863.097 -3574.75 890.742 -3660.61 950.11C-3736.22 1002.22 -3801.43 1065.91 -3870.53 1133.35C-3892.16 1154.8 -3915.14 1176.95 -3938.17 1198.36C-3963.04 1222.2 -3988.7 1245.12 -4015.99 1269.8C-4053.3 1303.13 -4091.86 1337.58 -4130.26 1375.41C-4237.64 1533.21 -4219.91 1679.73 -4072.21 1851.16C-4054.2 1872.06 -4033.43 1894.11 -4011.05 1915.98C-3886.96 2038.11 -3648.41 2190.19 -3479.75 2223.27C-3249.35 2268.45 -3037.94 2141.25 -2932.04 2061.09C-2898.28 2030.01 -2867.02 1993.96 -2837.39 1958.53C-2783.02 1895.49 -2726.98 1829.77 -2651.56 1790.91C-2612.76 1796.24 -2599.77 1809.96 -2571.3 1840.04C-2562.43 1849.42 -2552.67 1859.6 -2540.21 1871.78C-2464.47 1945.77 -2382.15 1988.39 -2302.92 2029.69C-2269.71 2046.57 -2235.28 2064.39 -2202.39 2084.32C-2169.07 2104.28 -2137.84 2131.17 -2109.68 2163.86C-2004.43 2286.02 -1942.61 2493.08 -1955.77 2679.27C-1959.76 2738.09 -1973.94 2796.21 -1987.41 2852.9C-2005.92 2930.21 -2024.75 3010.12 -2019.13 3091.93C-2015.69 3138.82 -2006.26 3195.17 -1995.42 3255.47C-1990.56 3284.13 -1985.3 3313.99 -1980.53 3343.91C-1977.81 3360.98 -1975.26 3378.54 -1972.59 3396.01C-1952.3 3527.71 -1931.8 3663.53 -1887.36 3781.51C-1875.26 3813.81 -1860.17 3839.99 -1841.2 3862.01C-1786.43 3925.58 -1709.23 3938.98 -1627.63 3952.92C-1607.95 3956.14 -1587.64 3959.63 -1567.41 3963.95C-1531.32 3971.62 -1494.59 3982.31 -1459.21 3992.57C-1357.43 4021.95 -1252.13 4052.67 -1150.86 4013.69C-1108.73 3997.56 -1064.81 3960.48 -1039.72 3930.96C-976.027 3855.89 -918.87 3731.49 -870.177 3560.53L-869.897 3559.49L-870.14 3558.52C-872.947 3550.24 -874.069 3537.76 -875.12 3524.45C-876.5 3505.05 -878.422 3482.97 -886.039 3466.6C-890.672 3456.69 -896.685 3447.48 -903.901 3439.25C-931.086 3407.7 -975.617 3383.17 -1022.71 3357.25C-1070.78 3330.67 -1120.51 3303.06 -1151.92 3266.86C-1181.85 3232.12 -1190.9 3192.84 -1179.74 3147.61C-1166.6 3093.96 -1131.29 3057.17 -1068.44 3031.52C-1030.97 3016.61 -990.786 3011.68 -947.863 3006.74C-862.959 2996.46 -766.599 2984.63 -670.283 2885.83C-489.007 2698.75 -314.418 2336.26 -265.412 2042C-262.177 2024.54 -260.868 2006.44 -259.65 1989.14C-257.843 1968.22 -256.074 1946.52 -251.44 1925.89C-213.865 1750.69 -65.2687 1594.16 72.5 1583.85C92.2995 1582.22 122.299 1586.44 135.18 1588.38C137.19 1588.79 139.233 1589.03 141.285 1589.08C206.466 1605.67 254.827 1643.52 297.587 1676.72C320.754 1694.71 342.535 1711.55 364.953 1723.88C399.632 1742.69 441.318 1762.55 498.728 1757.77C531.614 1755.55 562.989 1743.14 593.461 1731.51C624.7 1719.63 656.953 1706.87 690.355 1705.02C746.18 1701.6 797.045 1724.61 837.35 1771.39C899.37 1843.38 929.604 1966.08 910.736 2068.96C897.1 2114.74 877.772 2154.36 858.86 2192.42C832.756 2244.97 808.159 2294.65 799.873 2355.99C794.406 2395.51 796.781 2438.19 798.962 2479.06C802.901 2560.29 807.057 2637.44 757.392 2698.44C718.369 2746.69 659.121 2763.71 596.429 2781.76C554.286 2793.53 511.026 2806.29 473.602 2829.03C328.894 2917.75 330.724 3031.67 332.422 3141.79C332.713 3162.89 332.885 3184.54 332.411 3205.89L332.428 3207.05C353.858 3283.94 368.575 3370.16 383.822 3461.1C413.471 3638.11 444.569 3821.37 530.668 3950.96C590.5 4041.4 651.399 4083.1 717.401 4079.63C754.825 4077.43 787.875 4062.4 822.594 4046.34C876.45 4021.69 932.37 3996.48 1007.85 4022.02C1055.19 4038.18 1111.07 4069.96 1175.28 4106.39C1261.9 4155.59 1359.81 4211.27 1463.64 4243.26C1479.18 4248.06 1493.71 4252.15 1508.33 4256.56C1607.83 4285.55 1693.63 4310.55 1805.71 4422.85C1985.74 4602.83 2130.07 4727.68 2350.57 4697.49C2515.62 4674.37 2740.97 4558.09 2732.75 4420.78M1226.69 305.976C1212.46 289.451 1193.22 275.617 1169.89 265.322C1019.48 199.413 807.295 371.047 736.925 427.715C637.722 531.995 645.65 688.705 715.646 769.945C738.792 796.811 768.555 815.501 801.754 823.706C901.603 848.844 1059.56 789.091 1139.81 696.357C1213.68 610.702 1314.87 408.316 1226.69 305.976Z" stroke="#121212" stroke-miterlimit="10"/>
</g>
</g>
</svg>
