<svg width="1440" height="1700" viewBox="0 0 1440 1700" fill="none" xmlns="http://www.w3.org/2000/svg">
<mask id="mask0_44_14434" style="mask-type:alpha" maskUnits="userSpaceOnUse" x="0" y="0" width="1440" height="1700">
<rect width="1440" height="1700" fill="#FFF9EB"/>
</mask>
<g mask="url(#mask0_44_14434)">
<path d="M0.5 12.2671H1440" stroke="#121212" stroke-opacity="0.1"/>
<path d="M0.5 64.4426H1440" stroke="#121212" stroke-opacity="0.1"/>
<path d="M0.5 116.618H1440" stroke="#121212" stroke-opacity="0.1"/>
<path d="M0.5 168.794H1440" stroke="#121212" stroke-opacity="0.1"/>
<path d="M0.5 220.969H1440" stroke="#121212" stroke-opacity="0.1"/>
<path d="M0.5 273.145H1440" stroke="#121212" stroke-opacity="0.1"/>
<path d="M0.5 325.32H1440" stroke="#121212" stroke-opacity="0.1"/>
<path d="M0.5 377.496H1440" stroke="#121212" stroke-opacity="0.1"/>
<path d="M0.5 429.672H1440" stroke="#121212" stroke-opacity="0.1"/>
<path d="M0.5 483.794H1440" stroke="#121212" stroke-opacity="0.1"/>
<path d="M51.8828 -249V483.405" stroke="#121212" stroke-opacity="0.1"/>
<path d="M0.5 -249V483.405" stroke="#121212" stroke-opacity="0.1"/>
<path d="M103.266 -249V483.405" stroke="#121212" stroke-opacity="0.1"/>
<path d="M154.648 -249V483.405" stroke="#121212" stroke-opacity="0.1"/>
<path d="M206.031 -249V483.405" stroke="#121212" stroke-opacity="0.1"/>
<path d="M257.414 -249V483.405" stroke="#121212" stroke-opacity="0.1"/>
<path d="M308.797 -249V483.405" stroke="#121212" stroke-opacity="0.1"/>
<path d="M360.181 -249V483.405" stroke="#121212" stroke-opacity="0.1"/>
<path d="M411.563 -249V483.405" stroke="#121212" stroke-opacity="0.1"/>
<path d="M462.946 -249V483.405" stroke="#121212" stroke-opacity="0.1"/>
<path d="M514.329 -249V483.405" stroke="#121212" stroke-opacity="0.1"/>
<path d="M565.712 -249V483.405" stroke="#121212" stroke-opacity="0.1"/>
<path d="M617.095 -249V483.405" stroke="#121212" stroke-opacity="0.1"/>
<path d="M668.478 -249V483.405" stroke="#121212" stroke-opacity="0.1"/>
<path d="M719.86 -249V483.405" stroke="#121212" stroke-opacity="0.1"/>
<path d="M771.243 -249V483.405" stroke="#121212" stroke-opacity="0.1"/>
<path d="M822.627 -249V483.405" stroke="#121212" stroke-opacity="0.1"/>
<path d="M874.01 -249V483.405" stroke="#121212" stroke-opacity="0.1"/>
<path d="M925.393 -249V483.405" stroke="#121212" stroke-opacity="0.1"/>
<path d="M976.775 -249V483.405" stroke="#121212" stroke-opacity="0.1"/>
<path d="M1028.16 -249V483.405" stroke="#121212" stroke-opacity="0.1"/>
<path d="M1079.54 -249V483.405" stroke="#121212" stroke-opacity="0.1"/>
<path d="M1130.92 -249V483.405" stroke="#121212" stroke-opacity="0.1"/>
<path d="M1182.31 -249V483.405" stroke="#121212" stroke-opacity="0.1"/>
<path d="M1233.69 -249V483.405" stroke="#121212" stroke-opacity="0.1"/>
<path d="M1285.07 -249V483.405" stroke="#121212" stroke-opacity="0.1"/>
<path d="M1336.46 -249V483.405" stroke="#121212" stroke-opacity="0.1"/>
<path d="M1387.84 -249V483.405" stroke="#121212" stroke-opacity="0.1"/>
<path d="M1439.22 -249V483.405" stroke="#121212" stroke-opacity="0.1"/>
<path d="M0.5 484.389H1440" stroke="#121212" stroke-opacity="0.1"/>
<path d="M0.5 536.565H1440" stroke="#121212" stroke-opacity="0.1"/>
<path d="M0.5 588.74H1440" stroke="#121212" stroke-opacity="0.1"/>
<path d="M0.5 640.916H1440" stroke="#121212" stroke-opacity="0.1"/>
<path d="M0.5 693.092H1440" stroke="#121212" stroke-opacity="0.1"/>
<path d="M0.5 745.267H1440" stroke="#121212" stroke-opacity="0.1"/>
<path d="M0.5 797.443H1440" stroke="#121212" stroke-opacity="0.1"/>
<path d="M0.5 849.618H1440" stroke="#121212" stroke-opacity="0.1"/>
<path d="M0.5 901.794H1440" stroke="#121212" stroke-opacity="0.1"/>
<path d="M0.5 953.969H1440" stroke="#121212" stroke-opacity="0.1"/>
<path d="M0.5 1006.14H1440" stroke="#121212" stroke-opacity="0.1"/>
<path d="M0.5 1058.32H1440" stroke="#121212" stroke-opacity="0.1"/>
<path d="M0.5 1110.5H1440" stroke="#121212" stroke-opacity="0.1"/>
<path d="M0.5 1162.67H1440" stroke="#121212" stroke-opacity="0.1"/>
<path d="M0.5 1216.79H1440" stroke="#121212" stroke-opacity="0.1"/>
<path d="M51.8828 484V1216.4" stroke="#121212" stroke-opacity="0.1"/>
<path d="M0.5 484V1216.4" stroke="#121212" stroke-opacity="0.1"/>
<path d="M103.266 484V1216.4" stroke="#121212" stroke-opacity="0.1"/>
<path d="M154.648 484V1216.4" stroke="#121212" stroke-opacity="0.1"/>
<path d="M206.031 484V1216.4" stroke="#121212" stroke-opacity="0.1"/>
<path d="M257.414 484V1216.4" stroke="#121212" stroke-opacity="0.1"/>
<path d="M308.797 484V1216.4" stroke="#121212" stroke-opacity="0.1"/>
<path d="M360.181 484V1216.4" stroke="#121212" stroke-opacity="0.1"/>
<path d="M411.563 484V1216.4" stroke="#121212" stroke-opacity="0.1"/>
<path d="M462.946 484V1216.4" stroke="#121212" stroke-opacity="0.1"/>
<path d="M514.329 484V1216.4" stroke="#121212" stroke-opacity="0.1"/>
<path d="M565.712 484V1216.4" stroke="#121212" stroke-opacity="0.1"/>
<path d="M617.095 484V1216.4" stroke="#121212" stroke-opacity="0.1"/>
<path d="M668.478 484V1216.4" stroke="#121212" stroke-opacity="0.1"/>
<path d="M719.86 484V1216.4" stroke="#121212" stroke-opacity="0.1"/>
<path d="M771.243 484V1216.4" stroke="#121212" stroke-opacity="0.1"/>
<path d="M822.627 484V1216.4" stroke="#121212" stroke-opacity="0.1"/>
<path d="M874.01 484V1216.4" stroke="#121212" stroke-opacity="0.1"/>
<path d="M925.393 484V1216.4" stroke="#121212" stroke-opacity="0.1"/>
<path d="M976.775 484V1216.4" stroke="#121212" stroke-opacity="0.1"/>
<path d="M1028.16 484V1216.4" stroke="#121212" stroke-opacity="0.1"/>
<path d="M1079.54 484V1216.4" stroke="#121212" stroke-opacity="0.1"/>
<path d="M1130.92 484V1216.4" stroke="#121212" stroke-opacity="0.1"/>
<path d="M1182.31 484V1216.4" stroke="#121212" stroke-opacity="0.1"/>
<path d="M1233.69 484V1216.4" stroke="#121212" stroke-opacity="0.1"/>
<path d="M1285.07 484V1216.4" stroke="#121212" stroke-opacity="0.1"/>
<path d="M1336.46 484V1216.4" stroke="#121212" stroke-opacity="0.1"/>
<path d="M1387.84 484V1216.4" stroke="#121212" stroke-opacity="0.1"/>
<path d="M1439.22 484V1216.4" stroke="#121212" stroke-opacity="0.1"/>
<path d="M0.5 1216.39H1440" stroke="#121212" stroke-opacity="0.1"/>
<path d="M0.5 1268.56H1440" stroke="#121212" stroke-opacity="0.1"/>
<path d="M0.5 1320.74H1440" stroke="#121212" stroke-opacity="0.1"/>
<path d="M0.5 1372.92H1440" stroke="#121212" stroke-opacity="0.1"/>
<path d="M0.5 1425.09H1440" stroke="#121212" stroke-opacity="0.1"/>
<path d="M0.5 1477.27H1440" stroke="#121212" stroke-opacity="0.1"/>
<path d="M0.5 1529.44H1440" stroke="#121212" stroke-opacity="0.1"/>
<path d="M0.5 1581.62H1440" stroke="#121212" stroke-opacity="0.1"/>
<path d="M0.5 1633.79H1440" stroke="#121212" stroke-opacity="0.1"/>
<path d="M0.5 1685.97H1440" stroke="#121212" stroke-opacity="0.1"/>
<path d="M51.8828 1216V1948.4" stroke="#121212" stroke-opacity="0.1"/>
<path d="M0.5 1216V1948.4" stroke="#121212" stroke-opacity="0.1"/>
<path d="M103.266 1216V1948.4" stroke="#121212" stroke-opacity="0.1"/>
<path d="M154.648 1216V1948.4" stroke="#121212" stroke-opacity="0.1"/>
<path d="M206.031 1216V1948.4" stroke="#121212" stroke-opacity="0.1"/>
<path d="M257.414 1216V1948.4" stroke="#121212" stroke-opacity="0.1"/>
<path d="M308.797 1216V1948.4" stroke="#121212" stroke-opacity="0.1"/>
<path d="M360.181 1216V1948.4" stroke="#121212" stroke-opacity="0.1"/>
<path d="M411.563 1216V1948.4" stroke="#121212" stroke-opacity="0.1"/>
<path d="M462.946 1216V1948.4" stroke="#121212" stroke-opacity="0.1"/>
<path d="M514.329 1216V1948.4" stroke="#121212" stroke-opacity="0.1"/>
<path d="M565.712 1216V1948.4" stroke="#121212" stroke-opacity="0.1"/>
<path d="M617.095 1216V1948.4" stroke="#121212" stroke-opacity="0.1"/>
<path d="M668.478 1216V1948.4" stroke="#121212" stroke-opacity="0.1"/>
<path d="M719.86 1216V1948.4" stroke="#121212" stroke-opacity="0.1"/>
<path d="M771.243 1216V1948.4" stroke="#121212" stroke-opacity="0.1"/>
<path d="M822.627 1216V1948.4" stroke="#121212" stroke-opacity="0.1"/>
<path d="M874.01 1216V1948.4" stroke="#121212" stroke-opacity="0.1"/>
<path d="M925.393 1216V1948.4" stroke="#121212" stroke-opacity="0.1"/>
<path d="M976.775 1216V1948.4" stroke="#121212" stroke-opacity="0.1"/>
<path d="M1028.16 1216V1948.4" stroke="#121212" stroke-opacity="0.1"/>
<path d="M1079.54 1216V1948.4" stroke="#121212" stroke-opacity="0.1"/>
<path d="M1130.92 1216V1948.4" stroke="#121212" stroke-opacity="0.1"/>
<path d="M1182.31 1216V1948.4" stroke="#121212" stroke-opacity="0.1"/>
<path d="M1233.69 1216V1948.4" stroke="#121212" stroke-opacity="0.1"/>
<path d="M1285.07 1216V1948.4" stroke="#121212" stroke-opacity="0.1"/>
<path d="M1336.46 1216V1948.4" stroke="#121212" stroke-opacity="0.1"/>
<path d="M1387.84 1216V1948.4" stroke="#121212" stroke-opacity="0.1"/>
<path d="M1439.22 1216V1948.4" stroke="#121212" stroke-opacity="0.1"/>
</g>
</svg>
